<svg width="58" height="76" viewBox="0 0 58 76" fill="none" xmlns="http://www.w3.org/2000/svg">
<path d="M39.3574 14.4993L38.9921 17.602C38.178 17.3153 37.3487 17.0738 36.5078 16.8785L36.8244 14.1934L39.3574 14.4993Z" fill="#F7C8D7"/>
<path d="M48.4177 12.9302L39.2405 11.8523L28.3584 10.5753C29.0657 8.76915 30.2649 7.1958 31.8209 6.03249C33.3769 4.86918 35.2279 4.16214 37.1654 3.99102C38.589 3.87028 40.0225 4.03877 41.3789 4.48629C42.3889 4.82374 43.3403 5.31514 44.1993 5.94299C45.3376 6.7651 46.2979 7.80761 47.0227 9.00818C47.7475 10.2087 48.2219 11.5427 48.4177 12.9302Z" fill="#F7C8D7"/>
<path d="M10.8027 21.9378L12.6391 24.4676C13.2135 23.8149 13.8251 23.1956 14.4707 22.6128L12.873 20.4277L10.8027 21.9378Z" fill="#F7C8D7"/>
<path d="M2.12685 24.9922L9.60402 19.5782L18.4841 13.1542C16.7007 11.6901 14.4797 10.8583 12.1703 10.7898C9.86097 10.7212 7.59425 11.4197 5.7266 12.7754C5.14089 13.1905 4.60193 13.6675 4.11913 14.1981C2.8115 15.6338 1.93212 17.4051 1.58012 19.3122C1.22811 21.2194 1.41747 23.1866 2.12685 24.9922Z" fill="#F7C8D7"/>
<path d="M55.3926 65.0366C55.0325 65.3927 54.5505 65.5997 54.0435 65.6159C53.5365 65.6321 53.0422 65.4564 52.6599 65.124L51.5542 64.1529L46.2495 59.5886C47.5907 58.4515 48.837 57.2076 49.9759 55.8691L51.335 57.4618L55.49 62.3174C55.8208 62.6994 55.9945 63.1918 55.9765 63.6961C55.9584 64.2003 55.7499 64.6791 55.3926 65.0366Z" fill="#F7C8D7"/>
<path d="M21.631 73.8409C22.1207 73.9799 22.6451 73.9278 23.0976 73.6951C23.55 73.4623 23.8965 73.0665 24.0666 72.5881L24.5537 71.2043L26.9113 64.6346C25.1832 64.2975 23.4856 63.8201 21.8356 63.207L21.4362 65.261L20.1989 71.5296C20.102 72.0238 20.1956 72.5363 20.4611 72.9647C20.7265 73.3931 21.1443 73.706 21.631 73.8409Z" fill="#F7C8D7"/>
<g opacity="0.5">
<path opacity="0.5" d="M32.6541 8.22546C32.1208 8.67878 31.6315 9.18112 31.1927 9.72585C31.1499 9.7723 31.092 9.80215 31.0292 9.81009C30.9664 9.81803 30.9028 9.80356 30.8497 9.76924C30.7966 9.73492 30.7574 9.68296 30.739 9.62258C30.7207 9.5622 30.7244 9.49729 30.7495 9.43936C32.2108 6.52598 35.5573 5.16155 38.3923 5.38491C38.454 5.39342 38.5106 5.42393 38.5515 5.47078C38.5925 5.51764 38.615 5.57768 38.615 5.63983C38.615 5.70197 38.5925 5.76202 38.5515 5.80887C38.5106 5.85573 38.454 5.88623 38.3923 5.89475C37.91 6.05013 35.1773 6.21522 32.6541 8.22546Z" fill="white"/>
<path opacity="0.5" d="M13.5543 13.1725C14.2404 13.3093 14.9122 13.5092 15.5612 13.7698C15.6258 13.8013 15.7004 13.806 15.7684 13.7828C15.8365 13.7595 15.8925 13.7103 15.9241 13.6459C15.9558 13.5816 15.9605 13.5073 15.9372 13.4394C15.9139 13.3716 15.8645 13.3157 15.7999 13.2842C13.1111 11.4342 9.51131 11.9003 7.14882 13.4784C7.09447 13.5127 7.05493 13.5661 7.03796 13.6279C7.02098 13.6898 7.02779 13.7557 7.05705 13.8129C7.08631 13.87 7.13591 13.9141 7.19614 13.9367C7.25636 13.9593 7.32287 13.9586 7.38263 13.9349C7.91358 13.8669 10.3784 12.6772 13.5543 13.1725Z" fill="white"/>
</g>
<g opacity="0.5">
<path opacity="0.5" d="M48.4174 12.9315L39.2354 11.8536C41.3053 10.264 43.0012 8.24203 44.2039 5.92969C45.3425 6.7543 46.3026 7.79943 47.0266 9.00252C47.7506 10.2056 48.2236 11.5419 48.4174 12.9315Z" fill="#F0879E"/>
<path opacity="0.5" d="M2.13198 24.9924L9.60915 19.5735C7.02397 19.1981 4.55299 18.2616 2.37066 16.8301C1.78161 18.1045 1.45683 19.4844 1.41582 20.887C1.3748 22.2896 1.61839 23.6859 2.13198 24.9924Z" fill="#F0879E"/>
<path opacity="0.5" d="M51.3547 57.4637C50.8182 59.6765 50.8872 61.9922 51.5544 64.1694L46.2498 59.5905C47.591 58.4534 48.8372 57.2095 49.9762 55.8711L51.3547 57.4637Z" fill="#F0879E"/>
<path opacity="0.5" d="M21.4314 65.261C22.9836 66.9296 24.0599 68.9815 24.5489 71.2043L26.9065 64.6346C25.1784 64.2975 23.4808 63.8201 21.8308 63.207L21.4314 65.261Z" fill="#F0879E"/>
</g>
<path d="M41.5529 3.91843C41.5288 4.11669 41.4694 4.30907 41.3776 4.48654C40.0189 4.04164 38.5838 3.87645 37.1592 4.00098C37.111 3.80734 37.0995 3.60645 37.1251 3.40859C37.1708 3.06546 37.318 2.74369 37.5479 2.48426C37.7778 2.22484 38.08 2.03951 38.4159 1.9519C38.6274 1.89814 38.847 1.88333 39.0638 1.9082L40.038 2.01988C40.4884 2.07826 40.8984 2.30904 41.1811 2.66338C41.4639 3.01772 41.5972 3.46782 41.5529 3.91843Z" fill="#C8E8FB"/>
<path d="M48.4165 12.9312C48.4457 13.1448 48.47 13.3585 48.4846 13.577C48.4993 13.8232 48.4595 14.0697 48.368 14.299C48.2766 14.5282 48.1358 14.7347 47.9555 14.9037C47.7752 15.0728 47.5599 15.2003 47.3248 15.2773C47.0896 15.3543 46.8404 15.3788 46.5947 15.3493L39.3562 14.4995L36.8037 14.1985L35.3424 14.0285L29.5506 13.3487C29.3032 13.3202 29.0653 13.2375 28.8537 13.1065C28.6421 12.9756 28.4622 12.7997 28.3268 12.5914C28.1913 12.3831 28.1038 12.1476 28.0703 11.9016C28.0368 11.6556 28.0583 11.4053 28.1331 11.1686C28.2013 10.9695 28.2646 10.7753 28.3426 10.5762L39.2344 11.8581L48.4165 12.9312Z" fill="#C8E8FB"/>
<path d="M3.69017 13.7862C3.80794 13.9475 3.95299 14.0872 4.11883 14.1989C4.59705 13.6691 5.13107 13.1921 5.71168 12.7762C6.28693 12.358 6.90397 12 7.55297 11.708C7.47595 11.4383 7.33446 11.1913 7.14063 10.9881C6.94681 10.785 6.70643 10.6317 6.44013 10.5415C6.17382 10.4512 5.88953 10.4267 5.61164 10.4701C5.33375 10.5134 5.07055 10.6233 4.84462 10.7903L4.06525 11.3584C3.69283 11.631 3.44416 12.0398 3.37384 12.495C3.30352 12.9502 3.41729 13.4146 3.69017 13.7862Z" fill="#C8E8FB"/>
<path d="M2.12598 24.9923C2.20879 25.1914 2.29159 25.3905 2.38902 25.5896C2.49866 25.8096 2.65539 26.0031 2.84815 26.1562C3.04092 26.3093 3.26503 26.4184 3.50469 26.4758C3.74436 26.5332 3.99373 26.5375 4.23525 26.4884C4.47676 26.4394 4.70454 26.3381 4.90252 26.1917L10.8014 21.9187L12.8765 20.4135L14.0554 19.5589L18.7755 16.1599C18.9772 16.0143 19.1441 15.8261 19.2643 15.6087C19.3845 15.3913 19.4551 15.1501 19.4709 14.9024C19.4867 14.6546 19.4474 14.4065 19.3559 14.1756C19.2643 13.9448 19.1226 13.737 18.9411 13.567C18.7852 13.4262 18.6293 13.2854 18.454 13.1543L9.60802 19.5735L2.12598 24.9923Z" fill="#C8E8FB"/>
<path d="M54.9835 34.6607C55.9944 38.5036 56.0585 42.5332 55.1705 46.4061C54.2825 50.2791 52.4687 53.8808 49.8834 56.9044C49.0154 57.9201 48.0674 58.8651 47.0484 59.7304C43.703 62.5677 39.6596 64.465 35.3342 65.2271C31.0089 65.9893 26.5579 65.5886 22.4395 64.0665C21.9524 63.8868 21.4361 63.678 20.9441 63.4644C15.3288 60.9669 10.8464 56.4764 8.36902 50.8666C5.89163 45.2568 5.59643 38.9289 7.54087 33.1141C9.48531 27.2993 13.5303 22.4135 18.8889 19.4074C24.2474 16.4012 30.5362 15.4897 36.5317 16.8502H36.6096C37.4588 17.0441 38.2964 17.2856 39.1182 17.5737C42.9711 18.897 46.4358 21.1496 49.2039 24.1308C51.972 27.112 53.9574 30.7294 54.9835 34.6607Z" fill="#C8E8FB"/>
<path d="M51.2034 35.6468C52.4 40.1955 52.0147 45.0142 50.1104 49.3166C48.2061 53.619 44.8953 57.151 40.7181 59.3363C36.5409 61.5217 31.7441 62.2313 27.1102 61.3494C22.4764 60.4676 18.2792 58.0463 15.2035 54.4806C12.1278 50.915 10.3552 46.4155 10.1749 41.7164C9.99464 37.0173 11.4173 32.3961 14.2109 28.6067C17.0044 24.8173 21.0039 22.0835 25.5566 20.8515C30.1093 19.6194 34.9465 19.9618 39.2789 21.8228C42.1895 23.0726 44.7761 24.9671 46.8423 27.3624C48.9085 29.7578 50.4 32.5909 51.2034 35.6468Z" fill="white"/>
<g opacity="0.18">
<path opacity="0.18" d="M48.4168 12.9316C48.446 13.1453 48.4703 13.3589 48.4801 13.5774C48.4956 13.8233 48.4565 14.0696 48.3656 14.2986C48.2747 14.5277 48.1343 14.734 47.9542 14.9028C47.7742 15.0716 47.5591 15.1987 47.3241 15.2751C47.0892 15.3515 46.8402 15.3754 46.595 15.3449L41.5095 14.7525C41.4705 14.7525 41.3439 14.7282 41.3049 14.7525H41.378H41.2172H41.2513L40.7253 14.6894H40.7594L35.4011 14.0581C36.7847 13.5141 38.0863 12.7821 39.2688 11.8828L48.4168 12.9316Z" fill="#173A4F"/>
<path opacity="0.18" d="M2.13135 24.9937C2.20929 25.1928 2.29209 25.3919 2.38952 25.5861C2.49934 25.806 2.65605 25.9992 2.84867 26.1523C3.04129 26.3054 3.26515 26.4147 3.5046 26.4726C3.74404 26.5304 3.99327 26.5353 4.23483 26.487C4.47639 26.4388 4.70444 26.3384 4.90302 26.1931L9.04834 23.1923H9.02398L9.19447 23.0758H9.16525L9.29189 22.9786L9.26754 23.0029L9.6962 22.6873H9.67184L14.0559 19.5117C12.5821 19.7156 11.0871 19.7156 9.61339 19.5117L2.13135 24.9937Z" fill="#173A4F"/>
</g>
<path d="M26.225 20.4644C29.7774 19.608 33.4927 19.693 37.002 20.7111C40.5112 21.7291 43.6921 23.6448 46.2286 26.2677C48.7652 28.8906 50.5691 32.1294 51.4612 35.6624C52.3532 39.1954 52.3024 42.8996 51.3136 46.407L31.1488 40.7586L26.225 20.4644Z" fill="#FECD27"/>
<path d="M21.1925 37.8058C21.8939 36.5045 23.8424 35.9364 25.2063 36.3103C26.5702 36.6841 26.8674 38.1894 25.2063 39.1654C22.9753 40.5055 20.3206 39.4956 21.1925 37.8058Z" fill="#F0879E"/>
<path d="M38.0802 33.4078C36.8526 32.6017 34.8506 33.0727 33.8471 34.0584C32.8437 35.0441 33.3211 36.4863 35.2354 36.5591C37.8561 36.6271 39.673 34.4469 38.0802 33.4078Z" fill="#F0879E"/>
<path d="M29.4048 41.3901C29.3081 41.07 29.3088 40.7284 29.4068 40.4087C29.5048 40.089 29.6958 39.8054 29.9556 39.5939C30.2154 39.3824 30.5322 39.2525 30.8661 39.2206C31.2 39.1887 31.5358 39.2562 31.8312 39.4146C32.1265 39.5731 32.3681 39.8153 32.5253 40.1106C32.6825 40.4059 32.7483 40.7411 32.7144 41.0737C32.6804 41.4063 32.5482 41.7214 32.3346 41.9791C32.1209 42.2368 31.8353 42.4256 31.514 42.5215C31.0838 42.6485 30.6207 42.6008 30.2256 42.3889C29.8305 42.177 29.5355 41.818 29.4048 41.3901Z" fill="#173A4F"/>
<mask id="path-25-outside-1_491_28330" maskUnits="userSpaceOnUse" x="-0.0512695" y="-0.0429688" width="58" height="76" fill="black">
<rect fill="white" x="-0.0512695" y="-0.0429688" width="58" height="76"/>
<path d="M56.2157 61.7302L51.2569 55.9034C53.5851 52.7819 55.1552 49.1645 55.8436 45.3357C56.532 41.5069 56.32 37.5711 55.2242 33.8378C54.1285 30.1045 52.1789 26.6755 49.5287 23.8204C46.8785 20.9653 43.6 18.762 39.951 17.3837L40.2238 15.0627L46.5563 15.8056C46.6423 15.8104 46.7284 15.8104 46.8144 15.8056C47.1033 15.8026 47.3886 15.7418 47.6534 15.6268C47.9183 15.5118 48.1573 15.345 48.3563 15.1363C48.5552 14.9275 48.7101 14.6811 48.8118 14.4115C48.9134 14.142 48.9597 13.8548 48.948 13.5671C48.948 13.3389 48.909 13.1156 48.8749 12.8873C48.6703 11.4426 48.1769 10.0536 47.4238 8.80246C46.6708 7.55135 45.6734 6.46367 44.4909 5.60388C43.8466 5.13698 43.1523 4.74288 42.4207 4.42881C42.4509 4.31221 42.4737 4.19382 42.4889 4.07435C42.5365 3.72266 42.5131 3.36503 42.42 3.0225C42.3268 2.67998 42.1659 2.35948 41.9467 2.07986C41.7275 1.80025 41.4544 1.56718 41.1434 1.39436C40.8325 1.22154 40.49 1.11247 40.1361 1.07357L39.1619 0.957031C39.0547 0.957031 38.9524 0.957031 38.8453 0.957031C38.6168 0.957368 38.3892 0.986739 38.1682 1.04443C37.6485 1.17795 37.1815 1.46505 36.8285 1.86803C36.4756 2.27101 36.2531 2.771 36.1905 3.3023C36.1784 3.4234 36.1784 3.54539 36.1905 3.66648C34.3461 3.99442 32.6166 4.7878 31.167 5.97099C29.7174 7.15419 28.596 8.68776 27.9096 10.4255C27.8414 10.61 27.7781 10.7946 27.7148 10.9791V11.0422C27.6185 11.3435 27.5903 11.6624 27.6323 11.9759C27.6744 12.2894 27.7855 12.5897 27.9579 12.8552C28.1302 13.1208 28.3594 13.345 28.629 13.5117C28.8986 13.6785 29.2019 13.7836 29.5171 13.8196L35.8495 14.5625L35.6547 16.194C32.0058 15.5126 28.251 15.6433 24.6587 16.5767C21.0664 17.5101 17.7253 19.2232 14.8745 21.5935L13.9003 20.2631L19.0442 16.5339C19.3055 16.3475 19.5214 16.1049 19.6759 15.8241C19.8305 15.5433 19.9197 15.2314 19.937 14.9116C19.9543 14.5918 19.8992 14.2721 19.7759 13.9764C19.6525 13.6806 19.4641 13.4163 19.2244 13.203C19.0734 13.0621 18.9224 12.9262 18.7373 12.7999C17.293 11.6266 15.5723 10.84 13.738 10.5146C11.9036 10.1891 10.0163 10.3356 8.25463 10.9402C8.20065 10.8328 8.13707 10.7304 8.06466 10.6343C7.81624 10.2946 7.49089 10.0182 7.11507 9.82753C6.73925 9.63684 6.32358 9.53728 5.90188 9.53695C5.67371 9.53775 5.44644 9.56546 5.2248 9.61949C4.90477 9.7062 4.60288 9.84927 4.33338 10.0419L3.52965 10.61C2.95738 11.0259 2.57394 11.651 2.46344 12.3483C2.35295 13.0455 2.52442 13.758 2.94024 14.3295C3.01309 14.4273 3.09286 14.5198 3.17892 14.6062C2.69305 15.2354 2.28118 15.918 1.9514 16.6407C1.33644 17.9712 0.997046 19.4116 0.953524 20.8758C0.910001 22.3401 1.16325 23.798 1.6981 25.1624C1.78578 25.376 1.87346 25.58 1.97089 25.7888C2.10664 26.0715 2.30384 26.3207 2.54818 26.518C2.79251 26.7154 3.07786 26.8561 3.38351 26.9298C3.55542 26.9739 3.7321 26.9967 3.90959 26.9978C4.36519 26.9989 4.80911 26.8542 5.17608 26.5851L10.3249 22.856L11.7083 24.7351C9.19781 27.7156 7.41619 31.2367 6.50385 35.0207C5.59151 38.8048 5.57338 42.7483 6.45089 46.5405C7.32841 50.3327 9.07758 53.8699 11.5605 56.8733C14.0435 59.8766 17.1923 62.264 20.7588 63.8473L19.2975 71.3298C19.1425 72.0605 19.2749 72.8226 19.6674 73.4587C20.06 74.0949 20.6826 74.5565 21.4067 74.7482C21.6601 74.82 21.9225 74.856 22.186 74.855C22.7907 74.8553 23.3806 74.6687 23.8744 74.3208C24.3681 73.973 24.7415 73.481 24.9431 72.9128L27.4907 65.8138C30.8077 66.2791 34.1844 66.0839 37.4252 65.2396C40.666 64.3953 43.7067 62.9186 46.3712 60.895L52.0752 65.8429C52.6145 66.3123 53.3078 66.568 54.0237 66.5616C54.5854 66.566 55.1366 66.409 55.6111 66.1093C56.0857 65.8096 56.4635 65.3799 56.6994 64.8717C56.9353 64.3635 57.0193 63.7982 56.9413 63.2437C56.8633 62.6891 56.6266 62.1687 56.2595 61.7448L56.2157 61.7302ZM37.1306 3.39942C37.1764 3.05629 37.3236 2.73452 37.5535 2.47509C37.7834 2.21567 38.0855 2.03034 38.4215 1.94273C38.5667 1.90805 38.7154 1.89013 38.8648 1.88931C38.9329 1.88455 39.0012 1.88455 39.0693 1.88931L40.0436 2.00099C40.2723 2.02744 40.4936 2.09879 40.6946 2.21094C40.8955 2.32308 41.0722 2.47379 41.2144 2.65437C41.3566 2.83495 41.4615 3.04183 41.5231 3.26304C41.5847 3.48426 41.6017 3.71545 41.5731 3.94325C41.5731 3.98695 41.5731 4.03065 41.5731 4.07435C40.8644 3.83807 40.1331 3.67535 39.3908 3.58879C38.6522 3.49815 37.9061 3.48513 37.1647 3.54994C37.1468 3.50146 37.1354 3.45086 37.1306 3.39942ZM29.6194 12.8922C29.4361 12.8726 29.2595 12.8123 29.1027 12.7156C28.9459 12.619 28.8128 12.4885 28.7133 12.3338C28.6157 12.1848 28.5523 12.0161 28.5279 11.8398C28.5035 11.6634 28.5186 11.4839 28.5721 11.3141V11.2558C28.6305 11.0859 28.689 10.9159 28.7523 10.7703C29.3834 9.15958 30.423 7.73969 31.7695 6.64943C33.116 5.55917 34.7232 4.83586 36.4341 4.5502C36.6874 4.5065 36.9455 4.47737 37.2037 4.45309C37.8831 4.38992 38.5674 4.39969 39.2447 4.48223C39.9236 4.5623 40.5927 4.71033 41.2419 4.92409C41.4919 5.00502 41.7355 5.09727 41.9725 5.20086C43.5583 5.87059 44.9431 6.93812 45.9921 8.29955C47.0412 9.66099 47.7189 11.27 47.9591 12.9699C47.9884 13.1738 48.0079 13.3729 48.0225 13.5768C48.0362 13.7567 48.0091 13.9374 47.9434 14.1055C47.8776 14.2736 47.7748 14.4248 47.6425 14.548C47.5132 14.6689 47.3592 14.7605 47.191 14.8167C47.0229 14.8728 46.8446 14.8921 46.6683 14.8733L40.1994 14.1304L36.0639 13.6448L29.6194 12.8922ZM36.7507 14.6548L39.3032 14.9558L39.0547 17.068C38.2911 16.8051 37.5138 16.583 36.7263 16.4028L36.6289 16.3785H36.551L36.7507 14.6548ZM3.69039 13.7856C3.41852 13.4128 3.30634 12.9476 3.3785 12.4923C3.45067 12.037 3.70127 11.6289 4.07521 11.3578L4.84485 10.7897C5.21975 10.5212 5.68572 10.4109 6.14168 10.4827C6.59765 10.5545 7.00681 10.8027 7.28041 11.1733C7.30814 11.2082 7.3326 11.2456 7.35348 11.285C5.99271 11.8994 4.77259 12.7852 3.76833 13.8876L3.69039 13.7856ZM9.88159 22.0402L4.63052 25.8373C4.4863 25.9429 4.3206 26.0156 4.14511 26.0503C3.96962 26.0851 3.78862 26.081 3.61488 26.0384C3.44114 25.9958 3.2789 25.9157 3.13961 25.8038C3.00031 25.6918 2.88736 25.5508 2.80872 25.3906C2.71617 25.2012 2.63823 25.0119 2.56029 24.8225C1.93019 23.2216 1.72777 21.4851 1.97282 19.7828C2.21787 18.0806 2.90201 16.4709 3.9583 15.1112C4.11905 14.9073 4.28954 14.7082 4.44542 14.514C4.90415 14.0103 5.4134 13.5547 5.96521 13.1544C6.52826 12.7454 7.13225 12.3955 7.76752 12.1104C8.00621 12.0036 8.25463 11.9065 8.48845 11.824C10.1119 11.2467 11.8572 11.0963 13.556 11.3871C15.2548 11.678 16.8497 12.4004 18.1868 13.4846C18.333 13.6011 18.4694 13.7274 18.635 13.8779C18.7684 14.0004 18.8723 14.1513 18.939 14.3195C19.0056 14.4877 19.0333 14.6687 19.0198 14.849C19.0098 15.0279 18.9611 15.2026 18.877 15.361C18.7929 15.5194 18.6755 15.6578 18.5327 15.7667L13.2524 19.593L9.88159 22.0402ZM11.075 22.3218L13.1501 20.8166L14.173 22.2102C13.528 22.79 12.9135 23.4026 12.3318 24.0456L11.075 22.3218ZM24.0517 72.5874C23.9124 72.9748 23.6566 73.31 23.3193 73.5472C22.9819 73.7844 22.5794 73.9122 22.1666 73.913C21.9855 73.9124 21.8053 73.8879 21.6307 73.8402C21.1386 73.7114 20.7139 73.401 20.4426 72.9719C20.1713 72.5428 20.0737 72.027 20.1694 71.5289L21.6015 64.2454L22.2542 64.4931C23.5313 64.9695 24.8463 65.3382 26.1852 65.5953L26.5165 65.6584L24.0517 72.5874ZM45.6405 60.2638C40.5278 64.0799 34.1199 65.7495 27.7878 64.9155C27.4761 64.8718 27.1643 64.8232 26.8574 64.7698L26.3703 64.6824C25.0799 64.4326 23.8123 64.0769 22.5806 63.6191C22.3273 63.5268 22.0935 63.4297 21.7964 63.3131L21.1193 63.0267L20.9342 62.9393C17.53 61.3917 14.5306 59.0809 12.1701 56.1873C9.80953 53.2936 8.15175 49.8953 7.32608 46.2577C6.50041 42.62 6.52919 38.8414 7.41017 35.2166C8.29116 31.5919 10.0005 28.2191 12.4048 25.3615C13.3021 24.2842 14.2931 23.2881 15.3665 22.385C18.1279 20.0497 21.3809 18.3637 24.8846 17.4516C26.8989 16.9338 28.9713 16.6743 31.0515 16.6796C32.5765 16.6784 34.0983 16.8214 35.5962 17.1069C35.8836 17.1603 36.1613 17.2186 36.4438 17.2817C36.4616 17.2839 36.4796 17.2839 36.4974 17.2817C37.3215 17.476 38.1345 17.7143 38.933 17.9955L39.6198 18.2431C43.1231 19.5623 46.2731 21.671 48.8235 24.4046C51.374 27.1381 53.2559 30.4224 54.3222 34.001C55.3885 37.5795 55.6104 41.3553 54.9705 45.0335C54.3306 48.7117 52.8462 52.1926 50.6334 55.2042C50.4483 55.4567 50.2583 55.6898 50.0635 55.952C49.8686 56.2142 49.7127 56.389 49.5276 56.6027C48.6732 57.6013 47.7399 58.5301 46.7365 59.3801L46.3663 59.686C46.1373 59.8851 45.8938 60.0744 45.6405 60.2638ZM55.3827 65.0418C55.0246 65.3997 54.543 65.6079 54.0362 65.6242C53.5293 65.6404 53.0354 65.4634 52.6549 65.1292L47.0775 60.2735L47.3405 60.055C48.3794 59.1757 49.3438 58.2126 50.2242 57.1756C50.3752 57.0008 50.5214 56.8212 50.6626 56.6415L55.5045 62.3275C55.8316 62.7101 56.0018 63.2017 55.9811 63.7041C55.9603 64.2064 55.7501 64.6824 55.3925 65.0369L55.3827 65.0418Z"/>
</mask>
<path d="M56.2157 61.7302L51.2569 55.9034C53.5851 52.7819 55.1552 49.1645 55.8436 45.3357C56.532 41.5069 56.32 37.5711 55.2242 33.8378C54.1285 30.1045 52.1789 26.6755 49.5287 23.8204C46.8785 20.9653 43.6 18.762 39.951 17.3837L40.2238 15.0627L46.5563 15.8056C46.6423 15.8104 46.7284 15.8104 46.8144 15.8056C47.1033 15.8026 47.3886 15.7418 47.6534 15.6268C47.9183 15.5118 48.1573 15.345 48.3563 15.1363C48.5552 14.9275 48.7101 14.6811 48.8118 14.4115C48.9134 14.142 48.9597 13.8548 48.948 13.5671C48.948 13.3389 48.909 13.1156 48.8749 12.8873C48.6703 11.4426 48.1769 10.0536 47.4238 8.80246C46.6708 7.55135 45.6734 6.46367 44.4909 5.60388C43.8466 5.13698 43.1523 4.74288 42.4207 4.42881C42.4509 4.31221 42.4737 4.19382 42.4889 4.07435C42.5365 3.72266 42.5131 3.36503 42.42 3.0225C42.3268 2.67998 42.1659 2.35948 41.9467 2.07986C41.7275 1.80025 41.4544 1.56718 41.1434 1.39436C40.8325 1.22154 40.49 1.11247 40.1361 1.07357L39.1619 0.957031C39.0547 0.957031 38.9524 0.957031 38.8453 0.957031C38.6168 0.957368 38.3892 0.986739 38.1682 1.04443C37.6485 1.17795 37.1815 1.46505 36.8285 1.86803C36.4756 2.27101 36.2531 2.771 36.1905 3.3023C36.1784 3.4234 36.1784 3.54539 36.1905 3.66648C34.3461 3.99442 32.6166 4.7878 31.167 5.97099C29.7174 7.15419 28.596 8.68776 27.9096 10.4255C27.8414 10.61 27.7781 10.7946 27.7148 10.9791V11.0422C27.6185 11.3435 27.5903 11.6624 27.6323 11.9759C27.6744 12.2894 27.7855 12.5897 27.9579 12.8552C28.1302 13.1208 28.3594 13.345 28.629 13.5117C28.8986 13.6785 29.2019 13.7836 29.5171 13.8196L35.8495 14.5625L35.6547 16.194C32.0058 15.5126 28.251 15.6433 24.6587 16.5767C21.0664 17.5101 17.7253 19.2232 14.8745 21.5935L13.9003 20.2631L19.0442 16.5339C19.3055 16.3475 19.5214 16.1049 19.6759 15.8241C19.8305 15.5433 19.9197 15.2314 19.937 14.9116C19.9543 14.5918 19.8992 14.2721 19.7759 13.9764C19.6525 13.6806 19.4641 13.4163 19.2244 13.203C19.0734 13.0621 18.9224 12.9262 18.7373 12.7999C17.293 11.6266 15.5723 10.84 13.738 10.5146C11.9036 10.1891 10.0163 10.3356 8.25463 10.9402C8.20065 10.8328 8.13707 10.7304 8.06466 10.6343C7.81624 10.2946 7.49089 10.0182 7.11507 9.82753C6.73925 9.63684 6.32358 9.53728 5.90188 9.53695C5.67371 9.53775 5.44644 9.56546 5.2248 9.61949C4.90477 9.7062 4.60288 9.84927 4.33338 10.0419L3.52965 10.61C2.95738 11.0259 2.57394 11.651 2.46344 12.3483C2.35295 13.0455 2.52442 13.758 2.94024 14.3295C3.01309 14.4273 3.09286 14.5198 3.17892 14.6062C2.69305 15.2354 2.28118 15.918 1.9514 16.6407C1.33644 17.9712 0.997046 19.4116 0.953524 20.8758C0.910001 22.3401 1.16325 23.798 1.6981 25.1624C1.78578 25.376 1.87346 25.58 1.97089 25.7888C2.10664 26.0715 2.30384 26.3207 2.54818 26.518C2.79251 26.7154 3.07786 26.8561 3.38351 26.9298C3.55542 26.9739 3.7321 26.9967 3.90959 26.9978C4.36519 26.9989 4.80911 26.8542 5.17608 26.5851L10.3249 22.856L11.7083 24.7351C9.19781 27.7156 7.41619 31.2367 6.50385 35.0207C5.59151 38.8048 5.57338 42.7483 6.45089 46.5405C7.32841 50.3327 9.07758 53.8699 11.5605 56.8733C14.0435 59.8766 17.1923 62.264 20.7588 63.8473L19.2975 71.3298C19.1425 72.0605 19.2749 72.8226 19.6674 73.4587C20.06 74.0949 20.6826 74.5565 21.4067 74.7482C21.6601 74.82 21.9225 74.856 22.186 74.855C22.7907 74.8553 23.3806 74.6687 23.8744 74.3208C24.3681 73.973 24.7415 73.481 24.9431 72.9128L27.4907 65.8138C30.8077 66.2791 34.1844 66.0839 37.4252 65.2396C40.666 64.3953 43.7067 62.9186 46.3712 60.895L52.0752 65.8429C52.6145 66.3123 53.3078 66.568 54.0237 66.5616C54.5854 66.566 55.1366 66.409 55.6111 66.1093C56.0857 65.8096 56.4635 65.3799 56.6994 64.8717C56.9353 64.3635 57.0193 63.7982 56.9413 63.2437C56.8633 62.6891 56.6266 62.1687 56.2595 61.7448L56.2157 61.7302ZM37.1306 3.39942C37.1764 3.05629 37.3236 2.73452 37.5535 2.47509C37.7834 2.21567 38.0855 2.03034 38.4215 1.94273C38.5667 1.90805 38.7154 1.89013 38.8648 1.88931C38.9329 1.88455 39.0012 1.88455 39.0693 1.88931L40.0436 2.00099C40.2723 2.02744 40.4936 2.09879 40.6946 2.21094C40.8955 2.32308 41.0722 2.47379 41.2144 2.65437C41.3566 2.83495 41.4615 3.04183 41.5231 3.26304C41.5847 3.48426 41.6017 3.71545 41.5731 3.94325C41.5731 3.98695 41.5731 4.03065 41.5731 4.07435C40.8644 3.83807 40.1331 3.67535 39.3908 3.58879C38.6522 3.49815 37.9061 3.48513 37.1647 3.54994C37.1468 3.50146 37.1354 3.45086 37.1306 3.39942ZM29.6194 12.8922C29.4361 12.8726 29.2595 12.8123 29.1027 12.7156C28.9459 12.619 28.8128 12.4885 28.7133 12.3338C28.6157 12.1848 28.5523 12.0161 28.5279 11.8398C28.5035 11.6634 28.5186 11.4839 28.5721 11.3141V11.2558C28.6305 11.0859 28.689 10.9159 28.7523 10.7703C29.3834 9.15958 30.423 7.73969 31.7695 6.64943C33.116 5.55917 34.7232 4.83586 36.4341 4.5502C36.6874 4.5065 36.9455 4.47737 37.2037 4.45309C37.8831 4.38992 38.5674 4.39969 39.2447 4.48223C39.9236 4.5623 40.5927 4.71033 41.2419 4.92409C41.4919 5.00502 41.7355 5.09727 41.9725 5.20086C43.5583 5.87059 44.9431 6.93812 45.9921 8.29955C47.0412 9.66099 47.7189 11.27 47.9591 12.9699C47.9884 13.1738 48.0079 13.3729 48.0225 13.5768C48.0362 13.7567 48.0091 13.9374 47.9434 14.1055C47.8776 14.2736 47.7748 14.4248 47.6425 14.548C47.5132 14.6689 47.3592 14.7605 47.191 14.8167C47.0229 14.8728 46.8446 14.8921 46.6683 14.8733L40.1994 14.1304L36.0639 13.6448L29.6194 12.8922ZM36.7507 14.6548L39.3032 14.9558L39.0547 17.068C38.2911 16.8051 37.5138 16.583 36.7263 16.4028L36.6289 16.3785H36.551L36.7507 14.6548ZM3.69039 13.7856C3.41852 13.4128 3.30634 12.9476 3.3785 12.4923C3.45067 12.037 3.70127 11.6289 4.07521 11.3578L4.84485 10.7897C5.21975 10.5212 5.68572 10.4109 6.14168 10.4827C6.59765 10.5545 7.00681 10.8027 7.28041 11.1733C7.30814 11.2082 7.3326 11.2456 7.35348 11.285C5.99271 11.8994 4.77259 12.7852 3.76833 13.8876L3.69039 13.7856ZM9.88159 22.0402L4.63052 25.8373C4.4863 25.9429 4.3206 26.0156 4.14511 26.0503C3.96962 26.0851 3.78862 26.081 3.61488 26.0384C3.44114 25.9958 3.2789 25.9157 3.13961 25.8038C3.00031 25.6918 2.88736 25.5508 2.80872 25.3906C2.71617 25.2012 2.63823 25.0119 2.56029 24.8225C1.93019 23.2216 1.72777 21.4851 1.97282 19.7828C2.21787 18.0806 2.90201 16.4709 3.9583 15.1112C4.11905 14.9073 4.28954 14.7082 4.44542 14.514C4.90415 14.0103 5.4134 13.5547 5.96521 13.1544C6.52826 12.7454 7.13225 12.3955 7.76752 12.1104C8.00621 12.0036 8.25463 11.9065 8.48845 11.824C10.1119 11.2467 11.8572 11.0963 13.556 11.3871C15.2548 11.678 16.8497 12.4004 18.1868 13.4846C18.333 13.6011 18.4694 13.7274 18.635 13.8779C18.7684 14.0004 18.8723 14.1513 18.939 14.3195C19.0056 14.4877 19.0333 14.6687 19.0198 14.849C19.0098 15.0279 18.9611 15.2026 18.877 15.361C18.7929 15.5194 18.6755 15.6578 18.5327 15.7667L13.2524 19.593L9.88159 22.0402ZM11.075 22.3218L13.1501 20.8166L14.173 22.2102C13.528 22.79 12.9135 23.4026 12.3318 24.0456L11.075 22.3218ZM24.0517 72.5874C23.9124 72.9748 23.6566 73.31 23.3193 73.5472C22.9819 73.7844 22.5794 73.9122 22.1666 73.913C21.9855 73.9124 21.8053 73.8879 21.6307 73.8402C21.1386 73.7114 20.7139 73.401 20.4426 72.9719C20.1713 72.5428 20.0737 72.027 20.1694 71.5289L21.6015 64.2454L22.2542 64.4931C23.5313 64.9695 24.8463 65.3382 26.1852 65.5953L26.5165 65.6584L24.0517 72.5874ZM45.6405 60.2638C40.5278 64.0799 34.1199 65.7495 27.7878 64.9155C27.4761 64.8718 27.1643 64.8232 26.8574 64.7698L26.3703 64.6824C25.0799 64.4326 23.8123 64.0769 22.5806 63.6191C22.3273 63.5268 22.0935 63.4297 21.7964 63.3131L21.1193 63.0267L20.9342 62.9393C17.53 61.3917 14.5306 59.0809 12.1701 56.1873C9.80953 53.2936 8.15175 49.8953 7.32608 46.2577C6.50041 42.62 6.52919 38.8414 7.41017 35.2166C8.29116 31.5919 10.0005 28.2191 12.4048 25.3615C13.3021 24.2842 14.2931 23.2881 15.3665 22.385C18.1279 20.0497 21.3809 18.3637 24.8846 17.4516C26.8989 16.9338 28.9713 16.6743 31.0515 16.6796C32.5765 16.6784 34.0983 16.8214 35.5962 17.1069C35.8836 17.1603 36.1613 17.2186 36.4438 17.2817C36.4616 17.2839 36.4796 17.2839 36.4974 17.2817C37.3215 17.476 38.1345 17.7143 38.933 17.9955L39.6198 18.2431C43.1231 19.5623 46.2731 21.671 48.8235 24.4046C51.374 27.1381 53.2559 30.4224 54.3222 34.001C55.3885 37.5795 55.6104 41.3553 54.9705 45.0335C54.3306 48.7117 52.8462 52.1926 50.6334 55.2042C50.4483 55.4567 50.2583 55.6898 50.0635 55.952C49.8686 56.2142 49.7127 56.389 49.5276 56.6027C48.6732 57.6013 47.7399 58.5301 46.7365 59.3801L46.3663 59.686C46.1373 59.8851 45.8938 60.0744 45.6405 60.2638ZM55.3827 65.0418C55.0246 65.3997 54.543 65.6079 54.0362 65.6242C53.5293 65.6404 53.0354 65.4634 52.6549 65.1292L47.0775 60.2735L47.3405 60.055C48.3794 59.1757 49.3438 58.2126 50.2242 57.1756C50.3752 57.0008 50.5214 56.8212 50.6626 56.6415L55.5045 62.3275C55.8316 62.7101 56.0018 63.2017 55.9811 63.7041C55.9603 64.2064 55.7501 64.6824 55.3925 65.0369L55.3827 65.0418Z" fill="#173A4F"/>
<path d="M56.2157 61.7302L51.2569 55.9034C53.5851 52.7819 55.1552 49.1645 55.8436 45.3357C56.532 41.5069 56.32 37.5711 55.2242 33.8378C54.1285 30.1045 52.1789 26.6755 49.5287 23.8204C46.8785 20.9653 43.6 18.762 39.951 17.3837L40.2238 15.0627L46.5563 15.8056C46.6423 15.8104 46.7284 15.8104 46.8144 15.8056C47.1033 15.8026 47.3886 15.7418 47.6534 15.6268C47.9183 15.5118 48.1573 15.345 48.3563 15.1363C48.5552 14.9275 48.7101 14.6811 48.8118 14.4115C48.9134 14.142 48.9597 13.8548 48.948 13.5671C48.948 13.3389 48.909 13.1156 48.8749 12.8873C48.6703 11.4426 48.1769 10.0536 47.4238 8.80246C46.6708 7.55135 45.6734 6.46367 44.4909 5.60388C43.8466 5.13698 43.1523 4.74288 42.4207 4.42881C42.4509 4.31221 42.4737 4.19382 42.4889 4.07435C42.5365 3.72266 42.5131 3.36503 42.42 3.0225C42.3268 2.67998 42.1659 2.35948 41.9467 2.07986C41.7275 1.80025 41.4544 1.56718 41.1434 1.39436C40.8325 1.22154 40.49 1.11247 40.1361 1.07357L39.1619 0.957031C39.0547 0.957031 38.9524 0.957031 38.8453 0.957031C38.6168 0.957368 38.3892 0.986739 38.1682 1.04443C37.6485 1.17795 37.1815 1.46505 36.8285 1.86803C36.4756 2.27101 36.2531 2.771 36.1905 3.3023C36.1784 3.4234 36.1784 3.54539 36.1905 3.66648C34.3461 3.99442 32.6166 4.7878 31.167 5.97099C29.7174 7.15419 28.596 8.68776 27.9096 10.4255C27.8414 10.61 27.7781 10.7946 27.7148 10.9791V11.0422C27.6185 11.3435 27.5903 11.6624 27.6323 11.9759C27.6744 12.2894 27.7855 12.5897 27.9579 12.8552C28.1302 13.1208 28.3594 13.345 28.629 13.5117C28.8986 13.6785 29.2019 13.7836 29.5171 13.8196L35.8495 14.5625L35.6547 16.194C32.0058 15.5126 28.251 15.6433 24.6587 16.5767C21.0664 17.5101 17.7253 19.2232 14.8745 21.5935L13.9003 20.2631L19.0442 16.5339C19.3055 16.3475 19.5214 16.1049 19.6759 15.8241C19.8305 15.5433 19.9197 15.2314 19.937 14.9116C19.9543 14.5918 19.8992 14.2721 19.7759 13.9764C19.6525 13.6806 19.4641 13.4163 19.2244 13.203C19.0734 13.0621 18.9224 12.9262 18.7373 12.7999C17.293 11.6266 15.5723 10.84 13.738 10.5146C11.9036 10.1891 10.0163 10.3356 8.25463 10.9402C8.20065 10.8328 8.13707 10.7304 8.06466 10.6343C7.81624 10.2946 7.49089 10.0182 7.11507 9.82753C6.73925 9.63684 6.32358 9.53728 5.90188 9.53695C5.67371 9.53775 5.44644 9.56546 5.2248 9.61949C4.90477 9.7062 4.60288 9.84927 4.33338 10.0419L3.52965 10.61C2.95738 11.0259 2.57394 11.651 2.46344 12.3483C2.35295 13.0455 2.52442 13.758 2.94024 14.3295C3.01309 14.4273 3.09286 14.5198 3.17892 14.6062C2.69305 15.2354 2.28118 15.918 1.9514 16.6407C1.33644 17.9712 0.997046 19.4116 0.953524 20.8758C0.910001 22.3401 1.16325 23.798 1.6981 25.1624C1.78578 25.376 1.87346 25.58 1.97089 25.7888C2.10664 26.0715 2.30384 26.3207 2.54818 26.518C2.79251 26.7154 3.07786 26.8561 3.38351 26.9298C3.55542 26.9739 3.7321 26.9967 3.90959 26.9978C4.36519 26.9989 4.80911 26.8542 5.17608 26.5851L10.3249 22.856L11.7083 24.7351C9.19781 27.7156 7.41619 31.2367 6.50385 35.0207C5.59151 38.8048 5.57338 42.7483 6.45089 46.5405C7.32841 50.3327 9.07758 53.8699 11.5605 56.8733C14.0435 59.8766 17.1923 62.264 20.7588 63.8473L19.2975 71.3298C19.1425 72.0605 19.2749 72.8226 19.6674 73.4587C20.06 74.0949 20.6826 74.5565 21.4067 74.7482C21.6601 74.82 21.9225 74.856 22.186 74.855C22.7907 74.8553 23.3806 74.6687 23.8744 74.3208C24.3681 73.973 24.7415 73.481 24.9431 72.9128L27.4907 65.8138C30.8077 66.2791 34.1844 66.0839 37.4252 65.2396C40.666 64.3953 43.7067 62.9186 46.3712 60.895L52.0752 65.8429C52.6145 66.3123 53.3078 66.568 54.0237 66.5616C54.5854 66.566 55.1366 66.409 55.6111 66.1093C56.0857 65.8096 56.4635 65.3799 56.6994 64.8717C56.9353 64.3635 57.0193 63.7982 56.9413 63.2437C56.8633 62.6891 56.6266 62.1687 56.2595 61.7448L56.2157 61.7302ZM37.1306 3.39942C37.1764 3.05629 37.3236 2.73452 37.5535 2.47509C37.7834 2.21567 38.0855 2.03034 38.4215 1.94273C38.5667 1.90805 38.7154 1.89013 38.8648 1.88931C38.9329 1.88455 39.0012 1.88455 39.0693 1.88931L40.0436 2.00099C40.2723 2.02744 40.4936 2.09879 40.6946 2.21094C40.8955 2.32308 41.0722 2.47379 41.2144 2.65437C41.3566 2.83495 41.4615 3.04183 41.5231 3.26304C41.5847 3.48426 41.6017 3.71545 41.5731 3.94325C41.5731 3.98695 41.5731 4.03065 41.5731 4.07435C40.8644 3.83807 40.1331 3.67535 39.3908 3.58879C38.6522 3.49815 37.9061 3.48513 37.1647 3.54994C37.1468 3.50146 37.1354 3.45086 37.1306 3.39942ZM29.6194 12.8922C29.4361 12.8726 29.2595 12.8123 29.1027 12.7156C28.9459 12.619 28.8128 12.4885 28.7133 12.3338C28.6157 12.1848 28.5523 12.0161 28.5279 11.8398C28.5035 11.6634 28.5186 11.4839 28.5721 11.3141V11.2558C28.6305 11.0859 28.689 10.9159 28.7523 10.7703C29.3834 9.15958 30.423 7.73969 31.7695 6.64943C33.116 5.55917 34.7232 4.83586 36.4341 4.5502C36.6874 4.5065 36.9455 4.47737 37.2037 4.45309C37.8831 4.38992 38.5674 4.39969 39.2447 4.48223C39.9236 4.5623 40.5927 4.71033 41.2419 4.92409C41.4919 5.00502 41.7355 5.09727 41.9725 5.20086C43.5583 5.87059 44.9431 6.93812 45.9921 8.29955C47.0412 9.66099 47.7189 11.27 47.9591 12.9699C47.9884 13.1738 48.0079 13.3729 48.0225 13.5768C48.0362 13.7567 48.0091 13.9374 47.9434 14.1055C47.8776 14.2736 47.7748 14.4248 47.6425 14.548C47.5132 14.6689 47.3592 14.7605 47.191 14.8167C47.0229 14.8728 46.8446 14.8921 46.6683 14.8733L40.1994 14.1304L36.0639 13.6448L29.6194 12.8922ZM36.7507 14.6548L39.3032 14.9558L39.0547 17.068C38.2911 16.8051 37.5138 16.583 36.7263 16.4028L36.6289 16.3785H36.551L36.7507 14.6548ZM3.69039 13.7856C3.41852 13.4128 3.30634 12.9476 3.3785 12.4923C3.45067 12.037 3.70127 11.6289 4.07521 11.3578L4.84485 10.7897C5.21975 10.5212 5.68572 10.4109 6.14168 10.4827C6.59765 10.5545 7.00681 10.8027 7.28041 11.1733C7.30814 11.2082 7.3326 11.2456 7.35348 11.285C5.99271 11.8994 4.77259 12.7852 3.76833 13.8876L3.69039 13.7856ZM9.88159 22.0402L4.63052 25.8373C4.4863 25.9429 4.3206 26.0156 4.14511 26.0503C3.96962 26.0851 3.78862 26.081 3.61488 26.0384C3.44114 25.9958 3.2789 25.9157 3.13961 25.8038C3.00031 25.6918 2.88736 25.5508 2.80872 25.3906C2.71617 25.2012 2.63823 25.0119 2.56029 24.8225C1.93019 23.2216 1.72777 21.4851 1.97282 19.7828C2.21787 18.0806 2.90201 16.4709 3.9583 15.1112C4.11905 14.9073 4.28954 14.7082 4.44542 14.514C4.90415 14.0103 5.4134 13.5547 5.96521 13.1544C6.52826 12.7454 7.13225 12.3955 7.76752 12.1104C8.00621 12.0036 8.25463 11.9065 8.48845 11.824C10.1119 11.2467 11.8572 11.0963 13.556 11.3871C15.2548 11.678 16.8497 12.4004 18.1868 13.4846C18.333 13.6011 18.4694 13.7274 18.635 13.8779C18.7684 14.0004 18.8723 14.1513 18.939 14.3195C19.0056 14.4877 19.0333 14.6687 19.0198 14.849C19.0098 15.0279 18.9611 15.2026 18.877 15.361C18.7929 15.5194 18.6755 15.6578 18.5327 15.7667L13.2524 19.593L9.88159 22.0402ZM11.075 22.3218L13.1501 20.8166L14.173 22.2102C13.528 22.79 12.9135 23.4026 12.3318 24.0456L11.075 22.3218ZM24.0517 72.5874C23.9124 72.9748 23.6566 73.31 23.3193 73.5472C22.9819 73.7844 22.5794 73.9122 22.1666 73.913C21.9855 73.9124 21.8053 73.8879 21.6307 73.8402C21.1386 73.7114 20.7139 73.401 20.4426 72.9719C20.1713 72.5428 20.0737 72.027 20.1694 71.5289L21.6015 64.2454L22.2542 64.4931C23.5313 64.9695 24.8463 65.3382 26.1852 65.5953L26.5165 65.6584L24.0517 72.5874ZM45.6405 60.2638C40.5278 64.0799 34.1199 65.7495 27.7878 64.9155C27.4761 64.8718 27.1643 64.8232 26.8574 64.7698L26.3703 64.6824C25.0799 64.4326 23.8123 64.0769 22.5806 63.6191C22.3273 63.5268 22.0935 63.4297 21.7964 63.3131L21.1193 63.0267L20.9342 62.9393C17.53 61.3917 14.5306 59.0809 12.1701 56.1873C9.80953 53.2936 8.15175 49.8953 7.32608 46.2577C6.50041 42.62 6.52919 38.8414 7.41017 35.2166C8.29116 31.5919 10.0005 28.2191 12.4048 25.3615C13.3021 24.2842 14.2931 23.2881 15.3665 22.385C18.1279 20.0497 21.3809 18.3637 24.8846 17.4516C26.8989 16.9338 28.9713 16.6743 31.0515 16.6796C32.5765 16.6784 34.0983 16.8214 35.5962 17.1069C35.8836 17.1603 36.1613 17.2186 36.4438 17.2817C36.4616 17.2839 36.4796 17.2839 36.4974 17.2817C37.3215 17.476 38.1345 17.7143 38.933 17.9955L39.6198 18.2431C43.1231 19.5623 46.2731 21.671 48.8235 24.4046C51.374 27.1381 53.2559 30.4224 54.3222 34.001C55.3885 37.5795 55.6104 41.3553 54.9705 45.0335C54.3306 48.7117 52.8462 52.1926 50.6334 55.2042C50.4483 55.4567 50.2583 55.6898 50.0635 55.952C49.8686 56.2142 49.7127 56.389 49.5276 56.6027C48.6732 57.6013 47.7399 58.5301 46.7365 59.3801L46.3663 59.686C46.1373 59.8851 45.8938 60.0744 45.6405 60.2638ZM55.3827 65.0418C55.0246 65.3997 54.543 65.6079 54.0362 65.6242C53.5293 65.6404 53.0354 65.4634 52.6549 65.1292L47.0775 60.2735L47.3405 60.055C48.3794 59.1757 49.3438 58.2126 50.2242 57.1756C50.3752 57.0008 50.5214 56.8212 50.6626 56.6415L55.5045 62.3275C55.8316 62.7101 56.0018 63.2017 55.9811 63.7041C55.9603 64.2064 55.7501 64.6824 55.3925 65.0369L55.3827 65.0418Z" stroke="#173A4F" stroke-width="1.4" mask="url(#path-25-outside-1_491_28330)"/>
<path d="M28.4702 32.0176L30.9058 40.7577L42.84 44.1567" stroke="#173A4F" stroke-width="0.7" stroke-linecap="round" stroke-linejoin="round"/>
<path d="M26.7645 26.3466C26.7984 26.4471 26.8644 26.5338 26.9523 26.5934C27.0403 26.653 27.1454 26.6823 27.2516 26.6768C27.2904 26.6815 27.3297 26.6815 27.3685 26.6768C27.4841 26.6407 27.582 26.5631 27.6433 26.4589C27.7045 26.3548 27.7247 26.2317 27.6998 26.1135L26.9886 23.3992C26.9331 23.313 26.8516 23.2464 26.7559 23.2091C26.6602 23.1718 26.555 23.1656 26.4556 23.1915C26.3561 23.2174 26.2674 23.2739 26.2021 23.3531C26.1369 23.4323 26.0984 23.53 26.0923 23.6323L26.7645 26.3466Z" fill="#173A4F"/>
<path opacity="0.1" d="M51.203 35.6454C52.115 39.1218 52.1072 42.7745 51.1807 46.2471C50.2541 49.7197 48.4403 52.8935 45.9162 55.4589C43.3921 58.0244 40.244 59.8938 36.7791 60.8848C33.3141 61.8757 29.6506 61.9544 26.146 61.1132C29.2957 60.1894 32.3403 58.9412 35.2306 57.3889C43.9451 52.5964 47.3061 45.3955 46.4342 36.8884C45.8594 31.2365 43.3459 25.332 39.2688 21.8359C42.1819 23.0794 44.7716 24.97 46.8399 27.3633C48.9082 29.7566 50.4006 32.5894 51.203 35.6454Z" fill="#173A4F"/>
<path d="M35.9366 23.1523C35.818 23.1259 35.6938 23.1446 35.5884 23.2048C35.4829 23.265 35.4039 23.3623 35.3667 23.4776L34.6214 26.1919C34.596 26.3088 34.6148 26.4309 34.6741 26.5348C34.7334 26.6388 34.8291 26.7172 34.9429 26.7552C34.9832 26.7618 35.0243 26.7618 35.0647 26.7552C35.1655 26.7518 35.2627 26.7172 35.343 26.6563C35.4233 26.5954 35.4826 26.5112 35.5128 26.4153L36.2581 23.7058C36.2809 23.5904 36.2608 23.4707 36.2017 23.3688C36.1426 23.267 36.0484 23.1901 35.9366 23.1523Z" fill="#173A4F"/>
<path d="M43.4975 27.9832L41.4906 29.9546C41.4422 29.9957 41.4029 30.0463 41.375 30.1033C41.3471 30.1602 41.3313 30.2223 41.3286 30.2856C41.3258 30.3489 41.3362 30.4121 41.359 30.4712C41.3818 30.5304 41.4166 30.5842 41.4612 30.6293C41.5058 30.6745 41.5593 30.71 41.6183 30.7336C41.6773 30.7572 41.7405 30.7685 41.804 30.7667C41.8676 30.7649 41.9301 30.7501 41.9876 30.7231C42.0452 30.6962 42.0965 30.6577 42.1385 30.6101L44.1454 28.6193C44.2226 28.5317 44.2637 28.4182 44.2604 28.3017C44.257 28.1851 44.2095 28.0741 44.1274 27.9911C44.0453 27.908 43.9347 27.859 43.8179 27.854C43.701 27.8489 43.5865 27.8881 43.4975 27.9638V27.9832Z" fill="#173A4F"/>
<path d="M45.6597 37.5531C45.6985 37.5578 45.7378 37.5578 45.7766 37.5531L48.4996 36.8491C48.5601 36.8356 48.6173 36.8102 48.6677 36.7744C48.7182 36.7385 48.7609 36.6929 48.7934 36.6402C48.8258 36.5876 48.8473 36.529 48.8566 36.4679C48.8659 36.4068 48.8628 36.3445 48.8474 36.2846C48.8321 36.2248 48.8048 36.1686 48.7673 36.1194C48.7298 36.0702 48.6827 36.0291 48.6289 35.9984C48.5751 35.9677 48.5157 35.9481 48.4541 35.9408C48.3926 35.9334 48.3302 35.9385 48.2706 35.9556L45.5428 36.6597C45.4529 36.705 45.3793 36.7769 45.3322 36.8656C45.285 36.9542 45.2665 37.0553 45.2794 37.1549C45.2922 37.2544 45.3356 37.3476 45.4037 37.4215C45.4719 37.4954 45.5613 37.5465 45.6597 37.5677V37.5531Z" fill="#173A4F"/>
<path d="M48.2806 46.1004C48.3911 46.0989 48.4975 46.0581 48.5805 45.9852C48.6635 45.9123 48.7175 45.8122 48.7328 45.703C48.7481 45.5938 48.7237 45.4828 48.664 45.39C48.6042 45.2972 48.5132 45.2288 48.4072 45.1972L45.6891 44.4446C45.5719 44.4193 45.4494 44.438 45.3451 44.4971C45.2409 44.5563 45.1622 44.6517 45.1241 44.7651C45.1071 44.8234 45.102 44.8846 45.109 44.9449C45.116 45.0052 45.1351 45.0636 45.165 45.1165C45.195 45.1694 45.2352 45.2158 45.2834 45.253C45.3316 45.2902 45.3867 45.3175 45.4456 45.3332L48.1588 46.1004C48.1992 46.1051 48.2401 46.1051 48.2806 46.1004Z" fill="#173A4F"/>
<path d="M41.8946 51.2996C41.8575 51.2428 41.8083 51.1948 41.7505 51.1591C41.6927 51.1233 41.6277 51.1008 41.5601 51.0929C41.4926 51.0851 41.4241 51.0922 41.3596 51.1138C41.2951 51.1353 41.2362 51.1708 41.187 51.2176C41.1378 51.2645 41.0996 51.3215 41.0751 51.3848C41.0506 51.448 41.0403 51.5159 41.0451 51.5835C41.0499 51.6511 41.0695 51.7169 41.1027 51.7761C41.1359 51.8353 41.1817 51.8865 41.237 51.926L43.2098 53.9314C43.2521 53.9749 43.3029 54.0094 43.359 54.0328C43.4151 54.0562 43.4754 54.0679 43.5362 54.0673C43.6269 54.067 43.7155 54.0401 43.791 53.99C43.8665 53.9399 43.9256 53.8688 43.9609 53.7855C43.9962 53.7022 44.0061 53.6104 43.9895 53.5215C43.9729 53.4326 43.9304 53.3506 43.8674 53.2856L41.8946 51.2996Z" fill="#173A4F"/>
<path d="M35.1771 55.3254C35.1437 55.2103 35.0667 55.1126 34.9624 55.0531C34.858 54.9936 34.7345 54.9769 34.618 55.0065C34.5015 55.0362 34.4012 55.1099 34.3382 55.212C34.2753 55.3141 34.2547 55.4367 34.2808 55.5537L34.9823 58.2728C35.0105 58.3698 35.0684 58.4556 35.1478 58.5183C35.2273 58.5809 35.3244 58.6173 35.4255 58.6224C35.4644 58.6271 35.5036 58.6271 35.5424 58.6224C35.6589 58.5873 35.758 58.5101 35.8202 58.4058C35.8824 58.3016 35.9032 58.1779 35.8786 58.0592L35.1771 55.3254Z" fill="#173A4F"/>
<path d="M27.0137 54.889C26.8958 54.8623 26.7721 54.8804 26.6668 54.9396C26.5614 54.9988 26.4819 55.095 26.4438 55.2094L25.6839 57.914C25.6572 58.0316 25.6753 58.1549 25.7347 58.2599C25.7941 58.3649 25.8906 58.4441 26.0054 58.4821C26.0475 58.4868 26.09 58.4868 26.1321 58.4821C26.232 58.4777 26.3282 58.4427 26.4075 58.3819C26.4868 58.3211 26.5454 58.2374 26.5753 58.1422L27.3352 55.4376C27.3567 55.3229 27.3361 55.2044 27.277 55.1036C27.218 55.0028 27.1245 54.9267 27.0137 54.889Z" fill="#173A4F"/>
<path d="M19.8335 50.9985L17.8217 52.9408C17.756 53.0047 17.7108 53.0867 17.692 53.1764C17.6731 53.266 17.6815 53.3592 17.716 53.4441C17.7504 53.529 17.8095 53.6017 17.8856 53.653C17.9617 53.7043 18.0514 53.7319 18.1432 53.7322C18.2028 53.7325 18.2619 53.7211 18.3171 53.6986C18.3723 53.6761 18.4224 53.643 18.4647 53.6011L20.4814 51.6589C20.5502 51.6248 20.61 51.575 20.6559 51.5136C20.7018 51.4521 20.7324 51.3806 20.7452 51.3051C20.7581 51.2296 20.7528 51.1521 20.7299 51.0789C20.707 51.0058 20.667 50.9391 20.6133 50.8843C20.5595 50.8296 20.4935 50.7882 20.4207 50.7638C20.3479 50.7393 20.2703 50.7323 20.1942 50.7434C20.1182 50.7546 20.0458 50.7835 19.9831 50.8278C19.9205 50.8721 19.8692 50.9306 19.8335 50.9985Z" fill="#173A4F"/>
<path d="M16.2281 44.0547L13.4954 44.749C13.4056 44.7943 13.332 44.8662 13.2848 44.9549C13.2376 45.0436 13.2192 45.1447 13.232 45.2442C13.2448 45.3438 13.2883 45.4369 13.3564 45.5109C13.4245 45.5848 13.5139 45.6359 13.6124 45.657C13.6495 45.6618 13.6872 45.6618 13.7244 45.657L16.4571 44.9675C16.5455 44.9133 16.6141 44.8323 16.6531 44.7365C16.6921 44.6406 16.6993 44.5348 16.6738 44.4345C16.6482 44.3343 16.5912 44.2448 16.511 44.1791C16.4309 44.1134 16.3318 44.0749 16.2281 44.0693V44.0547Z" fill="#173A4F"/>
<path d="M16.5939 36.2471L13.8807 35.4848C13.7723 35.4803 13.6654 35.5121 13.5772 35.5751C13.4889 35.638 13.4243 35.7285 13.3935 35.8323C13.3628 35.936 13.3676 36.047 13.4073 36.1477C13.4471 36.2483 13.5194 36.3329 13.6128 36.3879L16.326 37.1503C16.3681 37.155 16.4106 37.155 16.4526 37.1503C16.5517 37.1304 16.6421 37.0804 16.7114 37.0071C16.7806 36.9338 16.8253 36.8408 16.8392 36.7411C16.8532 36.6413 16.8356 36.5397 16.789 36.4504C16.7425 36.361 16.6692 36.2883 16.5793 36.2423L16.5939 36.2471Z" fill="#173A4F"/>
<path d="M20.1641 30.3145C20.2524 30.4019 20.371 30.4523 20.4954 30.4553C20.555 30.4556 20.614 30.4442 20.6692 30.4217C20.7244 30.3992 20.7746 30.3661 20.8169 30.3242C20.899 30.2347 20.9446 30.1178 20.9446 29.9964C20.9446 29.8751 20.899 29.7582 20.8169 29.6687L18.8684 27.6585C18.7811 27.5807 18.6675 27.5387 18.5505 27.5411C18.4334 27.5435 18.3216 27.59 18.2376 27.6713C18.1536 27.7526 18.1036 27.8626 18.0978 27.9791C18.0919 28.0957 18.1305 28.2101 18.2059 28.2994L20.1641 30.3145Z" fill="#173A4F"/>
<path d="M26.5499 33.6541C26.4337 33.6871 26.3338 33.762 26.2699 33.8643C26.206 33.9666 26.1825 34.089 26.2041 34.2076C26.3205 34.7053 26.5384 35.1739 26.8443 35.584C27.1502 35.9942 27.5374 36.3372 27.9821 36.5917C28.3742 36.8085 28.8147 36.9237 29.2632 36.9267C29.5745 36.9244 29.8829 36.8668 30.1741 36.7568C31.8692 36.1304 32.3515 34.2124 31.9471 32.7218C31.91 32.6065 31.8309 32.5092 31.7255 32.449C31.62 32.3888 31.4958 32.37 31.3772 32.3964C31.3189 32.4122 31.2642 32.4393 31.2165 32.4761C31.1687 32.513 31.1287 32.559 31.0988 32.6113C31.0689 32.6637 31.0497 32.7214 31.0423 32.7812C31.0349 32.841 31.0395 32.9017 31.0557 32.9597C31.3529 34.0571 31.0557 35.4555 29.8526 35.8731C29.616 35.9639 29.362 36.0011 29.1092 35.9818C28.8564 35.9624 28.6112 35.8872 28.3912 35.7614C28.0621 35.5689 27.7758 35.3116 27.5497 35.0053C27.3236 34.6989 27.1624 34.3498 27.076 33.9794C27.0398 33.8728 26.9675 33.782 26.8715 33.7227C26.7755 33.6633 26.6619 33.6391 26.5499 33.6541Z" fill="#173A4F"/>
<path d="M35.4016 29.2789C35.3428 29.2941 35.2876 29.3208 35.2393 29.3575C35.191 29.3941 35.1505 29.44 35.1201 29.4924C35.0897 29.5448 35.0701 29.6027 35.0624 29.6628C35.0547 29.7228 35.059 29.7838 35.0752 29.8422C35.2457 30.4734 35.1044 31.2454 34.5881 31.4445C34.4976 31.4803 34.4 31.495 34.3029 31.4874C34.2058 31.4799 34.1118 31.4502 34.0279 31.4008C33.8362 31.28 33.6703 31.1225 33.5399 30.9375C33.4095 30.7525 33.3171 30.5436 33.268 30.3229C33.2743 30.2465 33.2623 30.1697 33.2331 30.0988C33.2038 30.0278 33.1582 29.9649 33.0998 29.9149C33.0415 29.865 32.9721 29.8295 32.8973 29.8115C32.8226 29.7934 32.7446 29.7932 32.6698 29.811C32.595 29.8287 32.5255 29.8638 32.4669 29.9135C32.4083 29.9632 32.3624 30.026 32.3328 30.0968C32.3033 30.1675 32.2909 30.2443 32.2969 30.3207C32.3028 30.3971 32.3268 30.4711 32.3669 30.5365C32.443 30.885 32.5905 31.214 32.8 31.5031C33.0096 31.7922 33.2767 32.0351 33.5846 32.2166C33.8193 32.3446 34.0819 32.413 34.3494 32.4156C34.5394 32.4135 34.7275 32.3774 34.9047 32.3088C35.9569 31.9058 36.2345 30.6142 35.9617 29.6042C35.9465 29.5462 35.9198 29.4917 35.8834 29.4439C35.8469 29.3961 35.8014 29.3559 35.7494 29.3257C35.6973 29.2955 35.6398 29.2758 35.5801 29.2678C35.5205 29.2597 35.4598 29.2635 35.4016 29.2789Z" fill="#173A4F"/>
<path d="M23.1852 35.3201C23.2646 35.3271 23.3445 35.3271 23.4239 35.3201C23.6509 35.288 23.868 35.2066 24.06 35.0816C24.2519 34.9565 24.4139 34.791 24.5345 34.5966C24.7155 34.287 24.8305 33.9435 24.8724 33.5876C24.9143 33.2317 24.8822 32.871 24.778 32.5281C24.7801 32.4517 24.7641 32.3759 24.7312 32.3068C24.6984 32.2378 24.6497 32.1774 24.589 32.1307C24.5284 32.084 24.4575 32.0521 24.3822 32.0379C24.3069 32.0236 24.2292 32.0272 24.1556 32.0485C24.082 32.0697 24.0144 32.108 23.9584 32.1602C23.9024 32.2124 23.8596 32.277 23.8334 32.3488C23.8071 32.4207 23.7983 32.4976 23.8076 32.5735C23.8168 32.6494 23.8439 32.722 23.8866 32.7854C23.9539 33.0016 23.9769 33.229 23.9543 33.4542C23.9317 33.6794 23.864 33.8978 23.7551 34.0964C23.7039 34.1826 23.6332 34.2555 23.5486 34.3095C23.464 34.3635 23.3679 34.3969 23.268 34.4072C22.7127 34.4897 22.211 33.8828 22.0502 33.2516C22.0367 33.1913 22.0113 33.1343 21.9753 33.0839C21.9393 33.0336 21.8935 32.9911 21.8407 32.9587C21.7879 32.9264 21.7291 32.9049 21.6678 32.8957C21.6066 32.8864 21.544 32.8895 21.484 32.9048C21.4239 32.9201 21.3676 32.9473 21.3182 32.9847C21.2689 33.0221 21.2276 33.069 21.1969 33.1227C21.1661 33.1763 21.1464 33.2355 21.139 33.2969C21.1317 33.3582 21.1367 33.4204 21.1539 33.4798C21.4072 34.3975 22.1817 35.3201 23.1852 35.3201Z" fill="#173A4F"/>
</svg>
