<svg width="75" height="75" viewBox="0 0 75 75" fill="none" xmlns="http://www.w3.org/2000/svg">
<path d="M21.5417 52.8936C22.3413 57.058 22.5993 60.7499 22.4879 64.0281C20.6732 68.2111 13.9967 70.3703 10.7316 68.4819C8.53169 67.2073 7.43587 64.2877 12.1589 63.5124C15.8805 62.9039 21.2794 57.4144 21.5417 52.8936Z" fill="#C8E8FB"/>
<path d="M13.4986 68.4819C12.5616 67.8941 11.1299 66.1739 15.0792 64.9023C17.4519 64.139 20.3071 60.7862 22.2784 57.9746C22.1212 56.3622 21.8839 54.6732 21.5426 52.8936C21.2794 57.4142 15.8803 62.9037 12.1587 63.5124C7.4359 64.2877 8.53172 67.2073 10.7316 68.4819C11.8879 69.15 13.4725 69.3093 15.1169 69.0534C14.5222 68.9431 13.9628 68.7736 13.4986 68.4819Z" fill="#FEFEFE"/>
<path d="M22.4891 64.0281C22.6003 60.7499 22.3425 57.0579 21.543 52.8936C22.3447 53.046 23.1728 53.1249 24.0191 53.1249H27.024C27.024 55.799 29.26 57.9672 32.0185 57.9672C34.7779 57.9672 37.013 55.799 37.013 53.1249H40.0188C40.8642 53.1249 41.6945 53.046 42.4941 52.8936C41.7391 56.8213 41.4704 60.3251 41.5311 63.4649C41.5572 64.7766 41.6425 66.0222 41.7752 67.2075C39.0911 68.9545 34.5453 69.2097 32.0185 69.2097C29.4926 69.2097 24.9492 68.9545 22.2651 67.2075H22.2627C22.3756 66.1933 22.453 65.133 22.4891 64.0281Z" fill="#FECD27"/>
<path d="M42.4937 52.8936C41.6941 53.046 40.8639 53.1249 40.0176 53.1249H39.6861C38.9642 56.9582 38.7047 60.3876 38.7645 63.465C38.7891 64.7766 38.875 66.0223 39.0079 67.2074C36.761 68.6694 33.2136 69.0855 30.6348 69.1821C31.1372 69.2007 31.6062 69.2097 32.0181 69.2097C34.545 69.2097 39.0899 68.9545 41.774 67.2074C41.6422 66.0223 41.556 64.7766 41.5308 63.465C41.4701 60.325 41.7387 56.8213 42.4937 52.8936Z" fill="#F39314"/>
<path d="M32.0175 66.2576C29.5475 66.2576 25.1537 66.0098 22.4505 64.3662C22.4083 65.158 22.3446 65.9271 22.2617 66.6706H22.2641C24.9482 68.4167 29.4916 68.6719 32.0175 68.6719C34.5444 68.6719 39.0901 68.4167 41.7742 66.6706C41.6905 65.928 41.6285 65.158 41.5863 64.3671C38.8822 66.0098 34.4876 66.2576 32.0175 66.2576Z" fill="#FEFEFE"/>
<path d="M35.3384 69.2086C37.1547 69.2086 40.0114 69.0732 42.473 68.3506C42.4201 67.975 42.371 67.5947 42.3281 67.207C40.0821 68.6682 36.5347 69.0842 33.9551 69.181C34.4575 69.1996 34.9271 69.2086 35.3384 69.2086Z" fill="#FEFEFE"/>
<path d="M25.5848 67.2073H25.5824C25.696 66.1933 25.7727 65.133 25.8088 64.0281C25.9178 60.8102 25.6683 57.1927 24.9033 53.1243H24.5719C23.7255 53.1243 22.8983 53.046 22.0957 52.8936C22.8953 57.0573 23.1524 60.7491 23.0419 64.0281C23.0058 65.133 22.9283 66.1933 22.8154 67.2073H22.8178C25.5019 68.9545 30.0453 69.2088 32.5713 69.2088C32.9835 69.2088 33.4531 69.2006 33.9549 69.1814C31.3767 69.0846 27.8315 68.6695 25.5848 67.2073Z" fill="#FEFEFE"/>
<path d="M32.018 53.124H37.0125C37.0125 55.7988 34.7773 57.9669 32.018 57.9669C29.2595 57.9669 27.0234 55.7988 27.0234 53.124H32.018Z" fill="#A3D3F2"/>
<path d="M32.0179 59.0401C28.653 59.0401 25.916 56.3863 25.916 53.1243C25.916 52.5312 26.4117 52.0508 27.0231 52.0508C27.6348 52.0508 28.1296 52.5312 28.1296 53.1243C28.1296 55.2024 29.8739 56.8937 32.0179 56.8937C34.161 56.8937 35.905 55.2024 35.905 53.1243C35.905 52.5312 36.4007 52.0508 37.0115 52.0508C37.6231 52.0508 38.1188 52.5312 38.1188 53.1243C38.1188 56.3863 35.3817 59.0401 32.0179 59.0401Z" fill="#173A4F"/>
<path d="M13.691 70.2407C12.3496 70.2407 11.1272 69.9595 10.1658 69.4038C8.46854 68.4208 7.51453 66.8003 7.79164 65.3704C7.99414 64.3205 8.88507 62.9627 11.9759 62.4552C15.2723 61.9157 20.2055 56.8488 20.4389 52.8332C20.4734 52.2424 20.9959 51.7885 21.606 51.8221C22.2159 51.8556 22.6834 52.363 22.6488 52.9546C22.354 58.0236 16.5001 63.8919 12.345 64.5713C10.7106 64.8397 10.0446 65.3643 9.96697 65.766C9.86735 66.2817 10.4535 67.0697 11.3008 67.5607C12.4792 68.2423 14.4384 68.2759 16.4142 67.6471C18.7799 66.8934 20.7173 65.3472 21.4701 63.612C21.6367 63.2229 22.0319 62.95 22.493 62.95C23.1045 62.95 23.6002 63.4307 23.6002 64.0235C23.6002 64.176 23.5658 64.3258 23.5027 64.4626C22.4885 66.7809 20.0989 68.7327 17.1048 69.6864C15.9392 70.057 14.7766 70.2407 13.691 70.2407Z" fill="#173A4F"/>
<path d="M56.3645 50.6888C60.0874 52.6271 55.355 60.7017 49.5738 61.9476C47.1548 60.633 44.6248 58.9923 41.9824 56.9351C52.3703 55.4185 52.7029 48.7824 56.3645 50.6888Z" fill="#C8E8FB"/>
<path d="M57.6868 56.7544C56.1371 59.5532 53.1319 62.2809 49.8138 62.9961C49.2169 63.1244 48.6257 62.7591 48.4937 62.1812C48.3608 61.6018 48.7362 61.0287 49.3335 60.9005C52.9142 60.129 56.149 56.3086 56.5432 53.5379C56.747 52.1071 56.0646 51.7519 55.8401 51.635C54.964 51.1788 54.5751 51.4186 52.9779 52.8454C51.0749 54.5454 48.2007 57.1128 42.1465 57.9971C41.5425 58.0857 40.9782 57.6814 40.8875 57.0961C40.7964 56.5092 41.2121 55.9629 41.8176 55.8745C47.1993 55.0878 49.6724 52.8803 51.4786 51.2668C53.0562 49.8569 54.547 48.5252 56.8875 49.7438C58.3254 50.4923 58.9995 51.9818 58.7361 53.8308C58.6045 54.7557 58.2378 55.7594 57.6868 56.7544Z" fill="#173A4F"/>
<path d="M29.5758 60.7227C29.5758 61.5524 28.8822 62.225 28.0259 62.225C27.1702 62.225 26.4766 61.5524 26.4766 60.7227C26.4766 59.8932 27.1702 59.2197 28.0259 59.2197C28.8822 59.2197 29.5758 59.8932 29.5758 60.7227Z" fill="#F39314"/>
<path d="M34.5115 63.7275C34.5115 64.557 33.8178 65.2305 32.9621 65.2305C32.1066 65.2305 31.4121 64.557 31.4121 63.7275C31.4121 62.8978 32.1066 62.2246 32.9621 62.2246C33.8178 62.2246 34.5115 62.8978 34.5115 63.7275Z" fill="#F39314"/>
<path d="M38.5634 60.166C38.5634 60.9955 37.8697 61.669 37.0134 61.669C36.1577 61.669 35.4648 60.9955 35.4648 60.166C35.4648 59.3363 36.1577 58.6631 37.0134 58.6631C37.8697 58.6631 38.5634 59.3363 38.5634 60.166Z" fill="#F39314"/>
<path d="M23.1928 53.6918C23.5215 55.8891 23.727 58.0503 23.8097 60.1602C23.8971 62.3937 23.8467 64.5661 23.6596 66.6602C25.9761 67.5677 28.9625 68.0431 31.9975 68.052C34.9674 68.0606 37.9608 67.6226 40.3941 66.7072C40.187 64.5895 40.1705 62.3914 40.2986 60.2171C40.4317 57.9604 40.7217 55.7294 41.1162 53.6427L23.1928 53.6918ZM21.7459 60.2306C21.6526 57.8434 21.3938 55.377 20.9692 52.8556C20.9616 52.8031 20.957 52.7493 20.957 52.6947C20.957 52.1421 21.419 51.6941 21.9889 51.6941L42.3112 51.6384C42.3998 51.6334 42.4905 51.6395 42.5814 51.6578C43.14 51.7705 43.4989 52.3011 43.3827 52.8427C42.8842 55.1726 42.5153 57.7326 42.3624 60.3268C42.2258 62.6453 42.2616 64.9929 42.5313 67.2292C42.5796 67.6519 42.3463 68.075 41.9245 68.2574C39.1108 69.4798 35.5249 70.0632 31.9975 70.0531C28.4025 70.0423 24.837 69.4144 22.1794 68.2182C21.7605 68.057 21.4851 67.6411 21.5332 67.1849C21.7683 64.955 21.8399 62.6289 21.7459 60.2306Z" fill="#173A4F"/>
<path d="M60.8814 1.65473L60.8729 1.66823C60.6635 1.54991 60.4279 1.47546 60.1617 1.44277C56.3135 0.976238 48.6294 17.2989 48.6294 25.0266C48.6294 29.2973 49.7005 31.4334 50.7711 33.3844C51.3579 34.449 51.9443 35.461 52.3539 36.7349V36.7378C52.6939 37.7921 52.9127 39.0272 52.9127 40.6202C52.9127 46.7056 48.433 51.7733 42.4945 52.8924C41.695 53.0449 40.8647 53.1238 40.019 53.1238H24.0195C23.1723 53.1238 22.3451 53.0449 21.5434 52.8924C17.653 52.1604 14.3873 49.7288 12.6 46.4297C11.6562 44.6931 11.1252 42.7184 11.1252 40.6202C11.1252 39.0161 11.3462 37.7736 11.6899 36.7163C12.099 35.4506 12.6828 34.444 13.2668 33.3844C13.9529 32.1366 14.6365 30.8138 15.0402 28.9038C15.2703 27.8279 15.4085 26.5661 15.4085 25.0266C15.4085 17.2989 7.72444 0.976238 3.87557 1.44277C3.60694 1.47546 3.36898 1.55286 3.15887 1.67034L3.15039 1.65768C6.22731 -0.172587 13.7319 2.18896 17.5862 9.84582C21.7259 18.0772 21.2386 23.575 30.4696 24.1062C30.9562 24.136 31.4741 24.1486 32.019 24.1486C42.8628 24.1486 42.0941 18.5148 46.4539 9.84582C50.3036 2.19424 57.8043 -0.169637 60.8814 1.65473Z" fill="#C8E8FB"/>
<path d="M60.8814 1.65473L60.8729 1.66823C60.6635 1.54991 60.4279 1.47546 60.1617 1.44277C56.3135 0.976238 48.6294 17.2989 48.6294 25.0266C48.6294 29.2973 49.7005 31.4334 50.7711 33.3844C51.3579 34.449 51.9443 35.461 52.3539 36.7349V36.7378C52.6939 37.7921 52.9127 39.0272 52.9127 40.6202C52.9127 46.7056 48.433 51.7733 42.4945 52.8924C41.695 53.0449 40.8647 53.1238 40.019 53.1238H24.0195C23.1723 53.1238 22.3451 53.0449 21.5434 52.8924C17.653 52.1604 14.3873 49.7288 12.6 46.4297C11.6562 44.6931 11.1252 42.7184 11.1252 40.6202C11.1252 39.0161 11.3462 37.7736 11.6899 36.7163C12.099 35.4506 12.6828 34.444 13.2668 33.3844C13.9529 32.1366 14.6365 30.8138 15.0402 28.9038C15.2703 27.8279 15.4085 26.5661 15.4085 25.0266C15.4085 17.2989 7.72444 0.976238 3.87557 1.44277C3.60694 1.47546 3.36898 1.55286 3.15887 1.67034L3.15039 1.65768C6.22731 -0.172587 13.7319 2.18896 17.5862 9.84582C21.7259 18.0772 21.2386 23.575 30.4696 24.1062C30.9562 24.136 31.4741 24.1486 32.019 24.1486C42.8628 24.1486 42.0941 18.5148 46.4539 9.84582C50.3036 2.19424 57.8043 -0.169637 60.8814 1.65473Z" fill="#C8E8FB"/>
<path d="M52.3532 36.7352C51.9436 35.4607 51.3572 34.4496 50.7704 33.3841C49.8166 31.6468 48.865 29.7586 48.6677 26.3486C47.7139 26.2259 46.781 26.0384 45.874 25.7891C45.9936 29.5591 48.786 33.5889 48.786 41.1624C48.786 46.6526 43.117 52.0611 32.0183 52.0611C31.2033 52.0611 38.0977 53.1235 37.2507 53.1235H40.0183C40.864 53.1235 41.6943 53.0454 42.4938 52.893C48.433 51.7739 52.9126 46.7055 52.9126 40.6208C52.9126 39.027 52.6931 37.7925 52.3532 36.7384V36.7352Z" fill="#A3D3F2"/>
<path d="M60.8724 1.66787C63.7614 3.26234 61.523 12.4162 57.5828 18.6357C53.5397 25.0159 51.0389 29.1482 52.3527 36.7353C51.9429 35.4607 51.3574 34.4496 50.7705 33.3841C49.6993 31.4339 48.6289 29.2978 48.6289 25.0271C48.6289 17.2994 56.3129 0.975878 60.1611 1.44241C60.4274 1.4751 60.6629 1.55039 60.8724 1.66787Z" fill="#F7C8D7"/>
<path d="M52.1763 30.417C51.7143 29.0421 51.395 27.3531 51.395 25.0272C51.395 18.2735 57.2658 4.95143 61.315 2.01558C61.1832 1.87786 61.0373 1.75869 60.8724 1.668C60.6629 1.55053 60.4274 1.47608 60.1611 1.44339C56.3129 0.976855 48.6289 17.2995 48.6289 25.0272C48.6289 29.2979 49.6993 31.434 50.7705 33.3843C51.3574 34.4496 51.9429 35.4609 52.3527 36.7354C51.9392 34.3456 51.9046 32.2987 52.1763 30.417Z" fill="#F0879E"/>
<path d="M15.4083 25.0272C15.4083 29.2982 14.3371 31.4342 13.2661 33.3843C12.6827 34.4445 12.0989 35.4512 11.6891 36.7169C12.9929 29.1404 10.4967 25.0116 6.45667 18.6361C2.51647 12.4225 0.278059 3.27597 3.15877 1.67116C3.36889 1.55348 3.60684 1.47629 3.87546 1.44339C7.72432 0.976855 15.4083 17.2997 15.4083 25.0272Z" fill="#F7C8D7"/>
<path d="M9.77841 18.6361C6.05983 12.7724 3.85992 4.29995 6.04373 2.0158C5.46058 1.59314 4.9142 1.38392 4.42937 1.44361C4.1614 1.4763 3.92365 1.5537 3.71331 1.67118C0.832812 3.27536 3.07123 12.4219 7.01145 18.6361C11.0513 25.011 13.5468 29.1404 12.2439 36.7171C12.6535 35.4515 13.2368 34.4448 13.8206 33.3846C14.3087 32.4962 14.796 31.5652 15.1827 30.4143C14.5904 26.3212 12.5478 23.0059 9.77841 18.6361Z" fill="#FEFEFE"/>
<path d="M35.3393 24.1487C46.184 24.1487 45.4144 18.5147 49.7751 9.84524C52.4185 4.59001 56.7846 1.82963 60.2576 1.20681C56.7378 0.421807 50.4304 3.04236 47.0081 9.84524C42.8445 18.1211 43.3563 23.6315 33.9766 24.1137C34.4101 24.136 34.862 24.1487 35.3393 24.1487Z" fill="#FEFEFE"/>
<path d="M15.9198 46.4292C14.9767 44.6925 14.4451 42.7186 14.4451 40.6197C14.4451 39.0155 14.6661 37.773 15.0091 36.7157C15.4187 35.4501 16.0027 34.4442 16.5867 33.3838C17.2728 32.1361 17.9564 30.8139 18.3608 28.9032C18.5894 27.8274 18.7284 26.5662 18.7284 25.0261C18.7284 17.2992 11.0443 0.975684 7.19526 1.44222C6.92685 1.47491 6.6889 1.55316 6.47857 1.67063L6.47095 1.65713C6.8131 1.45339 7.21288 1.30534 7.65421 1.20643C6.06812 0.92212 4.66779 1.08367 3.70312 1.65713L3.71161 1.67063C3.92194 1.55316 4.15968 1.47491 4.4283 1.44222C8.27716 0.975684 15.9614 17.2992 15.9614 25.0261C15.9614 26.5662 15.8233 27.8274 15.5929 28.9032C15.1894 30.8139 14.5056 32.1361 13.8198 33.3838C13.2358 34.4442 12.6517 35.4501 12.2428 36.7157C11.8992 37.773 11.6782 39.0155 11.6782 40.6197C11.6782 42.7186 12.2091 44.6925 13.1529 46.4292C14.94 49.729 18.2057 52.1598 22.0961 52.8927C22.898 53.0452 23.7252 53.1232 24.5722 53.1232H27.3392C26.4922 53.1232 25.665 53.0452 24.863 52.8927C20.972 52.1598 17.7078 49.729 15.9198 46.4292Z" fill="#FEFEFE"/>
<path d="M15.9198 46.4292C14.9767 44.6925 14.4451 42.7186 14.4451 40.6197C14.4451 39.0155 14.6661 37.773 15.0091 36.7157C15.4187 35.4501 16.0027 34.4442 16.5867 33.3838C17.2728 32.1361 17.9564 30.8139 18.3608 28.9032C18.5894 27.8274 18.7284 26.5662 18.7284 25.0261C18.7284 17.2992 11.0443 0.975684 7.19526 1.44222C6.92685 1.47491 6.6889 1.55316 6.47857 1.67063L6.47095 1.65713C6.8131 1.45339 7.21288 1.30534 7.65421 1.20643C6.06812 0.92212 4.66779 1.08367 3.70312 1.65713L3.71161 1.67063C3.92194 1.55316 4.15968 1.47491 4.4283 1.44222C8.27716 0.975684 15.9614 17.2992 15.9614 25.0261C15.9614 26.5662 15.8233 27.8274 15.5929 28.9032C15.1894 30.8139 14.5056 32.1361 13.8198 33.3838C13.2358 34.4442 12.6517 35.4501 12.2428 36.7157C11.8992 37.773 11.6782 39.0155 11.6782 40.6197C11.6782 42.7186 12.2091 44.6925 13.1529 46.4292C14.94 49.729 18.2057 52.1598 22.0961 52.8927C22.898 53.0452 23.7252 53.1232 24.5722 53.1232H27.3392C26.4922 53.1232 25.665 53.0452 24.863 52.8927C20.972 52.1598 17.7078 49.729 15.9198 46.4292Z" fill="#FEFEFE"/>
<path d="M24.9725 40.0115C24.2919 39.8993 23.7463 39.7519 23.2806 39.7251C22.8156 39.6901 22.458 39.7371 21.9125 39.8143C21.3691 39.8881 20.6809 40.0495 19.9618 40.2243C19.5997 40.3055 19.213 40.3747 18.8186 40.3597C18.4264 40.3471 18.0403 40.2555 17.7052 40.1054C17.5655 40.0436 17.5042 39.8828 17.5686 39.7474C17.6223 39.6329 17.748 39.5732 17.87 39.5935L17.8746 39.5941C18.4817 39.6983 19.015 39.4996 19.5183 39.1805C20.0317 38.8568 20.4876 38.3352 21.1964 37.9551C21.5486 37.7691 21.9723 37.6329 22.4219 37.592C22.8715 37.5519 23.3374 37.5993 23.7555 37.7274C24.5942 37.9952 25.2304 38.5065 25.6278 39.147C25.7981 39.4222 25.7068 39.7787 25.4229 39.9438C25.2957 40.0183 25.1506 40.0412 25.0147 40.0191L24.9725 40.0115Z" fill="#173A4F"/>
<path d="M21.0917 39.4621C20.8062 39.526 20.5108 39.5707 20.2054 39.576C19.9009 39.5804 19.5816 39.5439 19.2756 39.4353C18.9709 39.3275 18.687 39.1385 18.4828 38.8981C18.2757 38.6594 18.1522 38.3803 18.0808 38.1072C18.0432 37.9629 18.133 37.817 18.2812 37.7799C18.413 37.7472 18.5474 37.8126 18.6018 37.9286L18.6048 37.9353C18.7001 38.1378 18.8273 38.3126 18.9824 38.4345C19.1375 38.5581 19.3154 38.6311 19.5079 38.6623C19.8946 38.7247 20.3344 38.6153 20.7487 38.4413C21.0304 38.3238 21.358 38.4487 21.48 38.7218C21.602 38.9949 21.4724 39.3125 21.1907 39.4309C21.16 39.4435 21.1294 39.4532 21.0987 39.4606L21.0917 39.4621Z" fill="#173A4F"/>
<path d="M38.412 39.1471C38.8094 38.5063 39.4456 37.9953 40.2843 37.7275C40.7024 37.5994 41.1689 37.5518 41.6187 37.5921C42.0683 37.633 42.4912 37.769 42.8433 37.955C43.5524 38.3353 44.0081 38.8569 44.5214 39.1804C45.0247 39.4997 45.5581 39.6984 46.1651 39.5948L46.1697 39.5942C46.3224 39.568 46.466 39.6663 46.4927 39.8137C46.5158 39.9371 46.4475 40.0563 46.3346 40.1054C45.9994 40.2556 45.6142 40.3471 45.2214 40.3598C44.8277 40.3747 44.4401 40.3054 44.0779 40.2244C43.359 40.0495 42.6715 39.888 42.1281 39.8144C41.5826 39.737 41.2242 39.6901 40.76 39.7252C40.2934 39.7519 39.7479 39.8991 39.0673 40.0116L39.0267 40.0189C38.7004 40.0725 38.3913 39.8606 38.3345 39.5444C38.31 39.4023 38.3406 39.2616 38.412 39.1471Z" fill="#173A4F"/>
<path d="M43.2883 38.4411C43.7027 38.6151 44.1425 38.7245 44.5292 38.6619C44.7217 38.6307 44.8998 38.5577 45.0547 38.4343C45.2098 38.3122 45.3372 38.1374 45.4323 37.9351L45.4353 37.9292C45.4991 37.7936 45.6639 37.7341 45.8021 37.7959C45.9265 37.851 45.9893 37.9834 45.9563 38.107C45.8849 38.3799 45.7614 38.6589 45.5543 38.8979C45.351 39.139 45.0662 39.3271 44.7617 39.4351C44.4555 39.5437 44.1364 39.5802 43.8317 39.5756C43.5263 39.5711 43.2309 39.5258 42.9453 39.4619L42.9416 39.4604C42.6423 39.3933 42.4566 39.104 42.5264 38.8138C42.5956 38.5235 42.894 38.3434 43.1933 38.4105C43.2255 38.4179 43.2592 38.4291 43.2883 38.4411Z" fill="#173A4F"/>
<path d="M34.3436 40.4687C34.1508 39.6637 32.7153 39.651 31.9342 39.709C31.1528 39.7664 29.7357 39.9881 29.6705 40.8125C29.5876 41.8571 31.5781 43.436 32.2219 43.389C32.8656 43.3415 34.5867 41.4895 34.3436 40.4687Z" fill="#173A4F"/>
<path d="M33.1515 40.9956L33.1132 41.8283C33.0719 42.1153 33.0464 42.3943 32.9827 42.6831C32.857 43.2544 32.649 43.8639 32.2092 44.4152C32.092 44.5498 31.9845 44.6852 31.8264 44.7961L31.6046 44.9651C31.5249 45.0134 31.4373 45.0551 31.3529 45.0975C31.0153 45.2715 30.6316 45.3318 30.2764 45.331C29.5612 45.2939 28.932 45.0454 28.4432 44.4882C28.2468 44.2649 28.2751 43.9287 28.5054 43.7389C28.7064 43.5729 28.9948 43.5722 29.196 43.7224L29.2774 43.7836C29.3824 43.8625 29.5506 43.9337 29.717 43.9755C29.8897 44.0141 30.0654 44.0156 30.2188 43.9903C30.5296 43.9272 30.7108 43.7568 30.8496 43.4919C30.9823 43.2188 31.056 42.8467 31.0621 42.4391C31.0682 42.2383 31.0438 42.0179 31.0384 41.8118L30.9448 41.1578L30.9355 41.0945C30.8511 40.5038 31.277 39.9584 31.8862 39.8766C32.4955 39.7947 33.058 40.207 33.1424 40.7984C33.1515 40.8625 33.1548 40.9323 33.1515 40.9956Z" fill="#173A4F"/>
<path d="M33.1522 40.9962L33.1622 41.6561C33.1883 41.8607 33.1992 42.0818 33.2351 42.2804C33.3049 42.6831 33.4354 43.0393 33.6103 43.2901C33.7876 43.5311 33.9933 43.6741 34.3109 43.6904C34.4666 43.6927 34.6393 43.6659 34.8036 43.6026C34.9623 43.537 35.1174 43.4411 35.2094 43.3481L35.2792 43.2759C35.4887 43.0631 35.8365 43.0566 36.0551 43.2589C36.2461 43.4352 36.277 43.7142 36.1425 43.9241C35.7467 44.546 35.1627 44.8831 34.4621 45.0237C34.1108 45.0765 33.7225 45.0729 33.361 44.9501C33.2712 44.9204 33.1783 44.8921 33.0918 44.8563L32.8462 44.7224C32.6735 44.6353 32.5454 44.5171 32.4079 44.4009C31.8885 43.9211 31.5877 43.3489 31.3752 42.802C31.2671 42.5259 31.1988 42.2537 31.1129 41.9755L30.9456 41.1584C30.8251 40.5729 31.217 40.0045 31.8211 39.8883C32.4242 39.7715 33.0104 40.1511 33.1309 40.7366C33.1431 40.7999 33.1507 40.8638 33.1516 40.9264L33.1522 40.9962Z" fill="#173A4F"/>
<path d="M4.0356 2.50641C4.02407 2.50641 4.01711 2.50705 4.01254 2.50789C3.89595 2.52202 3.7985 2.55176 3.71324 2.59942C3.39176 2.7787 3.21601 3.23194 3.124 3.57931C2.34444 6.55249 4.30248 13.1885 7.39962 18.074C10.3408 22.7144 12.6719 26.3931 13.0786 31.3455C13.7307 29.9138 14.3008 28.0211 14.3008 25.0271C14.3008 18.507 8.75232 6.21546 5.13206 3.11657C4.47213 2.55176 4.12847 2.50641 4.0356 2.50641ZM32.0186 54.197H24.0192C23.1076 54.197 22.2028 54.1122 21.3297 53.9456C14.7759 52.7105 10.0176 47.1056 10.0176 40.6206C10.0176 39.0835 10.2118 37.724 10.6101 36.4689C11.7879 29.5099 9.66848 25.7538 5.51424 19.1982C2.09344 13.8031 0.0583989 6.55924 0.979341 3.05034C1.26559 1.96037 1.81329 1.18275 2.60764 0.740892C2.94739 0.549598 3.32955 0.426854 3.73934 0.377713C4.63092 0.268251 5.59406 0.649359 6.597 1.50713C10.9538 5.23621 16.5146 18.4252 16.5146 25.0271C16.5146 29.3901 15.4404 31.7078 14.2434 33.8886L14.0929 34.1609C13.5874 35.0745 13.1093 35.9391 12.7669 36.971C12.7539 37.0299 12.7347 37.0879 12.7126 37.1423C12.3887 38.1802 12.2314 39.3193 12.2314 40.6206C12.2314 46.0804 16.236 50.7991 21.7541 51.8393C22.489 51.9791 23.251 52.0506 24.0192 52.0506H32.0186C32.6301 52.0506 33.1251 52.5304 33.1251 53.1235C33.1251 53.7157 32.6301 54.197 32.0186 54.197Z" fill="#173A4F"/>
<path d="M32.0186 25.2228C22.7974 25.2228 21.1454 21.1343 18.8587 15.4752C18.2349 13.9305 17.5267 12.1791 16.5905 10.3174C14.6201 6.40233 11.3244 3.4671 7.77458 2.46486C6.13411 2.00128 4.62088 2.0422 3.72844 2.57348C3.2075 2.88373 2.52604 2.7245 2.20608 2.21937C1.88699 1.7134 2.05034 1.05346 2.57149 0.743213C4.00859 -0.111812 6.1302 -0.23519 8.39319 0.404708C12.5322 1.57272 16.3404 4.92681 18.5803 9.37551C19.5554 11.3167 20.2806 13.1099 20.9199 14.6932C23.175 20.2749 24.3076 23.0762 32.0186 23.0762C32.6294 23.0762 33.1251 23.5577 33.1251 24.1499C33.1251 24.7421 32.6294 25.2228 32.0186 25.2228Z" fill="#173A4F"/>
<path d="M60.0006 2.50657C59.9086 2.50657 59.5647 2.55192 58.9041 3.11673C55.2845 6.21561 49.7351 18.5072 49.7351 25.0272C49.7351 28.0227 50.3054 29.9154 50.9591 31.3477C51.3658 26.3968 53.6978 22.7161 56.639 18.0742C59.7398 13.1805 61.6957 6.53851 60.9107 3.57208C60.8187 3.22598 60.6429 2.7759 60.3251 2.60106C60.2362 2.55128 60.1402 2.52218 60.0237 2.50805C60.0197 2.50721 60.0128 2.50657 60.0006 2.50657ZM52.3518 37.8089C51.8776 37.8089 51.4432 37.5122 51.296 37.0553C50.9521 35.986 50.4618 35.1 49.9439 34.161L49.7936 33.8902C48.5964 31.7086 47.5215 29.3903 47.5215 25.0272C47.5215 18.4253 53.0831 5.23636 57.4392 1.50729C58.4421 0.64952 59.4029 0.269257 60.299 0.378719C60.7088 0.427649 61.0886 0.548914 61.4264 0.739364C62.2166 1.17468 62.7661 1.94998 63.0538 3.03785C63.9815 6.54231 61.9504 13.7915 58.525 19.1977C54.7007 25.2347 52.1739 29.222 53.4446 36.5582C53.5405 37.1148 53.1759 37.6482 52.6095 37.7792C52.5236 37.7994 52.4377 37.8089 52.3518 37.8089Z" fill="#173A4F"/>
<path d="M52.3526 37.8122C51.7412 37.8122 51.2461 37.3315 51.2461 36.7393C51.2461 36.1462 51.7412 35.6641 52.3526 35.6641C52.9642 35.6641 53.4591 36.1439 53.4591 36.7363V36.7393C53.4591 37.3315 52.9642 37.8122 52.3526 37.8122Z" fill="#173A4F"/>
<path d="M40.018 54.1978H32.0195C31.4078 54.1978 30.9121 53.7171 30.9121 53.1249C30.9121 52.5318 31.4078 52.0511 32.0195 52.0511H40.018C40.7893 52.0511 41.5504 51.9805 42.281 51.8406C47.8019 50.8004 51.8058 46.0824 51.8058 40.6211C51.8058 39.2842 51.6401 38.1197 51.297 37.0595C51.1152 36.4941 51.4397 35.8913 52.0238 35.7143C52.6078 35.5372 53.2277 35.8527 53.4104 36.4181C53.8202 37.6891 54.0196 39.064 54.0196 40.6211C54.0196 47.1078 49.2614 52.7119 42.706 53.947C41.8381 54.113 40.9329 54.1978 40.018 54.1978Z" fill="#173A4F"/>
<path d="M32.0188 25.2223C31.4072 25.2223 30.9121 24.7417 30.9121 24.1494C30.9121 23.5572 31.4072 23.0757 32.0188 23.0757C39.7289 23.0757 40.8615 20.2753 43.1173 14.6942C43.7572 13.1109 44.4833 11.3163 45.4593 9.37569C47.6953 4.93099 51.4989 1.57817 55.6356 0.406363C57.8816 -0.229738 59.9895 -0.114369 61.4259 0.719565C61.7644 0.903478 61.9939 1.25465 61.9939 1.6579C61.9939 2.25014 61.4973 2.7308 60.8874 2.7308C60.7123 2.7308 60.5413 2.69051 60.3877 2.61543C60.3593 2.60214 60.3316 2.58632 60.304 2.57071C59.4109 2.04112 57.897 2.00232 56.2557 2.46737C52.7083 3.47193 49.4156 6.40631 47.4491 10.317C46.5114 12.1802 45.8032 13.9315 45.1785 15.4769C42.8911 21.1353 41.2389 25.2223 32.0188 25.2223Z" fill="#173A4F"/>
<path d="M47.0806 22.9629L45.7431 25.5446L44.4062 28.1257L50.3385 34.9278C51.6385 36.4181 54.0856 36.1361 54.9887 34.3921L56.7858 30.9226L58.5829 27.4523C59.4868 25.7091 58.2583 23.6376 56.25 23.5163L47.0806 22.9629Z" fill="#FECD27"/>
<path d="M46.215 22.5408L44.8775 25.1227L43.5409 27.7036L34.3704 27.1502C32.3623 27.0289 31.1347 24.9574 32.0378 23.2134L33.8348 19.7439L35.6326 16.2744C36.5359 14.5304 38.982 14.2484 40.2828 15.7387L46.215 22.5408Z" fill="#FECD27"/>
<path d="M37.4662 25.6524C37.4662 26.4819 36.7726 27.1553 35.9163 27.1553C35.0608 27.1553 34.3672 26.4819 34.3672 25.6524C34.3672 24.8226 35.0608 24.1494 35.9163 24.1494C36.7726 24.1494 37.4662 24.8226 37.4662 25.6524Z" fill="#F39314"/>
<path d="M53.9041 26.7207C53.9041 27.5504 53.2104 28.223 52.3541 28.223C51.4986 28.223 50.8047 27.5504 50.8047 26.7207C50.8047 25.8912 51.4986 25.2178 52.3541 25.2178C53.2104 25.2178 53.9041 25.8912 53.9041 26.7207Z" fill="#F39314"/>
<path d="M54.2217 31.956C54.2217 32.7855 53.5281 33.4589 52.6717 33.4589C51.816 33.4589 51.123 32.7855 51.123 31.956C51.123 31.1263 51.816 30.4531 52.6717 30.4531C53.5281 30.4531 54.2217 31.1263 54.2217 31.956Z" fill="#F39314"/>
<path d="M37.4129 27.1511C35.404 27.0299 34.1761 24.9583 35.0795 23.2143L36.8772 19.7449L38.6751 16.2755C38.9113 15.818 39.2568 15.463 39.6587 15.2123C38.3106 14.364 36.4054 14.7807 35.6311 16.2755L33.8333 19.7449L32.036 23.2143C31.1323 24.9583 32.3608 27.0299 34.3689 27.1511L43.5385 27.7048L43.6313 27.5268L37.4129 27.1511Z" fill="#FEFEFE"/>
<path d="M56.2501 23.5165L47.0805 22.9629L46.9961 23.1251L53.4831 23.5165C55.492 23.6378 56.719 25.7091 55.8166 27.4525L54.0186 30.9226L52.2216 34.392C51.9568 34.9024 51.5586 35.2836 51.0968 35.5358C52.4334 36.2738 54.2405 35.837 54.9878 34.392L56.7858 30.9226L58.5829 27.4525C59.4866 25.7091 58.2581 23.6378 56.2501 23.5165Z" fill="#F39314"/>
<path d="M45.7429 25.5447L44.4062 28.1266L47.19 31.3185C48.8207 30.8364 50.2526 29.7359 51.0774 28.1422C51.9022 26.5498 51.959 24.7784 51.3843 23.2225L47.0804 22.9629L45.7429 25.5447Z" fill="#F39314"/>
<path d="M48.7669 27.017C47.8079 28.8683 45.4827 29.6151 43.573 28.6852C41.6639 27.756 40.8926 25.5007 41.8518 23.6496C42.8111 21.7976 45.1376 21.0499 47.0466 21.9798C48.9557 22.9099 49.7262 25.1658 48.7669 27.017Z" fill="#FECD27"/>
<path d="M46.0631 28.6857C44.1537 27.7564 43.3835 25.5012 44.3426 23.6494C44.8859 22.601 45.8664 21.9075 46.9631 21.6709C45.2772 21.3144 43.4917 22.0853 42.6821 23.6494C41.7228 25.5012 42.4933 27.7564 44.4032 28.6857C45.2311 29.0898 46.1375 29.176 46.9762 28.9953C46.6669 28.9297 46.36 28.8299 46.0631 28.6857Z" fill="#FEFEFE"/>
<path d="M42.4312 21.585C42.4312 22.4145 41.7375 23.0879 40.8812 23.0879C40.0257 23.0879 39.332 22.4145 39.332 21.585C39.332 20.7552 40.0257 20.082 40.8812 20.082C41.7375 20.082 42.4312 20.7552 42.4312 21.585Z" fill="#F39314"/>
<path d="M44.5557 28.6857C46.4648 27.7564 47.2352 25.5012 46.2762 23.6494C45.7329 22.601 44.7514 21.9075 43.6556 21.6709C45.3415 21.3144 47.1271 22.0853 47.9367 23.6494C48.8957 25.5012 48.1255 27.7564 46.2155 28.6857C45.3874 29.0898 44.4813 29.176 43.6426 28.9953C43.9519 28.9297 44.2588 28.8299 44.5557 28.6857Z" fill="#F39314"/>
<path d="M52.4754 36.964C51.332 36.964 50.2425 36.4804 49.492 35.621L44.3947 29.7773C44.0001 29.3243 44.0577 28.6472 44.525 28.2647C44.9915 27.8816 45.6897 27.9382 46.085 28.3912L51.1817 34.2349C51.5569 34.6643 52.1039 34.8718 52.6801 34.8064C53.2572 34.7402 53.7383 34.412 53.9993 33.909L57.5935 26.9709C57.8536 26.4679 57.8367 25.8987 57.5474 25.4098C57.2581 24.9217 56.7602 24.6227 56.1816 24.5877L48.3025 24.1138C47.6932 24.0764 47.2291 23.5669 47.2676 22.9753C47.305 22.383 47.8283 21.9336 48.4406 21.9709L56.3182 22.4457C57.6326 22.5252 58.8096 23.2328 59.4658 24.3392C60.1234 25.4471 60.1632 26.7908 59.5716 27.9335L55.9767 34.8727C55.3842 36.0154 54.2501 36.7869 52.9411 36.9381C52.7854 36.9552 52.6297 36.964 52.4754 36.964Z" fill="#173A4F"/>
<path d="M42.2481 28.7009C42.2251 28.7009 42.2014 28.7003 42.1783 28.6988L34.3009 28.2211C32.9865 28.1422 31.8093 27.4346 31.1533 26.3282C30.4964 25.2196 30.4566 23.8759 31.0474 22.733L34.6424 15.7941C35.2347 14.652 36.3697 13.8803 37.6778 13.7293C38.987 13.5806 40.2762 14.071 41.1271 15.0456L46.2275 20.8922C46.6219 21.3446 46.5636 22.0216 46.097 22.4048C45.6298 22.7872 44.9322 22.7315 44.537 22.2783L39.4374 16.4325C39.0629 16.0031 38.5158 15.7948 37.9394 15.861C37.3626 15.9272 36.8815 16.2539 36.6198 16.7584L33.0256 23.6958C32.7655 24.1995 32.7822 24.7687 33.0724 25.2576C33.3608 25.7442 33.8589 26.0447 34.4382 26.0797L42.3164 26.5566C42.9263 26.5939 43.3898 27.1035 43.3516 27.6942C43.3155 28.2635 42.8282 28.7009 42.2481 28.7009Z" fill="#173A4F"/>
<path d="M45.3154 22.6548C44.3041 22.6548 43.3273 23.1964 42.8422 24.131C42.1595 25.4508 42.7102 27.0641 44.0716 27.7269C45.432 28.3898 47.0957 27.8556 47.78 26.5357C48.1115 25.8958 48.1652 25.1703 47.9336 24.4912C47.701 23.8119 47.2108 23.2605 46.5508 22.9398C46.155 22.7464 45.7321 22.6548 45.3154 22.6548ZM45.3062 30.1606C44.5412 30.1606 43.7815 29.9872 43.0778 29.6449C40.6262 28.4508 39.6333 25.5453 40.8648 23.1675C42.0964 20.7902 45.0929 19.8274 47.5444 21.0218C48.7323 21.6005 49.6162 22.5924 50.0345 23.8163C50.4528 25.0396 50.3538 26.3474 49.7576 27.4992C49.1612 28.6509 48.1376 29.508 46.8762 29.9136C46.3614 30.0788 45.8326 30.1606 45.3062 30.1606Z" fill="#173A4F"/>
<path d="M44.513 42.2959C42.9844 42.2959 41.7461 42.8972 41.7461 43.6381C41.7461 44.3783 42.9844 44.9788 44.513 44.9788C46.0408 44.9788 47.2791 44.3783 47.2791 43.6381C47.2791 42.8972 46.0408 42.2959 44.513 42.2959Z" fill="#F0879E"/>
<path d="M19.525 42.2959C17.9963 42.2959 16.7578 42.8972 16.7578 43.6381C16.7578 44.3783 17.9963 44.9788 19.525 44.9788C21.0526 44.9788 22.292 44.3783 22.292 43.6381C22.292 42.8972 21.0526 42.2959 19.525 42.2959Z" fill="#F0879E"/>
<path d="M52.7051 33.4572C53.546 33.4407 54.222 32.7755 54.222 31.9564C54.222 31.632 54.1145 31.3323 53.9342 31.0859L52.7051 33.4572Z" fill="#E85222"/>
<path d="M50.8027 26.7201C50.8027 27.1316 50.9739 27.5037 51.2502 27.7751C51.5978 26.9806 51.7642 26.1502 51.7627 25.3311C51.2002 25.5557 50.8027 26.0922 50.8027 26.7201Z" fill="#E85222"/>
<path d="M22.7702 40.7801C24.2322 40.7801 25.4173 39.8431 25.4173 38.6874C25.4173 37.5316 24.2322 36.5947 22.7702 36.5947C21.3082 36.5947 20.123 37.5316 20.123 38.6874C20.123 39.8431 21.3082 40.7801 22.7702 40.7801Z" fill="#173A4F"/>
<path d="M40.5135 48.2798C41.5176 50.8506 42.2158 53.5051 42.2158 55.3784C42.2158 58.1409 41.523 59.5223 40.8306 60.7842C40.4511 61.473 40.0717 62.1275 39.8068 62.9515V62.9534C39.5869 63.6352 39.4453 64.4342 39.4453 65.4645C39.4453 69.4004 42.3428 72.6784 46.1841 73.4022C46.7011 73.5009 47.2381 73.5518 47.7851 73.5518H58.1337C58.6816 73.5518 59.2167 73.5009 59.7352 73.4022C62.2516 72.9287 64.3639 71.356 65.52 69.222C66.1305 68.0989 66.4737 66.8217 66.4737 65.4645C66.4737 64.427 66.3308 63.6232 66.1085 62.9395C65.844 62.1207 65.4665 61.4696 65.0886 60.7842C64.6449 59.9772 64.2027 59.1216 63.9417 57.8863C63.7927 57.1903 63.7035 56.3741 63.7035 55.3784C63.7035 50.38 68.6734 39.8226 71.1631 40.1242C71.3367 40.1455 71.4907 40.1955 71.6266 40.2714L71.632 40.2634C69.6418 39.0795 64.7878 40.6069 62.2949 45.5595C59.6173 50.8835 59.9325 54.4394 53.9618 54.7832C53.6471 54.8024 53.3121 54.8106 52.9595 54.8106C46.7054 54.8106 46.4233 51.9131 44.4363 47.3103L40.5135 48.2798Z" fill="#C8E8FB"/>
<path d="M39.8072 62.952C40.0722 62.1277 40.4513 61.4737 40.8311 60.7845C41.3003 59.9297 42 55.5309 42.572 52.504C42.7519 51.5519 43.3114 50.7351 43.342 50.2074C43.9589 50.1281 44.1884 53.6614 43.998 55.8439C43.9206 58.2825 42.1144 60.9169 42.1144 65.8155C42.1144 69.3666 45.7812 72.8649 52.96 72.8649C53.4872 72.8649 49.0278 73.552 49.5755 73.552H47.7856C47.2385 73.552 46.7015 73.5017 46.1843 73.4029C42.3428 72.6791 39.4453 69.4009 39.4453 65.4652C39.4453 64.4342 39.5873 63.636 39.8072 62.9541V62.952Z" fill="#A3D3F2"/>
<path d="M63.3724 69.2219C63.9823 68.0986 64.3261 66.8219 64.3261 65.4641C64.3261 64.4266 64.1832 63.6231 63.9614 62.9391C63.6964 62.1205 63.3188 61.4699 62.941 60.784C62.4973 59.9769 62.0551 59.1216 61.7934 57.8859C61.6458 57.1901 61.5557 56.3743 61.5557 55.3782C61.5557 50.3803 66.5258 39.8222 69.0154 40.124C69.189 40.1451 69.343 40.1957 69.479 40.2716L69.484 40.263C69.2625 40.1312 69.0041 40.0354 68.7186 39.9715C69.7446 39.7876 70.6503 39.892 71.2743 40.263L71.2687 40.2716C71.1327 40.1957 70.9789 40.1451 70.8051 40.124C68.3157 39.8222 63.3454 50.3803 63.3454 55.3782C63.3454 56.3743 63.4348 57.1901 63.5838 57.8859C63.8448 59.1216 64.287 59.9769 64.7307 60.784C65.1085 61.4699 65.4861 62.1205 65.7506 62.9391C65.9729 63.6231 66.1158 64.4266 66.1158 65.4641C66.1158 66.8219 65.7724 68.0986 65.162 69.2219C64.0062 71.3563 61.8939 72.9284 59.3775 73.4025C58.8588 73.501 58.3237 73.5516 57.776 73.5516H55.9863C56.534 73.5516 57.0691 73.501 57.5879 73.4025C60.1047 72.9284 62.2158 71.3563 63.3724 69.2219Z" fill="#FEFEFE"/>
<path d="M55.5359 55.4191H50.6121C50.46 55.4191 50.3156 55.3873 50.1856 55.3303C48.942 54.8963 47.7814 54.1948 46.7487 53.1605C45.7185 52.129 44.8189 50.7675 44.0952 49.0105C43.9149 48.5724 43.6537 48.5823 43.3013 48.7188C43.0892 48.8006 42.8428 48.9128 42.5807 49.0315C41.4507 49.5441 40.0641 50.1732 38.2798 50.0329C37.9471 50.0068 37.5603 49.9309 37.1727 49.8551C36.689 49.7605 36.2074 49.6615 36.2046 49.6632C36.081 49.7379 36.6281 49.8699 37.3069 50.9245C38.6814 53.0593 39.5734 54.5434 40.1267 56.0455C40.6927 57.5818 40.8885 59.0837 40.8545 61.2194C40.8532 61.3219 40.8363 61.4206 40.8056 61.5134C40.6609 61.9478 40.55 62.3914 40.4771 62.8398C40.4075 63.2686 40.371 63.7243 40.371 64.2048C40.371 66.6201 41.3907 68.8165 43.0331 70.4093C44.6756 72.0019 46.9407 72.9906 49.4315 72.9906H56.7163C59.2073 72.9906 61.4724 72.0019 63.1149 70.4093C64.7573 68.8165 65.777 66.6201 65.777 64.205C65.777 63.7243 65.7405 63.2686 65.6709 62.8398C65.598 62.3914 65.4871 61.9478 65.342 61.5136C65.305 61.402 65.2893 61.2885 65.2928 61.1776C65.2624 59.0643 65.459 57.5717 66.0213 56.0455C66.5746 54.5434 67.4666 53.0593 68.8411 50.9245C69.7333 49.5381 71.2474 46.7305 71.9089 44.165C72.2995 42.6494 72.392 41.2644 71.8382 40.4693C71.7958 40.4083 71.7475 40.3552 71.695 40.3098C71.3107 39.9783 70.601 39.9578 69.7997 40.1213C68.8339 40.3181 67.7901 40.7863 66.9337 41.3469C66.4767 41.6461 66.0833 41.9663 65.7977 42.2776C63.9186 44.3243 63.3176 45.8382 62.5226 47.841C62.3671 48.233 62.2046 48.6416 62.0528 49.0105C61.3293 50.7677 60.4295 52.1294 59.3996 53.1605C58.3431 54.2186 57.1527 54.9286 55.8759 55.3601C55.7634 55.398 55.6488 55.4162 55.5359 55.416V55.4191ZM50.7846 53.41H55.3634C56.2818 53.0736 57.1433 52.5404 57.9188 51.7639C58.7679 50.9137 59.5185 49.7697 60.1348 48.2727C60.3166 47.8308 60.4599 47.4706 60.5963 47.1268C61.4731 44.9178 62.1361 43.248 64.252 40.9434C64.6525 40.507 65.1797 40.074 65.7766 39.6832C66.8306 38.9931 68.1398 38.4119 69.379 38.1594C70.7826 37.873 72.1325 38.0012 73.071 38.8111C73.2507 38.9663 73.4127 39.1445 73.5539 39.3472C74.4901 40.6911 74.4361 42.634 73.9161 44.6514C73.1939 47.4525 71.5591 50.4891 70.5973 51.9836C69.3 53.9987 68.4628 55.3864 67.9715 56.7204C67.5058 57.9848 67.3368 59.2503 67.3553 61.0443C67.5073 61.523 67.6267 62.0204 67.7102 62.5335C67.8014 63.0943 67.849 63.653 67.849 64.2048C67.849 67.1746 66.5966 69.8736 64.5796 71.8295C62.5626 73.7853 59.7789 74.9997 56.7163 74.9997H49.4315C46.3693 74.9997 43.5854 73.7853 41.5684 71.8295C39.5514 69.8736 38.299 67.1746 38.299 64.205C38.299 63.653 38.3466 63.0943 38.4378 62.5335C38.5213 62.0204 38.6407 61.5228 38.7927 61.0443C38.8114 59.2503 38.6422 57.9851 38.1765 56.7204C37.6852 55.3864 36.848 53.9987 35.5507 51.9836C34.0406 49.6381 34.1948 48.5155 35.1122 47.9603C35.7983 47.5455 36.6911 47.7199 37.5773 47.8933C37.879 47.9523 38.1798 48.0114 38.4417 48.0318C39.6972 48.1305 40.8045 47.6282 41.7067 47.219C41.9958 47.088 42.2673 46.9646 42.5405 46.859C44.053 46.2735 45.1824 46.2549 46.0132 48.2727C46.6297 49.7695 47.3803 50.9135 48.2295 51.7639C49.0047 52.5402 49.8665 53.0736 50.7846 53.41Z" fill="#173A4F"/>
<path fill-rule="evenodd" clip-rule="evenodd" d="M65.9864 58.7633C65.8722 55.4495 67.5236 52.4852 69.5971 49.2634C70.7331 47.4985 73.2112 42.0496 71.8244 40.0582C70.7695 38.5437 68.63 41.5312 67.8694 43.2035C64.7817 49.9918 63.906 54.9832 65.9864 58.7633Z" fill="#F0879E"/>
<path fill-rule="evenodd" clip-rule="evenodd" d="M39.807 61.8335C39.9617 57.3496 39.2363 55.8131 36.4297 51.4535L40.644 48.6387C42.7703 54.6306 42.111 57.648 39.807 61.8335Z" fill="#F0879E"/>
<path d="M38.7762 61.8026C38.8491 59.6844 38.7195 58.2777 38.2505 56.9152C37.7731 55.5283 36.9172 54.1034 35.5525 51.9835C35.251 51.5134 35.3996 50.8948 35.8844 50.6025L40.058 47.8151C40.5272 47.5009 41.1706 47.6152 41.4947 48.0701C41.5497 48.1473 41.5919 48.2296 41.6219 48.3141L41.6241 48.3135C42.7351 51.4447 43.116 53.826 42.9154 56.0003C42.7136 58.1891 41.9316 60.1008 40.7184 62.3048C40.4504 62.7922 39.8251 62.9767 39.3224 62.7169C38.9644 62.5319 38.7649 62.171 38.7762 61.8026ZM40.209 56.2795C40.349 56.6866 40.4639 57.0926 40.5557 57.5104C40.7042 56.957 40.8071 56.4006 40.86 55.8277C41.0068 54.2369 40.7762 52.4697 40.0856 50.2285L37.8277 51.7368C38.9737 53.5482 39.73 54.8882 40.209 56.2795Z" fill="#173A4F"/>
<path fill-rule="evenodd" clip-rule="evenodd" d="M35.5643 48.2738C34.2279 48.514 30.5091 54.4465 32.386 57.1408C33.8135 59.1904 38.3612 57.2859 40.0572 55.4386C42.4035 52.8826 43.2393 50.4354 44.3619 47.7101C43.1273 46.3959 40.6514 49.4889 35.5643 48.2738Z" fill="#C8E8FB" stroke="#173A4F" stroke-width="0.9525" stroke-miterlimit="22.9256" stroke-linecap="round" stroke-linejoin="round"/>
<path fill-rule="evenodd" clip-rule="evenodd" d="M35.5643 48.2736C34.2279 48.5139 30.5091 54.4464 32.386 57.1407C33.8135 59.1904 38.3612 57.2858 40.0572 55.4385C42.4035 52.8825 43.2393 50.4353 44.3619 47.7099C44.2096 47.5728 42.2231 47.2509 42.0159 47.5125C40.8039 49.043 38.0941 56.3102 34.3062 55.8156C30.1924 55.2784 36.3577 48.4633 35.5643 48.2736Z" fill="#A3D3F2"/>
<path d="M34.6248 47.603C34.8437 47.4598 35.0688 47.3586 35.295 47.3059C35.4586 47.263 35.6352 47.2584 35.8112 47.3004C38.3921 47.9169 40.2649 47.2831 41.598 46.8322C43.0969 46.3251 44.1312 45.9752 45.1267 47.0348C45.3816 47.3101 45.471 47.7117 45.321 48.0786L44.9753 48.9328C43.9726 51.4087 43.0486 53.6884 40.83 56.1054C40.4293 56.5416 39.9023 56.9746 39.3055 57.3654C38.2514 58.0555 36.942 58.6366 35.7028 58.8892C34.2992 59.1757 32.9494 59.0476 32.0108 58.2375C31.8313 58.0827 31.6693 57.9043 31.5281 57.7016C31.2204 57.26 31.0242 56.758 30.9209 56.217C30.6209 54.6472 31.1519 52.748 31.9442 51.1316C32.7347 49.5191 33.8268 48.1257 34.6248 47.603ZM35.6928 49.3302C35.163 49.7328 34.4167 50.7563 33.8135 51.987C33.1777 53.2841 32.7408 54.7505 32.952 55.8559C33.0033 56.1246 33.0979 56.3699 33.2439 56.5796C33.2861 56.6403 33.3344 56.6937 33.3868 56.7388C33.7709 57.0703 34.4806 57.0908 35.2822 56.9274C36.2481 56.7304 37.292 56.2624 38.1483 55.7018C38.6055 55.4025 38.9988 55.0821 39.2844 54.7712C41.1724 52.7144 42.0396 50.6899 42.9255 48.508C42.7393 48.5671 42.5211 48.6409 42.278 48.7232C40.7658 49.2346 38.6662 49.945 35.6928 49.3302Z" fill="#173A4F"/>
<path d="M51.7267 64.8808C51.8568 64.3368 52.8271 64.3282 53.355 64.3674C53.8831 64.4062 54.8408 64.556 54.885 65.1132C54.9409 65.8193 53.5956 66.8863 53.1606 66.8544C52.7255 66.8224 51.5623 65.5706 51.7267 64.8808Z" fill="#173A4F"/>
<path d="M52.5321 65.2379L52.5579 65.8007C52.5858 65.9947 52.603 66.1832 52.6461 66.3783C52.7311 66.7645 52.8716 67.1764 53.1689 67.5491C53.2481 67.64 53.3208 67.7315 53.4276 67.8066L53.5774 67.9207C53.6313 67.9534 53.6905 67.9814 53.7475 68.0101C53.9757 68.1278 54.2352 68.1685 54.4751 68.1679C54.9584 68.143 55.3838 67.9749 55.714 67.5984C55.8469 67.4474 55.8277 67.2203 55.672 67.0918C55.5361 66.9798 55.3412 66.9794 55.2052 67.0809L55.1502 67.1222C55.0793 67.1756 54.9658 67.2236 54.8531 67.2519C54.7365 67.2779 54.6178 67.2789 54.514 67.2618C54.3041 67.2192 54.1816 67.1041 54.0877 66.925C53.9981 66.7405 53.9483 66.4891 53.9441 66.2134C53.94 66.0778 53.9565 65.9289 53.9602 65.7895L54.0233 65.3474L54.0296 65.3048C54.0868 64.9055 53.7988 64.5369 53.3871 64.4816C52.9753 64.4262 52.5951 64.705 52.5381 65.1047C52.5321 65.1479 52.5299 65.1951 52.5321 65.2379Z" fill="#173A4F"/>
<path d="M52.5317 65.2378L52.525 65.6836C52.5074 65.822 52.5 65.9713 52.4756 66.1057C52.4284 66.3777 52.3403 66.6186 52.222 66.7879C52.1024 66.951 51.9632 67.0476 51.7487 67.0585C51.6434 67.06 51.5266 67.0421 51.4157 66.9993C51.3082 66.955 51.2036 66.89 51.1414 66.8272L51.0942 66.7785C50.9526 66.6346 50.7175 66.6302 50.5698 66.7668C50.4408 66.886 50.4199 67.0746 50.5106 67.2165C50.7782 67.6368 51.1729 67.8646 51.6465 67.9597C51.8838 67.9954 52.1463 67.9928 52.3906 67.91C52.4513 67.8899 52.5141 67.8707 52.5726 67.8465L52.7386 67.756C52.8552 67.6972 52.9418 67.6172 53.0348 67.5388C53.3859 67.2144 53.5891 66.8278 53.7328 66.4581C53.8057 66.2716 53.852 66.0875 53.9101 65.8996L54.023 65.3472C54.1046 64.9516 53.8396 64.5675 53.4314 64.4889C53.0237 64.41 52.6275 64.6667 52.5461 65.0623C52.5378 65.1049 52.5328 65.1482 52.5322 65.1905L52.5317 65.2378Z" fill="#173A4F"/>
<path d="M44.8539 66.1162C45.8871 66.1162 46.7238 66.5226 46.7238 67.0233C46.7238 67.5236 45.8871 67.9294 44.8539 67.9294C43.8214 67.9294 42.9844 67.5236 42.9844 67.0233C42.9844 66.5226 43.8214 66.1162 44.8539 66.1162Z" fill="#F0879E"/>
<path d="M61.7411 66.1162C62.7743 66.1162 63.6113 66.5226 63.6113 67.0233C63.6113 67.5236 62.7743 67.9294 61.7411 67.9294C60.7088 67.9294 59.8711 67.5236 59.8711 67.0233C59.8711 66.5226 60.7088 66.1162 61.7411 66.1162Z" fill="#F0879E"/>
<path d="M59.666 65.0923C60.6541 65.0923 61.4551 64.4591 61.4551 63.678C61.4551 62.8969 60.6541 62.2637 59.666 62.2637C58.6779 62.2637 57.877 62.8969 57.877 63.678C57.877 64.4591 58.6779 65.0923 59.666 65.0923Z" fill="#173A4F"/>
<path d="M47.0039 65.0923C47.992 65.0923 48.793 64.4591 48.793 63.678C48.793 62.8969 47.992 62.2637 47.0039 62.2637C46.0158 62.2637 45.2148 62.8969 45.2148 63.678C45.2148 64.4591 46.0158 65.0923 47.0039 65.0923Z" fill="#173A4F"/>
<path fill-rule="evenodd" clip-rule="evenodd" d="M66.7044 57.4977C66.5967 54.376 68.6376 52.7754 70.5911 49.7406C71.661 48.078 74.4053 42.9451 73.0987 41.0693C72.1051 39.6425 70.5245 42.4573 69.8082 44.0321C66.8999 50.4265 65.5502 54.1042 66.7044 57.4977Z" fill="#F7C8D7"/>
<path d="M65.5961 57.5044C65.6876 57.0885 65.802 56.6842 65.9415 56.2791C66.4896 54.6873 67.4003 53.1635 68.8418 50.9239C69.734 49.5376 71.2481 46.7299 71.9096 44.1644C72.3002 42.6488 72.3927 41.2638 71.8389 40.4687C71.7958 40.4067 71.7595 40.367 71.7301 40.3478L71.7199 40.3409C71.6877 40.3386 71.6057 40.3714 71.4921 40.4271C71.1594 40.5908 70.7768 40.9287 70.3885 41.356C69.5265 42.3044 68.7293 43.6083 68.2928 44.5673C66.2584 49.0396 65.3294 52.0653 65.2535 54.5523C65.2217 55.594 65.3424 56.5551 65.5961 57.5044ZM67.8999 56.9147C67.431 58.2772 67.3014 59.684 67.3742 61.8021C67.3853 62.1706 67.1859 62.5315 66.8278 62.7164C66.3252 62.9763 65.6998 62.7917 65.4318 62.3043C63.9425 59.5981 63.1029 57.3387 63.1897 54.4975C63.2746 51.7247 64.2553 48.4718 66.3991 43.7591C66.905 42.6474 67.8312 41.1339 68.8346 40.0298C69.3805 39.4291 69.9691 38.9293 70.5616 38.6378C71.3238 38.2628 72.0836 38.2094 72.792 38.6289L72.8873 38.6842C73.1342 38.846 73.3586 39.0651 73.5546 39.3466C74.4908 40.6906 74.4368 42.6335 73.9168 44.6508C73.1946 47.4519 71.5598 50.4885 70.598 51.983C69.2335 54.1029 68.3774 55.5278 67.8999 56.9147Z" fill="#173A4F"/>
</svg>
