<svg width="59" height="75" viewBox="0 0 59 75" fill="none" xmlns="http://www.w3.org/2000/svg">
<path d="M47.7482 64.9734C48.0732 66.9662 48.3658 69.8376 48.9443 71.9603C49.2431 73.064 48.5042 74.1621 47.2819 74.1621H45.5079C44.8464 74.1621 44.2593 73.7769 44.0375 73.1974C43.6393 72.1585 43.1821 69.1621 43.0742 65.1552V65.1251C44.6129 65.0837 46.2558 64.9979 47.7288 64.832L47.7482 64.9734Z" fill="#C8E8FB"/>
<path d="M48.6305 70.2594C48.5152 69.4425 48.4079 68.6619 48.297 67.9843L48.2775 67.8428C46.8046 68.0088 45.1622 68.0945 43.623 68.136V68.1661C43.6462 69.025 43.6865 69.8338 43.7376 70.5904C45.2433 70.5484 46.84 70.4628 48.2775 70.3008C48.3958 70.2877 48.514 70.2735 48.6305 70.2594Z" fill="#A3D3F2"/>
<path d="M47.2824 74.9809H45.5083C44.4787 74.9809 43.5551 74.3748 43.2095 73.4728C42.7864 72.3674 42.3091 69.3737 42.1956 65.1753C42.1835 64.7232 42.5675 64.3472 43.0527 64.3364C43.535 64.3234 43.9416 64.6823 43.9537 65.1344C44.069 69.4011 44.5622 72.1288 44.8658 72.9218C44.9621 73.1728 45.2206 73.3421 45.5083 73.3421H47.2824C47.6152 73.3421 47.8134 73.1888 47.9219 73.0591C48.117 72.8252 48.181 72.489 48.0913 72.16C47.6665 70.5991 47.3952 68.6694 47.155 66.9665C47.0605 66.2933 46.9708 65.6577 46.8794 65.0964C46.8063 64.6488 47.136 64.2308 47.6164 64.1625C48.0975 64.0955 48.5449 64.4023 48.6175 64.8492C48.7125 65.4281 48.8027 66.0712 48.8985 66.7535C49.1319 68.411 49.3965 70.2895 49.7966 71.7578C50.0172 72.5746 49.8354 73.4369 49.3087 74.0663C48.823 74.6474 48.084 74.9809 47.2824 74.9809Z" fill="#173A4F"/>
<path d="M35.5222 64.9734C35.1972 66.9662 34.9046 69.8376 34.326 71.9603C34.0273 73.064 34.7662 74.1621 35.9885 74.1621H37.7625C38.424 74.1621 39.011 73.7769 39.2329 73.1974C39.6311 72.1585 40.0883 69.1621 40.1962 65.1552V65.1251C38.6575 65.0837 37.0146 64.9979 35.5416 64.832L35.5222 64.9734Z" fill="#C8E8FB"/>
<path d="M34.6406 70.2594C34.7559 69.4425 34.8632 68.6619 34.9741 67.9843L34.9937 67.8428C36.4665 68.0088 38.1089 68.0945 39.6481 68.136V68.1661C39.6249 69.025 39.5847 69.8338 39.5335 70.5904C38.0278 70.5484 36.4311 70.4628 34.9937 70.3008C34.8753 70.2877 34.7571 70.2735 34.6406 70.2594Z" fill="#A3D3F2"/>
<path d="M35.989 74.9809H37.763C38.7926 74.9809 39.7163 74.3748 40.0619 73.4728C40.485 72.3674 40.9622 69.3737 41.0758 65.1753C41.0879 64.7232 40.7039 64.3472 40.2186 64.3364C39.7363 64.3234 39.3297 64.6823 39.3176 65.1344C39.2024 69.4011 38.7092 72.1288 38.4055 72.9218C38.3093 73.1728 38.0508 73.3421 37.763 73.3421H35.989C35.6561 73.3421 35.4579 73.1888 35.3494 73.0591C35.1543 72.8252 35.0904 72.489 35.1801 72.16C35.6048 70.5991 35.8761 68.6694 36.1163 66.9665C36.2109 66.2933 36.3006 65.6577 36.392 65.0964C36.4651 64.6488 36.1354 64.2308 35.6549 64.1625C35.1738 64.0955 34.7264 64.4023 34.6539 64.8492C34.5588 65.4281 34.4686 66.0712 34.3729 66.7535C34.1394 68.411 33.8748 70.2895 33.4748 71.7578C33.2541 72.5746 33.4359 73.4369 33.9626 74.0663C34.4484 74.6474 35.1873 74.9809 35.989 74.9809Z" fill="#173A4F"/>
<path d="M32.7238 51.9912C33.3176 57.1633 35.1356 60.8283 36.5469 63.5316C35.9688 64.2058 34.1858 64.6132 32.043 64.8512C30.57 65.017 28.9271 65.1028 27.3884 65.1437C26.5361 65.1658 25.7156 65.1743 24.9723 65.1743C24.2293 65.1743 23.41 65.1658 22.5565 65.1437C21.0219 65.1028 19.3822 65.017 17.9141 64.8528C15.7663 64.6132 13.9783 64.2058 13.4004 63.5316C14.8117 60.8283 16.6278 57.1649 17.2215 51.9912H17.2234C19.3559 53.3251 22.9655 53.5193 24.9723 53.5193C26.9799 53.5193 30.5914 53.3251 32.7238 51.9912Z" fill="#FECD27"/>
<path d="M20.5424 56.3613C20.5424 56.9946 19.9911 57.5087 19.3108 57.5087C18.6312 57.5087 18.0801 56.9946 18.0801 56.3613C18.0801 55.7279 18.6312 55.2139 19.3108 55.2139C19.9911 55.2139 20.5424 55.7279 20.5424 56.3613Z" fill="#F39314"/>
<path d="M32.0607 64.992C32.3857 66.9847 32.6783 69.8562 33.2568 71.9789C33.5556 73.0825 32.8167 74.1807 31.5944 74.1807H29.8204C29.1589 74.1807 28.5718 73.7955 28.35 73.216C27.9518 72.1771 27.4946 69.1807 27.3867 65.1737V65.1436C28.9254 65.1023 30.5683 65.0164 32.0413 64.8506L32.0607 64.992Z" fill="#C8E8FB"/>
<path d="M22.5556 65.143V65.1736C22.4502 69.1801 21.993 72.177 21.5948 73.2154C21.3729 73.7947 20.7859 74.1799 20.1244 74.1799H18.3503C17.1281 74.1799 16.3874 73.0824 16.6879 71.9781C17.2665 69.856 17.5591 66.9839 17.8822 64.9913L17.9126 64.8516C19.3813 65.0156 21.0211 65.1021 22.5556 65.143Z" fill="#C8E8FB"/>
<path d="M17.8824 64.9913C17.772 65.669 17.666 66.4495 17.5508 67.2668C17.6702 67.2816 17.791 67.2964 17.9128 67.3101C19.3456 67.4697 20.9409 67.5555 22.443 67.5975C22.4936 66.8409 22.5332 66.032 22.5558 65.1731V65.143C21.0213 65.1016 19.3815 65.0158 17.9128 64.8516L17.8824 64.9913Z" fill="#A3D3F2"/>
<path d="M32.3942 67.2671C32.2789 66.4503 32.1716 65.6697 32.0607 64.9921L32.0411 64.8506C30.5683 65.0166 28.9259 65.1023 27.3867 65.1438V65.1739C27.4099 66.0328 27.4501 66.8416 27.5013 67.5982C29.007 67.5562 30.6037 67.4705 32.0411 67.3085C32.1595 67.2955 32.2777 67.2813 32.3942 67.2671Z" fill="#A3D3F2"/>
<path d="M16.6496 41.0625C17.2849 44.2418 17.4898 47.0605 17.4013 49.5632C15.9596 52.7567 10.6552 54.4052 8.06121 52.9634C6.31343 51.9904 5.44282 49.7614 9.19518 49.1695C12.1519 48.705 16.4412 44.5139 16.6496 41.0625Z" fill="#C8E8FB"/>
<path d="M10.2576 52.9644C9.51312 52.5156 8.37569 51.2023 11.5134 50.2316C13.3984 49.6488 15.6668 47.0891 17.233 44.9426C17.1081 43.7116 16.9195 42.4222 16.6484 41.0635C16.4393 44.5148 12.1498 48.7057 9.19308 49.1704C5.44089 49.7624 6.31149 51.9913 8.05928 52.9644C8.97793 53.4745 10.2368 53.596 11.5433 53.4007C11.0708 53.3165 10.6264 53.1871 10.2576 52.9644Z" fill="#FEFEFE"/>
<path d="M17.4002 49.5632C17.4885 47.0605 17.2837 44.2418 16.6484 41.0625C17.2854 41.1789 17.9433 41.2391 18.6157 41.2391H21.003C21.003 43.2807 22.7795 44.936 24.9711 44.936C27.1633 44.936 28.9391 43.2807 28.9391 41.2391H31.3271C31.9988 41.2391 32.6584 41.1789 33.2937 41.0625C32.6939 44.0612 32.4805 46.7362 32.5287 49.1333C32.5494 50.1347 32.6171 51.0857 32.7226 51.9906C30.5901 53.3243 26.9786 53.5192 24.9711 53.5192C22.9642 53.5192 19.3546 53.3243 17.2222 51.9906H17.2203C17.3099 51.2163 17.3715 50.4068 17.4002 49.5632Z" fill="#FECD27"/>
<path d="M33.2948 41.0625C32.6595 41.1789 31.9999 41.2391 31.3275 41.2391H31.0641C30.4906 44.1657 30.2844 46.7838 30.3319 49.1332C30.3515 50.1346 30.4197 51.0856 30.5253 51.9903C28.7402 53.1065 25.9219 53.4242 23.873 53.498C24.2722 53.5121 24.6448 53.5191 24.9721 53.5191C26.9796 53.5191 30.5905 53.3242 32.7229 51.9903C32.6182 51.0856 32.5498 50.1346 32.5297 49.1332C32.4815 46.736 32.6949 44.0611 33.2948 41.0625Z" fill="#F39314"/>
<path d="M32.7236 51.9912C32.1243 52.3662 31.4056 52.6485 30.6406 52.8644C31.327 57.5791 26.778 64.3871 24.6344 64.6245C23.1616 64.7903 26.7291 65.1028 25.1904 65.1437C24.7393 65.1557 24.2992 65.1631 23.873 65.1681C24.2534 65.1727 24.6217 65.1743 24.9721 65.1743C25.7154 65.1743 26.5359 65.1658 27.3882 65.1437C28.9268 65.1028 30.5697 65.017 32.0428 64.8512C34.1856 64.6132 35.9686 64.2058 36.5467 63.5316C35.1353 60.8283 33.3174 57.1633 32.7236 51.9912Z" fill="#F39314"/>
<path d="M24.9715 51.2663C23.0091 51.2663 19.5184 51.0771 17.3707 49.8223C17.3372 50.4267 17.2865 51.014 17.2207 51.5816H17.2226C19.3551 52.9146 22.9647 53.1095 24.9715 53.1095C26.979 53.1095 30.5906 52.9146 32.723 51.5816C32.6565 51.0146 32.6073 50.4267 32.5737 49.8229C30.4254 51.0771 26.9339 51.2663 24.9715 51.2663Z" fill="#FEFEFE"/>
<path d="M27.6108 53.5193C29.0537 53.5193 31.3234 53.4159 33.2791 52.8643C33.2371 52.5775 33.1981 52.2872 33.164 51.9912C31.3796 53.1068 28.5612 53.4243 26.5117 53.4982C26.9109 53.5124 27.284 53.5193 27.6108 53.5193Z" fill="#FEFEFE"/>
<path d="M25.1942 65.1436C23.6599 65.1027 22.0199 65.0162 20.5512 64.8521C18.4035 64.6124 16.5058 64.5806 15.9279 63.9063C17.258 61.3575 19.0576 57.58 19.7442 52.8636C18.9802 52.6478 18.2622 52.3654 17.6629 51.9912H17.661C17.0672 57.1649 15.2512 60.8276 13.8398 63.5314C14.4177 64.2056 16.2052 64.6124 18.3529 64.8521C19.8216 65.0162 21.4614 65.1027 22.9959 65.1436C23.8487 65.1656 24.6687 65.1741 25.4118 65.1741C25.7624 65.1741 26.1312 65.1725 26.511 65.1679C26.0856 65.1629 25.6447 65.1555 25.1942 65.1436Z" fill="#FEFEFE"/>
<path d="M19.8619 51.9913H19.86C19.9502 51.2172 20.0112 50.4077 20.0399 49.5641C20.1264 47.1075 19.9282 44.3457 19.3205 41.2396H19.0571C18.3847 41.2396 17.7275 41.1799 17.0898 41.0635C17.7251 44.2423 17.9293 47.0608 17.8416 49.5641C17.8129 50.4077 17.7514 51.2172 17.6617 51.9913H17.6636C19.796 53.3252 23.4056 53.5194 25.4125 53.5194C25.7399 53.5194 26.113 53.5131 26.5117 53.4985C24.4634 53.4246 21.6468 53.1077 19.8619 51.9913Z" fill="#FEFEFE"/>
<path d="M24.9719 41.2393H28.94C28.94 43.2813 27.1642 44.9366 24.9719 44.9366C22.7804 44.9366 21.0039 43.2813 21.0039 41.2393H24.9719Z" fill="#A3D3F2"/>
<path d="M24.9728 45.7559C22.2995 45.7559 20.125 43.7298 20.125 41.2395C20.125 40.7867 20.5188 40.4199 21.0046 40.4199C21.4905 40.4199 21.8837 40.7867 21.8837 41.2395C21.8837 42.826 23.2694 44.1172 24.9728 44.1172C26.6755 44.1172 28.0611 42.826 28.0611 41.2395C28.0611 40.7867 28.4549 40.4199 28.9401 40.4199C29.4261 40.4199 29.8199 40.7867 29.8199 41.2395C29.8199 43.7298 27.6453 45.7559 24.9728 45.7559Z" fill="#173A4F"/>
<path d="M24.9731 65.9943C24.1329 65.9943 23.3112 65.9835 22.532 65.963C20.7295 65.9147 19.1407 65.8159 17.8099 65.6671C14.1392 65.2574 13.1432 64.5446 12.7139 64.0435C12.5019 63.797 12.4616 63.4579 12.6104 63.1739C14.1259 60.27 15.7895 56.7646 16.3474 51.9046C16.4371 51.1365 16.4955 50.3408 16.5229 49.5386C16.6151 46.9228 16.3669 44.1219 15.7852 41.214C15.6969 40.7693 16.0114 40.341 16.4887 40.258C16.9674 40.1756 17.4259 40.4686 17.5149 40.914C18.119 43.9383 18.3768 46.8581 18.2806 49.5914C18.2524 50.4338 18.1897 51.2718 18.0959 52.0801C17.5465 56.8657 15.995 60.3757 14.5039 63.2864C14.9843 63.5073 15.981 63.8123 18.0184 64.0401C19.2967 64.1828 20.8324 64.2781 22.5821 64.3253C23.3453 64.3458 24.1493 64.3554 24.9731 64.3554C25.4584 64.3554 25.8522 64.7229 25.8522 65.1752C25.8522 65.6273 25.4584 65.9943 24.9731 65.9943Z" fill="#173A4F"/>
<path d="M24.9726 54.3379C22.4297 54.3379 18.9365 54.0487 16.7334 52.6707C16.3297 52.419 16.2224 51.91 16.4932 51.5338C16.7638 51.1579 17.3101 51.0579 17.713 51.31C19.6456 52.519 23.0912 52.699 24.9726 52.699C25.4578 52.699 25.8516 53.0664 25.8516 53.5186C25.8516 53.9709 25.4578 54.3379 24.9726 54.3379Z" fill="#173A4F"/>
<path d="M24.9709 65.9947C24.4849 65.9947 24.0918 65.6277 24.0918 65.1755C24.0918 64.7229 24.4849 64.3553 24.9709 64.3553C25.7945 64.3553 26.5986 64.3457 27.3619 64.3252C29.1193 64.2787 30.6575 64.1821 31.9352 64.0384C33.9678 63.8128 34.9627 63.5079 35.4419 63.2868C33.95 60.3733 32.3966 56.8623 31.8475 52.0789L31.834 51.9448C31.7317 51.0524 31.6695 50.1095 31.6492 49.1506C31.6401 48.716 31.6401 48.265 31.6492 47.8101C31.6914 45.6135 31.9541 43.2931 32.429 40.914C32.518 40.4688 32.9771 40.1756 33.4544 40.258C33.9317 40.3409 34.2469 40.7686 34.1579 41.2133C33.7007 43.5037 33.4484 45.7333 33.4081 47.8402C33.3989 48.2747 33.3989 48.7048 33.4081 49.1183C33.4269 50.0306 33.4862 50.9263 33.5837 51.7801L33.5971 51.9102C34.1538 56.76 35.8186 60.2677 37.336 63.1738C37.4841 63.4584 37.4439 63.7969 37.2317 64.0434C36.8014 64.545 35.8058 65.2591 32.1449 65.6652C30.816 65.8153 29.223 65.9151 27.4118 65.9629C26.6321 65.9839 25.8109 65.9947 24.9709 65.9947Z" fill="#173A4F"/>
<path d="M24.973 54.3375C24.4871 54.3375 24.0938 53.9706 24.0938 53.5183C24.0938 53.0661 24.4871 52.6987 24.973 52.6987C26.8549 52.6987 30.3017 52.5187 32.2343 51.3097C32.6378 51.0582 33.1835 51.1576 33.4546 51.5336C33.7247 51.9097 33.6174 52.4187 33.2139 52.6704C31.0113 54.0484 27.5162 54.3375 24.973 54.3375Z" fill="#173A4F"/>
<path d="M10.4102 54.3063C9.34449 54.3063 8.3733 54.0916 7.60949 53.6673C6.26107 52.9168 5.50313 51.6797 5.72328 50.588C5.88417 49.7865 6.59199 48.7498 9.0476 48.3624C11.6665 47.9505 15.5858 44.0822 15.7712 41.0164C15.7987 40.5654 16.2138 40.2189 16.6985 40.2445C17.1831 40.2701 17.5544 40.6575 17.527 41.1092C17.2928 44.9791 12.642 49.4593 9.34086 49.9779C8.04237 50.1829 7.51323 50.5834 7.45154 50.8901C7.3724 51.2838 7.83811 51.8854 8.5112 52.2602C9.44748 52.7806 11.004 52.8062 12.5738 52.3262C14.4532 51.7507 15.9924 50.5703 16.5905 49.2456C16.7229 48.9485 17.0369 48.7402 17.4032 48.7402C17.889 48.7402 18.2828 49.1071 18.2828 49.5598C18.2828 49.6762 18.2555 49.7905 18.2054 49.895C17.3996 51.6649 15.5011 53.155 13.1224 53.8831C12.1963 54.166 11.2727 54.3063 10.4102 54.3063Z" fill="#173A4F"/>
<path d="M20.1251 74.9997H18.3511C17.5477 74.9997 16.8088 74.6658 16.3223 74.0829C15.7961 73.453 15.6152 72.5907 15.837 71.7766C16.2387 70.302 16.5034 68.4151 16.7369 66.7501C16.8319 66.0771 16.9209 65.4407 17.0135 64.8694C17.0861 64.4218 17.533 64.1128 18.0146 64.1814C18.4943 64.249 18.8247 64.6672 18.7528 65.1142C18.6626 65.6697 18.5742 66.298 18.481 66.9625C18.2413 68.6724 17.9688 70.6105 17.5415 72.18C17.4519 72.5078 17.5154 72.8429 17.7105 73.0768C17.8183 73.2069 18.0177 73.3609 18.3511 73.3609H20.1251C20.4129 73.3609 20.6714 73.1917 20.7676 72.9406C21.0719 72.1465 21.5651 69.4175 21.6773 65.154C21.6894 64.7018 22.096 64.3519 22.5783 64.3553C23.0636 64.3661 23.4475 64.7416 23.436 65.1937C23.325 69.3903 22.8477 72.3845 22.424 73.4916C22.0784 74.3936 21.1547 74.9997 20.1251 74.9997Z" fill="#173A4F"/>
<path d="M31.5949 75.0004H29.8208C28.7912 75.0004 27.8676 74.3943 27.522 73.4923C27.0989 72.3869 26.6216 69.3932 26.5081 65.1948C26.496 64.7427 26.88 64.3667 27.3652 64.3559C27.8475 64.3429 28.2542 64.7018 28.2662 65.1539C28.3815 69.4206 28.8747 72.1483 29.1783 72.9413C29.2746 73.1923 29.5331 73.3615 29.8208 73.3615H31.5949C31.9277 73.3615 32.1259 73.2082 32.2345 73.0786C32.4296 72.8447 32.4935 72.5085 32.4038 72.1795C31.979 70.6186 31.7077 68.6889 31.4675 66.986C31.373 66.3128 31.2833 65.6772 31.1919 65.1159C31.1188 64.6683 31.4485 64.2503 31.9289 64.182C32.41 64.115 32.8574 64.4218 32.93 64.8688C33.0251 65.4476 33.1153 66.0907 33.211 66.773C33.4445 68.4305 33.709 70.3089 34.1091 71.7773C34.3298 72.5941 34.148 73.4564 33.6212 74.0858C33.1355 74.6669 32.3966 75.0004 31.5949 75.0004Z" fill="#173A4F"/>
<path d="M23.0307 47.041C23.0307 47.6744 22.4796 48.1879 21.7993 48.1879C21.1194 48.1879 20.5684 47.6744 20.5684 47.041C20.5684 46.4077 21.1194 45.8936 21.7993 45.8936C22.4796 45.8936 23.0307 46.4077 23.0307 47.041Z" fill="#F39314"/>
<path d="M26.9526 49.3339C26.9526 49.9672 26.4015 50.4813 25.7217 50.4813C25.042 50.4813 24.4902 49.9672 24.4902 49.3339C24.4902 48.7005 25.042 48.1865 25.7217 48.1865C26.4015 48.1865 26.9526 48.7005 26.9526 49.3339Z" fill="#F39314"/>
<path d="M30.1707 46.6152C30.1707 47.2485 29.6196 47.7626 28.9392 47.7626C28.2594 47.7626 27.709 47.2485 27.709 46.6152C27.709 45.9817 28.2594 45.4678 28.9392 45.4678C29.6196 45.4678 30.1707 45.9817 30.1707 46.6152Z" fill="#F39314"/>
<path d="M27.187 56.3613C27.187 56.9946 26.6359 57.5087 25.9555 57.5087C25.2764 57.5087 24.7246 56.9946 24.7246 56.3613C24.7246 55.7279 25.2764 55.2139 25.9555 55.2139C26.6359 55.2139 27.187 55.7279 27.187 56.3613Z" fill="#F39314"/>
<path d="M32.353 59.7288C32.353 60.3623 31.8019 60.8763 31.1215 60.8763C30.4417 60.8763 29.8906 60.3623 29.8906 59.7288C29.8906 59.0955 30.4417 58.582 31.1215 58.582C31.8019 58.582 32.353 59.0955 32.353 59.7288Z" fill="#E85222"/>
<path d="M22.4858 61.6318C22.4858 62.2651 21.9347 62.7793 21.2544 62.7793C20.5747 62.7793 20.0234 62.2651 20.0234 61.6318C20.0234 60.9985 20.5747 60.4844 21.2544 60.4844C21.9347 60.4844 22.4858 60.9985 22.4858 61.6318Z" fill="#F39314"/>
<path d="M28.7116 61.8886C28.7116 62.522 28.1606 63.0355 27.4802 63.0355C26.8006 63.0355 26.25 62.522 26.25 61.8886C26.25 61.2547 26.8006 60.7412 27.4802 60.7412C28.1606 60.7412 28.7116 61.2547 28.7116 61.8886Z" fill="#F39314"/>
<path d="M27.4801 63.0357C28.1599 63.0357 28.7115 62.5229 28.7115 61.8889C28.7115 61.5582 28.5603 61.2622 28.3213 61.0527C27.8824 61.7559 27.4179 62.3916 26.957 62.9261C27.1155 62.996 27.2925 63.0357 27.4801 63.0357Z" fill="#E85222"/>
<path d="M45.2134 37.4099C48.1712 38.8896 44.4114 45.0542 39.8183 46.0053C37.8965 45.0017 35.8864 43.7492 33.7871 42.1786C42.0401 41.0207 42.3043 35.9545 45.2134 37.4099Z" fill="#C8E8FB"/>
<path d="M46.2648 42.0406C45.0336 44.1773 42.6461 46.2598 40.0099 46.8058C39.5357 46.9037 39.066 46.6248 38.9611 46.1836C38.8555 45.7413 39.1538 45.3038 39.6283 45.2059C42.4731 44.6169 45.0431 41.7002 45.3562 39.5849C45.5181 38.4925 44.976 38.2214 44.7977 38.1322C44.1016 37.7839 43.7926 37.967 42.5237 39.0563C41.0118 40.3541 38.7283 42.3142 33.9184 42.9893C33.4385 43.057 32.9902 42.7483 32.9182 42.3014C32.8458 41.8533 33.176 41.4363 33.6571 41.3688C37.9327 40.7682 39.8975 39.0828 41.3325 37.851C42.5859 36.7746 43.7704 35.7579 45.6298 36.6883C46.7722 37.2598 47.3077 38.3969 47.0985 39.8085C46.9939 40.5146 46.7026 41.2809 46.2648 42.0406Z" fill="#173A4F"/>
<path d="M55.6331 60.3269C55.5204 63.4533 47.9232 63.0451 44.9727 59.6302C45.0862 57.5801 45.4004 55.3461 45.981 52.8965C50.7528 59.2767 55.7438 57.2521 55.6331 60.3269Z" fill="#FEFEFE"/>
<path d="M53.7326 60.9704C53.62 64.0967 46.0228 63.6886 43.0723 60.2737C43.1858 58.2236 43.5 55.9896 44.0806 53.54C48.8524 59.9202 53.8434 57.8956 53.7326 60.9704Z" fill="#C8E8FB"/>
<path d="M51.6444 63.256C49.0433 63.1746 45.9814 62.1034 44.2879 60.1435C43.9836 59.7908 44.0436 59.2749 44.4217 58.9917C44.8003 58.7075 45.3533 58.7627 45.6579 59.1157C47.4854 61.2308 51.4304 62.0847 53.6044 61.4088C54.7269 61.0597 54.7476 60.4868 54.7544 60.2984C54.7808 59.5627 54.4677 59.3857 52.8573 58.8085C50.9388 58.1209 48.0411 57.0823 45.2596 53.3639C44.9819 52.9931 45.0802 52.4819 45.478 52.2238C45.8771 51.9645 46.4247 52.0557 46.7029 52.4275C49.1756 55.7325 51.6679 56.6268 53.4889 57.2794C55.0801 57.8493 56.583 58.388 56.5122 60.3534C56.4686 61.5611 55.612 62.5124 54.1611 62.9631C53.4357 63.1887 52.5692 63.2849 51.6444 63.256Z" fill="#173A4F"/>
<path d="M47.7665 1.26333L47.7598 1.27363C47.5934 1.1833 47.4062 1.12646 47.1947 1.1015C44.1374 0.745329 38.0326 13.2069 38.0326 19.1066C38.0326 22.3671 38.8835 23.9979 39.7341 25.4873C40.2003 26.3002 40.6662 27.0727 40.9916 28.0453V28.0475C41.2617 28.8525 41.4355 29.7954 41.4355 31.0116C41.4355 35.6575 37.8765 39.5264 33.1585 40.3808C32.5233 40.4972 31.8637 40.5574 31.1918 40.5574H18.4805C17.8074 40.5574 17.1502 40.4972 16.5133 40.3808C13.4224 39.8219 10.8279 37.9655 9.40788 35.4468C8.65807 34.121 8.23624 32.6134 8.23624 31.0116C8.23624 29.7869 8.41181 28.8383 8.68485 28.0311C9.0099 27.0648 9.47372 26.2963 9.93771 25.4873C10.4828 24.5348 11.0259 23.5248 11.3466 22.0667C11.5295 21.2453 11.6392 20.2819 11.6392 19.1066C11.6392 13.2069 5.53438 0.745329 2.47653 1.1015C2.26312 1.12646 2.07406 1.18556 1.90713 1.27524L1.90039 1.26558C4.34494 -0.131741 10.3072 1.67119 13.3693 7.51682C16.6582 13.8011 16.2711 17.9984 23.605 18.404C23.9915 18.4267 24.403 18.4363 24.8359 18.4363C33.4511 18.4363 32.8404 14.1352 36.3041 7.51682C39.3627 1.67521 45.3218 -0.129487 47.7665 1.26333Z" fill="#C8E8FB"/>
<path d="M47.7665 1.26333L47.7598 1.27363C47.5934 1.1833 47.4062 1.12646 47.1947 1.1015C44.1374 0.745329 38.0326 13.2069 38.0326 19.1066C38.0326 22.3671 38.8835 23.9979 39.7341 25.4873C40.2003 26.3002 40.6662 27.0727 40.9916 28.0453V28.0475C41.2617 28.8525 41.4355 29.7954 41.4355 31.0116C41.4355 35.6575 37.8765 39.5264 33.1585 40.3808C32.5233 40.4972 31.8637 40.5574 31.1918 40.5574H18.4805C17.8074 40.5574 17.1502 40.4972 16.5133 40.3808C13.4224 39.8219 10.8279 37.9655 9.40788 35.4468C8.65807 34.121 8.23624 32.6134 8.23624 31.0116C8.23624 29.7869 8.41181 28.8383 8.68485 28.0311C9.0099 27.0648 9.47372 26.2963 9.93771 25.4873C10.4828 24.5348 11.0259 23.5248 11.3466 22.0667C11.5295 21.2453 11.6392 20.2819 11.6392 19.1066C11.6392 13.2069 5.53438 0.745329 2.47653 1.1015C2.26312 1.12646 2.07406 1.18556 1.90713 1.27524L1.90039 1.26558C4.34494 -0.131741 10.3072 1.67119 13.3693 7.51682C16.6582 13.8011 16.2711 17.9984 23.605 18.404C23.9915 18.4267 24.403 18.4363 24.8359 18.4363C33.4511 18.4363 32.8404 14.1352 36.3041 7.51682C39.3627 1.67521 45.3218 -0.129487 47.7665 1.26333Z" fill="#C8E8FB"/>
<path d="M40.9922 28.0454C40.6668 27.0723 40.2009 26.3004 39.7347 25.4869C38.9769 24.1606 38.2209 22.719 38.0641 20.1157C37.3064 20.0219 36.5652 19.8788 35.8446 19.6885C35.9396 22.5667 38.1581 25.6433 38.1581 31.4253C38.1581 35.6168 33.6542 39.746 24.8365 39.746C24.189 39.746 29.6665 40.5571 28.9936 40.5571H31.1924C31.8643 40.5571 32.5239 40.4975 33.1591 40.3811C37.8777 39.5267 41.4367 35.6573 41.4367 31.0118C41.4367 29.795 41.2623 28.8526 40.9922 28.0478V28.0454Z" fill="#A3D3F2"/>
<path d="M47.7604 1.27335C50.0557 2.49066 48.2773 9.4792 45.1469 14.2275C41.9347 19.0985 39.9479 22.2533 40.9917 28.0457C40.6661 27.0726 40.2009 26.3007 39.7347 25.4872C38.8836 23.9983 38.0332 22.3675 38.0332 19.107C38.0332 13.2073 44.138 0.745051 47.1953 1.10123C47.4069 1.12618 47.594 1.18367 47.7604 1.27335Z" fill="#F7C8D7"/>
<path d="M40.8515 23.2221C40.4845 22.1725 40.2308 20.883 40.2308 19.1073C40.2308 13.9512 44.8951 3.78043 48.1121 1.53905C48.0073 1.4339 47.8914 1.34293 47.7604 1.27369C47.594 1.184 47.4068 1.12716 47.1953 1.1022C44.138 0.746029 38.0332 13.2076 38.0332 19.1073C38.0332 22.3678 38.8836 23.9986 39.7347 25.4875C40.2009 26.3008 40.6661 27.0729 40.9917 28.0459C40.6632 26.2214 40.6357 24.6588 40.8515 23.2221Z" fill="#F0879E"/>
<path d="M11.6401 19.1073C11.6401 22.368 10.7891 23.9988 9.93814 25.4876C9.47467 26.297 9.01086 27.0655 8.68529 28.0318C9.7211 22.2475 7.73795 19.0954 4.52821 14.228C1.39779 9.4842 -0.380576 2.5013 1.9081 1.2761C2.07503 1.18625 2.26408 1.12732 2.4775 1.1022C5.53534 0.746028 11.6401 13.2078 11.6401 19.1073Z" fill="#F7C8D7"/>
<path d="M7.16603 14.228C4.21169 9.75135 2.46391 3.28305 4.1989 1.53922C3.7356 1.21653 3.30151 1.0568 2.91632 1.10237C2.70342 1.12733 2.51454 1.18642 2.34743 1.27611C0.0589309 2.50082 1.8373 9.48373 4.96773 14.228C8.1773 19.095 10.1599 22.2476 9.12481 28.032C9.45021 27.0657 9.91368 26.2972 10.3775 25.4877C10.7653 24.8095 11.1524 24.0988 11.4596 23.2201C10.9891 20.0952 9.36622 17.5642 7.16603 14.228Z" fill="#FEFEFE"/>
<path d="M27.4733 18.4371C36.0892 18.4371 35.4778 14.1358 38.9422 7.51707C41.0424 3.50496 44.5111 1.39754 47.2704 0.922055C44.474 0.322742 39.4629 2.3234 36.7439 7.51707C33.436 13.8353 33.8426 18.0422 26.3906 18.4103C26.735 18.4274 27.0941 18.4371 27.4733 18.4371Z" fill="#FEFEFE"/>
<path d="M12.0458 35.4474C11.2965 34.1216 10.8742 32.6146 10.8742 31.0121C10.8742 29.7874 11.0497 28.8388 11.3223 28.0317C11.6477 27.0654 12.1116 26.2975 12.5756 25.4879C13.1207 24.5353 13.6638 23.5259 13.9851 22.0672C14.1667 21.2458 14.2771 20.2829 14.2771 19.1072C14.2771 13.2081 8.17231 0.745888 5.11428 1.10206C4.90104 1.12702 4.71199 1.18676 4.54488 1.27645L4.53883 1.26614C4.81066 1.1106 5.12828 0.99756 5.47891 0.922042C4.21879 0.704989 3.10625 0.828329 2.33984 1.26614L2.34658 1.27645C2.51369 1.18676 2.70257 1.12702 2.91599 1.10206C5.97383 0.745888 12.0788 13.2081 12.0788 19.1072C12.0788 20.2829 11.9691 21.2458 11.7861 22.0672C11.4655 23.5259 10.9222 24.5353 10.3773 25.4879C9.91335 26.2975 9.44936 27.0654 9.12448 28.0317C8.85144 28.8388 8.67587 29.7874 8.67587 31.0121C8.67587 32.6146 9.0977 34.1216 9.84751 35.4474C11.2673 37.9667 13.8619 39.8224 16.9527 40.382C17.5899 40.4984 18.247 40.558 18.92 40.558H21.1183C20.4453 40.558 19.7882 40.4984 19.151 40.382C16.0596 39.8224 13.4663 37.9667 12.0458 35.4474Z" fill="#FEFEFE"/>
<path d="M12.0458 35.4474C11.2965 34.1216 10.8742 32.6146 10.8742 31.0121C10.8742 29.7874 11.0497 28.8388 11.3223 28.0317C11.6477 27.0654 12.1116 26.2975 12.5756 25.4879C13.1207 24.5353 13.6638 23.5259 13.9851 22.0672C14.1667 21.2458 14.2771 20.2829 14.2771 19.1072C14.2771 13.2081 8.17231 0.745888 5.11428 1.10206C4.90104 1.12702 4.71199 1.18676 4.54488 1.27645L4.53883 1.26614C4.81066 1.1106 5.12828 0.99756 5.47891 0.922042C4.21879 0.704989 3.10625 0.828329 2.33984 1.26614L2.34658 1.27645C2.51369 1.18676 2.70257 1.12702 2.91599 1.10206C5.97383 0.745888 12.0788 13.2081 12.0788 19.1072C12.0788 20.2829 11.9691 21.2458 11.7861 22.0672C11.4655 23.5259 10.9222 24.5353 10.3773 25.4879C9.91335 26.2975 9.44936 27.0654 9.12448 28.0317C8.85144 28.8388 8.67587 29.7874 8.67587 31.0121C8.67587 32.6146 9.0977 34.1216 9.84751 35.4474C11.2673 37.9667 13.8619 39.8224 16.9527 40.382C17.5899 40.4984 18.247 40.558 18.92 40.558H21.1183C20.4453 40.558 19.7882 40.4984 19.151 40.382C16.0596 39.8224 13.4663 37.9667 12.0458 35.4474Z" fill="#FEFEFE"/>
<path d="M19.2385 30.5472C18.6978 30.4615 18.2644 30.349 17.8944 30.3285C17.5249 30.3018 17.2408 30.3377 16.8074 30.3966C16.3758 30.453 15.829 30.5762 15.2577 30.7097C14.97 30.7716 14.6627 30.8245 14.3494 30.813C14.0378 30.8034 13.7311 30.7335 13.4648 30.6188C13.3538 30.5717 13.3051 30.449 13.3563 30.3456C13.399 30.2582 13.4988 30.2126 13.5958 30.2281L13.5994 30.2285C14.0817 30.3081 14.5054 30.1564 14.9053 29.9128C15.3132 29.6656 15.6754 29.2674 16.2385 28.9773C16.5183 28.8353 16.855 28.7313 17.2121 28.7C17.5693 28.6694 17.9395 28.7057 18.2716 28.8034C18.938 29.0079 19.4435 29.3982 19.7592 29.8872C19.8945 30.0973 19.8219 30.3694 19.5964 30.4955C19.4953 30.5523 19.38 30.5699 19.272 30.553L19.2385 30.5472Z" fill="#173A4F"/>
<path d="M16.1549 30.1267C15.928 30.1755 15.6933 30.2096 15.4507 30.2136C15.2087 30.217 14.955 30.1892 14.7119 30.1062C14.4698 30.024 14.2443 29.8797 14.082 29.6961C13.9175 29.5138 13.8193 29.3008 13.7627 29.0923C13.7328 28.9821 13.8041 28.8707 13.9218 28.8424C14.0265 28.8174 14.1333 28.8673 14.1765 28.9559L14.179 28.961C14.2547 29.1156 14.3557 29.2491 14.479 29.3422C14.6022 29.4365 14.7435 29.4923 14.8965 29.5161C15.2037 29.5637 15.5531 29.4802 15.8823 29.3473C16.1061 29.2576 16.3664 29.353 16.4633 29.5615C16.5603 29.77 16.4573 30.0125 16.2335 30.1029C16.2091 30.1125 16.1847 30.1199 16.1604 30.1256L16.1549 30.1267Z" fill="#173A4F"/>
<path d="M29.9158 29.8873C30.2315 29.3981 30.737 29.0079 31.4034 28.8035C31.7355 28.7057 32.1062 28.6693 32.4635 28.7001C32.8207 28.7313 33.1567 28.8352 33.4365 28.9772C33.9998 29.2675 34.3618 29.6657 34.7697 29.9127C35.1695 30.1565 35.5933 30.3082 36.0756 30.2291L36.0792 30.2286C36.2005 30.2086 36.3146 30.2837 36.3358 30.3962C36.3542 30.4904 36.2999 30.5814 36.2102 30.6189C35.9439 30.7336 35.6379 30.8034 35.3258 30.8131C35.013 30.8245 34.705 30.7716 34.4173 30.7097C33.8462 30.5762 33.2999 30.4529 32.8683 30.3967C32.4349 30.3376 32.1501 30.3019 31.7813 30.3286C31.4106 30.3491 30.9772 30.4614 30.4365 30.5473L30.4042 30.5529C30.145 30.5938 29.8994 30.432 29.8543 30.1906C29.8348 30.0821 29.8591 29.9747 29.9158 29.8873Z" fill="#173A4F"/>
<path d="M33.7889 29.3481C34.1181 29.481 34.4675 29.5645 34.7748 29.5167C34.9277 29.4929 35.0692 29.4372 35.1923 29.343C35.3155 29.2497 35.4167 29.1163 35.4922 28.9618L35.4947 28.9573C35.5453 28.8538 35.6763 28.8084 35.786 28.8556C35.8849 28.8976 35.9348 28.9987 35.9085 29.0931C35.8519 29.3014 35.7537 29.5145 35.5892 29.6969C35.4276 29.881 35.2014 30.0246 34.9595 30.107C34.7162 30.19 34.4627 30.2178 34.2206 30.2143C33.9779 30.2109 33.7433 30.1763 33.5164 30.1275L33.5134 30.1264C33.2756 30.0752 33.1281 29.8542 33.1835 29.6327C33.2385 29.4111 33.4756 29.2736 33.7134 29.3248C33.7389 29.3304 33.7657 29.339 33.7889 29.3481Z" fill="#173A4F"/>
<path d="M26.6834 30.8955C26.5302 30.2809 25.3897 30.2712 24.7692 30.3155C24.1484 30.3593 23.0226 30.5285 22.9707 31.1579C22.9049 31.9555 24.4863 33.1609 24.9978 33.125C25.5091 33.0887 26.8766 31.6748 26.6834 30.8955Z" fill="#173A4F"/>
<path d="M25.7371 31.2978L25.7066 31.9336C25.6738 32.1527 25.6536 32.3657 25.603 32.5862C25.5031 33.0224 25.3379 33.4877 24.9884 33.9087C24.8953 34.0114 24.8099 34.1148 24.6843 34.1995L24.508 34.3284C24.4448 34.3653 24.3752 34.3972 24.3081 34.4296C24.0399 34.5624 23.7351 34.6085 23.4529 34.6078C22.8847 34.5795 22.3847 34.3898 21.9964 33.9644C21.8404 33.7938 21.8629 33.5372 22.0459 33.3923C22.2055 33.2655 22.4347 33.265 22.5945 33.3797L22.6592 33.4264C22.7426 33.4866 22.8762 33.541 23.0084 33.5729C23.1456 33.6024 23.2852 33.6035 23.4071 33.5842C23.654 33.536 23.798 33.4059 23.9082 33.2037C24.0136 32.9952 24.0722 32.7111 24.0771 32.3999C24.0819 32.2466 24.0625 32.0783 24.0582 31.921L23.9839 31.4217L23.9765 31.3734C23.9094 30.9223 24.2478 30.5059 24.7318 30.4434C25.2159 30.381 25.6627 30.6958 25.7298 31.1473C25.7371 31.1962 25.7396 31.2495 25.7371 31.2978Z" fill="#173A4F"/>
<path d="M25.7372 31.2975L25.7452 31.8013C25.7659 31.9575 25.7746 32.1263 25.8031 32.278C25.8585 32.5854 25.9622 32.8573 26.1012 33.0488C26.242 33.2328 26.4055 33.342 26.6578 33.3544C26.7815 33.3562 26.9187 33.3357 27.0492 33.2874C27.1753 33.2373 27.2986 33.1641 27.3717 33.0931L27.4271 33.038C27.5935 32.8755 27.8699 32.8705 28.0435 33.0249C28.1953 33.1596 28.2198 33.3726 28.113 33.5328C27.7985 34.0076 27.3345 34.265 26.7779 34.3724C26.4988 34.4126 26.1903 34.4099 25.9031 34.3162C25.8318 34.2935 25.758 34.2719 25.6892 34.2445L25.4941 34.1423C25.3569 34.0758 25.2551 33.9856 25.1459 33.8969C24.7332 33.5305 24.4942 33.0937 24.3254 32.6762C24.2395 32.4654 24.1852 32.2575 24.117 32.0451L23.9841 31.4213C23.8884 30.9743 24.1998 30.5404 24.6796 30.4517C25.1588 30.3625 25.6246 30.6523 25.7203 31.0993C25.73 31.1476 25.736 31.1964 25.7367 31.2442L25.7372 31.2975Z" fill="#173A4F"/>
<path d="M2.60413 1.91358C2.59497 1.91358 2.58945 1.91406 2.58582 1.91471C2.49319 1.92549 2.41577 1.9482 2.34803 1.98459C2.09262 2.12145 1.95299 2.46748 1.87989 2.73268C1.26055 5.00256 2.81617 10.0689 5.27679 13.7987C7.61351 17.3414 9.4655 20.1499 9.78865 23.9308C10.3067 22.8378 10.7597 21.3928 10.7597 19.107C10.7597 14.1293 6.35149 4.74526 3.47526 2.37941C2.95096 1.9482 2.67792 1.91358 2.60413 1.91358ZM24.8361 41.3769H18.4808C17.7565 41.3769 17.0376 41.3122 16.344 41.185C11.1371 40.242 7.35672 35.963 7.35672 31.012C7.35672 29.8384 7.51103 28.8005 7.82745 27.8423C8.7632 22.5295 7.07936 19.6619 3.77889 14.6569C1.06113 10.5381 -0.555671 5.00772 0.176001 2.32885C0.403417 1.4967 0.83855 0.903024 1.46965 0.565689C1.73957 0.419645 2.0432 0.325931 2.36877 0.288414C3.07711 0.204845 3.84231 0.495806 4.63913 1.15067C8.10048 3.99765 12.5185 14.0668 12.5185 19.107C12.5185 22.438 11.665 24.2075 10.714 25.8724L10.5945 26.0803C10.1929 26.7778 9.81302 27.4378 9.54102 28.2257C9.53065 28.2706 9.51544 28.3149 9.49782 28.3564C9.2405 29.1488 9.11556 30.0185 9.11556 31.012C9.11556 35.1802 12.2971 38.7827 16.6811 39.5769C17.265 39.6836 17.8704 39.7382 18.4808 39.7382H24.8361C25.3219 39.7382 25.7152 40.1045 25.7152 40.5573C25.7152 41.0095 25.3219 41.3769 24.8361 41.3769Z" fill="#173A4F"/>
<path d="M24.8366 19.2564C17.5105 19.2564 16.198 16.135 14.3813 11.8146C13.8857 10.6353 13.323 9.29818 12.5792 7.87686C11.0138 4.88787 8.39538 2.64697 5.57514 1.88181C4.27182 1.52789 3.06959 1.55913 2.36056 1.96473C1.94668 2.20159 1.40527 2.08002 1.15107 1.69438C0.897561 1.3081 1.02734 0.804268 1.44139 0.567409C2.58314 -0.0853616 4.26871 -0.179557 6.06661 0.308974C9.35499 1.2007 12.3805 3.76138 14.1601 7.15775C14.9348 8.63977 15.5109 10.0088 16.0188 11.2175C17.8105 15.4789 18.7103 17.6175 24.8366 17.6175C25.3218 17.6175 25.7156 17.9851 25.7156 18.4373C25.7156 18.8894 25.3218 19.2564 24.8366 19.2564Z" fill="#173A4F"/>
<path d="M47.0687 1.91394C46.9956 1.91394 46.7224 1.94855 46.1975 2.37976C43.3218 4.74562 38.913 14.1297 38.913 19.1074C38.913 21.3944 39.3661 22.8394 39.8854 23.9328C40.2085 20.1531 42.0612 17.343 44.3979 13.7991C46.8615 10.063 48.4154 4.99214 47.7917 2.72741C47.7186 2.46317 47.579 2.11956 47.3265 1.98607C47.2558 1.94807 47.1796 1.92585 47.087 1.91506C47.0839 1.91442 47.0784 1.91394 47.0687 1.91394ZM40.9919 28.8657C40.6151 28.8657 40.27 28.6391 40.153 28.2903C39.8798 27.474 39.4903 26.7975 39.0789 26.0807L38.9595 25.8739C38.0083 24.2083 37.1543 22.4384 37.1543 19.1074C37.1543 14.0672 41.5728 3.99801 45.0337 1.15103C45.8305 0.496161 46.5938 0.205844 47.3058 0.289413C47.6313 0.326769 47.9331 0.419355 48.2014 0.564755C48.8292 0.897099 49.2658 1.48901 49.4944 2.31954C50.2314 4.99504 48.6177 10.5294 45.8963 14.6568C42.858 19.2659 40.8505 22.3099 41.86 27.9108C41.9363 28.3357 41.6466 28.743 41.1966 28.843C41.1284 28.8584 41.0601 28.8657 40.9919 28.8657Z" fill="#173A4F"/>
<path d="M40.9924 28.8675C40.5066 28.8675 40.1133 28.5005 40.1133 28.0484C40.1133 27.5956 40.5066 27.2275 40.9924 27.2275C41.4783 27.2275 41.8714 27.5938 41.8714 28.0461V28.0484C41.8714 28.5005 41.4783 28.8675 40.9924 28.8675Z" fill="#173A4F"/>
<path d="M31.1915 41.3774H24.8368C24.3509 41.3774 23.957 41.0105 23.957 40.5583C23.957 40.1055 24.3509 39.7386 24.8368 39.7386H31.1915C31.8043 39.7386 32.4089 39.6846 32.9894 39.5779C37.3756 38.7837 40.5567 35.1817 40.5567 31.0123C40.5567 29.9916 40.425 29.1026 40.1525 28.2931C40.008 27.8614 40.2658 27.4012 40.7298 27.2661C41.1938 27.1309 41.6863 27.3718 41.8315 27.8035C42.1571 28.7738 42.3155 29.8235 42.3155 31.0123C42.3155 35.9646 38.5352 40.243 33.3271 41.186C32.6376 41.3127 31.9183 41.3774 31.1915 41.3774Z" fill="#173A4F"/>
<path d="M24.8363 19.2561C24.3503 19.2561 23.957 18.8891 23.957 18.437C23.957 17.9848 24.3503 17.6172 24.8363 17.6172C30.9618 17.6172 31.8616 15.4792 33.6538 11.2183C34.1622 10.0096 34.7391 8.63944 35.5145 7.1579C37.2909 3.76458 40.3128 1.20486 43.5993 0.31024C45.3837 -0.175394 47.0584 -0.0873166 48.1997 0.549353C48.4685 0.689762 48.6509 0.957859 48.6509 1.26573C48.6509 1.71787 48.2563 2.08483 47.7718 2.08483C47.6327 2.08483 47.4968 2.05408 47.3748 1.99676C47.3522 1.98661 47.3303 1.97453 47.3083 1.96262C46.5988 1.5583 45.396 1.52867 44.092 1.88372C41.2737 2.65065 38.6577 4.89091 37.0953 7.87653C36.3503 9.29898 35.7877 10.6361 35.2914 11.8159C33.4741 16.1359 32.1615 19.2561 24.8363 19.2561Z" fill="#173A4F"/>
<path d="M36.8024 17.5312L35.7398 19.5023L34.6777 21.4728L39.3907 26.6658C40.4236 27.8036 42.3677 27.5883 43.0852 26.2568L44.5129 23.6081L45.9407 20.9587C46.6589 19.6279 45.6829 18.0463 44.0873 17.9538L36.8024 17.5312Z" fill="#FECD27"/>
<path d="M36.1143 17.2085L35.0517 19.1797L33.9898 21.1501L26.704 20.7276C25.1086 20.635 24.1333 19.0535 24.8508 17.722L26.2786 15.0732L27.7068 12.4245C28.4245 11.093 30.3679 10.8777 31.4013 12.0155L36.1143 17.2085Z" fill="#FECD27"/>
<path d="M29.1634 19.5839C29.1634 20.2172 28.6123 20.7313 27.9319 20.7313C27.2523 20.7313 26.7012 20.2172 26.7012 19.5839C26.7012 18.9505 27.2523 18.4365 27.9319 18.4365C28.6123 18.4365 29.1634 18.9505 29.1634 19.5839Z" fill="#F39314"/>
<path d="M42.2241 20.3994C42.2241 21.0328 41.673 21.5463 40.9926 21.5463C40.313 21.5463 39.7617 21.0328 39.7617 20.3994C39.7617 19.7661 40.313 19.252 40.9926 19.252C41.673 19.252 42.2241 19.7661 42.2241 20.3994Z" fill="#F39314"/>
<path d="M42.4774 24.3965C42.4774 25.0298 41.9264 25.5439 41.246 25.5439C40.5662 25.5439 40.0156 25.0298 40.0156 24.3965C40.0156 23.763 40.5662 23.249 41.246 23.249C41.9264 23.249 42.4774 23.763 42.4774 24.3965Z" fill="#F39314"/>
<path d="M29.1228 20.7273C27.5268 20.6347 26.5513 19.0532 27.2689 17.7217L28.6972 15.073L30.1256 12.4242C30.3133 12.075 30.5877 11.804 30.9071 11.6125C29.836 10.9649 28.3224 11.2831 27.7072 12.4242L26.2789 15.073L24.851 17.7217C24.133 19.0532 25.109 20.6347 26.7044 20.7273L33.9895 21.15L34.0633 21.0141L29.1228 20.7273Z" fill="#FEFEFE"/>
<path d="M44.0865 17.9539L36.8014 17.5312L36.7344 17.6551L41.8882 17.9539C43.4843 18.0465 44.4591 19.6279 43.7421 20.9588L42.3137 23.6081L40.8859 26.2568C40.6756 26.6465 40.3592 26.9374 39.9923 27.13C41.0542 27.6934 42.4899 27.36 43.0837 26.2568L44.5121 23.6081L45.9399 20.9588C46.6579 19.6279 45.6819 18.0465 44.0865 17.9539Z" fill="#F39314"/>
<path d="M35.7396 19.5023L34.6777 21.4735L36.8893 23.9104C38.1849 23.5423 39.3225 22.7021 39.9778 21.4854C40.6331 20.2697 40.6782 18.9173 40.2216 17.7295L36.8022 17.5312L35.7396 19.5023Z" fill="#F39314"/>
<path d="M38.1419 20.6274C37.3799 22.0408 35.5326 22.611 34.0154 21.901C32.4986 21.1916 31.8859 19.4698 32.6479 18.0565C33.41 16.6426 35.2584 16.0718 36.7751 16.7818C38.2919 17.4919 38.9039 19.2141 38.1419 20.6274Z" fill="#FECD27"/>
<path d="M35.9943 21.8996C34.4774 21.1901 33.8655 19.4684 34.6274 18.0546C35.0591 17.2542 35.8381 16.7248 36.7094 16.5441C35.37 16.272 33.9514 16.8605 33.3082 18.0546C32.5461 19.4684 33.1582 21.1901 34.6757 21.8996C35.3334 22.2081 36.0534 22.274 36.7198 22.136C36.4741 22.0859 36.2302 22.0097 35.9943 21.8996Z" fill="#FEFEFE"/>
<path d="M33.1087 16.4795C33.1087 17.1128 32.5576 17.6269 31.8772 17.6269C31.1976 17.6269 30.6465 17.1128 30.6465 16.4795C30.6465 15.846 31.1976 15.332 31.8772 15.332C32.5576 15.332 33.1087 15.846 33.1087 16.4795Z" fill="#F39314"/>
<path d="M34.7977 21.8996C36.3145 21.1901 36.9265 19.4684 36.1646 18.0546C35.7329 17.2542 34.9532 16.7248 34.0826 16.5441C35.4221 16.272 36.8406 16.8605 37.4838 18.0546C38.2457 19.4684 37.6338 21.1901 36.1164 21.8996C35.4585 22.2081 34.7386 22.274 34.0723 22.136C34.318 22.0859 34.5618 22.0097 34.7977 21.8996Z" fill="#F39314"/>
<path d="M41.089 28.2196C40.1805 28.2196 39.3149 27.8504 38.7187 27.1942L34.669 22.7329C34.3555 22.387 34.4013 21.8702 34.7725 21.5781C35.1432 21.2857 35.6979 21.3288 36.0119 21.6747L40.0611 26.136C40.3592 26.4639 40.7938 26.6223 41.2516 26.5724C41.71 26.5218 42.0923 26.2713 42.2997 25.8873L45.1552 20.5904C45.3618 20.2064 45.3484 19.7718 45.1185 19.3985C44.8887 19.0259 44.4931 18.7976 44.0335 18.7709L37.7736 18.4091C37.2896 18.3806 36.9208 17.9916 36.9514 17.5399C36.9812 17.0878 37.3969 16.7446 37.8834 16.7731L44.142 17.1356C45.1863 17.1963 46.1213 17.7365 46.6427 18.5812C47.1651 19.427 47.1967 20.4529 46.7267 21.3253L43.8707 26.623C43.3999 27.4953 42.4989 28.0844 41.459 28.1998C41.3352 28.2128 41.2115 28.2196 41.089 28.2196Z" fill="#173A4F"/>
<path d="M32.9621 21.9111C32.9438 21.9111 32.9249 21.9106 32.9066 21.9094L26.6482 21.5447C25.6039 21.4845 24.6687 20.9443 24.1475 20.0996C23.6256 19.2533 23.594 18.2274 24.0633 17.3549L26.9195 12.0573C27.3901 11.1854 28.2918 10.5962 29.331 10.4809C30.3712 10.3674 31.3954 10.7418 32.0714 11.4859L36.1236 15.9495C36.4369 16.2949 36.3906 16.8117 36.0199 17.1043C35.6487 17.3962 35.0945 17.3537 34.7806 17.0077L30.7291 12.5447C30.4315 12.2169 29.9969 12.0578 29.5389 12.1084C29.0806 12.1589 28.6984 12.4083 28.4905 12.7935L25.635 18.0899C25.4283 18.4744 25.4416 18.909 25.6722 19.2823C25.9013 19.6537 26.297 19.8832 26.7572 19.9099L33.0164 20.274C33.5009 20.3025 33.8692 20.6915 33.8387 21.1425C33.8101 21.5771 33.423 21.9111 32.9621 21.9111Z" fill="#173A4F"/>
<path d="M35.3994 17.2956C34.596 17.2956 33.8199 17.7091 33.4346 18.4226C32.8921 19.4302 33.3297 20.6618 34.4113 21.1679C35.492 21.674 36.8138 21.2661 37.3575 20.2585C37.6209 19.77 37.6636 19.2161 37.4795 18.6976C37.2948 18.179 36.9053 17.7581 36.381 17.5131C36.0664 17.3655 35.7305 17.2956 35.3994 17.2956ZM35.3921 23.0259C34.7844 23.0259 34.1808 22.8936 33.6217 22.6322C31.674 21.7205 30.8851 19.5024 31.8636 17.687C32.842 15.8721 35.2226 15.137 37.1704 16.0489C38.1141 16.4907 38.8164 17.248 39.1487 18.1823C39.481 19.1162 39.4024 20.1147 38.9287 20.994C38.4548 21.8733 37.6416 22.5277 36.6395 22.8374C36.2304 22.9634 35.8103 23.0259 35.3921 23.0259Z" fill="#173A4F"/>
<path d="M34.7627 32.291C33.5482 32.291 32.5645 32.7501 32.5645 33.3157C32.5645 33.8809 33.5482 34.3393 34.7627 34.3393C35.9765 34.3393 36.9603 33.8809 36.9603 33.3157C36.9603 32.7501 35.9765 32.291 34.7627 32.291Z" fill="#F0879E"/>
<path d="M14.9094 32.291C13.6949 32.291 12.7109 32.7501 12.7109 33.3157C12.7109 33.8809 13.6949 34.3393 14.9094 34.3393C16.123 34.3393 17.1077 33.8809 17.1077 33.3157C17.1077 32.7501 16.123 32.291 14.9094 32.291Z" fill="#F0879E"/>
<path d="M41.2715 25.5428C41.9396 25.5302 42.4767 25.0223 42.4767 24.3969C42.4767 24.1493 42.3913 23.9205 42.248 23.7324L41.2715 25.5428Z" fill="#E85222"/>
<path d="M39.7617 20.4003C39.7617 20.7145 39.8977 20.9985 40.1172 21.2057C40.3933 20.5992 40.5255 19.9652 40.5243 19.3398C40.0774 19.5113 39.7617 19.921 39.7617 20.4003Z" fill="#E85222"/>
<path d="M17.4898 31.1338C18.6513 31.1338 19.5929 30.4185 19.5929 29.5361C19.5929 28.6538 18.6513 27.9385 17.4898 27.9385C16.3283 27.9385 15.3867 28.6538 15.3867 29.5361C15.3867 30.4185 16.3283 31.1338 17.4898 31.1338Z" fill="#173A4F"/>
<path d="M36.9309 50.0186C37.5661 53.1979 37.7711 56.0165 37.6826 58.5192C36.2408 61.7127 30.9365 63.3612 28.3425 61.9195C26.5947 60.9464 25.7241 58.7175 29.4764 58.1255C32.4332 57.661 36.7225 53.47 36.9309 50.0186Z" fill="#C8E8FB"/>
<path d="M30.5408 61.9205C29.7963 61.4717 28.6589 60.1584 31.7966 59.1877C33.6816 58.6049 35.95 56.0452 37.5162 53.8987C37.3913 52.6677 37.2027 51.3782 36.9316 50.0195C36.7225 53.4708 32.433 57.6618 29.4763 58.1265C25.7241 58.7184 26.5947 60.9474 28.3425 61.9205C29.2611 62.4306 30.52 62.5522 31.8265 62.3568C31.354 62.2726 30.9096 62.1432 30.5408 61.9205Z" fill="#A3D3F2"/>
<path d="M30.6914 63.2623C29.6257 63.2623 28.6545 63.0476 27.8907 62.6233C26.5423 61.8728 25.7844 60.6357 26.0045 59.544C26.1654 58.7425 26.8732 57.7059 29.3288 57.3184C31.9478 56.9066 35.8671 53.0383 36.0525 49.9725C36.08 49.5215 36.495 49.1749 36.9798 49.2006C37.4643 49.2262 37.8357 49.6136 37.8082 50.0652C37.5741 53.9351 32.9233 58.4153 29.6221 58.9339C28.3236 59.1389 27.7945 59.5394 27.7328 59.8461C27.6536 60.2398 28.1194 60.8414 28.7925 61.2162C29.7287 61.7366 31.2852 61.7622 32.855 61.2822C34.7345 60.7067 36.2737 59.5263 36.8718 58.2016C37.0041 57.9046 37.3181 57.6962 37.6845 57.6962C38.1702 57.6962 38.5641 58.0632 38.5641 58.5158C38.5641 58.6322 38.5368 58.7465 38.4867 58.851C37.6809 60.6209 35.7824 62.111 33.4037 62.8391C32.4776 63.122 31.5539 63.2623 30.6914 63.2623Z" fill="#173A4F"/>
<path fill-rule="evenodd" clip-rule="evenodd" d="M41.6371 52.0293C46.2077 52.0293 49.9129 55.9203 49.9129 60.7203C49.9129 65.5201 48.2198 69.4112 41.6371 69.4112C35.0545 69.4112 33.3613 65.5201 33.3613 60.7203C33.3613 55.9203 37.0665 52.0293 41.6371 52.0293Z" fill="#FEFEFE"/>
<path d="M41.636 51.2627C44.1651 51.2627 46.451 52.3351 48.1018 54.0689C49.7286 55.7772 50.7349 58.1295 50.7349 60.7206C50.7349 63.2681 50.2699 65.5943 48.9016 67.3213C47.503 69.0865 45.2228 70.1784 41.636 70.1784C38.0492 70.1784 35.7692 69.0865 34.3706 67.3213C33.0023 65.5943 32.5371 63.2681 32.5371 60.7206C32.5371 58.1295 33.5434 55.7772 35.1702 54.0689C36.821 52.3351 39.107 51.2627 41.636 51.2627ZM46.8738 55.0814C45.5299 53.6698 43.6774 52.7966 41.636 52.7966C39.5946 52.7966 37.7421 53.6698 36.3982 55.0814C35.0299 56.5183 34.1833 58.5118 34.1833 60.7206C34.1833 62.9728 34.5652 64.9924 35.6888 66.4105C36.7823 67.7908 38.6405 68.6445 41.636 68.6445C44.6315 68.6445 46.4899 67.7908 47.5834 66.4105C48.707 64.9926 49.0887 62.973 49.0887 60.7206C49.0887 58.5118 48.2421 56.5183 46.8738 55.0814Z" fill="#173A4F"/>
<path fill-rule="evenodd" clip-rule="evenodd" d="M41.1102 52.6904C44.955 52.6904 47.5536 56.262 47.5536 60.6676C47.5536 65.0734 46.6477 68.645 41.1102 68.645C35.5727 68.645 34.1484 65.0734 34.1484 60.6676C34.1484 56.262 37.2654 52.6904 41.1102 52.6904Z" fill="#A3D3F2"/>
<path fill-rule="evenodd" clip-rule="evenodd" d="M41.7059 53.9639C44.8595 53.9639 48.6677 57.237 48.6677 61.2747C48.6677 65.3124 47.2434 68.5858 41.7059 68.5858C36.1684 68.5858 34.7441 65.3124 34.7441 61.2747C34.7441 57.237 38.5523 53.9639 41.7059 53.9639Z" fill="#C8E8FB"/>
<path d="M31.708 36.5757C32.5057 38.5384 33.0604 40.565 33.0604 41.9951C33.0604 44.1041 32.51 45.1588 31.96 46.1222C31.6584 46.6481 31.3571 47.1477 31.1466 47.7768V47.7783C30.9719 48.2988 30.8594 48.9088 30.8594 49.6953C30.8594 52.7003 33.1614 55.2028 36.2132 55.7554C36.6239 55.8308 37.0506 55.8696 37.4852 55.8696H45.7069C46.1422 55.8696 46.5673 55.8308 46.9793 55.7554C48.9785 55.394 50.6567 54.1932 51.5752 52.5641C52.0602 51.7066 52.3329 50.7315 52.3329 49.6953C52.3329 48.9033 52.2194 48.2897 52.0428 47.7676C51.8326 47.1426 51.5326 46.6455 51.2325 46.1222C50.8799 45.5061 50.5286 44.8529 50.3213 43.9098C50.2029 43.3784 50.132 42.7553 50.132 41.9951C50.132 38.1791 54.0805 30.119 56.0585 30.3493C56.1964 30.3656 56.3188 30.4037 56.4268 30.4617L56.4311 30.4556C54.8499 29.5518 50.9935 30.7179 49.0129 34.4989C46.8856 38.5635 47.136 41.2783 42.3925 41.5407C42.1424 41.5554 41.8763 41.5617 41.5962 41.5617C36.6274 41.5617 36.4032 39.3496 34.8246 35.8355L31.708 36.5757Z" fill="#C8E8FB"/>
<path d="M31.1469 47.7768C31.3574 47.1476 31.6586 46.6482 31.9603 46.122C32.3331 45.4694 32.889 42.1112 33.3435 39.8002C33.4864 39.0734 33.9309 38.4498 33.9552 38.0469C34.4453 37.9864 34.6276 40.6839 34.4764 42.3502C34.4149 44.2119 32.9799 46.2232 32.9799 49.963C32.9799 52.6741 35.8931 55.3449 41.5965 55.3449C42.0154 55.3449 38.4724 55.8695 38.9076 55.8695H37.4855C37.0509 55.8695 36.6243 55.831 36.2133 55.7557C33.1614 55.2031 30.8594 52.7003 30.8594 49.6955C30.8594 48.9085 30.9722 48.299 31.1469 47.7784V47.7768Z" fill="#A3D3F2"/>
<path d="M49.87 52.564C50.3546 51.7064 50.6278 50.7318 50.6278 49.6952C50.6278 48.9031 50.5142 48.2896 50.338 47.7674C50.1275 47.1425 49.8275 46.6458 49.5273 46.1221C49.1748 45.5059 48.8235 44.853 48.6156 43.9096C48.4983 43.3784 48.4267 42.7555 48.4267 41.9951C48.4267 38.1794 52.3754 30.1188 54.3533 30.3492C54.4912 30.3653 54.6136 30.4039 54.7216 30.4619L54.7256 30.4553C54.5497 30.3547 54.3444 30.2816 54.1175 30.2328C54.9326 30.0924 55.6522 30.1721 56.148 30.4553L56.1435 30.4619C56.0355 30.4039 55.9133 30.3653 55.7752 30.3492C53.7974 30.1188 49.8486 38.1794 49.8486 41.9951C49.8486 42.7555 49.9196 43.3784 50.038 43.9096C50.2453 44.853 50.5967 45.5059 50.9492 46.1221C51.2494 46.6458 51.5494 47.1425 51.7595 47.7674C51.9361 48.2896 52.0496 48.9031 52.0496 49.6952C52.0496 50.7318 51.7768 51.7064 51.2919 52.564C50.3736 54.1936 48.6954 55.3938 46.6962 55.7558C46.2841 55.831 45.859 55.8696 45.4238 55.8696H44.002C44.4371 55.8696 44.8622 55.831 45.2743 55.7558C47.2739 55.3938 48.9512 54.1936 49.87 52.564Z" fill="#FEFEFE"/>
<path d="M43.643 42.0262H39.7311C39.6104 42.0262 39.4956 42.0019 39.3923 41.9584C38.4043 41.627 37.4822 41.0915 36.6617 40.3018C35.8433 39.5143 35.1286 38.4749 34.5536 37.1335C34.4104 36.799 34.2028 36.8066 33.9229 36.9108C33.7544 36.9733 33.5586 37.0589 33.3504 37.1496C32.4526 37.5408 31.351 38.0212 29.9334 37.9141C29.669 37.8941 29.3618 37.8362 29.0538 37.7784C28.6693 37.7061 28.2869 37.6305 28.2847 37.6318C28.1865 37.6888 28.6209 37.7895 29.1604 38.5947C30.2524 40.2246 30.9611 41.3576 31.4007 42.5044C31.8504 43.6773 32.0059 44.8239 31.979 46.4544C31.9779 46.5326 31.9644 46.608 31.9401 46.6788C31.8252 47.0105 31.737 47.3492 31.6791 47.6915C31.6238 48.0188 31.5948 48.3668 31.5948 48.7336C31.5948 50.5776 32.4049 52.2544 33.7098 53.4705C35.0147 54.6863 36.8143 55.4412 38.7931 55.4412H44.5808C46.5599 55.4412 48.3595 54.6863 49.6644 53.4705C50.9692 52.2544 51.7794 50.5776 51.7794 48.7338C51.7794 48.3668 51.7503 48.0188 51.695 47.6915C51.6371 47.3492 51.549 47.0105 51.4337 46.679C51.4044 46.5938 51.3919 46.5072 51.3947 46.4225C51.3705 44.8091 51.5267 43.6696 51.9734 42.5044C52.4131 41.3576 53.1217 40.2246 54.2137 38.5947C54.9226 37.5363 56.1255 35.3929 56.651 33.4342C56.9614 32.2771 57.0348 31.2197 56.5948 30.6127C56.5611 30.5661 56.5228 30.5256 56.4811 30.4909C56.1758 30.2378 55.6119 30.2222 54.9753 30.347C54.208 30.4972 53.3787 30.8547 52.6984 31.2827C52.3353 31.5112 52.0227 31.7556 51.7958 31.9933C50.3029 33.5558 49.8254 34.7116 49.1938 36.2406C49.0702 36.54 48.9412 36.8518 48.8205 37.1335C48.2458 38.4751 47.5309 39.5146 46.7126 40.3018C45.8733 41.1097 44.9275 41.6517 43.9131 41.9811C43.8238 42.0101 43.7327 42.0239 43.643 42.0238V42.0262ZM39.8682 40.4923H43.506C44.2356 40.2355 44.9201 39.8284 45.5361 39.2356C46.2108 38.5865 46.8071 37.7131 47.2967 36.5702C47.4412 36.2329 47.5551 35.9579 47.6634 35.6954C48.36 34.0089 48.8867 32.7341 50.5678 30.9747C50.8859 30.6415 51.3048 30.3109 51.779 30.0126C52.6164 29.4857 53.6566 29.0419 54.6411 28.8492C55.7562 28.6305 56.8287 28.7284 57.5743 29.3467C57.7169 29.4651 57.8456 29.6013 57.958 29.7561C58.7017 30.7821 58.6589 32.2652 58.2457 33.8055C57.672 35.944 56.3731 38.2624 55.609 39.4034C54.5783 40.9417 53.9132 42.0012 53.5228 43.0197C53.1528 43.985 53.0186 44.9511 53.0333 46.3207C53.1541 46.6862 53.2489 47.0659 53.3153 47.4577C53.3877 47.8858 53.4255 48.3124 53.4255 48.7336C53.4255 51.0009 52.4305 53.0615 50.8281 54.5548C49.2256 56.0479 47.014 56.975 44.5808 56.975H38.7931C36.3603 56.975 34.1486 56.0479 32.5461 54.5548C30.9437 53.0615 29.9486 51.0009 29.9486 48.7338C29.9486 48.3124 29.9865 47.8858 30.0589 47.4577C30.1252 47.0659 30.2201 46.6861 30.3409 46.3207C30.3558 44.9511 30.2213 43.9851 29.8513 43.0197C29.461 42.0012 28.7958 40.9417 27.7652 39.4034C26.5654 37.6127 26.6879 36.7556 27.4168 36.3318C27.962 36.0149 28.6712 36.1482 29.3752 36.2806C29.6149 36.3256 29.8539 36.3707 30.062 36.3863C31.0594 36.4617 31.9392 36.0781 32.656 35.7658C32.8857 35.6658 33.1013 35.5716 33.3184 35.4909C34.5201 35.0439 35.4173 35.0298 36.0775 36.5702C36.5672 37.713 37.1636 38.5863 37.8382 39.2356C38.4541 39.8283 39.1388 40.2355 39.8682 40.4923Z" fill="#173A4F"/>
<path fill-rule="evenodd" clip-rule="evenodd" d="M51.947 44.5792C51.8562 42.0492 53.1682 39.7861 54.8156 37.3264C55.7182 35.979 57.687 31.8191 56.5851 30.2988C55.747 29.1425 54.0473 31.4233 53.443 32.7C50.9898 37.8826 50.2941 41.6932 51.947 44.5792Z" fill="#F0879E"/>
<path fill-rule="evenodd" clip-rule="evenodd" d="M31.1461 46.9233C31.269 43.5 30.6926 42.327 28.4629 38.9986L31.8111 36.8496C33.5003 41.4242 32.9765 43.7279 31.1461 46.9233Z" fill="#F0879E"/>
<path d="M30.3277 46.9002C30.3856 45.2831 30.2826 44.2091 29.9101 43.1689C29.5308 42.11 28.8507 41.0222 27.7665 39.4038C27.527 39.0449 27.6451 38.5726 28.0303 38.3494L31.3461 36.2214C31.7189 35.9815 32.23 36.0687 32.4875 36.4161C32.5312 36.475 32.5648 36.5378 32.5886 36.6024L32.5903 36.6019C33.473 38.9924 33.7756 40.8104 33.6163 42.4704C33.4559 44.1414 32.8347 45.6009 31.8708 47.2836C31.6579 47.6557 31.161 47.7966 30.7617 47.5982C30.4772 47.457 30.3188 47.1815 30.3277 46.9002ZM31.466 42.6836C31.5773 42.9943 31.6686 43.3043 31.7415 43.6233C31.8595 43.2008 31.9413 42.776 31.9833 42.3387C32.0999 41.1241 31.9167 39.7749 31.3681 38.0639L29.5741 39.2154C30.4847 40.5984 31.0855 41.6213 31.466 42.6836Z" fill="#173A4F"/>
<path fill-rule="evenodd" clip-rule="evenodd" d="M27.7771 36.5707C26.7154 36.7541 23.7609 41.2832 25.252 43.3402C26.3862 44.905 29.9993 43.451 31.3466 42.0407C33.2107 40.0893 33.8748 38.221 34.7667 36.1403C33.7858 35.137 31.8188 37.4983 27.7771 36.5707Z" fill="#C8E8FB" stroke="#173A4F" stroke-width="0.9525" stroke-miterlimit="22.9256" stroke-linecap="round" stroke-linejoin="round"/>
<path fill-rule="evenodd" clip-rule="evenodd" d="M27.7771 36.5711C26.7154 36.7545 23.7609 41.2836 25.252 43.3406C26.3862 44.9054 29.9993 43.4514 31.3466 42.041C33.2107 40.0896 33.8748 38.2213 34.7667 36.1407C34.6457 36.036 33.0675 35.7903 32.9028 35.9899C31.9399 37.1585 29.787 42.7065 26.7776 42.3289C23.5093 41.9188 28.4075 36.7158 27.7771 36.5711Z" fill="#A3D3F2"/>
<path d="M27.0297 36.0584C27.2038 35.9489 27.3825 35.8718 27.5623 35.8315C27.6921 35.7988 27.8324 35.7953 27.9722 35.8273C30.0228 36.298 31.5107 35.8141 32.5698 35.4698C33.7606 35.0828 34.5822 34.8155 35.3733 35.6246C35.5758 35.8347 35.6468 36.1413 35.5276 36.4215L35.253 37.0736C34.4564 38.9638 33.7223 40.7043 31.9596 42.5495C31.6413 42.8825 31.2226 43.2131 30.7484 43.5115C29.911 44.0383 28.8707 44.4819 27.8862 44.6748C26.7712 44.8933 25.6986 44.7958 24.9529 44.1773C24.8104 44.0591 24.6815 43.9227 24.5695 43.7681C24.325 43.431 24.1691 43.0477 24.087 42.6347C23.8487 41.4363 24.2705 39.9863 24.9001 38.7522C25.528 37.5212 26.3959 36.4574 27.0297 36.0584ZM27.8782 37.377C27.4573 37.6843 26.8644 38.4658 26.3852 39.4053C25.8801 40.3956 25.5329 41.5152 25.7007 42.3591C25.7415 42.5642 25.8166 42.7515 25.9326 42.9115C25.9661 42.9579 26.0045 42.9986 26.0461 43.0331C26.3513 43.2862 26.9152 43.3018 27.552 43.177C28.3194 43.0266 29.1487 42.6693 29.8291 42.2414C30.1923 42.0129 30.5048 41.7683 30.7317 41.5309C32.2316 39.9607 32.9206 38.4151 33.6243 36.7493C33.4765 36.7944 33.3032 36.8507 33.11 36.9135C31.9087 37.304 30.2405 37.8463 27.8782 37.377Z" fill="#173A4F"/>
<path d="M40.618 49.2502C40.7214 48.8349 41.4923 48.8283 41.9117 48.8583C42.3312 48.8879 43.0921 49.0022 43.1272 49.4276C43.1716 49.9667 42.1028 50.7813 41.7572 50.757C41.4116 50.7325 40.4874 49.7769 40.618 49.2502Z" fill="#173A4F"/>
<path d="M41.2565 49.5222L41.2771 49.9518C41.2992 50.1 41.3128 50.2439 41.3471 50.3929C41.4146 50.6877 41.5263 51.0021 41.7625 51.2867C41.8254 51.3561 41.8831 51.4259 41.968 51.4833L42.087 51.5704C42.1299 51.5953 42.1769 51.6168 42.2222 51.6387C42.4035 51.7285 42.6096 51.7596 42.8002 51.7591C43.1842 51.7401 43.5222 51.6118 43.7845 51.3243C43.8901 51.2091 43.8749 51.0356 43.7512 50.9376C43.6432 50.8521 43.4884 50.8518 43.3803 50.9292L43.3366 50.9608C43.2803 51.0015 43.1901 51.0382 43.1006 51.0598C43.0079 51.0796 42.9136 51.0804 42.8312 51.0674C42.6644 51.0348 42.5671 50.9469 42.4924 50.8102C42.4212 50.6693 42.3817 50.4774 42.3784 50.2669C42.3751 50.1634 42.3882 50.0497 42.3912 49.9433L42.4413 49.6058L42.4463 49.5733C42.4918 49.2685 42.263 48.987 41.9358 48.9448C41.6087 48.9025 41.3066 49.1153 41.2614 49.4205C41.2565 49.4535 41.2548 49.4895 41.2565 49.5222Z" fill="#173A4F"/>
<path d="M41.2573 49.5221L41.2519 49.8625C41.2379 49.9681 41.2321 50.0821 41.2127 50.1847C41.1752 50.3924 41.1052 50.5763 41.0112 50.7056C40.9162 50.8301 40.8056 50.9038 40.6352 50.9122C40.5515 50.9133 40.4587 50.8996 40.3706 50.867C40.2852 50.8331 40.2021 50.7836 40.1527 50.7356L40.1152 50.6984C40.0027 50.5886 39.8159 50.5852 39.6985 50.6895C39.5961 50.7805 39.5795 50.9244 39.6515 51.0328C39.8641 51.3537 40.1777 51.5276 40.554 51.6003C40.7425 51.6275 40.9511 51.6255 41.1451 51.5623C41.1934 51.547 41.2433 51.5323 41.2898 51.5138L41.4216 51.4447C41.5143 51.3998 41.583 51.3388 41.657 51.2789C41.9359 51.0312 42.0973 50.7361 42.2116 50.4538C42.2694 50.3114 42.3062 50.1709 42.3524 50.0274L42.4421 49.6057C42.5069 49.3036 42.2964 49.0104 41.972 48.9503C41.6482 48.8901 41.3333 49.0861 41.2687 49.3881C41.2621 49.4207 41.2582 49.4537 41.2576 49.486L41.2573 49.5221Z" fill="#173A4F"/>
<path d="M35.1552 50.1934C35.9761 50.1934 36.6409 50.5036 36.6409 50.8859C36.6409 51.2678 35.9761 51.5776 35.1552 51.5776C34.3349 51.5776 33.6699 51.2678 33.6699 50.8859C33.6699 50.5036 34.3349 50.1934 35.1552 50.1934Z" fill="#F0879E"/>
<path d="M48.5735 50.1934C49.3944 50.1934 50.0593 50.5036 50.0593 50.8859C50.0593 51.2678 49.3944 51.5776 48.5735 51.5776C47.7534 51.5776 47.0879 51.2678 47.0879 50.8859C47.0879 50.5036 47.7534 50.1934 48.5735 50.1934Z" fill="#F0879E"/>
<path d="M46.9233 49.4106C47.7083 49.4106 48.3447 48.9271 48.3447 48.3308C48.3447 47.7344 47.7083 47.251 46.9233 47.251C46.1383 47.251 45.502 47.7344 45.502 48.3308C45.502 48.9271 46.1383 49.4106 46.9233 49.4106Z" fill="#173A4F"/>
<path d="M36.8647 49.4106C37.6497 49.4106 38.286 48.9272 38.286 48.3308C38.286 47.7344 37.6497 47.251 36.8647 47.251C36.0797 47.251 35.4434 47.7344 35.4434 48.3308C35.4434 48.9272 36.0797 49.4106 36.8647 49.4106Z" fill="#173A4F"/>
<path fill-rule="evenodd" clip-rule="evenodd" d="M52.5163 43.6127C52.4308 41.2294 54.0522 40.0074 55.6042 37.6905C56.4542 36.4212 58.6345 32.5025 57.5965 31.0704C56.8071 29.9811 55.5513 32.1301 54.9823 33.3324C52.6716 38.2142 51.5994 41.0219 52.5163 43.6127Z" fill="#F7C8D7"/>
<path d="M51.6354 43.6184C51.7082 43.3008 51.799 42.9922 51.9098 42.6829C52.3453 41.4676 53.0689 40.3043 54.2141 38.5944C54.9229 37.536 56.1258 35.3926 56.6513 33.4339C56.9617 32.2768 57.0351 31.2194 56.5952 30.6124C56.561 30.5651 56.5321 30.5348 56.5088 30.5201L56.5007 30.515C56.4752 30.5132 56.4099 30.5382 56.3197 30.5807C56.0553 30.7056 55.7514 30.9636 55.4429 31.2898C54.7581 32.0139 54.1247 33.0093 53.7779 33.7415C52.1616 37.1556 51.4235 39.4657 51.3632 41.3646C51.338 42.1599 51.4339 42.8936 51.6354 43.6184ZM53.4658 43.1682C53.0932 44.2084 52.9902 45.2824 53.0481 46.8995C53.0569 47.1808 52.8985 47.4563 52.614 47.5975C52.2147 47.7959 51.7178 47.655 51.5049 47.2828C50.3217 45.2168 49.6547 43.4918 49.7236 41.3227C49.791 39.2057 50.5702 36.7223 52.2734 33.1245C52.6754 32.2757 53.4112 31.1202 54.2083 30.2773C54.6421 29.8187 55.1097 29.4371 55.5804 29.2146C56.186 28.9283 56.7896 28.8876 57.3524 29.2078L57.4281 29.25C57.6243 29.3735 57.8026 29.5408 57.9583 29.7558C58.7021 30.7818 58.6592 32.2649 58.246 33.8052C57.6723 35.9437 56.3735 38.2621 55.6093 39.4031C54.5253 41.0215 53.8451 42.1093 53.4658 43.1682Z" fill="#173A4F"/>
<path fill-rule="evenodd" clip-rule="evenodd" d="M49.9129 62.0098C49.9129 66.8095 48.2198 69.4124 41.6371 69.4124C35.0545 69.4124 33.3613 66.8095 33.3613 62.0098C39.0396 62.8574 44.2163 63.0855 49.9129 62.0098Z" fill="#FEFEFE"/>
<path d="M50.7349 62.0091C50.7349 64.5962 50.2552 66.6147 48.8437 68.0315C47.4367 69.4437 45.1762 70.1786 41.636 70.1786C38.0958 70.1786 35.8355 69.4437 34.4285 68.0315C33.017 66.6147 32.5371 64.5962 32.5371 62.0091C32.5371 61.5856 32.9057 61.2422 33.3602 61.2422C33.4283 61.2422 33.4946 61.2499 33.5579 61.2646C36.3373 61.6771 38.9903 61.9388 41.6355 61.9664C44.298 61.9945 46.9621 61.7869 49.7511 61.2602C50.1949 61.1776 50.6269 61.4459 50.7156 61.8594C50.7263 61.9096 50.7315 61.9597 50.7316 62.0091H50.7349ZM47.6413 66.9891C48.5653 66.0616 48.9674 64.696 49.0645 62.9359C46.5213 63.3538 44.0702 63.52 41.6227 63.4942C39.1719 63.4684 36.7303 63.2515 34.2058 62.9039C34.2996 64.6795 34.7012 66.0558 35.6309 66.9891C36.7158 68.0779 38.5937 68.6447 41.636 68.6447C44.6783 68.6447 46.5564 68.0779 47.6413 66.9891Z" fill="#173A4F"/>
<path d="M32.3492 31.1338C33.5107 31.1338 34.4523 30.4185 34.4523 29.5361C34.4523 28.6538 33.5107 27.9385 32.3492 27.9385C31.1877 27.9385 30.2461 28.6538 30.2461 29.5361C30.2461 30.4185 31.1877 31.1338 32.3492 31.1338Z" fill="#173A4F"/>
</svg>
