<svg width="71" height="77" viewBox="0 0 71 77" fill="none" xmlns="http://www.w3.org/2000/svg">
<path d="M19.9916 52.6289C20.7606 56.7725 21.0088 60.446 20.9016 63.7078C19.1562 67.8698 12.7345 70.0183 9.59403 68.1393C7.47808 66.8711 6.42408 63.9661 10.9669 63.1947C14.5465 62.5892 19.7393 57.1271 19.9916 52.6289Z" fill="#C8E8FB"/>
<path d="M12.2549 68.1392C11.3537 67.5544 9.97663 65.8428 13.7753 64.5776C16.0573 63.8181 18.8036 60.4821 20.6997 57.6845C20.5484 56.0802 20.3202 54.3997 19.992 52.6289C19.7388 57.1269 14.5458 62.589 10.9662 63.1946C6.42361 63.9661 7.47762 66.8711 9.59357 68.1392C10.7057 68.8041 12.2298 68.9625 13.8115 68.7079C13.2395 68.5982 12.7014 68.4295 12.2549 68.1392Z" fill="#FEFEFE"/>
<path d="M20.9018 63.7078C21.0087 60.446 20.7608 56.7725 19.9917 52.6289C20.7628 52.7806 21.5593 52.8591 22.3733 52.8591H25.2636C25.2636 55.5199 27.4143 57.6772 30.0675 57.6772C32.7215 57.6772 34.8714 55.5199 34.8714 52.8591H37.7624C38.5756 52.8591 39.3742 52.7806 40.1433 52.6289C39.4171 56.537 39.1587 60.0234 39.2171 63.1475C39.2422 64.4526 39.3242 65.692 39.4518 66.8714C36.8702 68.6096 32.4979 68.8635 30.0675 68.8635C27.6379 68.8635 23.2679 68.6096 20.6863 66.8714H20.684C20.7926 65.8622 20.867 64.8072 20.9018 63.7078Z" fill="#FECD27"/>
<path d="M40.1437 52.6289C39.3746 52.7806 38.576 52.8591 37.762 52.8591H37.4432C36.7488 56.6732 36.4992 60.0855 36.5567 63.1475C36.5804 64.4526 36.663 65.692 36.7909 66.8712C34.6297 68.3259 31.2177 68.74 28.7373 68.8361C29.2206 68.8545 29.6716 68.8636 30.0679 68.8636C32.4983 68.8636 36.8697 68.6096 39.4514 66.8712C39.3246 65.692 39.2417 64.4526 39.2175 63.1475C39.1591 60.0232 39.4175 56.5371 40.1437 52.6289Z" fill="#F39314"/>
<path d="M30.0676 65.9269C27.6918 65.9269 23.4657 65.6803 20.8657 64.0449C20.8251 64.8327 20.7638 65.5981 20.6841 66.3378H20.6864C23.268 68.0752 27.638 68.3291 30.0676 68.3291C32.498 68.3291 36.8703 68.0752 39.4519 66.3378C39.3714 65.5989 39.3118 64.8327 39.2712 64.0458C36.6703 65.6803 32.4434 65.9269 30.0676 65.9269Z" fill="#FEFEFE"/>
<path d="M33.2612 68.8646C35.0081 68.8646 37.7559 68.7298 40.1235 68.0109C40.0727 67.6371 40.0254 67.2588 39.9842 66.873C37.8239 68.3269 34.4119 68.7407 31.9307 68.8371C32.4139 68.8555 32.8656 68.8646 33.2612 68.8646Z" fill="#FEFEFE"/>
<path d="M23.8799 66.8711H23.8776C23.9868 65.8621 24.0606 64.8072 24.0954 63.7078C24.2002 60.506 23.9602 56.9066 23.2244 52.8585H22.9056C22.0915 52.8585 21.2959 52.7806 20.5239 52.6289C21.293 56.7719 21.5403 60.4452 21.434 63.7078C21.3993 64.8072 21.3248 65.8621 21.2162 66.8711H21.2185C23.8002 68.6096 28.1701 68.8626 30.5997 68.8626C30.9962 68.8626 31.4478 68.8545 31.9305 68.8354C29.4507 68.739 26.0408 68.326 23.8799 66.8711Z" fill="#FEFEFE"/>
<path d="M30.0676 52.8594H34.8714C34.8714 55.5208 32.7216 57.6781 30.0676 57.6781C27.4144 57.6781 25.2637 55.5208 25.2637 52.8594H30.0676Z" fill="#A3D3F2"/>
<path d="M30.068 58.7454C26.8315 58.7454 24.199 56.1048 24.199 52.8592C24.199 52.2691 24.6758 51.791 25.2639 51.791C25.8522 51.791 26.3281 52.2691 26.3281 52.8592C26.3281 54.9269 28.0058 56.6097 30.068 56.6097C32.1293 56.6097 33.8068 54.9269 33.8068 52.8592C33.8068 52.2691 34.2835 51.791 34.871 51.791C35.4593 51.791 35.9361 52.2691 35.9361 52.8592C35.9361 56.1048 33.3034 58.7454 30.068 58.7454Z" fill="#173A4F"/>
<path d="M12.4386 69.8889C11.1484 69.8889 9.97268 69.6092 9.04797 69.0562C7.4155 68.0781 6.4979 66.4658 6.76444 65.043C6.95921 63.9983 7.81614 62.6473 10.789 62.1423C13.9596 61.6055 18.7045 56.564 18.929 52.5683C18.9622 51.9805 19.4648 51.5289 20.0516 51.5623C20.6382 51.5957 21.0878 52.1006 21.0546 52.6892C20.7711 57.7329 15.1406 63.5719 11.144 64.2478C9.57204 64.515 8.93144 65.0369 8.85675 65.4367C8.76093 65.9497 9.32476 66.7338 10.1396 67.2223C11.2731 67.9006 13.1575 67.9339 15.058 67.3084C17.3333 66.5583 19.1968 65.0199 19.9208 63.2934C20.0811 62.9062 20.4612 62.6347 20.9048 62.6347C21.4928 62.6347 21.9696 63.1129 21.9696 63.7028C21.9696 63.8546 21.9366 64.0036 21.8759 64.1397C20.9004 66.4465 18.602 68.3885 15.7222 69.3374C14.601 69.7062 13.4828 69.8889 12.4386 69.8889Z" fill="#173A4F"/>
<path d="M61.53 40.3454C65.0981 42.2979 60.4929 50.3018 54.9244 51.504C52.6063 50.1807 50.1837 48.5321 47.656 46.4682C57.6573 45.0258 58.0209 38.4252 61.53 40.3454Z" fill="#C8E8FB"/>
<path d="M62.7624 46.3896C61.2536 49.1643 58.3451 51.8593 55.149 52.5493C54.5741 52.6731 54.0078 52.3059 53.8848 51.73C53.7607 51.1527 54.1256 50.5851 54.7009 50.4612C58.1499 49.7167 61.2864 45.9361 61.6837 43.1818C61.8892 41.7594 61.2354 41.4018 61.0203 41.284C60.1805 40.8245 59.805 41.0608 58.2592 42.4701C56.4179 44.1492 53.6362 46.6853 47.8074 47.5264C47.2258 47.6106 46.6859 47.2047 46.6026 46.6219C46.5187 46.0373 46.9223 45.4965 47.5051 45.4123C52.6864 44.6642 55.0798 42.4834 56.8275 40.8897C58.3543 39.4969 59.7971 38.1815 62.04 39.409C63.4183 40.1632 64.0566 41.6494 63.7911 43.4875C63.6585 44.4067 63.299 45.4031 62.7624 46.3896Z" fill="#173A4F"/>
<path d="M27.7179 60.4193C27.7179 61.2448 27.0507 61.9141 26.227 61.9141C25.404 61.9141 24.7368 61.2448 24.7368 60.4193C24.7368 59.5939 25.404 58.9238 26.227 58.9238C27.0507 58.9238 27.7179 59.5939 27.7179 60.4193Z" fill="#F39314"/>
<path d="M32.4659 63.4095C32.4659 64.2349 31.7987 64.9049 30.9757 64.9049C30.1529 64.9049 29.4849 64.2349 29.4849 63.4095C29.4849 62.5839 30.1529 61.9141 30.9757 61.9141C31.7987 61.9141 32.4659 62.5839 32.4659 63.4095Z" fill="#F39314"/>
<path d="M36.362 59.8646C36.362 60.6899 35.6949 61.36 34.8712 61.36C34.0482 61.36 33.3818 60.6899 33.3818 59.8646C33.3818 59.039 34.0482 58.3691 34.8712 58.3691C35.6949 58.3691 36.362 59.039 36.362 59.8646Z" fill="#F39314"/>
<path d="M21.3948 66.0489L20.5462 67.8532L19.9793 66.8499L20.0197 66.4346L20.0565 66.0174L20.0893 65.5977L20.1188 65.1754L20.1448 64.7515L20.1667 64.3253L20.1852 63.8968L20.1996 63.4664L20.2107 63.0337L20.2182 62.5993L20.2216 62.1626V61.724L20.2178 61.2835L20.2103 60.8409L20.199 60.3966L20.1843 59.9505L20.1655 59.5031L20.1431 59.0534L20.1169 58.6018L20.0872 58.1487L20.0538 57.6939L20.0163 57.2377L19.9753 56.7796L19.9305 56.3202L19.8818 55.8592L19.8297 55.3964L19.7736 54.9324L19.7138 54.4672L19.6502 54.0003L19.583 53.5323L19.5117 53.0628L19.4368 52.5919L21.4038 52.2713L21.4808 52.7565L21.5542 53.2406L21.6239 53.7237L21.6892 54.2053L21.7511 54.6857L21.8088 55.1648L21.863 55.6426L21.913 56.1188L21.9595 56.5936L22.0017 57.0673L22.0404 57.539L22.0752 58.0097L22.1061 58.4788L22.1331 58.9459L22.1563 59.4116L22.1756 59.8758L22.1911 60.3383L22.2028 60.7989L22.2103 61.2579L22.2145 61.7151V62.1705L22.2107 62.624L22.2032 63.0761L22.1917 63.5256L22.1764 63.9736L22.1572 64.4193L22.1344 64.8636L22.1076 65.3056L22.0768 65.7454L22.0423 66.1832L22.0038 66.6188L21.9618 67.0522L21.3948 66.0489ZM21.9618 67.0522C21.9059 67.5999 21.4166 67.9988 20.8693 67.943C20.322 67.8872 19.9234 67.3976 19.9793 66.8499L21.9618 67.0522ZM38.2005 67.1225L40.18 66.8912L39.5986 67.9164L39.0672 68.1432L38.521 68.3539L37.9609 68.5482L37.3885 68.7268L36.8044 68.8899L36.2098 69.0374L35.6054 69.1698L34.9931 69.2871L34.3734 69.3897L33.7472 69.4777L33.1158 69.5511L32.4802 69.6101L31.8417 69.655L31.2011 69.6854L30.5597 69.7018L29.9182 69.7041L29.2783 69.6924L28.6404 69.6667L28.0061 69.6273L27.3759 69.574L26.7514 69.507L26.1336 69.426L25.5234 69.3316L24.9217 69.2233L24.33 69.101L23.749 68.9652L23.1796 68.8154L22.6233 68.6515L22.0806 68.4735L21.5528 68.2813L21.041 68.0746L20.5462 67.8532L21.3948 66.0489L21.8205 66.2392L22.2666 66.4195L22.7317 66.589L23.2145 66.7473L23.7143 66.8944L24.229 67.0299L24.7581 67.1535L25.2995 67.2654L25.8522 67.3649L26.4152 67.4522L26.987 67.5269L27.5663 67.5892L28.1517 67.6387L28.7421 67.6752L29.3364 67.6992L29.9329 67.7101L30.5308 67.7078L31.1287 67.6926L31.725 67.6643L32.3187 67.6228L32.9087 67.568L33.4936 67.5L34.0721 67.4188L34.6428 67.3241L35.205 67.2165L35.7567 67.0954L36.2969 66.9613L36.8245 66.8142L37.3383 66.6541L37.8364 66.4812L38.3178 66.2956L38.7819 66.0973L38.2005 67.1225ZM38.7819 66.0973C39.2838 65.8717 39.8735 66.0961 40.099 66.5983C40.3246 67.1004 40.1005 67.6908 39.5986 67.9164L38.7819 66.0973ZM40.0275 53.373L40.0216 51.379L41.0003 52.5781L40.9164 52.993L40.8348 53.4125L40.7566 53.8357L40.6813 54.2638L40.6087 54.6961L40.5392 55.1318L40.4733 55.5706L40.4106 56.0124L40.3516 56.4575L40.2959 56.9053L40.244 57.3552L40.1957 57.8072L40.1513 58.2612L40.111 58.7165L40.0748 59.1734L40.0428 59.6315L40.0149 60.09L39.9917 60.5492L39.9729 61.0088L39.9585 61.4686L39.9488 61.9275L39.9442 62.3865V62.8446L39.9492 63.3019L39.9593 63.7579L39.9746 64.212L39.9951 64.6647L40.021 65.115L40.0524 65.5635L40.0892 66.0088L40.1317 66.4516L40.18 66.8912L38.2005 67.1225L38.1492 66.6555L38.1042 66.1863L38.0653 65.715L38.0323 65.2418L38.0051 64.7671L37.9833 64.2909L37.9672 63.8133L37.9567 63.335L37.9513 62.8559V62.3764L37.9563 61.8965L37.9664 61.4165L37.9812 60.937L38.0009 60.4577L38.0254 59.9792L38.054 59.5014L38.0877 59.0248L38.1251 58.5499L38.1672 58.0761L38.2132 57.6045L38.2632 57.1349L38.3172 56.6677L38.3749 56.2031L38.4364 55.7412L38.5013 55.2823L38.5701 54.8263L38.6421 54.3742L38.7172 53.926L38.7955 53.4815L38.877 53.0406L38.9616 52.6052L39.0488 52.1739L40.0275 53.373ZM39.0488 52.1739C39.1603 51.6348 39.6879 51.2883 40.2267 51.3997C40.7654 51.5112 41.1118 52.039 41.0003 52.5781L39.0488 52.1739ZM20.4174 51.4346L40.0216 51.379L40.0275 53.373L20.4232 53.4286L19.4368 52.5919L20.4174 51.4346ZM20.4232 53.4286C19.873 53.4301 19.4253 52.9848 19.4238 52.4343C19.4224 51.8839 19.8671 51.4361 20.4174 51.4346L20.4232 53.4286Z" fill="#173A4F"/>
<path d="M57.8288 1.64692L57.8207 1.66035C57.6192 1.54262 57.3926 1.46855 57.1365 1.43602C53.4352 0.971819 46.0444 17.2129 46.0444 24.902C46.0444 29.1514 47.0746 31.2768 48.1043 33.2179C48.6687 34.2773 49.2328 35.2842 49.6267 36.5517V36.5546C49.9537 37.6037 50.1642 38.8326 50.1642 40.4176C50.1642 46.4726 45.8555 51.515 40.1436 52.6285C39.3746 52.7802 38.576 52.8587 37.7626 52.8587H22.3737C21.5588 52.8587 20.7632 52.7802 19.9921 52.6285C16.2501 51.9001 13.109 49.4807 11.39 46.1981C10.4822 44.4702 9.97152 42.5053 9.97152 40.4176C9.97152 38.8215 10.1841 37.5852 10.5146 36.5332C10.9082 35.2739 11.4697 34.2723 12.0314 33.2179C12.6913 31.9764 13.3488 30.6602 13.7371 28.7598C13.9584 27.6893 14.0913 26.4337 14.0913 24.902C14.0913 17.2129 6.70051 0.971819 2.99853 1.43602C2.74016 1.46855 2.51128 1.54556 2.30918 1.66245L2.30103 1.64986C5.26052 -0.171262 12.4787 2.17849 16.1859 9.79706C20.1676 17.9873 19.699 23.4576 28.5776 23.9862C29.0456 24.0158 29.5438 24.0284 30.0678 24.0284C40.4978 24.0284 39.7585 18.4227 43.9519 9.79706C47.6547 2.18373 54.8691 -0.168324 57.8288 1.64692Z" fill="#C8E8FB"/>
<path d="M49.6263 36.5516C49.2324 35.2835 48.6684 34.2774 48.1039 33.2172C47.1865 31.4887 46.2712 29.6098 46.0815 26.2169C45.1641 26.0948 44.2668 25.9082 43.3944 25.6602C43.5094 29.4113 46.1953 33.421 46.1953 40.9567C46.1953 46.4194 40.7426 51.8009 30.0675 51.8009C29.2836 51.8009 35.9149 52.858 35.1002 52.858H37.7622C38.5756 52.858 39.3742 52.7803 40.1433 52.6286C45.8557 51.5151 50.1644 46.4721 50.1644 40.4178C50.1644 38.8319 49.9533 37.6036 49.6263 36.5548V36.5516Z" fill="#A3D3F2"/>
<path d="M57.8209 1.65986C60.5996 3.24636 58.4467 12.3545 54.6568 18.5429C50.768 24.8912 48.3627 29.0029 49.6264 36.552C49.2322 35.2839 48.669 34.2778 48.1046 33.2176C47.0742 31.2771 46.0447 29.1517 46.0447 24.9023C46.0447 17.2133 53.4354 0.971325 57.1368 1.43552C57.3929 1.46805 57.6194 1.54297 57.8209 1.65986Z" fill="#F7C8D7"/>
<path d="M49.4567 30.2643C49.0123 28.8962 48.7052 27.2157 48.7052 24.9014C48.7052 18.1815 54.352 4.92603 58.2467 2.00486C58.1199 1.86782 57.9795 1.74926 57.8209 1.65902C57.6194 1.54213 57.3929 1.46805 57.1368 1.43552C53.4354 0.971326 46.0447 17.2124 46.0447 24.9014C46.0447 29.1508 47.0742 31.2762 48.1046 33.2167C48.669 34.2767 49.2322 35.2829 49.6264 36.5511C49.2286 34.1732 49.1954 32.1366 49.4567 30.2643Z" fill="#F0879E"/>
<path d="M14.0915 24.9015C14.0915 29.1511 13.0611 31.2765 12.031 33.2168C11.4699 34.2717 10.9084 35.2734 10.5142 36.5327C11.7682 28.9941 9.36732 24.886 5.48145 18.5423C1.6916 12.3597 -0.46138 3.25895 2.3094 1.66217C2.5115 1.54507 2.74038 1.46826 2.99875 1.43552C6.70073 0.971325 14.0915 17.2126 14.0915 24.9015Z" fill="#F7C8D7"/>
<path d="M8.67535 18.5423C5.09869 12.7079 2.98274 4.27781 5.08321 2.00508C4.52231 1.58453 3.99678 1.37636 3.53045 1.43574C3.2727 1.46827 3.04404 1.54529 2.84173 1.66218C0.0711584 3.25833 2.22414 12.3591 6.01399 18.5423C9.89965 24.8853 12.2999 28.9941 11.0467 36.5329C11.4407 35.2735 12.0018 34.2719 12.5633 33.217C13.0328 32.3331 13.5014 31.4068 13.8734 30.2616C13.3037 26.1889 11.339 22.8902 8.67535 18.5423Z" fill="#FEFEFE"/>
<path d="M33.2609 24.0295C43.6917 24.0295 42.9515 18.4236 47.1458 9.7975C49.6883 4.56853 53.8878 1.82194 57.2282 1.20223C53.8428 0.42115 47.7761 3.02861 44.4844 9.7975C40.4797 18.032 40.972 23.5149 31.9502 23.9946C32.3672 24.0169 32.8019 24.0295 33.2609 24.0295Z" fill="#FEFEFE"/>
<path d="M14.5838 46.1975C13.6766 44.4696 13.1653 42.5056 13.1653 40.4171C13.1653 38.8209 13.3779 37.5847 13.7078 36.5327C14.1017 35.2733 14.6635 34.2725 15.2252 33.2174C15.8851 31.9759 16.5426 30.6603 16.9315 28.7592C17.1514 27.6888 17.2851 26.4338 17.2851 24.9015C17.2851 17.2132 9.89431 0.971274 6.19212 1.43547C5.93396 1.468 5.70508 1.54586 5.50278 1.66275L5.49545 1.64932C5.82454 1.4466 6.20907 1.29928 6.63356 1.20086C5.108 0.917971 3.7611 1.07872 2.83325 1.64932L2.84141 1.66275C3.04372 1.54586 3.27238 1.468 3.53076 1.43547C7.23274 0.971274 14.6237 17.2132 14.6237 24.9015C14.6237 26.4338 14.4909 27.6888 14.2693 28.7592C13.8812 30.6603 13.2235 31.9759 12.5638 33.2174C12.0021 34.2725 11.4404 35.2733 11.0471 36.5327C10.7165 37.5847 10.504 38.8209 10.504 40.4171C10.504 42.5056 11.0146 44.4696 11.9224 46.1975C13.6413 49.4809 16.7824 51.8995 20.5243 52.6288C21.2957 52.7805 22.0913 52.8581 22.9059 52.8581H25.5673C24.7526 52.8581 23.957 52.7805 23.1857 52.6288C19.4431 51.8995 16.3035 49.4809 14.5838 46.1975Z" fill="#FEFEFE"/>
<path d="M23.2895 39.8119C22.6349 39.7002 22.1102 39.5535 21.6622 39.5269C21.215 39.492 20.871 39.5388 20.3463 39.6157C19.8237 39.6891 19.1618 39.8496 18.4701 40.0236C18.1218 40.1044 17.7498 40.1732 17.3705 40.1583C16.9933 40.1458 16.6219 40.0547 16.2996 39.9053C16.1652 39.8438 16.1062 39.6839 16.1682 39.5491C16.2198 39.4352 16.3408 39.3758 16.4581 39.3959L16.4625 39.3966C17.0464 39.5002 17.5594 39.3026 18.0435 38.985C18.5373 38.6629 18.9758 38.1439 19.6576 37.7658C19.9963 37.5807 20.4038 37.4451 20.8363 37.4044C21.2687 37.3645 21.7168 37.4117 22.119 37.5391C22.9257 37.8056 23.5376 38.3143 23.9198 38.9517C24.0836 39.2255 23.9958 39.5802 23.7228 39.7445C23.6004 39.8186 23.4608 39.8415 23.3301 39.8194L23.2895 39.8119Z" fill="#173A4F"/>
<path d="M19.5586 39.2642C19.2839 39.3278 18.9998 39.3723 18.7061 39.3775C18.4132 39.3819 18.1061 39.3456 17.8117 39.2375C17.5186 39.1303 17.2456 38.9423 17.0492 38.703C16.85 38.4655 16.7312 38.1879 16.6625 37.9161C16.6263 37.7725 16.7127 37.6273 16.8552 37.5904C16.982 37.5579 17.1113 37.6229 17.1636 37.7383L17.1665 37.7451C17.2582 37.9465 17.3806 38.1205 17.5297 38.2418C17.6789 38.3648 17.85 38.4374 18.0352 38.4684C18.4071 38.5305 18.8302 38.4216 19.2287 38.2485C19.4996 38.1316 19.8147 38.2558 19.9321 38.5276C20.0494 38.7994 19.9248 39.1154 19.6538 39.2331C19.6243 39.2457 19.5948 39.2554 19.5653 39.2627L19.5586 39.2642Z" fill="#173A4F"/>
<path d="M36.2163 38.9517C36.5985 38.3142 37.2105 37.8057 38.0172 37.5392C38.4193 37.4118 38.8681 37.3644 39.3007 37.4045C39.7331 37.4452 40.1398 37.5805 40.4786 37.7656C41.1606 38.144 41.5989 38.663 42.0926 38.9849C42.5767 39.3026 43.0897 39.5003 43.6736 39.3972L43.678 39.3966C43.8249 39.3706 43.963 39.4684 43.9887 39.615C44.0109 39.7378 43.9452 39.8564 43.8366 39.9053C43.5142 40.0547 43.1437 40.1458 42.7659 40.1584C42.3872 40.1732 42.0144 40.1042 41.666 40.0236C40.9746 39.8497 40.3133 39.6889 39.7907 39.6157C39.266 39.5387 38.9212 39.4921 38.4747 39.5269C38.026 39.5536 37.5013 39.7 36.8467 39.8119L36.8075 39.8192C36.4937 39.8725 36.1964 39.6616 36.1418 39.3471C36.1182 39.2056 36.1477 39.0657 36.2163 38.9517Z" fill="#173A4F"/>
<path d="M40.9076 38.2483C41.3062 38.4214 41.7292 38.5303 42.1012 38.468C42.2863 38.4369 42.4577 38.3643 42.6066 38.2416C42.7558 38.1201 42.8784 37.9461 42.9698 37.7448L42.9727 37.739C43.034 37.604 43.1926 37.5448 43.3255 37.6063C43.4451 37.6611 43.5056 37.7929 43.4738 37.9159C43.4052 38.1874 43.2863 38.465 43.0872 38.7028C42.8916 38.9427 42.6177 39.1299 42.3248 39.2373C42.0303 39.3454 41.7233 39.3817 41.4302 39.3771C41.1365 39.3727 40.8524 39.3275 40.5777 39.264L40.5742 39.2625C40.2863 39.1958 40.1076 38.9078 40.1748 38.6191C40.2413 38.3303 40.5283 38.1511 40.8162 38.2178C40.8472 38.2252 40.8796 38.2363 40.9076 38.2483Z" fill="#173A4F"/>
<path d="M32.3032 40.2646C32.1179 39.4636 30.7371 39.451 29.9858 39.5087C29.2343 39.5658 27.8713 39.7864 27.8086 40.6067C27.7289 41.6462 29.6433 43.2172 30.2626 43.1704C30.8817 43.1232 32.5371 41.2804 32.3032 40.2646Z" fill="#173A4F"/>
<path d="M31.1577 40.7918L31.1209 41.6203C31.0811 41.9059 31.0567 42.1835 30.9954 42.4708C30.8744 43.0393 30.6744 43.6458 30.2514 44.1944C30.1387 44.3283 30.0353 44.463 29.8832 44.5734L29.6698 44.7415C29.5932 44.7895 29.5089 44.8311 29.4278 44.8733C29.1031 45.0464 28.734 45.1064 28.3924 45.1056C27.7045 45.0686 27.0993 44.8214 26.6292 44.267C26.4402 44.0447 26.4674 43.7102 26.689 43.5214C26.8823 43.3562 27.1597 43.3556 27.3532 43.505L27.4315 43.5659C27.5325 43.6443 27.6942 43.7153 27.8543 43.7568C28.0204 43.7952 28.1894 43.7967 28.3369 43.7715C28.6359 43.7088 28.8102 43.5392 28.9436 43.2756C29.0713 43.0039 29.1422 42.6337 29.148 42.228C29.1539 42.0282 29.1305 41.8089 29.1252 41.6039L29.0353 40.9531L29.0263 40.8902C28.9451 40.3024 29.3547 39.7597 29.9407 39.6783C30.5267 39.5968 31.0678 40.0071 31.1489 40.5955C31.1577 40.6593 31.1609 40.7288 31.1577 40.7918Z" fill="#173A4F"/>
<path d="M31.158 40.7914L31.1676 41.448C31.1928 41.6516 31.2032 41.8715 31.2377 42.0692C31.3049 42.4698 31.4304 42.8243 31.5986 43.0738C31.7691 43.3136 31.967 43.4559 32.2725 43.4721C32.4223 43.4744 32.5884 43.4477 32.7463 43.3848C32.8991 43.3195 33.0482 43.224 33.1367 43.1315L33.2039 43.0597C33.4054 42.848 33.7399 42.8415 33.9501 43.0427C34.1338 43.2182 34.1635 43.4958 34.0342 43.7046C33.6535 44.3235 33.0918 44.6588 32.4179 44.7988C32.08 44.8513 31.7066 44.8477 31.3589 44.7256C31.2725 44.696 31.1831 44.6678 31.0999 44.6322L30.8637 44.4989C30.6975 44.4122 30.5743 44.2947 30.4421 44.1791C29.9425 43.7017 29.6532 43.1323 29.4488 42.5882C29.3448 42.3135 29.2791 42.0425 29.1965 41.7657L29.0356 40.9528C28.9197 40.3702 29.2967 39.8046 29.8777 39.689C30.4578 39.5727 31.0216 39.9505 31.1375 40.533C31.1492 40.596 31.1566 40.6596 31.1574 40.7219L31.158 40.7914Z" fill="#173A4F"/>
<path d="M3.15269 2.49373C3.1416 2.49373 3.1349 2.49436 3.13051 2.4952C3.01837 2.50926 2.92465 2.53885 2.84264 2.58628C2.53343 2.76465 2.36438 3.21563 2.27589 3.56126C1.52608 6.51958 3.40939 13.1225 6.38833 17.9835C9.21727 22.6008 11.4594 26.261 11.8506 31.1886C12.4778 29.7641 13.0262 27.8809 13.0262 24.9018C13.0262 18.4144 7.68941 6.18424 4.20732 3.10084C3.57257 2.53885 3.24202 2.49373 3.15269 2.49373ZM30.0678 53.926H22.3737C21.4969 53.926 20.6266 53.8416 19.7868 53.6758C13.4831 52.4469 8.90639 46.87 8.90639 40.4174C8.90639 38.888 9.09321 37.5353 9.47628 36.2864C10.6092 29.3623 8.57061 25.625 4.5749 19.1021C1.28465 13.734 -0.672721 6.5263 0.213075 3.03495C0.488396 1.95042 1.01519 1.17668 1.77922 0.737037C2.10601 0.546699 2.47359 0.424564 2.86774 0.375668C3.7253 0.266753 4.65168 0.64596 5.61635 1.49944C9.80683 5.20988 15.1555 18.3329 15.1555 24.9018C15.1555 29.2431 14.1222 31.5492 12.9709 33.7191L12.8262 33.99C12.34 34.8991 11.8801 35.7593 11.5508 36.7861C11.5383 36.8446 11.5198 36.9024 11.4985 36.9565C11.187 37.9892 11.0357 39.1226 11.0357 40.4174C11.0357 45.8499 14.8875 50.545 20.195 51.58C20.9019 51.7192 21.6347 51.7903 22.3737 51.7903H30.0678C30.6559 51.7903 31.1321 52.2677 31.1321 52.8578C31.1321 53.4471 30.6559 53.926 30.0678 53.926Z" fill="#173A4F"/>
<path d="M30.068 25.0967C21.1987 25.0967 19.6098 21.0287 17.4103 15.3979C16.8103 13.8609 16.1291 12.1182 15.2287 10.2659C13.3335 6.37032 10.1635 3.44977 6.7492 2.45254C5.17134 1.99128 3.71587 2.03199 2.85748 2.56062C2.35642 2.86931 1.70096 2.71087 1.39321 2.20827C1.0863 1.70483 1.24342 1.0482 1.74469 0.7395C3.12694 -0.111251 5.16758 -0.234016 7.3442 0.402683C11.3253 1.56486 14.9881 4.90218 17.1426 9.32864C18.0805 11.2601 18.778 13.0443 19.3928 14.6197C21.5619 20.1735 22.6513 22.9608 30.068 22.9608C30.6555 22.9608 31.1322 23.4399 31.1322 24.0292C31.1322 24.6184 30.6555 25.0967 30.068 25.0967Z" fill="#173A4F"/>
<path d="M56.9823 2.49487C56.8938 2.49487 56.563 2.53999 55.9277 3.10198C52.4462 6.18538 47.1086 18.4155 47.1086 24.903C47.1086 27.8835 47.6572 29.7668 48.2859 31.1919C48.6771 26.2657 50.92 22.6034 53.749 17.9847C56.7315 13.1154 58.6127 6.50667 57.8576 3.55506C57.7691 3.21069 57.6001 2.76286 57.2944 2.58889C57.2089 2.53936 57.1166 2.5104 57.0045 2.49634C57.0007 2.4955 56.994 2.49487 56.9823 2.49487ZM49.6254 37.6208C49.1693 37.6208 48.7516 37.3255 48.6099 36.871C48.2792 35.807 47.8076 34.9254 47.3095 33.9911L47.1649 33.7217C46.0134 31.5509 44.9795 29.2442 44.9795 24.903C44.9795 18.3341 50.3288 5.21102 54.5186 1.50058C55.4833 0.647104 56.4074 0.268735 57.2693 0.37765C57.6635 0.426336 58.0288 0.547002 58.3537 0.736501C59.1137 1.16964 59.6422 1.94107 59.919 3.0235C60.8113 6.51044 58.8577 13.7234 55.563 19.1026C51.8847 25.1094 49.4543 29.0768 50.6765 36.3763C50.7688 36.9301 50.4181 37.4609 49.8733 37.5912C49.7907 37.6113 49.7081 37.6208 49.6254 37.6208Z" fill="#173A4F"/>
<path d="M49.6268 37.6237C49.0387 37.6237 48.5625 37.1455 48.5625 36.5562C48.5625 35.9661 49.0387 35.4863 49.6268 35.4863C50.2151 35.4863 50.691 35.9637 50.691 36.5532V36.5562C50.691 37.1455 50.2151 37.6237 49.6268 37.6237Z" fill="#173A4F"/>
<path d="M37.7613 53.9284H30.068C29.4797 53.9284 29.0029 53.4501 29.0029 52.8609C29.0029 52.2707 29.4797 51.7925 30.068 51.7925H37.7613C38.5032 51.7925 39.2352 51.7222 39.9379 51.5831C45.2481 50.548 49.0993 45.8536 49.0993 40.4196C49.0993 39.0893 48.9398 37.9307 48.6099 36.8758C48.435 36.3132 48.7471 35.7134 49.3089 35.5373C49.8706 35.361 50.4669 35.675 50.6426 36.2376C51.0367 37.5022 51.2286 38.8702 51.2286 40.4196C51.2286 46.8739 46.6519 52.45 40.3467 53.6789C39.512 53.844 38.6412 53.9284 37.7613 53.9284Z" fill="#173A4F"/>
<path d="M30.0679 25.0962C29.4796 25.0962 29.0034 24.618 29.0034 24.0287C29.0034 23.4394 29.4796 22.9603 30.0679 22.9603C37.4838 22.9603 38.5731 20.1739 40.7428 14.6207C41.3583 13.0453 42.0567 11.2597 42.9954 9.32882C45.1461 4.90634 48.8046 1.57028 52.7833 0.404333C54.9436 -0.228589 56.9711 -0.113799 58.3527 0.715966C58.6782 0.898959 58.8989 1.24837 58.8989 1.64961C58.8989 2.23888 58.4213 2.71714 57.8347 2.71714C57.6663 2.71714 57.5018 2.67706 57.3541 2.60235C57.3267 2.58913 57.3002 2.57339 57.2736 2.55786C56.4146 2.03092 54.9585 1.9923 53.3798 2.45503C49.9678 3.45457 46.8007 6.37427 44.9093 10.2654C44.0074 12.1193 43.3262 13.8619 42.7253 15.3995C40.5253 21.0297 38.9361 25.0962 30.0679 25.0962Z" fill="#173A4F"/>
<path d="M44.5547 22.8496L43.2682 25.4185L41.9824 27.9867L47.6882 34.7547C48.9387 36.2376 51.2923 35.957 52.1609 34.2217L53.8894 30.7696L55.6179 27.3166C56.4874 25.5821 55.3058 23.5209 53.3741 23.4003L44.5547 22.8496Z" fill="#FECD27"/>
<path d="M43.7215 22.4267L42.435 24.9957L41.1494 27.5637L32.3289 27.0131C30.3975 26.8924 29.2167 24.8312 30.0853 23.0959L31.8138 19.6438L33.543 16.1917C34.4118 14.4564 36.7646 14.1759 38.0157 15.6587L43.7215 22.4267Z" fill="#FECD27"/>
<path d="M35.3065 25.5247C35.3065 26.3501 34.6393 27.0202 33.8157 27.0202C32.9929 27.0202 32.3257 26.3501 32.3257 25.5247C32.3257 24.6992 32.9929 24.0293 33.8157 24.0293C34.6393 24.0293 35.3065 24.6992 35.3065 25.5247Z" fill="#F39314"/>
<path d="M51.1168 26.5872C51.1168 27.4127 50.4496 28.0819 49.626 28.0819C48.8031 28.0819 48.1357 27.4127 48.1357 26.5872C48.1357 25.7618 48.8031 25.0918 49.626 25.0918C50.4496 25.0918 51.1168 25.7618 51.1168 26.5872Z" fill="#F39314"/>
<path d="M51.4243 31.7962C51.4243 32.6216 50.7571 33.2917 49.9334 33.2917C49.1104 33.2917 48.4438 32.6216 48.4438 31.7962C48.4438 30.9707 49.1104 30.3008 49.9334 30.3008C50.7571 30.3008 51.4243 30.9707 51.4243 31.7962Z" fill="#F39314"/>
<path d="M35.2568 27.0141C33.3245 26.8935 32.1435 24.8323 33.0124 23.097L34.7415 19.6449L36.4708 16.1928C36.698 15.7376 37.0302 15.3844 37.4169 15.1349C36.1202 14.2909 34.2877 14.7055 33.5429 16.1928L31.8138 19.6449L30.0851 23.097C29.2158 24.8323 30.3974 26.8935 32.3289 27.0141L41.1485 27.565L41.2379 27.3879L35.2568 27.0141Z" fill="#FEFEFE"/>
<path d="M53.3745 23.4005L44.5548 22.8496L44.4736 23.011L50.7131 23.4005C52.6454 23.5211 53.8255 25.5821 52.9575 27.3168L51.2282 30.7695L49.4997 34.2217C49.2451 34.7295 48.862 35.1087 48.4179 35.3597C49.7035 36.094 51.4416 35.6594 52.1604 34.2217L53.8898 30.7695L55.6183 27.3168C56.4875 25.5821 55.3059 23.5211 53.3745 23.4005Z" fill="#F39314"/>
<path d="M43.2683 25.4165L41.9827 27.9855L44.6601 31.1614C46.2286 30.6817 47.6058 29.5867 48.3991 28.001C49.1925 26.4166 49.2471 24.6541 48.6943 23.106L44.5547 22.8477L43.2683 25.4165Z" fill="#F39314"/>
<path d="M46.1773 26.8824C45.2548 28.7245 43.0184 29.4676 41.1815 28.5424C39.3453 27.6177 38.6034 25.3738 39.526 23.5318C40.4487 21.6891 42.6864 20.9452 44.5226 21.8704C46.3589 22.7959 47.0999 25.0405 46.1773 26.8824Z" fill="#FECD27"/>
<path d="M43.5765 28.5437C41.7401 27.6191 40.9992 25.3751 41.9216 23.5326C42.4443 22.4894 43.3874 21.7994 44.4422 21.564C42.8206 21.2093 41.1032 21.9763 40.3245 23.5326C39.4019 25.3751 40.1429 27.6191 41.98 28.5437C42.7763 28.9458 43.6481 29.0316 44.4548 28.8518C44.1573 28.7865 43.8621 28.6873 43.5765 28.5437Z" fill="#FEFEFE"/>
<path d="M40.0834 21.4778C40.0834 22.3032 39.4162 22.9732 38.5925 22.9732C37.7697 22.9732 37.1025 22.3032 37.1025 21.4778C37.1025 20.6523 37.7697 19.9824 38.5925 19.9824C39.4162 19.9824 40.0834 20.6523 40.0834 21.4778Z" fill="#F39314"/>
<path d="M42.1268 28.5437C43.963 27.6191 44.7041 25.3751 43.7817 23.5326C43.259 22.4894 42.3151 21.7994 41.2611 21.564C42.8827 21.2093 44.6001 21.9763 45.3788 23.5326C46.3012 25.3751 45.5604 27.6191 43.7233 28.5437C42.9268 28.9458 42.0553 29.0316 41.2485 28.8518C41.546 28.7865 41.8412 28.6873 42.1268 28.5437Z" fill="#F39314"/>
<path d="M49.7449 36.7797C48.6451 36.7797 47.5972 36.2985 46.8754 35.4434L41.9726 29.6289C41.5931 29.1781 41.6485 28.5045 42.0979 28.1238C42.5466 27.7427 43.2182 27.799 43.5983 28.2497L48.5006 34.0642C48.8614 34.4915 49.3876 34.698 49.9418 34.6329C50.4968 34.567 50.9596 34.2405 51.2107 33.74L54.6677 26.8366C54.9179 26.3361 54.9016 25.7697 54.6233 25.2832C54.3451 24.7976 53.8662 24.5 53.3097 24.4652L45.7312 23.9937C45.1452 23.9565 44.6988 23.4495 44.7358 22.8609C44.7718 22.2716 45.2752 21.8244 45.8641 21.8615L53.4411 22.3339C54.7053 22.413 55.8373 23.1171 56.4685 24.218C57.101 25.3204 57.1393 26.6574 56.5702 27.7944L53.1126 34.6988C52.5427 35.8358 51.4519 36.6035 50.1929 36.7539C50.0431 36.7709 49.8933 36.7797 49.7449 36.7797Z" fill="#173A4F"/>
<path d="M39.9063 28.5576C39.8841 28.5576 39.8613 28.557 39.8392 28.5555L32.2624 28.0802C30.9981 28.0017 29.8659 27.2976 29.2349 26.1967C28.6031 25.0937 28.5648 23.7568 29.133 22.6196L32.5909 15.7153C33.1605 14.5789 34.2522 13.8111 35.5104 13.6608C36.7696 13.5129 38.0096 14.0008 38.828 14.9705L43.7338 20.7879C44.1131 21.2381 44.057 21.9117 43.6083 22.293C43.1589 22.6735 42.488 22.6181 42.1078 22.1671L37.2029 16.3505C36.8426 15.9233 36.3165 15.7159 35.7621 15.7818C35.2072 15.8477 34.7445 16.1728 34.4928 16.6748L31.0358 23.5775C30.7856 24.0787 30.8017 24.6451 31.0808 25.1315C31.3582 25.6157 31.8373 25.9147 32.3944 25.9495L39.972 26.424C40.5586 26.4612 41.0045 26.9682 40.9676 27.556C40.9329 28.1224 40.4643 28.5576 39.9063 28.5576Z" fill="#173A4F"/>
<path d="M42.8555 22.5416C41.8829 22.5416 40.9433 23.0805 40.4768 24.0103C39.8201 25.3236 40.3498 26.9288 41.6593 27.5884C42.9677 28.2479 44.5679 27.7164 45.2261 26.4031C45.5449 25.7664 45.5966 25.0445 45.3738 24.3688C45.1502 23.6928 44.6786 23.1443 44.0438 22.8251C43.6631 22.6326 43.2564 22.5416 42.8555 22.5416ZM42.8467 30.0099C42.111 30.0099 41.3802 29.8374 40.7034 29.4968C38.3454 28.3086 37.3903 25.4176 38.5749 23.0517C39.7594 20.6862 42.6415 19.7283 44.9995 20.9167C46.142 21.4925 46.9923 22.4794 47.3946 23.6972C47.7969 24.9144 47.7017 26.2157 47.1282 27.3617C46.5546 28.5077 45.57 29.3606 44.3568 29.7641C43.8616 29.9284 43.353 30.0099 42.8467 30.0099Z" fill="#173A4F"/>
<path d="M42.0857 42.0859C40.6153 42.0859 39.4243 42.6842 39.4243 43.4215C39.4243 44.1581 40.6153 44.7555 42.0857 44.7555C43.5552 44.7555 44.7462 44.1581 44.7462 43.4215C44.7462 42.6842 43.5552 42.0859 42.0857 42.0859Z" fill="#F0879E"/>
<path d="M18.0498 42.0859C16.5794 42.0859 15.3882 42.6842 15.3882 43.4215C15.3882 44.1581 16.5794 44.7555 18.0498 44.7555C19.519 44.7555 20.7111 44.1581 20.7111 43.4215C20.7111 42.6842 19.519 42.0859 18.0498 42.0859Z" fill="#F0879E"/>
<path d="M49.9653 33.2891C50.7741 33.2727 51.4244 32.6108 51.4244 31.7958C51.4244 31.473 51.321 31.1748 51.1476 30.9297L49.9653 33.2891Z" fill="#E85222"/>
<path d="M48.1357 26.5872C48.1357 26.9966 48.3004 27.3668 48.5661 27.6369C48.9004 26.8463 49.0605 26.0201 49.059 25.2051C48.518 25.4286 48.1357 25.9624 48.1357 26.5872Z" fill="#E85222"/>
<path d="M52.5893 75.9991C62.0663 75.9991 69.749 68.2929 69.749 58.7867C69.749 49.2805 62.0663 41.5742 52.5893 41.5742C43.1123 41.5742 35.4297 49.2805 35.4297 58.7867C35.4297 68.2929 43.1123 75.9991 52.5893 75.9991Z" fill="#FEFEFE"/>
<path d="M52.5897 40.5762C57.6028 40.5762 62.1422 42.6149 65.4277 45.9105C68.7131 49.2063 70.7456 53.7593 70.7456 58.788C70.7456 63.8166 68.7131 68.3703 65.4277 71.6658C62.142 74.9614 57.603 77.0001 52.5897 77.0001C47.5762 77.0001 43.0372 74.9614 39.7515 71.6658C36.4661 68.3703 34.4336 63.8166 34.4336 58.788C34.4336 53.7593 36.4661 49.2063 39.7515 45.9105C43.037 42.6149 47.5766 40.5762 52.5897 40.5762ZM64.0189 47.3237C61.0941 44.3899 57.0532 42.5753 52.5897 42.5753C48.1262 42.5753 44.0851 44.3899 41.1603 47.3237C38.2358 50.2572 36.4265 54.311 36.4265 58.788C36.4265 63.2653 38.2356 67.3189 41.1603 70.2527C44.0849 73.1862 48.1262 75.001 52.5897 75.001C57.053 75.001 61.0943 73.1862 64.0189 70.2527C66.9436 67.3189 68.7527 63.2653 68.7527 58.788C68.7527 54.311 66.9434 50.2572 64.0189 47.3237Z" fill="#173A4F"/>
<path d="M53.3977 74.3223C61.8506 74.3223 68.7031 67.4487 68.7031 58.9697C68.7031 50.4908 61.8506 43.6172 53.3977 43.6172C44.9447 43.6172 38.0923 50.4908 38.0923 58.9697C38.0923 67.4487 44.9447 74.3223 53.3977 74.3223Z" fill="#E85222"/>
<path d="M21.173 40.5765C22.5792 40.5765 23.7191 39.6443 23.7191 38.4943C23.7191 37.3443 22.5792 36.4121 21.173 36.4121C19.7669 36.4121 18.627 37.3443 18.627 38.4943C18.627 39.6443 19.7669 40.5765 21.173 40.5765Z" fill="#173A4F"/>
<path d="M47.126 68.8125C47.4151 69.351 48.0344 69.7237 48.7915 69.7237C49.5485 69.7237 50.1679 69.351 50.4569 68.8125C50.691 68.343 50.7184 68.0255 50.7184 67.1282V62.2132H54.4898C58.564 62.2132 60.9588 59.4243 60.9588 56.0832C60.9588 52.7421 58.564 49.9531 54.4898 49.9531H49.2043C48.6401 49.9531 47.9382 49.9531 47.4013 50.4916C46.8645 51.0301 46.8645 51.7342 46.8645 52.3001V67.1282C46.8645 68.0255 46.8921 68.343 47.126 68.8125ZM50.7184 58.7892V53.3771H54.2695C56.0039 53.3771 57.1049 54.4677 57.1049 56.0832C57.1049 57.6846 56.0039 58.7892 54.2695 58.7892H50.7184Z" fill="#FEFEFE"/>
<path d="M56.1068 63.6024C56.6435 63.8922 57.015 64.5136 57.015 65.2728C57.015 66.0321 56.6435 66.6534 56.1068 66.9435C55.6386 67.1781 55.3221 67.2058 54.4273 67.2058H49.5525V63.3398H54.4273C55.3221 63.3398 55.6386 63.3675 56.1068 63.6024Z" fill="#FEFEFE"/>
<path d="M37.6785 75.2176C37.2896 75.6077 36.6586 75.6077 36.2697 75.2176C35.8808 74.8275 35.8808 74.1945 36.2697 73.8044L67.4998 42.4781C67.8887 42.088 68.5197 42.088 68.9086 42.4781C69.2975 42.8683 69.2975 43.5012 68.9086 43.8913L37.6785 75.2176Z" fill="#FEFEFE"/>
<path d="M39.3524 75.4285C38.9634 75.8186 38.3325 75.8186 37.9435 75.4285C37.5546 75.0383 37.5546 74.4054 37.9435 74.0153L69.1736 42.6891C69.5626 42.299 70.1935 42.299 70.5825 42.6891C70.9714 43.0792 70.9714 43.7121 70.5825 44.1022L39.3524 75.4285Z" fill="#173A4F"/>
</svg>
