<svg width="112" height="108" viewBox="0 0 112 108" fill="none" xmlns="http://www.w3.org/2000/svg">
<path d="M102.809 66.3862C105.329 69.3503 99.87 75.0054 92.8075 76.581C89.0155 77.4268 84.8159 77.8213 83.792 76.8582C82.1321 75.2968 86.4183 73.0001 84.7219 71.0464C97.688 71.4329 98.935 64.8968 102.809 66.3862Z" fill="#C8E8FB"/>
<path d="M84.8471 69.7272C84.1434 69.6888 83.6044 69.0869 83.6428 68.3832C83.6812 67.6795 84.2831 67.1404 84.9868 67.1788C86.4656 67.2648 87.7605 67.2038 89.0887 66.9516C90.4278 66.6973 91.8309 66.2417 93.5166 65.541C94.1768 65.2665 94.9627 64.779 95.777 64.2741C97.355 63.2959 99.0288 62.2575 100.673 62.1141C100.954 62.0891 101.224 62.0888 101.481 62.1103C102.595 62.203 103.437 62.6926 104.029 63.413C104.583 64.0887 104.885 64.9431 104.962 65.8343C104.989 66.1491 104.989 66.4724 104.962 66.7948C104.812 68.5967 104.066 70.3724 102.865 71.968C101.685 73.5355 100.061 74.933 98.1352 76.0049C95.9712 77.2095 93.6939 78.0983 91.4842 78.6741C89.1217 79.29 86.8253 79.5508 84.8141 79.4619C84.1104 79.4316 83.5646 78.8364 83.595 78.1327C83.6253 77.429 84.2205 76.8832 84.9242 76.9136C86.6912 76.9914 88.729 76.7572 90.8444 76.2058C92.8529 75.6823 94.9245 74.8734 96.896 73.7762C98.5113 72.8769 99.8612 71.722 100.827 70.4392C101.739 69.2266 102.304 67.9024 102.414 66.5847C102.429 66.4066 102.429 66.2278 102.414 66.054C102.378 65.6439 102.263 65.2796 102.06 65.032C101.893 64.829 101.634 64.6888 101.271 64.6587C101.157 64.6493 101.031 64.6501 100.893 64.6619H100.888C99.8424 64.7519 98.439 65.6224 97.1162 66.4426C96.2025 67.0094 95.3204 67.5565 94.4959 67.8992C92.6534 68.6652 91.0904 69.1685 89.5581 69.4597C88.014 69.753 86.5279 69.8247 84.8471 69.7272Z" fill="#173A4F"/>
<path d="M60.3195 67.3594C61.3068 72.6627 61.6253 77.3643 61.4878 81.539C59.247 86.8659 51.0027 89.6157 46.9709 87.2107C44.2544 85.5877 42.9012 81.8696 48.7334 80.8823C53.3289 80.1074 59.9955 73.1166 60.3195 67.3594Z" fill="#C8E8FB"/>
<path d="M50.3876 87.2107C49.2305 86.4622 47.4627 84.2716 52.3395 82.6523C55.2692 81.6802 58.795 77.4105 61.2292 73.8299C61.035 71.7766 60.742 69.6257 60.3206 67.3594C59.9956 73.1163 53.3287 80.1071 48.7331 80.8823C42.9013 81.8696 44.2544 85.5877 46.9709 87.2107C48.3987 88.0616 50.3554 88.2644 52.3859 87.9386C51.6516 87.7981 50.9608 87.5822 50.3876 87.2107Z" fill="#FEFEFE"/>
<path d="M61.4887 81.539C61.6259 77.3643 61.3076 72.6627 60.3203 67.3594C61.3103 67.5536 62.3328 67.654 63.3779 67.654H67.0885C67.0885 71.0594 69.8496 73.8205 73.2558 73.8205C76.6631 73.8205 79.4231 71.0594 79.4231 67.654H83.1347C84.1787 67.654 85.204 67.5536 86.1913 67.3594C85.259 72.3613 84.9273 76.8234 85.0022 80.8218C85.0345 82.4922 85.1398 84.0785 85.3036 85.5879C81.9892 87.8127 76.376 88.1376 73.2558 88.1376C70.1367 88.1376 64.5264 87.8127 61.212 85.5879H61.2091C61.3485 84.2963 61.4441 82.9461 61.4887 81.539Z" fill="#FECD27"/>
<path d="M86.1906 67.3594C85.2033 67.5536 84.178 67.654 83.133 67.654H82.7236C81.8322 72.5356 81.5118 76.9029 81.5856 80.8218C81.616 82.4922 81.7221 84.0785 81.8862 85.5877C79.1117 87.4495 74.7313 87.9794 71.5469 88.1025C72.1673 88.1261 72.7464 88.1376 73.2551 88.1376C76.3753 88.1376 81.9874 87.8126 85.3018 85.5877C85.1391 84.0785 85.0327 82.4922 85.0015 80.8218C84.9266 76.8231 85.2583 72.3613 86.1906 67.3594Z" fill="#F39314"/>
<path d="M73.2557 84.3794C70.2056 84.3794 64.7801 84.0638 61.4421 81.9707C61.39 82.979 61.3113 83.9585 61.209 84.9053H61.2119C64.5263 87.1289 70.1366 87.4539 73.2557 87.4539C76.3759 87.4539 81.9891 87.1289 85.3035 84.9053C85.2001 83.9596 85.1236 82.979 85.0715 81.9718C81.7324 84.0638 76.3058 84.3794 73.2557 84.3794Z" fill="#FEFEFE"/>
<path d="M77.3567 88.1368C79.5994 88.1368 83.127 87.9644 86.1666 87.0442C86.1014 86.5658 86.0407 86.0816 85.9878 85.5879C83.2143 87.4487 78.8339 87.9783 75.6484 88.1016C76.2689 88.1253 76.8488 88.1368 77.3567 88.1368Z" fill="#FEFEFE"/>
<path d="M65.3123 85.5877H65.3094C65.4496 84.2963 65.5444 82.9461 65.589 81.539C65.7235 77.4411 65.4155 72.8343 64.4708 67.6532H64.0615C63.0164 67.6532 61.995 67.5536 61.0039 67.3594C61.9912 72.6618 62.3087 77.3632 62.1723 81.539C62.1277 82.9461 62.0321 84.2963 61.8927 85.5877H61.8956C65.21 87.8126 70.8203 88.1366 73.9394 88.1366C74.4484 88.1366 75.0282 88.1261 75.6479 88.1016C72.4643 87.9784 68.0866 87.4498 65.3123 85.5877Z" fill="#FEFEFE"/>
<path d="M73.2552 67.6533H79.4225C79.4225 71.0596 76.6625 73.8207 73.2552 73.8207C69.849 73.8207 67.0879 71.0596 67.0879 67.6533H73.2552Z" fill="#A3D3F2"/>
<path d="M73.2574 75.1869C69.1023 75.1869 65.7227 71.8072 65.7227 67.6532C65.7227 66.898 66.3348 66.2861 67.0898 66.2861C67.845 66.2861 68.4561 66.898 68.4561 67.6532C68.4561 70.2996 70.6099 72.4535 73.2574 72.4535C75.9038 72.4535 78.0573 70.2996 78.0573 67.6532C78.0573 66.898 78.6694 66.2861 79.4236 66.2861C80.1789 66.2861 80.791 66.898 80.791 67.6532C80.791 71.8072 77.4111 75.1869 73.2574 75.1869Z" fill="#173A4F"/>
<path d="M50.6226 89.4502C48.9662 89.4502 47.4568 89.0922 46.2696 88.3845C44.1738 87.1326 42.9958 85.069 43.338 83.248C43.588 81.911 44.6881 80.1818 48.5048 79.5356C52.5752 78.8485 58.6668 72.3959 58.955 67.282C58.9977 66.5297 59.6429 65.9517 60.3963 65.9944C61.1494 66.0371 61.7266 66.6833 61.6839 67.4367C61.3199 73.892 54.0914 81.3652 48.9606 82.2303C46.9424 82.5722 46.12 83.2402 46.0241 83.7519C45.9011 84.4086 46.6249 85.412 47.6711 86.0373C49.1263 86.9054 51.5455 86.9481 53.9853 86.1474C56.9065 85.1875 59.2988 83.2184 60.2284 81.0088C60.4341 80.5132 60.9222 80.1657 61.4916 80.1657C62.2466 80.1657 62.8587 80.7778 62.8587 81.5328C62.8587 81.727 62.8163 81.9177 62.7384 82.092C61.4859 85.0443 58.5352 87.5298 54.8381 88.7444C53.3987 89.2163 51.9631 89.4502 50.6226 89.4502Z" fill="#173A4F"/>
<path d="M70.2392 77.33C70.2392 78.3866 69.3827 79.2431 68.3253 79.2431C67.2686 79.2431 66.4121 78.3866 66.4121 77.33C66.4121 76.2736 67.2686 75.416 68.3253 75.416C69.3827 75.416 70.2392 76.2736 70.2392 77.33Z" fill="#F39314"/>
<path d="M76.3349 81.1561C76.3349 82.2125 75.4784 83.0701 74.4218 83.0701C73.3654 83.0701 72.5078 82.2125 72.5078 81.1561C72.5078 80.0995 73.3654 79.2422 74.4218 79.2422C75.4784 79.2422 76.3349 80.0995 76.3349 81.1561Z" fill="#F39314"/>
<path d="M81.3358 76.62C81.3358 77.6764 80.4793 78.534 79.4218 78.534C78.3652 78.534 77.5098 77.6764 77.5098 76.62C77.5098 75.5634 78.3652 74.7061 79.4218 74.7061C80.4793 74.7061 81.3358 75.5634 81.3358 76.62Z" fill="#F39314"/>
<path d="M62.3565 68.3759C62.7624 71.1741 63.0162 73.9263 63.1182 76.6133C63.2262 79.4576 63.1639 82.2241 62.9329 84.8909C65.7934 86.0466 69.4811 86.652 73.2287 86.6633C76.896 86.6743 80.5923 86.1165 83.597 84.9508C83.3413 82.2539 83.3209 79.4547 83.4791 76.6858C83.6435 73.8119 84.0015 70.9708 84.4887 68.3134L62.3565 68.3759ZM60.5699 76.703C60.4546 73.6628 60.135 70.522 59.6107 67.311C59.6013 67.2441 59.5957 67.1756 59.5957 67.1061C59.5957 66.4024 60.1662 65.8319 60.8699 65.8319L85.9644 65.761C86.0737 65.7545 86.1857 65.7623 86.298 65.7857C86.9877 65.9291 87.4309 66.6049 87.2874 67.2946C86.6718 70.2617 86.2163 73.5218 86.0275 76.8255C85.8588 79.7781 85.9031 82.7677 86.2362 85.6155C86.2958 86.1538 86.0076 86.6926 85.4868 86.9249C82.0124 88.4817 77.5844 89.2246 73.2287 89.2117C68.7895 89.198 64.3868 88.3984 61.1052 86.875C60.5879 86.6698 60.2478 86.1401 60.3072 85.5591C60.5975 82.7194 60.6859 79.7571 60.5699 76.703Z" fill="#173A4F"/>
<path d="M108.897 2.10877L108.887 2.12596C108.628 1.97528 108.337 1.88047 108.008 1.83884C103.256 1.24472 93.768 22.0313 93.768 31.8724C93.768 37.311 95.0905 40.0313 96.4125 42.5157C97.1372 43.8716 97.8613 45.1603 98.367 46.7825V46.7863C98.7868 48.129 99.057 49.7018 99.057 51.7305C99.057 59.4801 93.5254 65.9337 86.1924 67.3588C85.2051 67.553 84.1799 67.6535 83.1356 67.6535H63.3791C62.3329 67.6535 61.3115 67.553 60.3215 67.3588C55.5175 66.4266 51.4849 63.33 49.2779 59.1287C48.1125 56.9172 47.4569 54.4024 47.4569 51.7305C47.4569 49.6876 47.7298 48.1053 48.1542 46.7589C48.6594 45.1471 49.3803 43.8651 50.1014 42.5157C50.9486 40.9268 51.7927 39.2422 52.2912 36.8099C52.5754 35.4398 52.7459 33.8328 52.7459 31.8724C52.7459 22.0313 43.2575 1.24472 38.5049 1.83884C38.1731 1.88047 37.8793 1.97904 37.6199 2.12865L37.6094 2.11253C41.4088 -0.21828 50.6757 2.78911 55.4351 12.5399C60.5468 23.0224 59.9452 30.0237 71.3438 30.7003C71.9446 30.7381 72.5841 30.7543 73.257 30.7543C86.6472 30.7543 85.698 23.5797 91.0816 12.5399C95.8353 2.79582 105.097 -0.214517 108.897 2.10877Z" fill="#C8E8FB"/>
<path d="M108.897 2.10877L108.887 2.12596C108.628 1.97528 108.337 1.88047 108.008 1.83884C103.256 1.24472 93.768 22.0313 93.768 31.8724C93.768 37.311 95.0905 40.0313 96.4125 42.5157C97.1372 43.8716 97.8613 45.1603 98.367 46.7825V46.7863C98.7868 48.129 99.057 49.7018 99.057 51.7305C99.057 59.4801 93.5254 65.9337 86.1924 67.3588C85.2051 67.553 84.1799 67.6535 83.1356 67.6535H63.3791C62.3329 67.6535 61.3115 67.553 60.3215 67.3588C55.5175 66.4266 51.4849 63.33 49.2779 59.1287C48.1125 56.9172 47.4569 54.4024 47.4569 51.7305C47.4569 49.6876 47.7298 48.1053 48.1542 46.7589C48.6594 45.1471 49.3803 43.8651 50.1014 42.5157C50.9486 40.9268 51.7927 39.2422 52.2912 36.8099C52.5754 35.4398 52.7459 33.8328 52.7459 31.8724C52.7459 22.0313 43.2575 1.24472 38.5049 1.83884C38.1731 1.88047 37.8793 1.97904 37.6199 2.12865L37.6094 2.11253C41.4088 -0.21828 50.6757 2.78911 55.4351 12.5399C60.5468 23.0224 59.9452 30.0237 71.3438 30.7003C71.9446 30.7381 72.5841 30.7543 73.257 30.7543C86.6472 30.7543 85.698 23.5797 91.0816 12.5399C95.8353 2.79582 105.097 -0.214517 108.897 2.10877Z" fill="#C8E8FB"/>
<path d="M98.3648 46.7825C97.8591 45.1594 97.1349 43.8718 96.4103 42.5149C95.2325 40.3025 94.0575 37.8979 93.8138 33.5553C92.6361 33.399 91.4841 33.1602 90.3641 32.8428C90.5118 37.6438 93.96 42.7757 93.96 52.4204C93.96 59.4121 86.9597 66.2998 73.2547 66.2998C72.2483 66.2998 80.7618 67.6526 79.7159 67.6526H83.1334C84.1777 67.6526 85.2029 67.5533 86.1902 67.3591C93.524 65.9339 99.0556 59.4795 99.0556 51.7307C99.0556 49.701 98.7846 48.1289 98.3648 46.7865V46.7825Z" fill="#A3D3F2"/>
<path d="M108.886 2.12576C112.454 4.15629 109.689 15.8136 104.824 23.734C99.8315 31.859 96.7435 37.1215 98.3658 46.7834C97.8598 45.1603 97.1367 43.8727 96.4121 42.5158C95.0893 40.0322 93.7676 37.3119 93.7676 31.8733C93.7676 22.0322 103.256 1.24452 108.008 1.83864C108.337 1.88027 108.628 1.97616 108.886 2.12576Z" fill="#F7C8D7"/>
<path d="M98.148 38.736C97.5775 36.985 97.1832 34.8342 97.1832 31.8722C97.1832 23.2715 104.433 6.30607 109.433 2.56732C109.27 2.39193 109.09 2.24018 108.886 2.12469C108.627 1.97509 108.337 1.88027 108.008 1.83864C103.256 1.24452 93.7676 22.0311 93.7676 31.8722C93.7676 37.3108 95.0893 40.0311 96.4121 42.5147C97.1367 43.8714 97.8598 45.1593 98.3658 46.7823C97.8552 43.739 97.8125 41.1323 98.148 38.736Z" fill="#F0879E"/>
<path d="M52.7457 31.8722C52.7457 37.3111 51.4229 40.0314 50.1003 42.5147C49.38 43.8649 48.6591 45.1469 48.1531 46.7587C49.763 37.1102 46.6807 31.8523 41.6919 23.7332C36.8264 15.8203 34.0624 4.17241 37.6196 2.12872C37.879 1.97885 38.1729 1.88054 38.5046 1.83864C43.2573 1.24452 52.7457 22.0314 52.7457 31.8722Z" fill="#F7C8D7"/>
<path d="M45.7923 23.7332C41.2005 16.2659 38.484 5.47642 41.1806 2.5676C40.4606 2.02935 39.7859 1.76291 39.1872 1.83892C38.8563 1.88055 38.5627 1.97913 38.303 2.12873C34.7461 4.17162 37.5101 15.8195 42.3756 23.7332C47.3641 31.8515 50.4456 37.1102 48.8368 46.759C49.3425 45.1472 50.0629 43.8652 50.7838 42.515C51.3865 41.3837 51.9881 40.1982 52.4657 38.7325C51.7343 33.52 49.212 29.2981 45.7923 23.7332Z" fill="#FEFEFE"/>
<path d="M77.3565 30.7545C90.7478 30.7545 89.7975 23.5797 95.1822 12.5394C98.4464 5.84696 103.838 2.33167 108.126 1.53853C103.78 0.538842 95.9915 3.87606 91.7655 12.5394C86.6242 23.0785 87.2562 30.0959 75.6738 30.7099C76.2091 30.7384 76.7673 30.7545 77.3565 30.7545Z" fill="#FEFEFE"/>
<path d="M53.3766 59.128C52.212 56.9165 51.5555 54.4028 51.5555 51.7298C51.5555 49.6869 51.8284 48.1046 52.252 46.7582C52.7577 45.1464 53.4789 43.8655 54.2 42.515C55.0472 40.9261 55.8913 39.2423 56.3907 36.8092C56.6729 35.4391 56.8446 33.8329 56.8446 31.8717C56.8446 22.0317 47.3561 1.24402 42.6032 1.83814C42.2718 1.87977 41.9779 1.97942 41.7182 2.12902L41.7088 2.11183C42.1313 1.85238 42.625 1.66383 43.1699 1.53786C41.2114 1.1758 39.4822 1.38154 38.291 2.11183L38.3015 2.12902C38.5612 1.97942 38.8548 1.87977 39.1865 1.83814C43.9392 1.24402 53.4279 22.0317 53.4279 31.8717C53.4279 33.8329 53.2573 35.4391 52.9729 36.8092C52.4746 39.2423 51.6302 40.9261 50.7833 42.515C50.0622 43.8655 49.341 45.1464 48.8361 46.7582C48.4117 48.1046 48.1388 49.6869 48.1388 51.7298C48.1388 54.4028 48.7944 56.9165 49.9598 59.128C52.1666 63.3304 56.1992 66.4258 61.0031 67.3592C61.9934 67.5534 63.0149 67.6528 64.0607 67.6528H67.4774C66.4316 67.6528 65.4101 67.5534 64.4198 67.3592C59.6151 66.4258 55.5844 63.3304 53.3766 59.128Z" fill="#FEFEFE"/>
<path d="M53.3766 59.128C52.212 56.9165 51.5555 54.4028 51.5555 51.7298C51.5555 49.6869 51.8284 48.1046 52.252 46.7582C52.7577 45.1464 53.4789 43.8655 54.2 42.515C55.0472 40.9261 55.8913 39.2423 56.3907 36.8092C56.6729 35.4391 56.8446 33.8329 56.8446 31.8717C56.8446 22.0317 47.3561 1.24402 42.6032 1.83814C42.2718 1.87977 41.9779 1.97942 41.7182 2.12902L41.7088 2.11183C42.1313 1.85238 42.625 1.66383 43.1699 1.53786C41.2114 1.1758 39.4822 1.38154 38.291 2.11183L38.3015 2.12902C38.5612 1.97942 38.8548 1.87977 39.1865 1.83814C43.9392 1.24402 53.4279 22.0317 53.4279 31.8717C53.4279 33.8329 53.2573 35.4391 52.9729 36.8092C52.4746 39.2423 51.6302 40.9261 50.7833 42.515C50.0622 43.8655 49.341 45.1464 48.8361 46.7582C48.4117 48.1046 48.1388 49.6869 48.1388 51.7298C48.1388 54.4028 48.7944 56.9165 49.9598 59.128C52.1666 63.3304 56.1992 66.4258 61.0031 67.3592C61.9934 67.5534 63.0149 67.6528 64.0607 67.6528H67.4774C66.4316 67.6528 65.4101 67.5534 64.4198 67.3592C59.6151 66.4258 55.5844 63.3304 53.3766 59.128Z" fill="#FEFEFE"/>
<path d="M64.553 50.9553C63.7126 50.8124 63.0389 50.6247 62.4639 50.5906C61.8897 50.546 61.4481 50.6059 60.7745 50.7042C60.1035 50.7982 59.2537 51.0037 58.3658 51.2263C57.9186 51.3297 57.441 51.4178 56.9541 51.3988C56.4698 51.3826 55.9931 51.2661 55.5792 51.0748C55.4067 50.9961 55.331 50.7915 55.4105 50.619C55.4768 50.4732 55.6321 50.3972 55.7828 50.423L55.7884 50.4238C56.538 50.5565 57.1966 50.3035 57.8181 49.8971C58.452 49.4848 59.015 48.8206 59.8903 48.3366C60.3251 48.0997 60.8483 47.9262 61.4035 47.8741C61.9587 47.823 62.534 47.8835 63.0502 48.0465C64.0859 48.3876 64.8715 49.0387 65.3622 49.8544C65.5725 50.2049 65.4597 50.6588 65.1092 50.8691C64.9521 50.9639 64.773 50.9932 64.6051 50.965L64.553 50.9553Z" fill="#173A4F"/>
<path d="M59.7638 50.2545C59.4112 50.3359 59.0464 50.3929 58.6693 50.3996C58.2933 50.4052 57.899 50.3587 57.5211 50.2204C57.1448 50.0832 56.7943 49.8425 56.5421 49.5363C56.2864 49.2323 56.1338 48.8769 56.0457 48.5291C55.9993 48.3454 56.1102 48.1595 56.2931 48.1123C56.4559 48.0706 56.6219 48.1539 56.689 48.3016L56.6928 48.3102C56.8104 48.5681 56.9675 48.7907 57.159 48.946C57.3505 49.1034 57.5702 49.1963 57.8079 49.236C58.2855 49.3155 58.8286 49.1761 59.3402 48.9546C59.6881 48.805 60.0926 48.964 60.2432 49.3118C60.3939 49.6596 60.2338 50.0641 59.886 50.2148C59.8481 50.2309 59.8103 50.2433 59.7724 50.2527L59.7638 50.2545Z" fill="#173A4F"/>
<path d="M81.1489 49.8545C81.6396 49.0385 82.4253 48.3877 83.4609 48.0466C83.9772 47.8836 84.5533 47.8229 85.1087 47.8742C85.6639 47.9263 86.186 48.0995 86.6209 48.3364C87.4965 48.8207 88.0592 49.4849 88.693 49.8969C89.3145 50.3036 89.9731 50.5566 90.7228 50.4247L90.7284 50.4239C90.9169 50.3906 91.0942 50.5158 91.1273 50.7035C91.1557 50.8606 91.0714 51.0124 90.932 51.0749C90.5181 51.2662 90.0424 51.3828 89.5574 51.3989C89.0712 51.4179 88.5926 51.3296 88.1454 51.2264C87.2577 51.0038 86.4087 50.798 85.7378 50.7043C85.0641 50.6057 84.6215 50.5461 84.0483 50.5907C83.4722 50.6248 82.7986 50.8123 81.9582 50.9554L81.908 50.9648C81.5051 51.0331 81.1234 50.7631 81.0533 50.3605C81.023 50.1795 81.0608 50.0003 81.1489 49.8545Z" fill="#173A4F"/>
<path d="M87.1719 48.9543C87.6836 49.1759 88.2266 49.3153 88.7042 49.2355C88.9419 49.1957 89.1619 49.1028 89.3531 48.9457C89.5446 48.7902 89.702 48.5675 89.8194 48.3099L89.8231 48.3024C89.9018 48.1297 90.1054 48.054 90.276 48.1327C90.4296 48.2028 90.5072 48.3714 90.4664 48.5288C90.3783 48.8764 90.2257 49.2317 89.9701 49.536C89.7189 49.843 89.3673 50.0826 88.9913 50.2201C88.6131 50.3585 88.2191 50.4049 87.8428 50.399C87.4657 50.3934 87.101 50.3356 86.7483 50.2543L86.7438 50.2524C86.3742 50.167 86.1448 49.7985 86.231 49.4289C86.3164 49.0593 86.6849 48.8299 87.0545 48.9153C87.0943 48.9247 87.1359 48.939 87.1719 48.9543Z" fill="#173A4F"/>
<path d="M76.125 51.5366C75.8871 50.5114 74.1144 50.4953 73.1499 50.5691C72.1851 50.6422 70.4352 50.9245 70.3547 51.9744C70.2523 53.3047 72.7102 55.3154 73.5052 55.2555C74.3 55.195 76.4253 52.8366 76.125 51.5366Z" fill="#173A4F"/>
<path d="M74.655 52.2078L74.6077 53.2682C74.5567 53.6338 74.5253 53.9891 74.4466 54.3568C74.2913 55.0844 74.0345 55.8606 73.4915 56.5627C73.3467 56.7341 73.214 56.9065 73.0187 57.0478L72.7448 57.2629C72.6465 57.3245 72.5382 57.3776 72.434 57.4316C72.0172 57.6532 71.5434 57.73 71.1048 57.7289C70.2217 57.6817 69.4446 57.3653 68.8411 56.6557C68.5986 56.3712 68.6335 55.9431 68.9179 55.7014C69.1661 55.49 69.5222 55.4892 69.7707 55.6804L69.8711 55.7583C70.0009 55.8588 70.2085 55.9495 70.414 56.0027C70.6272 56.0519 70.8442 56.0538 71.0336 56.0215C71.4174 55.9412 71.6411 55.7242 71.8125 55.3869C71.9763 55.039 72.0674 54.5652 72.0749 54.0461C72.0824 53.7904 72.0524 53.5097 72.0456 53.2473L71.9302 52.4144L71.9186 52.3338C71.8144 51.5815 72.3403 50.8869 73.0926 50.7827C73.8449 50.6785 74.5395 51.2036 74.6437 51.9567C74.655 52.0384 74.659 52.1273 74.655 52.2078Z" fill="#173A4F"/>
<path d="M74.656 52.2073L74.6684 53.0477C74.7006 53.3083 74.714 53.5898 74.7583 53.8428C74.8446 54.3555 75.0057 54.8091 75.2217 55.1285C75.4406 55.4355 75.6946 55.6176 76.0868 55.6383C76.2791 55.6412 76.4923 55.6071 76.6951 55.5265C76.8912 55.443 77.0827 55.3208 77.1963 55.2024L77.2825 55.1105C77.5412 54.8395 77.9707 54.8312 78.2406 55.0887C78.4764 55.3133 78.5145 55.6686 78.3486 55.9359C77.8597 56.7279 77.1386 57.1571 76.2734 57.3363C75.8397 57.4034 75.3602 57.3989 74.9139 57.2426C74.8029 57.2047 74.6882 57.1687 74.5813 57.123L74.2781 56.9525C74.0648 56.8416 73.9066 56.6911 73.7369 56.5432C73.0955 55.9321 72.724 55.2034 72.4616 54.507C72.3281 54.1554 72.2438 53.8087 72.1377 53.4544L71.9312 52.4139C71.7824 51.6683 72.2664 50.9444 73.0122 50.7964C73.757 50.6476 74.4809 51.1311 74.6297 51.8767C74.6447 51.9573 74.6541 52.0387 74.6552 52.1184L74.656 52.2073Z" fill="#173A4F"/>
<path d="M38.7018 3.1932C38.6875 3.1932 38.679 3.19401 38.6733 3.19508C38.5293 3.21308 38.409 3.25095 38.3037 3.31165C37.9068 3.53995 37.6897 4.11714 37.5761 4.55951C36.6135 8.3458 39.0313 16.7967 42.8558 23.0182C46.4876 28.9277 49.3661 33.6124 49.8683 39.9192C50.6736 38.096 51.3775 35.6857 51.3775 31.8728C51.3775 23.5697 44.5261 7.91659 40.0557 3.97023C39.2408 3.25095 38.8165 3.1932 38.7018 3.1932ZM73.2559 69.0202H63.3781C62.2524 69.0202 61.1351 68.9122 60.057 68.7C51.9641 67.1272 46.0885 59.9894 46.0885 51.7309C46.0885 49.7734 46.3283 48.0421 46.8201 46.4437C48.2745 37.5816 45.6574 32.7984 40.5276 24.4498C36.3036 17.5793 33.7906 8.35439 34.9278 3.88589C35.2813 2.49782 35.9576 1.50754 36.9385 0.944845C37.358 0.701236 37.8299 0.544918 38.336 0.482337C39.4369 0.342939 40.6262 0.82828 41.8647 1.92063C47.2445 6.66954 54.1112 23.4654 54.1112 31.8728C54.1112 37.4291 52.7847 40.3806 51.3066 43.1578L51.1208 43.5046C50.4966 44.6681 49.9062 45.769 49.4835 47.0832C49.4673 47.1582 49.4437 47.232 49.4163 47.3013C49.0164 48.623 48.8222 50.0737 48.8222 51.7309C48.8222 58.6838 53.7672 64.693 60.581 66.0176C61.4886 66.1957 62.4294 66.2868 63.3781 66.2868H73.2559C74.0109 66.2868 74.6223 66.8978 74.6223 67.6531C74.6223 68.4073 74.0109 69.0202 73.2559 69.0202Z" fill="#173A4F"/>
<path d="M73.2569 32.1207C61.8703 32.1207 59.8304 26.9141 57.0067 19.7074C56.2364 17.7402 55.3619 15.5099 54.2059 13.139C51.7727 8.15323 47.7031 4.41529 43.3197 3.13896C41.294 2.5486 39.4255 2.6007 38.3234 3.27728C37.6802 3.67237 36.8387 3.46959 36.4436 2.82632C36.0496 2.18198 36.2513 1.34156 36.8948 0.94647C38.6694 -0.142387 41.2892 -0.299512 44.0836 0.515385C49.1946 2.00283 53.897 6.27419 56.6629 11.9395C57.867 14.4116 58.7625 16.6951 59.5519 18.7114C62.3366 25.8196 63.7351 29.387 73.2569 29.387C74.0111 29.387 74.6232 30.0002 74.6232 30.7544C74.6232 31.5086 74.0111 32.1207 73.2569 32.1207Z" fill="#173A4F"/>
<path d="M107.81 3.19314C107.696 3.19314 107.272 3.25088 106.456 3.97016C101.986 7.91653 95.1338 23.5696 95.1338 31.8727C95.1338 35.6875 95.8381 38.0978 96.6452 39.9218C97.1474 33.6169 100.027 28.9295 103.659 23.0182C107.488 16.7861 109.903 8.32774 108.934 4.55004C108.82 4.10929 108.603 3.53613 108.211 3.31347C108.101 3.25008 107.982 3.21301 107.838 3.19502C107.833 3.19394 107.825 3.19314 107.81 3.19314ZM98.3649 48.15C97.7794 48.15 97.243 47.7721 97.0612 47.1903C96.6366 45.8286 96.0312 44.7002 95.3917 43.5045L95.2061 43.1596C93.7278 40.3813 92.4004 37.429 92.4004 31.8727C92.4004 23.4654 99.2679 6.66948 104.647 1.92057C105.885 0.828218 107.072 0.343953 108.178 0.483351C108.684 0.545663 109.153 0.700101 109.57 0.942636C110.546 1.497 111.225 2.48433 111.58 3.86971C112.726 8.33258 110.217 17.5642 105.988 24.449C101.265 32.137 98.1452 37.2147 99.7143 46.5573C99.8328 47.2661 99.3826 47.9453 98.6832 48.1121C98.5771 48.1379 98.471 48.15 98.3649 48.15Z" fill="#173A4F"/>
<path d="M98.3663 48.1535C97.6113 48.1535 97 47.5414 97 46.7872C97 46.032 97.6113 45.418 98.3663 45.418C99.1216 45.418 99.7326 46.029 99.7326 46.7835V46.7872C99.7326 47.5414 99.1216 48.1535 98.3663 48.1535Z" fill="#173A4F"/>
<path d="M83.1329 69.019H73.2561C72.5008 69.019 71.8887 68.4069 71.8887 67.6527C71.8887 66.8974 72.5008 66.2853 73.2561 66.2853H83.1329C84.0853 66.2853 85.0251 66.1954 85.9272 66.0173C92.7446 64.6926 97.6887 58.6843 97.6887 51.7295C97.6887 50.0269 97.4841 48.544 97.0605 47.1938C96.836 46.4737 97.2367 45.7061 97.9579 45.4807C98.679 45.2551 99.4445 45.6569 99.6701 46.377C100.176 47.9955 100.422 49.7465 100.422 51.7295C100.422 59.9902 94.5468 67.1268 86.4521 68.6997C85.3804 68.9111 84.2625 69.019 83.1329 69.019Z" fill="#173A4F"/>
<path d="M73.2572 32.1201C72.5019 32.1201 71.8906 31.508 71.8906 30.7538C71.8906 29.9996 72.5019 29.3865 73.2572 29.3865C82.7779 29.3865 84.1764 25.8201 86.9619 18.7127C87.7521 16.6965 88.6487 14.411 89.8538 11.9398C92.6149 6.27952 97.3117 2.00977 102.42 0.517497C105.193 -0.292566 107.796 -0.145649 109.57 0.91635C109.988 1.15056 110.271 1.59776 110.271 2.1113C110.271 2.8655 109.658 3.47761 108.905 3.47761C108.689 3.47761 108.477 3.42631 108.288 3.33069C108.253 3.31377 108.219 3.29363 108.184 3.27375C107.082 2.59933 105.212 2.5499 103.185 3.14214C98.8051 4.42143 94.7392 8.1583 92.3109 13.1385C91.153 15.5112 90.2785 17.7415 89.5071 19.7095C86.6826 26.9154 84.6424 32.1201 73.2572 32.1201Z" fill="#173A4F"/>
<path d="M91.855 29.2441L90.2035 32.5319L88.5527 35.8189L95.8779 44.4812C97.4833 46.379 100.505 46.0199 101.62 43.7989L103.839 39.3807L106.058 34.9613C107.175 32.7414 105.658 30.1034 103.178 29.9489L91.855 29.2441Z" fill="#FECD27"/>
<path d="M90.7848 28.7047L89.1332 31.9928L87.4828 35.2795L76.1588 34.5747C73.6792 34.4203 72.1633 31.7822 73.2785 29.5612L75.4976 25.143L77.7174 20.7247C78.8329 18.5037 81.8534 18.1446 83.4596 20.0425L90.7848 28.7047Z" fill="#FECD27"/>
<path d="M79.9811 32.6688C79.9811 33.7252 79.1246 34.5828 78.0672 34.5828C77.0108 34.5828 76.1543 33.7252 76.1543 32.6688C76.1543 31.6122 77.0108 30.7549 78.0672 30.7549C79.1246 30.7549 79.9811 31.6122 79.9811 32.6688Z" fill="#F39314"/>
<path d="M100.28 34.0282C100.28 35.0848 99.4237 35.9414 98.3663 35.9414C97.3099 35.9414 96.4531 35.0848 96.4531 34.0282C96.4531 32.9719 97.3099 32.1143 98.3663 32.1143C99.4237 32.1143 100.28 32.9719 100.28 34.0282Z" fill="#F39314"/>
<path d="M100.674 40.6952C100.674 41.7516 99.8174 42.6092 98.76 42.6092C97.7034 42.6092 96.8477 41.7516 96.8477 40.6952C96.8477 39.6386 97.7034 38.7812 98.76 38.7812C99.8174 38.7812 100.674 39.6386 100.674 40.6952Z" fill="#F39314"/>
<path d="M79.9183 34.5759C77.4376 34.4215 75.9214 31.7834 77.0369 29.5625L79.2567 25.1442L81.4769 20.7259C81.7686 20.1433 82.1951 19.6913 82.6914 19.372C81.0267 18.2917 78.6742 18.8224 77.718 20.7259L75.4981 25.1442L73.2788 29.5625C72.1628 31.7834 73.6798 34.4215 76.1594 34.5759L87.4823 35.281L87.5969 35.0543L79.9183 34.5759Z" fill="#FEFEFE"/>
<path d="M103.177 29.9492L91.8542 29.2441L91.75 29.4507L99.7604 29.9492C102.241 30.1036 103.756 32.7414 102.642 34.9616L100.422 39.3807L98.2026 43.7989C97.8757 44.4489 97.3839 44.9343 96.8137 45.2555C98.4642 46.1953 100.696 45.639 101.618 43.7989L103.839 39.3807L106.058 34.9616C107.174 32.7414 105.657 30.1036 103.177 29.9492Z" fill="#F39314"/>
<path d="M90.2032 32.5319L88.5527 35.82L91.9901 39.8848C94.0037 39.2708 95.7719 37.8693 96.7903 35.8399C97.8088 33.812 97.8789 31.5561 97.1693 29.5748L91.8548 29.2441L90.2032 32.5319Z" fill="#F39314"/>
<path d="M93.9369 34.4062C92.7526 36.7639 89.8814 37.7149 87.5232 36.5307C85.1658 35.3473 84.2134 32.4753 85.3979 30.1179C86.5824 27.7594 89.4552 26.8073 91.8126 27.9915C94.17 29.176 95.1213 32.0488 93.9369 34.4062Z" fill="#FECD27"/>
<path d="M90.5984 36.5309C88.2408 35.3475 87.2897 32.4755 88.4739 30.1173C89.1448 28.7821 90.3556 27.899 91.7098 27.5977C89.628 27.1437 87.4232 28.1254 86.4235 30.1173C85.239 32.4755 86.1903 35.3475 88.5488 36.5309C89.5711 37.0455 90.6903 37.1554 91.726 36.9252C91.344 36.8417 90.965 36.7146 90.5984 36.5309Z" fill="#FEFEFE"/>
<path d="M86.114 27.4901C86.114 28.5465 85.2574 29.4041 84.2 29.4041C83.1436 29.4041 82.2871 28.5465 82.2871 27.4901C82.2871 26.4335 83.1436 25.5762 84.2 25.5762C85.2574 25.5762 86.114 26.4335 86.114 27.4901Z" fill="#F39314"/>
<path d="M88.7369 36.5309C91.0943 35.3475 92.0456 32.4755 90.8614 30.1173C90.1905 28.7821 88.9786 27.899 87.6255 27.5977C89.7073 27.1437 91.9122 28.1254 92.9118 30.1173C94.096 32.4755 93.145 35.3475 90.7865 36.5309C89.764 37.0455 88.6451 37.1554 87.6094 36.9252C87.9913 36.8417 88.3703 36.7146 88.7369 36.5309Z" fill="#F39314"/>
<path d="M98.5185 47.0727C97.1065 47.0727 95.7612 46.4569 94.8345 45.3624L88.5401 37.9206C88.0529 37.3437 88.1241 36.4815 88.701 35.9943C89.2772 35.5065 90.1393 35.5785 90.6273 36.1554L96.9209 43.5972C97.3842 44.144 98.0597 44.4083 98.7712 44.3251C99.4838 44.2407 100.078 43.8228 100.4 43.1822L104.838 34.3467C105.16 33.7062 105.139 32.9812 104.781 32.3587C104.424 31.7371 103.809 31.3563 103.095 31.3117L93.3656 30.7082C92.6133 30.6606 92.0401 30.0117 92.0877 29.2583C92.1339 28.5041 92.7801 27.9318 93.5362 27.9793L103.264 28.5839C104.887 28.6852 106.34 29.5863 107.15 30.9953C107.962 32.4062 108.011 34.1174 107.281 35.5726L102.842 44.4094C102.11 45.8646 100.71 46.8471 99.0935 47.0397C98.9012 47.0614 98.7089 47.0727 98.5185 47.0727Z" fill="#173A4F"/>
<path d="M85.8882 36.5496C85.8598 36.5496 85.8305 36.5488 85.802 36.5469L76.0748 35.9385C74.4517 35.8381 72.9981 34.937 72.1881 33.528C71.3769 32.1163 71.3278 30.4051 72.0573 28.9496L76.4965 20.113C77.2279 18.6586 78.6294 17.6759 80.2446 17.4836C81.8613 17.2942 83.4532 17.9187 84.5039 19.1598L90.802 26.6054C91.289 27.1815 91.217 28.0436 90.6409 28.5317C90.064 29.0186 89.2026 28.9477 88.7146 28.3705L82.4175 20.9261C81.955 20.3792 81.2795 20.1138 80.5678 20.1982C79.8555 20.2825 79.2613 20.6986 78.9382 21.341L74.5001 30.1757C74.1788 30.8171 74.1995 31.542 74.5578 32.1646C74.914 32.7842 75.529 33.167 76.2443 33.2116L85.9726 33.8188C86.7257 33.8664 87.298 34.5153 87.2508 35.2676C87.2062 35.9925 86.6046 36.5496 85.8882 36.5496Z" fill="#173A4F"/>
<path d="M89.6741 28.8511C88.4254 28.8511 87.2192 29.5408 86.6202 30.731C85.7771 32.4118 86.4572 34.4662 88.1383 35.3104C89.818 36.1546 91.8725 35.4742 92.7175 33.7934C93.1268 32.9785 93.1931 32.0546 92.9071 31.1897C92.62 30.3246 92.0146 29.6225 91.1997 29.214C90.7108 28.9677 90.1887 28.8511 89.6741 28.8511ZM89.6628 38.4096C88.7182 38.4096 87.78 38.1888 86.9111 37.7529C83.8838 36.2322 82.6577 32.5321 84.1785 29.504C85.6992 26.4765 89.3993 25.2504 92.4266 26.7714C93.8933 27.5084 94.9849 28.7716 95.5014 30.3302C96.0179 31.888 95.8957 33.5536 95.1595 35.0203C94.423 36.4871 93.159 37.5786 91.6015 38.0951C90.9657 38.3054 90.3128 38.4096 89.6628 38.4096Z" fill="#173A4F"/>
<path d="M88.6843 53.8633C86.7967 53.8633 85.2676 54.629 85.2676 55.5726C85.2676 56.5153 86.7967 57.28 88.6843 57.28C90.5709 57.28 92.0999 56.5153 92.0999 55.5726C92.0999 54.629 90.5709 53.8633 88.6843 53.8633Z" fill="#F0879E"/>
<path d="M57.8271 53.8633C55.9395 53.8633 54.4102 54.629 54.4102 55.5726C54.4102 56.5153 55.9395 57.28 57.8271 57.28C59.7134 57.28 61.2439 56.5153 61.2439 55.5726C61.2439 54.629 59.7134 53.8633 57.8271 53.8633Z" fill="#F0879E"/>
<path d="M98.8008 42.6076C99.8391 42.5867 100.674 41.7396 100.674 40.6964C100.674 40.2833 100.541 39.9016 100.319 39.5879L98.8008 42.6076Z" fill="#E85222"/>
<path d="M96.4531 34.0277C96.4531 34.5517 96.6645 35.0255 97.0056 35.3712C97.4348 34.3594 97.6403 33.302 97.6384 32.2588C96.9438 32.5448 96.4531 33.2281 96.4531 34.0277Z" fill="#E85222"/>
<path d="M59.4631 75.2876C61.296 77.9224 63.703 81.834 65.9648 84.4884C67.138 85.8698 66.9257 87.9227 65.2983 88.7229L62.9363 89.8843C62.0555 90.3174 61.0033 90.1513 60.3007 89.4685C59.0406 88.2447 56.3266 84.2624 53.3677 78.6073L53.3465 78.5643C55.3661 77.4978 57.4932 76.2996 59.338 75.0983L59.4631 75.2876Z" fill="#C8E8FB"/>
<path d="M64.3514 82.2628C63.624 81.171 62.9327 80.1258 62.3089 79.2302L62.1834 79.0408C60.3391 80.2422 58.2125 81.4398 56.1923 82.5069L56.2135 82.5499C56.8478 83.762 57.4696 84.8914 58.0694 85.9391C60.0446 84.8933 62.1104 83.7255 63.9104 82.553C64.0589 82.4569 64.2063 82.3593 64.3514 82.2628Z" fill="#A3D3F2"/>
<path d="M65.8728 89.8935L63.5108 91.0549C62.1399 91.7289 60.4843 91.4676 59.3903 90.4049C58.0504 89.1023 55.3116 85.137 52.2106 79.2121C51.8768 78.574 52.1239 77.7853 52.7624 77.4522C53.3954 77.1178 54.189 77.3645 54.5228 78.0027C57.674 84.024 60.2471 87.5988 61.2086 88.5332C61.5131 88.8289 61.9762 88.9014 62.3593 88.7131L64.7214 87.5517C65.1645 87.3338 65.3207 86.985 65.3741 86.7287C65.4695 86.2667 65.3184 85.7444 64.9679 85.333C63.3056 83.3807 61.5886 80.8009 60.0723 78.5248C59.4735 77.6247 58.9075 76.7753 58.3914 76.033C57.9796 75.4413 58.1249 74.6281 58.7166 74.216C59.3101 73.8054 60.1213 73.9508 60.532 74.542C61.0652 75.3069 61.6372 76.1668 62.244 77.079C63.7194 79.2947 65.3915 81.8056 66.9558 83.6419C67.8235 84.6646 68.1873 86.0158 67.9282 87.26C67.6897 88.4084 66.9402 89.3687 65.8728 89.8935Z" fill="#173A4F"/>
<path d="M43.1826 83.2935C44.1499 86.3538 45.7779 90.6485 46.499 94.0605C46.8765 95.8331 48.632 96.9185 50.2594 96.1183L52.6214 94.9569C53.5022 94.5238 54.0132 93.5892 53.9014 92.6158C53.7016 90.8706 52.2051 86.2896 49.5334 80.4934L49.5123 80.4503C47.4345 81.3985 45.1868 82.3515 43.109 83.0788L43.1826 83.2935Z" fill="#C8E8FB"/>
<path d="M45.7213 91.4228C45.3009 90.1802 44.8953 88.9945 44.5669 87.9536L44.4935 87.7386C46.5712 87.0116 48.8181 86.0588 50.8966 85.1105L50.9178 85.1535C51.4904 86.3959 52.0051 87.578 52.4686 88.6927C50.4343 89.6183 48.2481 90.5413 46.2205 91.2509C46.0537 91.3097 45.8864 91.3668 45.7213 91.4228Z" fill="#A3D3F2"/>
<path d="M50.8352 97.2882L53.1973 96.1267C54.5681 95.4527 55.3721 93.982 55.1985 92.4668C54.9851 90.6103 53.5173 86.0201 50.7186 79.9465C50.4171 79.2925 49.6416 79.0066 48.988 79.3089C48.3367 79.606 48.0474 80.3851 48.349 81.0391C51.1933 87.2113 52.4531 91.4318 52.606 92.7638C52.6542 93.1855 52.4289 93.5966 52.0458 93.7849L49.6838 94.9464C49.2406 95.1642 48.869 95.075 48.6335 94.9608C48.2093 94.7542 47.888 94.3156 47.7763 93.7869C47.2451 91.2783 46.2505 88.3434 45.3739 85.7527C45.0267 84.7289 44.6996 83.762 44.4269 82.9001C44.2098 82.2126 43.4771 81.8311 42.7895 82.0481C42.1018 82.2673 41.7217 82.9986 41.9391 83.6848C42.2193 84.5742 42.551 85.5522 42.9029 86.5897C43.7566 89.1111 44.7242 91.9684 45.2232 94.3285C45.5033 95.6402 46.3511 96.7533 47.4947 97.3079C48.5497 97.8202 49.7679 97.813 50.8352 97.2882Z" fill="#173A4F"/>
<path d="M23.2765 22.7445C18.9553 31.6272 18.4799 39.9866 18.7823 43.056L23.0937 50.1881L32.7668 76.4059L53.823 66.0526L52.821 46.8346L40.5079 29.1555C38.5858 26.8825 24.5777 21.3002 23.2765 22.7445Z" fill="#F1FAFF" stroke="#173A4F" stroke-width="3"/>
<path d="M26.3173 28.9296C21.996 37.8123 21.5206 46.1718 21.823 49.2411L26.1344 56.3733L37.5424 79.7778L53.9604 69.6055L55.8618 53.0198L43.5486 35.3406C41.6265 33.0677 27.6184 27.4854 26.3173 28.9296Z" fill="#D8EBF7"/>
<path fill-rule="evenodd" clip-rule="evenodd" d="M42.2278 60.795C48.3133 57.8027 55.9804 60.9371 59.3528 67.7957C62.7253 74.6545 63.2047 81.323 54.4403 85.6325C45.6759 89.9419 40.6877 85.4904 37.3152 78.6315C33.9428 71.7729 36.1423 63.7872 42.2278 60.795Z" fill="#FEFEFE"/>
<path d="M41.6889 59.7005C45.0562 58.0448 48.8532 58.0806 52.2695 59.4774C55.6357 60.8534 58.6282 63.5559 60.4488 67.2585C62.2385 70.8984 63.254 74.5268 62.6454 77.8906C62.0236 81.3286 59.7548 84.3816 54.9791 86.7298C50.2035 89.0779 46.4003 89.0105 43.298 87.4037C40.2625 85.8317 38.0091 82.8119 36.2194 79.172C34.3989 75.4695 34.0859 71.4494 35.0517 67.9434C36.0315 64.385 38.3216 61.3562 41.6889 59.7005ZM51.3458 61.7281C48.5646 60.5908 45.4846 60.5558 42.7666 61.8923C40.0486 63.2287 38.1956 65.6892 37.3981 68.5862C36.5859 71.5353 36.8592 74.938 38.4112 78.0943C39.9936 81.3125 41.921 83.9488 44.4132 85.2393C46.839 86.4957 49.9131 86.499 53.9014 84.538C57.89 82.5768 59.7642 80.1404 60.2505 77.4522C60.7502 74.6905 59.8394 71.5544 58.257 68.3362C56.705 65.1799 54.1772 62.8856 51.3458 61.7281Z" fill="#173A4F"/>
<path fill-rule="evenodd" clip-rule="evenodd" d="M41.9919 62.0849C47.1111 59.5678 53.0802 62.9702 56.1756 69.2656C59.2712 75.5612 60.5745 81.2577 53.2016 84.8829C45.8287 88.5082 41.423 84.3371 38.3275 78.0415C35.232 71.7461 36.8727 64.602 41.9919 62.0849Z" fill="#A3D3F2"/>
<path fill-rule="evenodd" clip-rule="evenodd" d="M43.6774 63.5136C47.8762 61.4491 55.2464 63.6332 58.0833 69.4028C60.9202 75.1724 61.3237 80.7823 53.9508 84.4075C46.578 88.0327 42.3818 84.2877 39.5449 78.5181C36.708 72.7485 39.4786 65.5782 43.6774 63.5136Z" fill="#C8E8FB"/>
<path d="M18.1517 45.2133C20.5928 47.4956 22.7552 50.0283 23.7601 52.0719C25.2419 55.0856 25.25 56.9529 25.1945 58.6896C25.1625 59.6385 25.1123 60.5498 25.2741 61.5865L25.2751 61.5886C25.4083 62.4468 25.687 63.392 26.2397 64.516C28.3509 68.8099 33.1742 70.8788 37.6258 69.6706C38.2256 69.5093 38.821 69.2854 39.3997 69.0009L50.3464 63.6184C50.926 63.3334 51.4648 62.9997 51.9603 62.6223C54.3682 60.7969 55.7589 57.9826 55.8372 55.0533C55.8806 53.5105 55.5586 51.9386 54.8305 50.458C54.274 49.3262 53.6917 48.5236 53.0898 47.8933C52.3708 47.1377 51.6222 46.6238 50.8548 46.0726C49.9526 45.423 49.0259 44.7196 48.0872 43.5077C47.5562 42.8259 47.0241 41.9819 46.49 40.8957C43.8088 35.4429 43.403 21.3405 46.1983 20.3746C46.3934 20.3076 46.5831 20.282 46.7676 20.2942L46.7691 20.2826C44.0288 20.0263 39.7135 24.2172 39.7331 30.9167C39.7565 38.1174 41.9973 41.8327 35.8659 45.3132C35.5432 45.4979 35.1933 45.6811 34.8203 45.8644C28.2047 49.1173 26.3521 46.1032 21.7812 42.1152L18.1517 45.2133Z" fill="#C8E8FB"/>
<path d="M25.2745 61.5867C25.1126 60.5497 25.1628 59.639 25.1948 58.6896C25.2326 57.513 23.6135 52.3503 22.5948 48.7507C22.2744 47.6185 22.428 46.4364 22.1774 45.8448C22.7873 45.4374 24.9254 49.1727 25.8948 51.6526C27.1209 54.3531 26.6234 58.1666 29.251 63.5105C31.1558 67.3845 36.9111 69.2937 44.5049 65.5599C45.0626 65.2857 40.714 68.3548 41.2933 68.0699L39.3999 69.0008C38.8213 69.2854 38.2262 69.5097 37.6261 69.6711C33.1743 70.8794 28.3509 68.8102 26.2397 64.5166C25.6867 63.392 25.4088 62.4472 25.2756 61.589L25.2745 61.5867Z" fill="#A3D3F2"/>
<path d="M53.5643 56.1699C53.6071 54.6271 53.2858 53.0557 52.5575 51.5744C52.001 50.4426 51.4188 49.6403 50.8172 49.0095C50.0979 48.2543 49.3495 47.7409 48.5819 47.1892C47.6796 46.5394 46.753 45.8365 45.8134 44.6245C45.284 43.9422 44.7511 43.0991 44.2168 42.0124C41.5359 36.5601 41.1299 22.4569 43.9254 21.4913C44.1203 21.424 44.3104 21.3991 44.4949 21.4112L44.4956 21.3992C44.1906 21.3706 43.8659 21.4005 43.5295 21.4793C44.5162 20.7451 45.5303 20.3879 46.3894 20.468L46.388 20.4804C46.2035 20.4683 46.0137 20.493 45.8185 20.5604C43.0233 21.526 43.429 35.6292 46.1099 41.0816C46.6443 42.1683 47.1764 43.0117 47.7073 43.6933C48.6462 44.9056 49.5727 45.6086 50.475 46.2583C51.2426 46.8101 51.9911 47.3235 52.7099 48.0789C53.3119 48.7094 53.8941 49.5117 54.4506 50.6435C55.179 52.1248 55.5005 53.6961 55.4574 55.239C55.3796 58.1687 53.9885 60.9824 51.581 62.8084C51.0851 63.1857 50.5462 63.5192 49.9669 63.8041L48.0737 64.7349C48.6531 64.4501 49.1919 64.1165 49.6879 63.7393C52.0959 61.913 53.4858 59.0999 53.5643 56.1699Z" fill="#FEFEFE"/>
<path d="M37.8707 45.1871L32.6623 47.748C32.5014 47.8271 32.3318 47.8674 32.1637 47.8729C30.6148 48.0465 29.0112 47.8847 27.3637 47.2936C25.7209 46.704 24.0388 45.6868 22.3311 44.1462C21.9053 43.7621 21.6343 43.9088 21.3348 44.2409C21.1543 44.4405 20.9538 44.6911 20.7403 44.957C19.8199 46.1038 18.6903 47.5115 16.7279 48.2864C16.3619 48.4309 15.9121 48.5493 15.4614 48.6683L14.3344 48.9624C14.2436 49.1085 14.8932 48.9677 16.177 49.765C18.7759 51.3794 20.5154 52.5341 21.9066 53.8852C23.3293 55.2667 24.3419 56.8031 25.4519 59.1507C25.5055 59.2632 25.5405 59.3797 25.5578 59.4969C25.6379 60.0461 25.7584 60.5877 25.9219 61.1148C26.0782 61.6187 26.2841 62.135 26.5418 62.6591C27.8374 65.294 30.0942 67.1598 32.6859 68.0431C35.2776 68.9262 38.2041 68.8267 40.8388 67.5312L48.5448 63.7422C51.1797 62.4466 53.0455 60.1898 53.9286 57.5982C54.8116 55.0063 54.7121 52.0798 53.4166 49.4451C53.1588 48.9208 52.8756 48.4425 52.572 48.011C52.2544 47.5597 51.8991 47.1335 51.5127 46.7353C51.4138 46.6328 51.3364 46.5171 51.2805 46.3943C50.1145 44.1042 49.5221 42.3741 49.2982 40.4167C49.0776 38.4904 49.2254 36.4074 49.5341 33.3634C49.7343 31.387 49.8299 27.5366 49.1534 24.3938C48.7537 22.5372 48.1086 20.9781 47.0962 20.3988C47.0187 20.3543 46.9391 20.3215 46.8593 20.2993C46.2749 20.1375 45.5132 20.4843 44.7532 21.0794C43.8372 21.7964 42.9842 22.8501 42.379 23.9071C42.0561 24.4712 41.8117 25.0252 41.6765 25.5133C40.7867 28.7234 40.963 30.6875 41.1963 33.2859C41.2421 33.7946 41.2894 34.3247 41.3267 34.8061C41.5039 37.0992 41.2823 39.0525 40.7462 40.7135C40.1958 42.4176 39.3173 43.8112 38.1987 44.9458C38.1001 45.0457 37.9885 45.1251 37.869 45.1836L37.8707 45.1871ZM31.7668 45.4666L36.6106 43.085C37.4015 42.2403 38.0269 41.2106 38.4306 39.9601C38.8726 38.5911 39.0532 36.9525 38.902 34.9989C38.8574 34.4223 38.8158 33.9547 38.7756 33.5088C38.5182 30.6428 38.3238 28.4764 39.3259 24.8617C39.5154 24.1774 39.8409 23.4308 40.2626 22.694C41.0074 21.3929 42.0805 20.0779 43.2559 19.1579C44.587 18.1154 46.0837 17.5532 47.5109 17.9486C47.7839 18.0244 48.051 18.1347 48.3093 18.2823C50.0205 19.2615 51.0055 21.4089 51.5376 23.8804C52.2762 27.3117 52.1757 31.4748 51.96 33.6055C51.6686 36.4784 51.5274 38.4278 51.7232 40.1387C51.9088 41.7603 52.4087 43.2284 53.3907 45.1762C53.8083 45.6194 54.2014 46.0998 54.565 46.6162C54.9621 47.1803 55.3123 47.7653 55.6083 48.3672C57.2013 51.607 57.3242 55.2028 56.2398 58.3857C55.1553 61.5684 52.8621 64.3411 49.6225 65.934L41.9165 69.723C38.6773 71.3157 35.081 71.4388 31.8984 70.3543C28.7156 69.2696 25.943 66.9766 24.3501 63.737C24.054 63.1349 23.8046 62.5004 23.6003 61.8414C23.4134 61.2382 23.273 60.6335 23.177 60.0321C22.2342 58.0652 21.3765 56.7729 20.2056 55.6358C18.9703 54.4361 17.3403 53.3575 14.8874 51.8339C12.0317 50.0604 11.5926 48.756 12.2655 47.6729C12.7686 46.8635 13.8067 46.5893 14.837 46.3176C15.1879 46.2251 15.5377 46.133 15.8257 46.0192C17.207 45.4737 18.1086 44.3498 18.8435 43.4342C19.0791 43.1409 19.3 42.8652 19.5323 42.6078C20.8183 41.1823 22.0028 40.5745 23.9642 42.3438C25.419 43.6564 26.8269 44.5139 28.181 44.9998C29.4179 45.4433 30.6152 45.5772 31.7668 45.4666Z" fill="#173A4F"/>
<path fill-rule="evenodd" clip-rule="evenodd" d="M50.7185 43.4009C48.8202 39.8452 48.977 35.7524 49.4421 31.1591C49.6972 28.6429 49.3958 21.4097 46.8605 19.9586C44.9322 18.855 44.2716 23.227 44.364 25.4469C44.739 34.4585 46.4901 40.3592 50.7185 43.4009Z" fill="#F0879E"/>
<path fill-rule="evenodd" clip-rule="evenodd" d="M24.6737 60.3665C22.4321 55.3945 20.8407 54.0956 15.5333 50.7992L18.4813 45.5366C23.9445 50.9674 24.8657 54.6022 24.6737 60.3665Z" fill="#F0879E"/>
<path d="M23.5658 60.8688C22.5066 58.5205 21.615 57.0529 20.3881 55.8104C19.139 54.5455 17.4691 53.4363 14.8888 51.8336C14.3177 51.4776 14.143 50.7255 14.4991 50.1544L17.4188 44.9428C17.7465 44.356 18.4884 44.146 19.0753 44.4737C19.1749 44.5293 19.2637 44.5971 19.3408 44.6738L19.3427 44.6719C22.1972 47.5098 23.8776 49.9098 24.832 52.386C25.7924 54.8786 25.9907 57.3708 25.8896 60.4064C25.8676 61.0775 25.3051 61.6041 24.634 61.5821C24.1561 61.5665 23.7515 61.2766 23.5658 60.8688ZM22.1188 54.0983C22.4853 54.4695 22.8245 54.853 23.146 55.2612C23.0062 54.58 22.8165 53.9193 22.5651 53.2669C21.8668 51.4551 20.6751 49.6473 18.7426 47.5613L17.1631 50.3811C19.3467 51.7611 20.8654 52.8292 22.1188 54.0983Z" fill="#173A4F"/>
<path fill-rule="evenodd" clip-rule="evenodd" d="M12.9109 47.78C11.6261 48.7371 10.8745 57.1432 14.3052 59.1063C16.9147 60.5998 20.7037 56.1568 21.5068 53.2594C22.6176 49.2506 22.1892 46.1462 21.9148 42.5891C19.9039 41.7976 18.9439 46.4596 12.9109 47.78Z" fill="#C8E8FB" stroke="#173A4F" stroke-width="0.9525" stroke-miterlimit="22.9256" stroke-linecap="round" stroke-linejoin="round"/>
<path fill-rule="evenodd" clip-rule="evenodd" d="M12.9115 47.7805C11.6267 48.7377 10.8751 57.1437 14.3058 59.1069C16.9153 60.6003 20.7043 56.1573 21.5073 53.2599C22.6182 49.2511 22.1898 46.1467 21.9153 42.5896C21.6807 42.5193 19.4068 43.2014 19.3278 43.5945C18.8667 45.8946 19.8984 55.2318 15.6262 56.6625C10.9864 58.2161 13.8525 47.5746 12.9115 47.7805Z" fill="#A3D3F2"/>
<path d="M11.5579 47.5369C11.7128 47.2667 11.8964 47.0393 12.1079 46.8639C12.2577 46.7322 12.4418 46.6354 12.6505 46.5897C15.7114 45.9198 17.3524 44.2543 18.5208 43.069C19.8343 41.7363 20.7403 40.8165 22.3622 41.4548C22.7795 41.6224 23.0894 42.014 23.1275 42.4924L23.2201 43.604C23.4875 46.8266 23.7329 49.7941 22.6825 53.5849C22.4927 54.2691 22.1674 55.0156 21.7457 55.7523C21.0009 57.0534 19.9275 58.3684 18.7522 59.2885C17.4211 60.331 15.9245 60.8934 14.4971 60.4979C14.2243 60.4223 13.9568 60.3118 13.6991 60.1643C13.1365 59.8423 12.6597 59.3968 12.2604 58.8606C11.101 57.304 10.6439 54.9559 10.6151 52.7804C10.5863 50.6103 10.9941 48.5221 11.5579 47.5369ZM13.6141 48.8655C13.2696 49.5804 13.0292 51.0851 13.0513 52.7414C13.0745 54.4871 13.3989 56.3142 14.2152 57.4102C14.4138 57.6769 14.6453 57.895 14.9122 58.0478C14.9897 58.0922 15.0693 58.1251 15.1487 58.1472C15.7329 58.3091 16.4949 57.9621 17.2549 57.3671C18.171 56.6497 19.0241 55.5963 19.6293 54.5393C19.9524 53.975 20.1965 53.4209 20.3319 52.9333C21.2258 49.7075 21.0571 47.0478 20.8237 44.2069C20.6587 44.3681 20.4675 44.5621 20.2544 44.7783C18.9292 46.1227 17.0892 47.9897 13.6141 48.8655Z" fill="#173A4F"/>
<path d="M38.9167 57.4918C38.7625 56.8307 39.7843 56.3166 40.3638 56.0848C40.9432 55.8525 42.0366 55.5177 42.3822 56.1027C42.82 56.8437 41.9694 58.7076 41.4921 58.8991C41.0148 59.0904 39.1128 58.3299 38.9167 57.4918Z" fill="#173A4F"/>
<path d="M39.9592 57.4622L40.2884 58.0626C40.4219 58.2598 40.5412 58.4566 40.6914 58.647C40.9885 59.0241 41.3581 59.4003 41.8725 59.6522C42.0051 59.7102 42.131 59.7723 42.2842 59.7984L42.504 59.8452C42.5786 59.8528 42.6562 59.8526 42.7319 59.8543C43.0364 59.864 43.3327 59.7734 43.5861 59.648C44.084 59.3694 44.4439 58.9648 44.5913 58.3823C44.6508 58.1484 44.5087 57.9106 44.2751 57.8515C44.0715 57.7999 43.8648 57.9009 43.7755 58.0823L43.7394 58.156C43.693 58.2511 43.5987 58.3626 43.4949 58.452C43.3853 58.541 43.2602 58.6039 43.1413 58.6393C42.8964 58.702 42.7051 58.64 42.5097 58.4935C42.3159 58.3388 42.1284 58.0905 41.9761 57.7919C41.899 57.6461 41.8366 57.4751 41.7657 57.3211L41.5953 56.806L41.5792 56.7562C41.4255 56.2909 40.9231 56.0385 40.4579 56.1924C39.9926 56.3461 39.74 56.848 39.8941 57.3136C39.9108 57.364 39.9339 57.4166 39.9592 57.4622Z" fill="#173A4F"/>
<path d="M39.9596 57.4614L40.1916 57.9514C40.2472 58.1115 40.3195 58.2782 40.3658 58.4374C40.4618 58.7588 40.4978 59.0674 40.4635 59.3137C40.4244 59.5538 40.3289 59.7315 40.108 59.855C39.9974 59.9114 39.8642 59.9526 39.7239 59.9636C39.5865 59.9712 39.441 59.9547 39.3414 59.9185L39.2654 59.8899C39.0384 59.8066 38.7874 59.9241 38.7044 60.15C38.6319 60.3471 38.7109 60.5637 38.883 60.6713C39.3915 60.9907 39.9313 61.0339 40.4832 60.8914C40.7534 60.8068 41.0297 60.6675 41.2437 60.45C41.2971 60.3966 41.3533 60.343 41.4022 60.2861L41.5292 60.1011C41.621 59.9762 41.6697 59.844 41.7261 59.71C41.9234 59.1735 41.9309 58.6461 41.8847 58.168C41.8618 57.9267 41.812 57.7017 41.7726 57.4665L41.5958 56.8052C41.4698 56.3312 40.9836 56.05 40.5095 56.1765C40.036 56.3025 39.7545 56.7886 39.8806 57.2626C39.8948 57.3133 39.9127 57.3631 39.9347 57.4097L39.9596 57.4614Z" fill="#173A4F"/>
<path d="M32.3077 62.4134C33.4006 61.876 34.5037 61.8841 34.7723 62.4304C35.0406 62.9761 34.3732 63.854 33.2803 64.3914C32.188 64.9285 31.085 64.9211 30.8167 64.3753C30.5481 63.8291 31.2155 62.9504 32.3077 62.4134Z" fill="#F0879E"/>
<path d="M50.1734 53.629C51.2663 53.0916 52.3696 53.0996 52.6382 53.6458C52.9066 54.1916 52.2389 55.0696 51.1459 55.607C50.054 56.1439 48.9502 56.1369 48.6819 55.5912C48.4133 55.0449 49.0814 54.1659 50.1734 53.629Z" fill="#F0879E"/>
<path d="M46.6687 52.0499C47.7139 51.536 48.9801 51.9716 48.5611 51.1194C48.1422 50.2673 46.9552 49.9931 45.91 50.507C44.8649 51.0209 44.3572 52.1283 44.7762 52.9805C45.1952 53.8326 45.6235 52.5638 46.6687 52.0499Z" fill="#173A4F"/>
<path d="M34.1999 58.1808C35.2451 57.6669 36.5114 58.1024 36.0924 57.2503C35.6734 56.3981 34.4865 56.1239 33.4413 56.6378C32.3961 57.1518 31.8885 58.2592 32.3075 59.1113C32.7265 59.9635 33.1548 58.6947 34.1999 58.1808Z" fill="#173A4F"/>
<path fill-rule="evenodd" clip-rule="evenodd" d="M50.8012 41.6469C49.0128 38.2974 50.3131 35.4898 50.7517 31.1631C50.9916 28.7928 51.1413 21.7658 48.753 20.399C46.9366 19.3593 46.7745 23.2521 46.8616 25.3427C47.215 33.8312 47.76 38.5451 50.8012 41.6469Z" fill="#F7C8D7"/>
<path d="M49.6312 42.2307C49.5051 41.7295 49.4093 41.2289 49.3395 40.7144C49.0654 38.6927 49.2113 36.5566 49.5349 33.3638C49.7351 31.3874 49.8307 27.537 49.1542 24.3942C48.7545 22.5376 48.1093 20.9786 47.097 20.3992C47.0182 20.3539 46.9585 20.3296 46.9172 20.3239L46.9027 20.3219C46.8676 20.336 46.7982 20.4144 46.708 20.5342C46.4437 20.8858 46.2202 21.4534 46.0387 22.1215C45.6357 23.6046 45.4918 25.4416 45.5444 26.7148C45.7912 32.6515 46.4316 36.4357 47.6853 39.1883C48.2106 40.3415 48.8539 41.3272 49.6312 42.2307ZM51.7521 40.3893C51.9869 42.1195 52.6045 43.7219 53.8176 45.9945C54.027 46.3907 54.0096 46.8881 53.7301 47.2761C53.3377 47.821 52.5772 47.9449 52.0323 47.5526C49.0052 45.3748 46.9052 43.3468 45.4729 40.2019C44.0753 37.1329 43.3679 33.0741 43.1078 26.8181C43.0467 25.3421 43.2145 23.2093 43.6837 21.483C43.939 20.5437 44.2934 19.6923 44.7638 19.0661C45.3689 18.2606 46.144 17.8072 47.1184 17.8964L47.2488 17.9071C47.5967 17.9552 47.9517 18.0775 48.3101 18.2827C50.0212 19.2619 51.0062 21.4093 51.5383 23.8808C52.2769 27.3122 52.1765 31.4752 51.9607 33.6059C51.6544 36.6279 51.5131 38.6277 51.7521 40.3893Z" fill="#173A4F"/>
<path fill-rule="evenodd" clip-rule="evenodd" d="M60.2583 69.6378C63.6306 76.4962 63.205 81.324 54.4405 85.6334C45.6761 89.9429 41.593 87.332 38.2207 80.4736C46.3766 77.9674 53.4294 74.9044 60.2583 69.6378Z" fill="#FEFEFE"/>
<path fill-rule="evenodd" clip-rule="evenodd" d="M59.4327 73.1891C61.6185 80.5555 58.1442 82.9949 54.1025 84.9448C50.0606 86.8945 45.7377 88.44 41.7656 81.876C49.842 79.2074 52.5243 78.2934 59.4327 73.1891Z" fill="#F7C8D7"/>
<path fill-rule="evenodd" clip-rule="evenodd" d="M59.2074 81.7568C51.4355 89.0296 42.1208 88.9082 38.2207 80.4737C39.0484 80.2192 39.8652 79.9593 40.6713 79.6916C41.7268 82.3943 43.5348 84.6241 45.9738 85.3006C50.0648 86.4353 55.6328 84.1052 59.2074 81.7568Z" fill="#F0879E"/>
<path d="M61.3542 69.0994C63.1716 72.7957 63.9515 75.9942 63.0674 78.9429C62.1863 81.8821 59.6929 84.4121 54.9794 86.7297C50.2656 89.0475 46.7398 89.4772 43.8741 88.3802C40.9991 87.2798 38.9423 84.7092 37.1248 81.0129C36.8273 80.4078 37.0767 79.6757 37.6818 79.3781C37.7727 79.3335 37.8663 79.3012 37.9608 79.2807C41.9511 78.0507 45.6674 76.6876 49.2088 74.9955C52.7735 73.2922 56.1747 71.2515 59.5181 68.6733C60.0509 68.2648 60.8146 68.3652 61.2232 68.8981C61.2728 68.9628 61.3148 69.031 61.3498 69.1015L61.3542 69.0994ZM60.734 78.2405C61.3126 76.3103 60.8889 74.0958 59.7814 71.5173C56.6883 73.7795 53.5417 75.6213 50.2652 77.1869C46.984 78.7545 43.5808 80.0431 39.9752 81.1991C41.3476 83.6748 42.8492 85.3788 44.7426 86.1034C46.9522 86.9493 49.851 86.5296 53.9017 84.538C57.9523 82.5463 60.0547 80.5068 60.734 78.2405Z" fill="#173A4F"/>
<g filter="url(#filter0_i_1626_126192)">
<path d="M46.2045 57.9225C47.4742 60.5047 45.8977 61.6937 43.7508 62.7494C41.6039 63.805 39.5446 64.0122 38.4299 61.7453C37.0007 58.8385 39.2138 58.9441 41.3607 57.8885C43.5076 56.8328 44.9349 55.3404 46.2045 57.9225Z" fill="#FFED00"/>
</g>
<path d="M45.7558 58.1431C46.0494 58.7401 46.1609 59.2215 46.1587 59.6147C46.1565 60.001 46.0446 60.3299 45.8434 60.6301C45.4218 61.2595 44.6059 61.7717 43.5301 62.3007C42.4864 62.8139 41.5386 63.0806 40.7569 62.9962C40.0233 62.917 39.3689 62.5218 38.8786 61.5246C38.5368 60.8294 38.4538 60.3915 38.4807 60.1127C38.5039 59.8712 38.6144 59.6976 38.8488 59.5267C39.1075 59.338 39.4779 59.1823 39.9727 58.9954C40.0415 58.9694 40.1124 58.9429 40.185 58.9158C40.6122 58.7562 41.0991 58.5742 41.5813 58.3372C41.9672 58.1474 42.339 57.9393 42.6767 57.7503C42.819 57.6707 42.9551 57.5945 43.0838 57.5245C43.5383 57.277 43.9053 57.1026 44.2248 57.0283C44.5247 56.9586 44.7495 56.9843 44.9575 57.1086C45.1856 57.2449 45.4586 57.5386 45.7558 58.1431Z" stroke="#173A4F"/>
<path d="M44.3726 60.2398C44.4518 60.4009 44.4526 60.6499 44.2701 60.9644C44.0897 61.2752 43.7547 61.5955 43.2942 61.8219C42.8337 62.0483 42.3755 62.1181 42.0191 62.0712C41.6586 62.0236 41.4619 61.871 41.3827 61.7099C41.3035 61.5488 41.3027 61.2998 41.4852 60.9853C41.6656 60.6745 42.0007 60.3542 42.4611 60.1278C42.9216 59.9013 43.3798 59.8316 43.7362 59.8785C44.0967 59.926 44.2934 60.0787 44.3726 60.2398Z" stroke="#173A4F"/>
<rect x="40.9244" y="59.77" width="2.44393" height="1.72197" rx="0.7" transform="rotate(-26.1832 40.9244 59.77)" fill="#FFED00" stroke="#173A4F"/>
<path d="M54.7407 73.6466C44.9144 75.2601 31.0979 68.3767 25.418 64.7334L41.3784 92.2846C41.3784 92.2846 46.7167 100.36 59.2791 95.1484C74.9823 88.634 67.0236 71.6297 54.7407 73.6466Z" fill="#F1FAFF" stroke="#173A4F" stroke-width="3" stroke-linejoin="round"/>
<g filter="url(#filter1_i_1626_126192)">
<path d="M44.9527 79.2637C52.2306 72.4671 55.2159 57.3224 55.7988 50.5996L67.8719 80.0622C67.8719 80.0622 71.0074 89.2206 59.2095 95.987C44.462 104.445 35.8555 87.7594 44.9527 79.2637Z" fill="#F1FAFF"/>
</g>
<path d="M44.9527 79.2637C52.2306 72.4671 55.2159 57.3224 55.7988 50.5996L67.8719 80.0622C67.8719 80.0622 71.0074 89.2206 59.2095 95.987C44.462 104.445 35.8555 87.7594 44.9527 79.2637Z" stroke="#173A4F" stroke-width="3" stroke-linejoin="round"/>
<g filter="url(#filter2_i_1626_126192)">
<path d="M32.4258 78.9873L62.2284 64.3334L66.9498 75.6658L38.845 90.3123L32.4258 78.9873Z" fill="#F7C8D7"/>
</g>
<path d="M39.4359 88.3129L34.5151 79.6315L61.4577 66.3839L65.0357 74.9719L39.4359 88.3129Z" stroke="#173A4F" stroke-width="3"/>
<defs>
<filter id="filter0_i_1626_126192" x="37.9766" y="56.4902" width="8.68164" height="7.02148" filterUnits="userSpaceOnUse" color-interpolation-filters="sRGB">
<feFlood flood-opacity="0" result="BackgroundImageFix"/>
<feBlend mode="normal" in="SourceGraphic" in2="BackgroundImageFix" result="shape"/>
<feColorMatrix in="SourceAlpha" type="matrix" values="0 0 0 0 0 0 0 0 0 0 0 0 0 0 0 0 0 0 127 0" result="hardAlpha"/>
<feOffset dy="-2"/>
<feComposite in2="hardAlpha" operator="arithmetic" k2="-1" k3="1"/>
<feColorMatrix type="matrix" values="0 0 0 0 0.952941 0 0 0 0 0.576471 0 0 0 0 0.0784314 0 0 0 1 0"/>
<feBlend mode="normal" in2="shape" result="effect1_innerShadow_1626_126192"/>
</filter>
<filter id="filter1_i_1626_126192" x="39.7207" y="49.0996" width="30.0293" height="50.7148" filterUnits="userSpaceOnUse" color-interpolation-filters="sRGB">
<feFlood flood-opacity="0" result="BackgroundImageFix"/>
<feBlend mode="normal" in="SourceGraphic" in2="BackgroundImageFix" result="shape"/>
<feColorMatrix in="SourceAlpha" type="matrix" values="0 0 0 0 0 0 0 0 0 0 0 0 0 0 0 0 0 0 127 0" result="hardAlpha"/>
<feOffset dy="-12"/>
<feComposite in2="hardAlpha" operator="arithmetic" k2="-1" k3="1"/>
<feColorMatrix type="matrix" values="0 0 0 0 0.847059 0 0 0 0 0.921569 0 0 0 0 0.964706 0 0 0 1 0"/>
<feBlend mode="normal" in2="shape" result="effect1_innerShadow_1626_126192"/>
</filter>
<filter id="filter2_i_1626_126192" x="32.4258" y="64.333" width="34.5234" height="25.9795" filterUnits="userSpaceOnUse" color-interpolation-filters="sRGB">
<feFlood flood-opacity="0" result="BackgroundImageFix"/>
<feBlend mode="normal" in="SourceGraphic" in2="BackgroundImageFix" result="shape"/>
<feColorMatrix in="SourceAlpha" type="matrix" values="0 0 0 0 0 0 0 0 0 0 0 0 0 0 0 0 0 0 127 0" result="hardAlpha"/>
<feOffset dx="5" dy="-7"/>
<feComposite in2="hardAlpha" operator="arithmetic" k2="-1" k3="1"/>
<feColorMatrix type="matrix" values="0 0 0 0 0.941176 0 0 0 0 0.529412 0 0 0 0 0.619608 0 0 0 1 0"/>
<feBlend mode="normal" in2="shape" result="effect1_innerShadow_1626_126192"/>
</filter>
</defs>
</svg>
