<svg width="69" height="77" viewBox="0 0 69 77" fill="none" xmlns="http://www.w3.org/2000/svg">
<path d="M66.1332 1.81576L66.1239 1.83056C65.8935 1.70081 65.6344 1.61917 65.3415 1.58332C61.1087 1.07174 52.6566 18.9708 52.6566 27.4448C52.6566 32.1279 53.8347 34.4703 55.0123 36.6096C55.6578 37.7771 56.3028 38.8867 56.7533 40.2837V40.2869C57.1273 41.443 57.368 42.7974 57.368 44.5443C57.368 51.2173 52.4406 56.7744 45.9085 58.0016C45.029 58.1688 44.1158 58.2553 43.1856 58.2553H25.5869C24.655 58.2553 23.7451 58.1688 22.8633 58.0016C18.584 57.1988 14.9919 54.5324 13.0259 50.9148C11.9878 49.0104 11.4038 46.845 11.4038 44.5443C11.4038 42.7852 11.6469 41.4227 12.0249 40.2633C12.4749 38.8754 13.1171 37.7715 13.7595 36.6096C14.5141 35.2413 15.266 33.7908 15.7101 31.6963C15.9632 30.5166 16.1151 29.1329 16.1151 27.4448C16.1151 18.9708 7.66307 1.07174 3.4295 1.58332C3.13403 1.61917 2.87228 1.70405 2.64117 1.83287L2.63184 1.81899C6.0163 -0.18803 14.271 2.40158 18.5105 10.7979C23.064 19.8242 22.5281 25.8529 32.6817 26.4355C33.2169 26.4681 33.7866 26.482 34.3859 26.482C46.3136 26.482 45.4681 20.3041 50.2636 10.7979C54.4982 2.40736 62.7485 -0.184784 66.1332 1.81576Z" fill="#C8E8FB"/>
<path d="M66.1332 1.81576L66.1239 1.83056C65.8935 1.70081 65.6344 1.61917 65.3415 1.58332C61.1087 1.07174 52.6566 18.9708 52.6566 27.4448C52.6566 32.1279 53.8347 34.4703 55.0123 36.6096C55.6578 37.7771 56.3028 38.8867 56.7533 40.2837V40.2869C57.1273 41.443 57.368 42.7974 57.368 44.5443C57.368 51.2173 52.4406 56.7744 45.9085 58.0016C45.029 58.1688 44.1158 58.2553 43.1856 58.2553H25.5869C24.655 58.2553 23.7451 58.1688 22.8633 58.0016C18.584 57.1988 14.9919 54.5324 13.0259 50.9148C11.9878 49.0104 11.4038 46.845 11.4038 44.5443C11.4038 42.7852 11.6469 41.4227 12.0249 40.2633C12.4749 38.8754 13.1171 37.7715 13.7595 36.6096C14.5141 35.2413 15.266 33.7908 15.7101 31.6963C15.9632 30.5166 16.1151 29.1329 16.1151 27.4448C16.1151 18.9708 7.66307 1.07174 3.4295 1.58332C3.13403 1.61917 2.87228 1.70405 2.64117 1.83287L2.63184 1.81899C6.0163 -0.18803 14.271 2.40158 18.5105 10.7979C23.064 19.8242 22.5281 25.8529 32.6817 26.4355C33.2169 26.4681 33.7866 26.482 34.3859 26.482C46.3136 26.482 45.4681 20.3041 50.2636 10.7979C54.4982 2.40736 62.7485 -0.184784 66.1332 1.81576Z" fill="#C8E8FB"/>
<path d="M56.7528 40.2845C56.3023 38.8869 55.6573 37.7782 55.0118 36.6098C53.9626 34.7047 52.9159 32.6341 52.6989 28.8948C51.6498 28.7602 50.6236 28.5546 49.6259 28.2812C49.7575 32.4153 52.8291 36.8343 52.8291 45.1393C52.8291 51.1596 46.5934 57.0905 34.3853 57.0905C33.4889 57.0905 41.0724 58.2555 40.1408 58.2555H43.185C44.1153 58.2555 45.0285 58.1699 45.908 58.0027C52.4408 56.7755 57.3682 51.2177 57.3682 44.5454C57.3682 42.7976 57.1267 41.4439 56.7528 40.288V40.2845Z" fill="#A3D3F2"/>
<path d="M66.1255 1.83024C69.3032 3.57869 66.8411 13.6166 62.507 20.4367C58.0598 27.4331 55.3091 31.9645 56.7542 40.2842C56.3035 38.8866 55.6594 37.7779 55.0139 36.6095C53.8356 34.4709 52.6582 32.1285 52.6582 27.4454C52.6582 18.9714 61.1103 1.07142 65.3431 1.583C65.636 1.61885 65.8951 1.70142 66.1255 1.83024Z" fill="#F7C8D7"/>
<path d="M56.5602 33.3547C56.052 31.847 55.7008 29.9949 55.7008 27.4444C55.7008 20.0385 62.1584 5.42984 66.6124 2.21046C66.4674 2.05943 66.3068 1.92876 66.1255 1.82931C65.8951 1.70049 65.636 1.61885 65.3431 1.583C61.1103 1.07142 52.6582 18.9704 52.6582 27.4444C52.6582 32.1276 53.8356 34.4699 55.0139 36.6086C55.6594 37.7767 56.3035 38.8857 56.7542 40.2833C56.2994 37.6627 56.2613 35.4182 56.5602 33.3547Z" fill="#F0879E"/>
<path d="M16.1158 27.4444C16.1158 32.1278 14.9374 34.4702 13.7594 36.6085C13.1177 37.7712 12.4755 38.8751 12.0248 40.263C13.4589 31.9548 10.7132 27.4273 6.26932 20.436C1.93527 13.6224 -0.526878 3.59258 2.64178 1.83279C2.8729 1.70374 3.13464 1.61908 3.43012 1.583C7.66369 1.07142 16.1158 18.9707 16.1158 27.4444Z" fill="#F7C8D7"/>
<path d="M9.92035 20.436C5.83009 14.0061 3.41029 4.71543 5.81239 2.2107C5.17095 1.74722 4.56995 1.51779 4.03666 1.58325C3.7419 1.61909 3.4804 1.70397 3.24904 1.8328C0.0806217 3.59189 2.54277 13.6217 6.87682 20.436C11.3205 27.4266 14.0654 31.9548 12.6323 40.2632C13.0828 38.8753 13.7245 37.7714 14.3666 36.6088C14.9035 35.6347 15.4394 34.6138 15.8648 33.3517C15.2133 28.8633 12.9665 25.2279 9.92035 20.436Z" fill="#FEFEFE"/>
<path d="M38.039 26.4807C49.9676 26.4807 49.1211 20.3026 53.9177 10.796C56.8253 5.03324 61.6278 2.00628 65.4479 1.32332C61.5764 0.462506 54.6385 3.33613 50.8741 10.796C46.2944 19.8711 46.8573 25.9136 36.54 26.4423C37.0169 26.4669 37.514 26.4807 38.039 26.4807Z" fill="#FEFEFE"/>
<path d="M16.6771 50.9142C15.6397 49.0098 15.055 46.8453 15.055 44.5436C15.055 42.7845 15.2981 41.4221 15.6754 40.2627C16.1259 38.8748 16.7683 37.7718 17.4107 36.609C18.1653 35.2407 18.9172 33.7909 19.362 31.6957C19.6135 30.516 19.7663 29.1329 19.7663 27.4441C19.7663 18.9711 11.3143 1.07114 7.08045 1.58273C6.78522 1.61857 6.52348 1.70438 6.29212 1.8332L6.28375 1.8184C6.66009 1.59498 7.09983 1.43262 7.58528 1.32415C5.84065 1.01239 4.30034 1.18955 3.23926 1.8184L3.24859 1.8332C3.47995 1.70438 3.74145 1.61857 4.03693 1.58273C8.2705 1.07114 16.7228 18.9711 16.7228 27.4441C16.7228 29.1329 16.5709 30.516 16.3175 31.6957C15.8737 33.7909 15.1215 35.2407 14.3671 36.609C13.7247 37.7718 13.0823 38.8748 12.6325 40.2627C12.2545 41.4221 12.0114 42.7845 12.0114 44.5436C12.0114 46.8453 12.5955 49.0098 13.6336 50.9142C15.5993 54.5327 19.1914 57.1982 23.4707 58.0019C24.3528 58.1691 25.2627 58.2547 26.1943 58.2547H29.2379C28.3062 58.2547 27.3963 58.1691 26.5142 58.0019C22.2342 57.1982 18.6438 54.5327 16.6771 50.9142Z" fill="#FEFEFE"/>
<path d="M16.6771 50.9142C15.6397 49.0098 15.055 46.8453 15.055 44.5436C15.055 42.7845 15.2981 41.4221 15.6754 40.2627C16.1259 38.8748 16.7683 37.7718 17.4107 36.609C18.1653 35.2407 18.9172 33.7909 19.362 31.6957C19.6135 30.516 19.7663 29.1329 19.7663 27.4441C19.7663 18.9711 11.3143 1.07114 7.08045 1.58273C6.78522 1.61857 6.52348 1.70438 6.29212 1.8332L6.28375 1.8184C6.66009 1.59498 7.09983 1.43262 7.58528 1.32415C5.84065 1.01239 4.30034 1.18955 3.23926 1.8184L3.24859 1.8332C3.47995 1.70438 3.74145 1.61857 4.03693 1.58273C8.2705 1.07114 16.7228 18.9711 16.7228 27.4441C16.7228 29.1329 16.5709 30.516 16.3175 31.6957C15.8737 33.7909 15.1215 35.2407 14.3671 36.609C13.7247 37.7718 13.0823 38.8748 12.6325 40.2627C12.2545 41.4221 12.0114 42.7845 12.0114 44.5436C12.0114 46.8453 12.5955 49.0098 13.6336 50.9142C15.5993 54.5327 19.1914 57.1982 23.4707 58.0019C24.3528 58.1691 25.2627 58.2547 26.1943 58.2547H29.2379C28.3062 58.2547 27.3963 58.1691 26.5142 58.0019C22.2342 57.1982 18.6438 54.5327 16.6771 50.9142Z" fill="#FEFEFE"/>
<path d="M36.9417 44.3771C36.7297 43.4943 35.1506 43.4804 34.2915 43.544C33.4321 43.6069 31.8734 43.85 31.8016 44.7541C31.7104 45.8996 33.8998 47.6309 34.608 47.5793C35.316 47.5273 37.2092 45.4965 36.9417 44.3771Z" fill="#173A4F"/>
<path d="M35.6332 44.9553L35.5911 45.8684C35.5456 46.1832 35.5176 46.4891 35.4475 46.8058C35.3092 47.4323 35.0805 48.1007 34.5968 48.7052C34.4678 48.8528 34.3496 49.0013 34.1757 49.1229L33.9316 49.3082C33.8441 49.3611 33.7476 49.4069 33.6548 49.4534C33.2835 49.6442 32.8615 49.7104 32.4708 49.7094C31.6841 49.6687 30.9919 49.3963 30.4543 48.7853C30.2383 48.5403 30.2694 48.1717 30.5228 47.9635C30.7438 47.7815 31.0611 47.7808 31.2824 47.9455L31.3719 48.0126C31.4874 48.0991 31.6724 48.1772 31.8554 48.223C32.0454 48.2653 32.2387 48.267 32.4074 48.2392C32.7492 48.1701 32.9485 47.9832 33.1012 47.6927C33.2471 47.3932 33.3282 46.9852 33.3349 46.5382C33.3416 46.318 33.3148 46.0763 33.3089 45.8504L33.206 45.1332L33.1957 45.0638C33.1029 44.416 33.5713 43.8179 34.2415 43.7281C34.9116 43.6384 35.5303 44.0906 35.6231 44.7391C35.6332 44.8094 35.6368 44.8859 35.6332 44.9553Z" fill="#173A4F"/>
<path d="M35.6338 44.9549L35.6448 45.6785C35.6735 45.9029 35.6854 46.1452 35.7249 46.3631C35.8017 46.8046 35.9453 47.1952 36.1376 47.4702C36.3326 47.7346 36.559 47.8914 36.9083 47.9092C37.0796 47.9117 37.2695 47.8824 37.4502 47.813C37.6248 47.7411 37.7954 47.6358 37.8966 47.5338L37.9734 47.4547C38.2038 47.2214 38.5864 47.2142 38.8268 47.436C39.0369 47.6294 39.0709 47.9353 38.923 48.1654C38.4876 48.8475 37.8452 49.2171 37.0745 49.3713C36.6882 49.4291 36.2611 49.4252 35.8635 49.2906C35.7646 49.258 35.6625 49.227 35.5673 49.1877L35.2971 49.0408C35.1072 48.9453 34.9663 48.8158 34.8151 48.6884C34.2437 48.1622 33.9128 47.5348 33.6791 46.9351C33.5602 46.6323 33.485 46.3337 33.3905 46.0287L33.2066 45.1327C33.074 44.4907 33.5051 43.8674 34.1696 43.74C34.833 43.6118 35.4778 44.0281 35.6103 44.6702C35.6237 44.7395 35.6321 44.8096 35.6331 44.8783L35.6338 44.9549Z" fill="#173A4F"/>
<path d="M3.60541 2.74892C3.59273 2.74892 3.58507 2.74961 3.58004 2.75054C3.45181 2.76604 3.34462 2.79865 3.25083 2.85092C2.89722 3.04751 2.7039 3.54452 2.6027 3.92544C1.74522 7.18575 3.89897 14.4627 7.30568 19.82C10.5409 24.9085 13.1049 28.9425 13.5523 34.3731C14.2696 32.8032 14.8967 30.7277 14.8967 27.4445C14.8967 20.2948 8.79359 6.81617 4.81148 3.41801C4.08558 2.79865 3.70757 2.74892 3.60541 2.74892ZM34.3854 59.4315H25.5865C24.5838 59.4315 23.5885 59.3385 22.6281 59.1558C15.4192 57.8015 10.1853 51.6553 10.1853 44.544C10.1853 42.8584 10.399 41.3676 10.837 39.9913C12.1326 32.3603 9.80132 28.2415 5.23184 21.0527C1.46912 15.1366 -0.769322 7.19315 0.243672 3.34539C0.558528 2.15015 1.16096 1.29743 2.03471 0.812904C2.40843 0.603135 2.82879 0.468527 3.27954 0.414639C4.26024 0.294607 5.31965 0.712531 6.42284 1.65314C11.2151 5.74235 17.3318 20.205 17.3318 27.4445C17.3318 32.2289 16.1501 34.7704 14.8335 37.1618L14.668 37.4604C14.1119 38.4623 13.5861 39.4103 13.2095 40.5419C13.1951 40.6065 13.1741 40.6701 13.1497 40.7297C12.7934 41.8678 12.6204 43.117 12.6204 44.544C12.6204 50.531 17.0253 55.7054 23.0949 56.8461C23.9033 56.9994 24.7414 57.0778 25.5865 57.0778H34.3854C35.058 57.0778 35.6025 57.604 35.6025 58.2543C35.6025 58.9037 35.058 59.4315 34.3854 59.4315Z" fill="#173A4F"/>
<path d="M34.3869 27.6587C24.244 27.6587 22.4269 23.1753 19.9116 16.9697C19.2254 15.2758 18.4464 13.3553 17.4167 11.3138C15.2493 7.02062 11.6242 3.80194 7.71955 2.70291C5.91511 2.19456 4.25063 2.23943 3.26898 2.82201C2.69597 3.16222 1.94639 2.98761 1.59445 2.4337C1.24347 1.87886 1.42315 1.1552 1.9964 0.814995C3.57714 -0.122604 5.91081 -0.257908 8.39999 0.443788C12.9527 1.7246 17.1416 5.40261 19.6054 10.2809C20.6779 12.4096 21.4756 14.3759 22.1788 16.1121C24.6593 22.2329 25.9051 25.3047 34.3869 25.3047C35.0587 25.3047 35.6039 25.8327 35.6039 26.4821C35.6039 27.1316 35.0587 27.6587 34.3869 27.6587Z" fill="#173A4F"/>
<path d="M65.1658 2.74998C65.0646 2.74998 64.6864 2.79971 63.9598 3.41907C59.9784 6.81723 53.8743 20.2958 53.8743 27.4455C53.8743 30.7304 54.5016 32.8058 55.2206 34.3764C55.668 28.9474 58.233 24.9112 61.4682 19.821C64.879 14.4547 67.0303 7.17131 66.1669 3.9184C66.0657 3.53887 65.8724 3.04532 65.5228 2.8536C65.425 2.79901 65.3194 2.76709 65.1912 2.7516C65.1869 2.75067 65.1792 2.74998 65.1658 2.74998ZM56.7525 41.4616C56.231 41.4616 55.7532 41.1362 55.5912 40.6353C55.2129 39.4627 54.6737 38.4911 54.104 37.4615L53.9387 37.1645C52.6218 34.7722 51.4395 32.23 51.4395 27.4455C51.4395 20.2061 57.5569 5.74341 62.3484 1.65419C63.4516 0.713591 64.5084 0.296592 65.4941 0.416625C65.9448 0.470281 66.3626 0.603268 66.7341 0.812111C67.6033 1.28947 68.2077 2.13964 68.5242 3.33257C69.5446 7.17547 67.3105 15.1247 63.5428 21.053C59.3362 27.6731 56.5568 32.0454 57.9545 40.0902C58.06 40.7005 57.6591 41.2854 57.036 41.429C56.9415 41.4512 56.847 41.4616 56.7525 41.4616Z" fill="#173A4F"/>
<path d="M56.7532 41.4649C56.0807 41.4649 55.5361 40.9379 55.5361 40.2884C55.5361 39.6381 56.0807 39.1094 56.7532 39.1094C57.426 39.1094 57.9703 39.6355 57.9703 40.2852V40.2884C57.9703 40.9379 57.426 41.4649 56.7532 41.4649Z" fill="#173A4F"/>
<path d="M43.186 59.4319H34.388C33.7152 59.4319 33.1699 58.9048 33.1699 58.2554C33.1699 57.605 33.7152 57.0779 34.388 57.0779H43.186C44.0344 57.0779 44.8715 57.0005 45.6752 56.8471C51.7479 55.7065 56.152 50.5328 56.152 44.5441C56.152 43.078 55.9697 41.8012 55.5924 40.6385C55.3924 40.0185 55.7494 39.3575 56.3917 39.1634C57.0341 38.9692 57.716 39.3151 57.917 39.9352C58.3677 41.3289 58.5871 42.8366 58.5871 44.5441C58.5871 51.6573 53.3532 57.8025 46.1427 59.1569C45.188 59.3389 44.1923 59.4319 43.186 59.4319Z" fill="#173A4F"/>
<path d="M34.387 27.6581C33.7142 27.6581 33.1697 27.1311 33.1697 26.4816C33.1697 25.8322 33.7142 25.3042 34.387 25.3042C42.8678 25.3042 44.1136 22.2333 46.5948 16.1132C47.2987 14.3771 48.0973 12.4091 49.1709 10.2811C51.6304 5.4072 55.8142 1.73058 60.3643 0.445607C62.8348 -0.251925 65.1534 -0.125414 66.7334 0.789056C67.1057 0.99073 67.3581 1.3758 67.3581 1.818C67.3581 2.46743 66.8119 2.99451 66.141 2.99451C65.9484 2.99451 65.7604 2.95034 65.5915 2.86801C65.5601 2.85344 65.5298 2.83609 65.4994 2.81898C64.517 2.23824 62.8518 2.19569 61.0464 2.70565C57.1444 3.80723 53.5226 7.02498 51.3596 11.3133C50.3281 13.3564 49.5491 15.2769 48.862 16.9715C46.346 23.1765 44.5287 27.6581 34.387 27.6581Z" fill="#173A4F"/>
<path d="M50.9533 25.1797L49.4822 28.0108L48.0117 30.8411L54.5368 38.3001C55.9669 39.9343 58.6584 39.625 59.6518 37.7126L61.6285 33.9081L63.6052 30.1027C64.5996 28.1911 63.2483 25.9195 61.0392 25.7866L50.9533 25.1797Z" fill="#FECD27"/>
<path d="M50.001 24.7175L48.5298 27.5488L47.0596 30.379L36.9725 29.7721C34.7637 29.6391 33.4134 27.3675 34.4068 25.4551L36.3835 21.6506L38.3609 17.846C39.3545 15.9336 42.0451 15.6244 43.4759 17.2586L50.001 24.7175Z" fill="#FECD27"/>
<path d="M40.3776 28.1285C40.3776 29.0382 39.6146 29.7766 38.6727 29.7766C37.7317 29.7766 36.9688 29.0382 36.9688 28.1285C36.9688 27.2187 37.7317 26.4805 38.6727 26.4805C39.6146 26.4805 40.3776 27.2187 40.3776 28.1285Z" fill="#F39314"/>
<path d="M58.4579 29.3004C58.4579 30.2103 57.695 30.9478 56.753 30.9478C55.812 30.9478 55.0488 30.2103 55.0488 29.3004C55.0488 28.3908 55.812 27.6523 56.753 27.6523C57.695 27.6523 58.4579 28.3908 58.4579 29.3004Z" fill="#F39314"/>
<path d="M58.8098 35.0426C58.8098 35.9522 58.0468 36.6907 57.1048 36.6907C56.1636 36.6907 55.4014 35.9522 55.4014 35.0426C55.4014 34.1328 56.1636 33.3945 57.1048 33.3945C58.0468 33.3945 58.8098 34.1328 58.8098 35.0426Z" fill="#F39314"/>
<path d="M40.3213 29.7728C38.1116 29.6399 36.761 27.3682 37.7546 25.4558L39.7321 21.6513L41.7097 17.8468C41.9696 17.3451 42.3495 16.9559 42.7916 16.6809C41.3087 15.7507 39.2131 16.2077 38.3614 17.8468L36.384 21.6513L34.407 25.4558C33.4129 27.3682 34.7642 29.6399 36.973 29.7728L47.0592 30.3799L47.1613 30.1847L40.3213 29.7728Z" fill="#FEFEFE"/>
<path d="M61.0403 25.7868L50.9542 25.1797L50.8613 25.3575L57.9968 25.7868C60.2065 25.9198 61.5561 28.1912 60.5635 30.1029L58.5858 33.9081L56.6091 37.7126C56.318 38.2723 55.8799 38.6902 55.372 38.9668C56.8422 39.7761 58.8299 39.2971 59.6519 37.7126L61.6296 33.9081L63.6063 30.1029C64.6004 28.1912 63.2491 25.9198 61.0403 25.7868Z" fill="#F39314"/>
<path d="M49.4819 28.0107L48.0117 30.842L51.0737 34.3422C52.8673 33.8135 54.4423 32.6067 55.3496 30.8592C56.2568 29.113 56.3193 27.1705 55.6872 25.4644L50.9531 25.1797L49.4819 28.0107Z" fill="#F39314"/>
<path d="M52.8089 29.626C51.7541 31.6562 49.1965 32.4751 47.0958 31.4554C44.9959 30.4364 44.1475 27.9634 45.2026 25.9334C46.2577 23.9026 48.8168 23.0827 50.9167 24.1024C53.0166 25.1224 53.864 27.5961 52.8089 29.626Z" fill="#FECD27"/>
<path d="M49.8338 31.4564C47.7337 30.4374 46.8865 27.9643 47.9414 25.9337C48.539 24.784 49.6176 24.0236 50.8239 23.7641C48.9694 23.3733 47.0054 24.2186 46.1149 25.9337C45.0598 27.9643 45.9072 30.4374 48.0081 31.4564C48.9187 31.8995 49.9157 31.9941 50.8382 31.7959C50.498 31.724 50.1604 31.6146 49.8338 31.4564Z" fill="#FEFEFE"/>
<path d="M45.8415 23.6696C45.8415 24.5792 45.0785 25.3176 44.1366 25.3176C43.1956 25.3176 42.4326 24.5792 42.4326 23.6696C42.4326 22.7597 43.1956 22.0215 44.1366 22.0215C45.0785 22.0215 45.8415 22.7597 45.8415 23.6696Z" fill="#F39314"/>
<path d="M48.1782 31.4564C50.2781 30.4374 51.1256 27.9643 50.0707 25.9337C49.473 24.784 48.3935 24.0236 47.1882 23.7641C49.0426 23.3733 51.0067 24.2186 51.8972 25.9337C52.952 27.9643 52.1048 30.4374 50.0039 31.4564C49.0931 31.8995 48.0964 31.9941 47.1738 31.7959C47.514 31.724 47.8516 31.6146 48.1782 31.4564Z" fill="#F39314"/>
<path d="M56.8884 40.5333C55.6307 40.5333 54.4322 40.0029 53.6068 39.0605L47.9999 32.6525C47.5659 32.1557 47.6293 31.4133 48.1433 30.9938C48.6565 30.5738 49.4245 30.6357 49.8592 31.1325L55.4653 37.5405C55.878 38.0114 56.4798 38.239 57.1135 38.1673C57.7483 38.0947 58.2775 37.7348 58.5646 37.1832L62.518 29.5751C62.8042 29.0235 62.7855 28.3993 62.4673 27.8632C62.1491 27.328 61.6014 27.0001 60.965 26.9617L52.2984 26.442C51.6282 26.4011 51.1176 25.8423 51.16 25.1936C51.2011 24.5441 51.7768 24.0513 52.4503 24.0922L61.1153 24.6128C62.5611 24.7 63.8557 25.476 64.5775 26.6892C65.3008 27.9041 65.3445 29.3776 64.6938 30.6307L60.7397 38.2399C60.0879 39.493 58.8405 40.339 57.4006 40.5048C57.2293 40.5235 57.058 40.5333 56.8884 40.5333Z" fill="#173A4F"/>
<path d="M45.6368 31.4716C45.6115 31.4716 45.5854 31.4709 45.56 31.4692L36.8953 30.9454C35.4495 30.8589 34.1546 30.083 33.433 28.8697C32.7105 27.6541 32.6667 26.1806 33.3165 24.9273L37.2709 17.3183C37.9224 16.066 39.1708 15.2197 40.6097 15.0541C42.0497 14.8911 43.4678 15.4288 44.4037 16.4975L50.0139 22.9088C50.4477 23.4048 50.3836 24.1472 49.8704 24.5675C49.3565 24.9868 48.5892 24.9257 48.1545 24.4287L42.5452 18.0184C42.1332 17.5475 41.5315 17.319 40.8975 17.3916C40.263 17.4643 39.7338 17.8225 39.4459 18.3757L35.4925 25.9831C35.2064 26.5354 35.2248 27.1596 35.544 27.6957C35.8612 28.2293 36.4091 28.5589 37.0462 28.5972L45.7119 29.1202C46.3828 29.1611 46.8927 29.7199 46.8506 30.3677C46.8108 30.9919 46.2749 31.4716 45.6368 31.4716Z" fill="#173A4F"/>
<path d="M49.0103 24.8416C47.898 24.8416 46.8235 25.4355 46.29 26.4603C45.539 27.9076 46.1448 29.6767 47.6423 30.4036C49.1385 31.1305 50.9686 30.5446 51.7213 29.0973C52.0859 28.3956 52.145 27.6 51.8902 26.8553C51.6344 26.1104 51.0952 25.5058 50.3693 25.154C49.9338 24.942 49.4687 24.8416 49.0103 24.8416ZM49.0003 33.0723C48.1588 33.0723 47.3231 32.8822 46.5491 32.5068C43.8525 31.1973 42.7603 28.0112 44.115 25.4038C45.4696 22.7969 48.7656 21.7411 51.4622 23.0508C52.7687 23.6854 53.741 24.7731 54.2011 26.1152C54.6612 27.4566 54.5523 28.8908 53.8966 30.1538C53.2405 31.4168 52.1146 32.3567 50.7272 32.8014C50.1609 32.9825 49.5793 33.0723 49.0003 33.0723Z" fill="#173A4F"/>
<path d="M48.1304 46.3809C46.449 46.3809 45.0869 47.0402 45.0869 47.8527C45.0869 48.6645 46.449 49.3229 48.1304 49.3229C49.8109 49.3229 51.173 48.6645 51.173 47.8527C51.173 47.0402 49.8109 46.3809 48.1304 46.3809Z" fill="#F0879E"/>
<path d="M20.6414 46.3809C18.96 46.3809 17.5977 47.0402 17.5977 47.8527C17.5977 48.6645 18.96 49.3229 20.6414 49.3229C22.3217 49.3229 23.685 48.6645 23.685 47.8527C23.685 47.0402 22.3217 46.3809 20.6414 46.3809Z" fill="#F0879E"/>
<path d="M57.1416 36.6881C58.0666 36.6701 58.8101 35.9407 58.8101 35.0424C58.8101 34.6867 58.692 34.358 58.4936 34.0879L57.1416 36.6881Z" fill="#E85222"/>
<path d="M55.0488 29.3025C55.0488 29.7537 55.2371 30.1617 55.541 30.4593C55.9233 29.5881 56.1063 28.6776 56.1046 27.7793C55.4859 28.0256 55.0488 28.614 55.0488 29.3025Z" fill="#E85222"/>
<path d="M26.634 43.8754C25.8853 43.7524 25.2853 43.5907 24.7731 43.5614C24.2615 43.523 23.8682 43.5745 23.2682 43.6592C22.6705 43.7401 21.9135 43.9171 21.1226 44.1088C20.7242 44.1978 20.2988 44.2737 19.865 44.2573C19.4337 44.2434 19.009 44.143 18.6403 43.9784C18.4867 43.9106 18.4192 43.7343 18.4901 43.5859C18.5492 43.4603 18.6874 43.3948 18.8217 43.417L18.8267 43.4177C19.4944 43.532 20.0811 43.3141 20.6347 42.9642C21.1994 42.6092 21.7008 42.0372 22.4806 41.6205C22.8679 41.4165 23.334 41.2671 23.8285 41.2222C24.323 41.1783 24.8355 41.2303 25.2954 41.3707C26.2179 41.6644 26.9177 42.225 27.3548 42.9274C27.5422 43.2292 27.4417 43.6201 27.1295 43.8012C26.9895 43.8828 26.8299 43.908 26.6804 43.8838L26.634 43.8754Z" fill="#173A4F"/>
<path d="M22.3683 43.2738C22.0541 43.3439 21.7292 43.3929 21.3933 43.3987C21.0584 43.4036 20.7071 43.3635 20.3705 43.2444C20.0353 43.1263 19.7231 42.919 19.4984 42.6554C19.2707 42.3936 19.1348 42.0876 19.0563 41.7881C19.0149 41.6299 19.1137 41.4698 19.2767 41.4291C19.4216 41.3933 19.5695 41.465 19.6293 41.5922L19.6327 41.5996C19.7375 41.8216 19.8774 42.0133 20.048 42.147C20.2186 42.2826 20.4143 42.3626 20.626 42.3968C21.0514 42.4653 21.5352 42.3452 21.991 42.1544C22.3008 42.0256 22.6611 42.1625 22.7953 42.462C22.9296 42.7615 22.787 43.1098 22.4771 43.2396C22.4434 43.2535 22.4097 43.2641 22.3759 43.2722L22.3683 43.2738Z" fill="#173A4F"/>
<path d="M41.4176 42.9275C41.8547 42.2249 42.5545 41.6645 43.4771 41.3708C43.9369 41.2304 44.4501 41.1781 44.9449 41.2223C45.4395 41.2672 45.9046 41.4163 46.2919 41.6203C47.0719 42.0373 47.5731 42.6093 48.1377 42.9641C48.6914 43.3142 49.278 43.5321 49.9458 43.4185L49.9508 43.4178C50.1187 43.3891 50.2767 43.4969 50.3061 43.6586C50.3314 43.7939 50.2563 43.9246 50.1321 43.9784C49.7635 44.1431 49.3397 44.2435 48.9077 44.2574C48.4746 44.2738 48.0483 44.1977 47.6499 44.1089C46.8592 43.9172 46.1029 43.74 45.5052 43.6593C44.9052 43.5744 44.5109 43.5231 44.0004 43.5614C43.4872 43.5908 42.8871 43.7523 42.1385 43.8755L42.0938 43.8836C41.7349 43.9424 41.3949 43.7099 41.3324 43.3632C41.3054 43.2074 41.3391 43.0531 41.4176 42.9275Z" fill="#173A4F"/>
<path d="M46.783 42.1542C47.2387 42.345 47.7225 42.465 48.1479 42.3963C48.3596 42.3621 48.5556 42.2821 48.7259 42.1468C48.8965 42.0129 49.0367 41.8211 49.1413 41.5993L49.1446 41.5929C49.2147 41.4442 49.3961 41.3789 49.548 41.4467C49.6849 41.5071 49.754 41.6523 49.7176 41.7878C49.6392 42.0871 49.5033 42.3931 49.2755 42.6551C49.0518 42.9195 48.7386 43.1258 48.4037 43.2442C48.0668 43.3633 47.7158 43.4033 47.3806 43.3982C47.0447 43.3934 46.7198 43.3436 46.4057 43.2736L46.4016 43.2719C46.0724 43.1984 45.8681 42.8811 45.9449 42.5629C46.021 42.2446 46.3492 42.0471 46.6784 42.1206C46.7138 42.1287 46.7509 42.141 46.783 42.1542Z" fill="#173A4F"/>
<path d="M24.2144 44.7184C25.8225 44.7184 27.1261 43.691 27.1261 42.4236C27.1261 41.1563 25.8225 40.1289 24.2144 40.1289C22.6063 40.1289 21.3027 41.1563 21.3027 42.4236C21.3027 43.691 22.6063 44.7184 24.2144 44.7184Z" fill="#173A4F"/>
<path d="M44.6109 44.7184C46.219 44.7184 47.5226 43.691 47.5226 42.4236C47.5226 41.1563 46.219 40.1289 44.6109 40.1289C43.0028 40.1289 41.6992 41.1563 41.6992 42.4236C41.6992 43.691 43.0028 44.7184 44.6109 44.7184Z" fill="#173A4F"/>
<path d="M24.1596 70.3829C24.278 66.7838 24.0036 62.7303 23.1523 58.1582C24.0059 58.3256 24.8874 58.4122 25.7884 58.4122H28.9874C28.9874 61.3481 31.3678 63.7286 34.3044 63.7286C37.242 63.7286 39.6215 61.3481 39.6215 58.4122H42.8214C43.7215 58.4122 44.6053 58.3256 45.4565 58.1582C44.6528 62.4705 44.3668 66.3174 44.4314 69.7646C44.4592 71.2047 44.55 72.5723 44.6912 73.8736C41.8338 75.7916 36.9945 76.0718 34.3044 76.0718C31.6154 76.0718 26.7786 75.7916 23.9211 73.8736H23.9186C24.0387 72.7601 24.1212 71.596 24.1596 70.3829Z" fill="#FECD27"/>
<path d="M45.4568 58.1582C44.6056 58.3256 43.7218 58.4122 42.8208 58.4122H42.4679C41.6993 62.6208 41.4231 66.386 41.4868 69.7646C41.5129 71.2047 41.6044 72.5723 41.7459 73.8734C39.3539 75.4786 35.5774 75.9354 32.832 76.0415C33.3669 76.0619 33.8662 76.0718 34.3047 76.0718C36.9948 76.0718 41.8332 75.7916 44.6906 73.8734C44.5503 72.5723 44.4586 71.2047 44.4317 69.7646C44.3671 66.3172 44.6531 62.4705 45.4568 58.1582Z" fill="#F39314"/>
<path d="M34.3046 72.8305C31.675 72.8305 26.9975 72.5584 24.1197 70.7539C24.0748 71.6232 24.0069 72.4677 23.9187 73.2839H23.9213C26.7787 75.201 31.6155 75.4812 34.3046 75.4812C36.9946 75.4812 41.8339 75.201 44.6914 73.2839C44.6022 72.4686 44.5362 71.6232 44.4913 70.7548C41.6126 72.5584 36.9342 72.8305 34.3046 72.8305Z" fill="#FEFEFE"/>
<path d="M27.4556 73.8734H27.4531C27.574 72.7601 27.6557 71.596 27.6941 70.3829C27.8102 66.85 27.5446 62.8783 26.7302 58.4115H26.3773C25.4763 58.4115 24.5957 58.3256 23.7412 58.1582C24.5924 62.7296 24.8661 66.7828 24.7485 70.3829C24.7101 71.596 24.6276 72.7601 24.5074 73.8734H24.51C27.3674 75.7916 32.2042 76.0709 34.8933 76.0709C35.3321 76.0709 35.832 76.0619 36.3662 76.0408C33.6216 75.9345 29.8474 75.4788 27.4556 73.8734Z" fill="#FEFEFE"/>
<path d="M34.3051 58.4121H39.6221C39.6221 61.3487 37.2426 63.7292 34.3051 63.7292C31.3685 63.7292 28.988 61.3487 28.988 58.4121H34.3051Z" fill="#A3D3F2"/>
<path d="M34.3055 64.906C30.7233 64.906 27.8096 61.9923 27.8096 58.4111C27.8096 57.7599 28.3373 57.2324 28.9882 57.2324C29.6393 57.2324 30.1661 57.7599 30.1661 58.4111C30.1661 60.6926 32.023 62.5495 34.3055 62.5495C36.587 62.5495 38.4437 60.6926 38.4437 58.4111C38.4437 57.7599 38.9714 57.2324 39.6216 57.2324C40.2727 57.2324 40.8005 57.7599 40.8005 58.4111C40.8005 61.9923 37.8865 64.906 34.3055 64.906Z" fill="#173A4F"/>
<path d="M31.7038 66.7556C31.7038 67.6665 30.9653 68.4049 30.0537 68.4049C29.1427 68.4049 28.4043 67.6665 28.4043 66.7556C28.4043 65.8448 29.1427 65.1055 30.0537 65.1055C30.9653 65.1055 31.7038 65.8448 31.7038 66.7556Z" fill="#F39314"/>
<path d="M36.9587 70.0524C36.9587 70.9631 36.2202 71.7025 35.3093 71.7025C34.3985 71.7025 33.6592 70.9631 33.6592 70.0524C33.6592 69.1415 34.3985 68.4023 35.3093 68.4023C36.2202 68.4023 36.9587 69.1415 36.9587 70.0524Z" fill="#F39314"/>
<path d="M41.2722 66.1442C41.2722 67.055 40.5337 67.7943 39.6221 67.7943C38.7111 67.7943 37.9736 67.055 37.9736 66.1442C37.9736 65.2333 38.7111 64.4941 39.6221 64.4941C40.5337 64.4941 41.2722 65.2333 41.2722 66.1442Z" fill="#F39314"/>
<path d="M24.9085 59.0356C25.2584 61.448 25.4772 63.8208 25.5652 66.1373C25.6583 68.5895 25.6046 70.9746 25.4054 73.2737C27.8715 74.2701 31.0508 74.792 34.2818 74.8018C37.4435 74.8113 40.6302 74.3303 43.2206 73.3253C43.0002 71.0003 42.9826 68.587 43.119 66.1998C43.2607 63.7222 43.5694 61.2727 43.9894 58.9817L24.9085 59.0356ZM23.3682 66.2146C23.2689 63.5936 22.9933 60.8858 22.5413 58.1175C22.5332 58.0598 22.5283 58.0008 22.5283 57.9408C22.5283 57.3341 23.0202 56.8423 23.6268 56.8423L45.2616 56.7812C45.3558 56.7756 45.4524 56.7823 45.5492 56.8025C46.1438 56.9261 46.5259 57.5087 46.4023 58.1034C45.8715 60.6614 45.4788 63.4721 45.316 66.3202C45.1706 68.8657 45.2088 71.4432 45.4959 73.8985C45.5473 74.3625 45.2989 74.827 44.8499 75.0273C41.8545 76.3694 38.037 77.0099 34.2818 76.9988C30.4546 76.987 26.6589 76.2976 23.8297 74.9842C23.3837 74.8073 23.0906 74.3507 23.1417 73.8498C23.392 71.4016 23.4682 68.8477 23.3682 66.2146Z" fill="#173A4F"/>
<path d="M47.8122 64.9613L46.8436 59.9502L45.7909 59.6133L45.2434 61.0029L43.9801 64.1612C43.1519 65.228 41.4113 67.4206 41.0745 67.6564C40.7376 67.8922 38.8847 68.4565 38.0004 68.7092L36.8213 71.1095L39.1795 72.7097L44.9065 71.1095L47.8122 64.9613Z" fill="#C8E8FB"/>
<path d="M40.5314 72.1617C39.787 71.8268 38.5793 70.7299 41.3958 69.473C43.0879 68.7184 44.9159 66.0775 46.1354 63.9006C45.8809 62.7669 45.5605 61.5859 45.1554 60.3495C45.3474 63.5907 41.8181 67.9791 39.1136 68.7439C35.6816 69.7165 36.7433 71.697 38.4819 72.4082C39.3956 72.7808 40.5829 72.753 41.7791 72.4244C41.3291 72.3989 40.9002 72.328 40.5314 72.1617Z" fill="#FEFEFE"/>
<path d="M40.8236 73.3981C39.83 73.5176 38.9005 73.4264 38.1408 73.1165C36.7995 72.568 35.9541 71.4995 36.037 70.457C36.0971 69.6917 36.6408 68.6458 38.8868 68.0093C41.2823 67.3316 44.5026 63.2856 44.3317 60.4064C44.3068 59.9829 44.6549 59.6132 45.1097 59.5828C45.5643 59.5523 45.954 59.8719 45.979 60.296C46.1947 63.9303 42.3609 68.6289 39.3413 69.4826C38.1537 69.8193 37.7053 70.252 37.6821 70.5449C37.6525 70.9208 38.1541 71.4294 38.8237 71.7034C39.755 72.0837 41.209 71.933 42.6188 71.3095C44.3065 70.5622 45.6092 69.289 46.0183 67.9869C46.1084 67.6951 46.3778 67.4656 46.7193 67.4245C47.1722 67.3701 47.5806 67.668 47.6313 68.09C47.6444 68.1986 47.6317 68.3082 47.5967 68.4113C47.0439 70.1518 45.441 71.7539 43.3049 72.6995C42.4732 73.0671 41.6278 73.3014 40.8236 73.3981Z" fill="#173A4F"/>
<path d="M46.2542 58.9395C47.4473 60.6239 48.3176 63.7822 46.7595 68.3722" stroke="#173A4F" stroke-width="2"/>
<path d="M29.7191 54.093C33.2547 51.1645 36.9656 54.7889 38.379 56.9671L42.8036 57.1537C43.5742 58.0504 45.2319 60.6515 45.6978 63.8825C46.1636 67.1136 37.0478 68.7028 32.4317 69.0935C30.0543 65.3136 26.1835 57.0215 29.7191 54.093Z" fill="#E85222"/>
<path d="M31.9854 57.6505C32.4433 54.726 35.7566 55.0258 36.5264 55.2813L35.1723 53.5725L30.5953 53.6255L27.8023 57.9421L32.4334 69.0929L35.1723 68.312C34.3361 66.3253 31.5276 60.575 31.9854 57.6505Z" fill="white"/>
<path d="M38.7866 57.8145C38.3016 56.4652 35.5477 52.7955 31.7346 53.581C27.9216 54.3665 28.1837 58.4529 28.7914 60.398L32.4197 68.9666" stroke="#173A4F" stroke-width="2" stroke-linecap="round"/>
<path d="M38.7862 57.8137C40.1549 57.3866 43.7889 57.0089 45.4626 60.5238C47.1364 64.0388 43.7191 66.2949 41.8012 66.9835L32.7785 69.2587" stroke="#173A4F" stroke-width="2" stroke-linecap="round"/>
<path d="M21.0443 64.9613L22.0128 59.9502L23.0656 59.6133L23.613 61.0029L24.8763 64.1612C25.7045 65.228 27.4451 67.4206 27.782 67.6564C28.1189 67.8922 29.9717 68.4565 30.8561 68.7092L32.0352 71.1095L29.677 72.7097L23.9499 71.1095L21.0443 64.9613Z" fill="#C8E8FB"/>
<path d="M28.324 72.1637C29.0684 71.8288 30.2761 70.7319 27.4596 69.475C25.7675 68.7203 23.9396 66.0795 22.7201 63.9025C22.9746 62.7689 23.295 61.5878 23.7001 60.3515C23.5081 63.5927 27.0373 67.9811 29.7419 68.7458C33.1738 69.7184 32.1122 71.699 30.3736 72.4102C29.4599 72.7828 28.2725 72.7549 27.0764 72.4264C27.5263 72.4008 27.9552 72.33 28.324 72.1637Z" fill="#FEFEFE"/>
<path d="M28.0325 73.3969C29.0261 73.5164 29.9556 73.4252 30.7154 73.1153C32.0567 72.5668 32.9021 71.4983 32.8192 70.4558C32.7591 69.6905 32.2154 68.6446 29.9694 68.0081C27.5739 67.3304 24.3536 63.2844 24.5244 60.4052C24.5245 58.9287 24.2013 59.6121 23.7465 59.5816C23.7464 58.7323 22.8771 58.5358 22.8771 60.2948C22.6615 63.9292 26.4952 68.6277 29.5148 69.4814C30.7025 69.8181 31.1509 70.2508 31.174 70.5437C31.2037 70.9196 30.702 71.4282 30.0324 71.7022C29.1012 72.0825 27.6471 71.9318 26.2374 71.3083C24.5496 70.561 23.2469 69.2878 22.8379 67.9857C22.7478 67.6939 22.4784 67.4644 22.1368 67.4233C21.6839 67.3689 21.2756 67.6668 21.2248 68.0888C21.2118 68.1974 21.2244 68.307 21.2594 68.4101C21.8122 70.1506 23.4152 71.7527 25.5513 72.6983C26.383 73.0659 27.2284 73.3002 28.0325 73.3969Z" fill="#173A4F"/>
<path d="M22.6025 58.9395C21.4094 60.6239 20.5391 63.7822 22.0972 68.3722" stroke="#173A4F" stroke-width="2"/>
</svg>
