<svg width="67" height="77" viewBox="0 0 67 77" fill="none" xmlns="http://www.w3.org/2000/svg">
<path d="M22.0252 57.9844C22.8725 62.5496 23.1459 66.5968 23.0278 70.1905C21.1048 74.776 14.0297 77.1431 10.5697 75.0729C8.23842 73.6757 7.07717 70.4751 12.0822 69.6252C16.026 68.9582 21.7472 62.9403 22.0252 57.9844Z" fill="#C8E8FB"/>
<path d="M13.5009 75.0729C12.5079 74.4285 10.9908 72.5428 15.1759 71.1489C17.6901 70.3121 20.7159 66.6366 22.8049 63.5544C22.6382 61.7868 22.3868 59.9353 22.0251 57.9844C21.7462 62.9401 16.0248 68.9579 12.081 69.6252C7.07622 70.4751 8.23747 73.6757 10.5687 75.0729C11.794 75.8054 13.4732 75.9799 15.2158 75.6995C14.5856 75.5786 13.9927 75.3927 13.5009 75.0729Z" fill="#FEFEFE"/>
<path d="M23.029 70.1886C23.1468 66.5949 22.8737 62.5476 22.0264 57.9824C22.876 58.1496 23.7535 58.2361 24.6503 58.2361H27.8347C27.8347 61.1675 30.2042 63.5444 33.1273 63.5444C36.0514 63.5444 38.42 61.1675 38.42 58.2361H41.6053C42.5012 58.2361 43.381 58.1496 44.2283 57.9824C43.4283 62.2882 43.1436 66.1293 43.2079 69.5712C43.2356 71.0091 43.3259 72.3746 43.4665 73.674C40.6222 75.5891 35.805 75.8689 33.1273 75.8689C30.4506 75.8689 25.6359 75.5891 22.7916 73.674H22.7891C22.9087 72.5622 22.9908 71.3999 23.029 70.1886Z" fill="#FECD27"/>
<path d="M44.2281 57.9844C43.3808 58.1515 42.501 58.238 41.6041 58.238H41.2528C40.4878 62.4402 40.2128 66.1996 40.2762 69.5731C40.3022 71.011 40.3933 72.3765 40.5341 73.6757C38.1531 75.2784 34.3939 75.7345 31.6611 75.8404C32.1936 75.8608 32.6905 75.8707 33.1271 75.8707C35.8048 75.8707 40.621 75.591 43.4654 73.6757C43.3257 72.3765 43.2344 71.011 43.2077 69.5731C43.1434 66.1309 43.428 62.2901 44.2281 57.9844Z" fill="#F39314"/>
<path d="M33.1273 72.634C30.5098 72.634 25.8538 72.3623 22.9891 70.5605C22.9444 71.4285 22.8769 72.2717 22.7891 73.0867H22.7916C25.6359 75.0009 30.4506 75.2806 33.1273 75.2806C35.805 75.2806 40.6222 75.0009 43.4665 73.0867C43.3778 72.2726 43.3121 71.4285 43.2674 70.5615C40.4018 72.3623 35.7449 72.634 33.1273 72.634Z" fill="#FEFEFE"/>
<path d="M36.6456 75.8699C38.5703 75.8699 41.5976 75.7215 44.2062 74.9294C44.1502 74.5176 44.0981 74.1007 44.0527 73.6758C41.6726 75.2776 37.9134 75.7335 35.1797 75.8396C35.7121 75.86 36.2098 75.8699 36.6456 75.8699Z" fill="#FEFEFE"/>
<path d="M26.3097 73.6758H26.3072C26.4275 72.5641 26.5088 71.4018 26.5471 70.1905C26.6626 66.663 26.3982 62.6973 25.5876 58.2373H25.2363C24.3394 58.2373 23.4628 58.1515 22.6123 57.9844C23.4596 62.5489 23.7321 66.5959 23.615 70.1905C23.5767 71.4018 23.4946 72.5641 23.375 73.6758H23.3776C26.2219 75.5911 31.0365 75.8699 33.7132 75.8699C34.15 75.8699 34.6477 75.8609 35.1794 75.8399C32.4474 75.7337 28.6905 75.2787 26.3097 73.6758Z" fill="#FEFEFE"/>
<path d="M33.1267 58.2383H38.4194C38.4194 61.1705 36.0508 63.5473 33.1267 63.5473C30.2035 63.5473 27.834 61.1705 27.834 58.2383H33.1267Z" fill="#A3D3F2"/>
<path d="M33.1273 64.7226C29.5615 64.7226 26.6611 61.8133 26.6611 58.2374C26.6611 57.5872 27.1864 57.0605 27.8344 57.0605C28.4825 57.0605 29.0069 57.5872 29.0069 58.2374C29.0069 60.5155 30.8552 62.3695 33.1273 62.3695C35.3983 62.3695 37.2465 60.5155 37.2465 58.2374C37.2465 57.5872 37.7718 57.0605 38.419 57.0605C39.0672 57.0605 39.5925 57.5872 39.5925 58.2374C39.5925 61.8133 36.6919 64.7226 33.1273 64.7226Z" fill="#173A4F"/>
<path d="M13.7042 76.9999C12.2828 76.9999 10.9874 76.6917 9.96857 76.0825C8.17 75.0048 7.15903 73.2284 7.45268 71.6609C7.66727 70.5099 8.61139 69.0214 11.8868 68.4651C15.3799 67.8737 20.6076 62.3192 20.8549 57.917C20.8916 57.2693 21.4453 56.7718 22.0918 56.8086C22.7381 56.8453 23.2334 57.4016 23.1968 58.0501C22.8845 63.607 16.6811 70.0401 12.2779 70.7848C10.546 71.0791 9.84018 71.6542 9.75789 72.0946C9.65232 72.6599 10.2735 73.5237 11.1713 74.0619C12.4201 74.8092 14.4962 74.846 16.5901 74.1567C19.0969 73.3304 21.15 71.6354 21.9477 69.7333C22.1243 69.3067 22.5431 69.0075 23.0318 69.0075C23.6797 69.0075 24.205 69.5344 24.205 70.1844C24.205 70.3515 24.1686 70.5157 24.1017 70.6657C23.0269 73.2072 20.4947 75.3468 17.3219 76.3923C16.0867 76.7985 14.8546 76.9999 13.7042 76.9999Z" fill="#173A4F"/>
<path d="M58.0721 68.474C58.0742 72.9657 47.927 72.7255 43.8271 67.9591C43.879 65.0121 44.1888 61.7919 44.8436 58.25C51.5154 67.1892 58.0703 64.0563 58.0721 68.474Z" fill="#C8E8FB"/>
<path d="M52.898 72.8611C49.4265 72.8627 45.2928 71.4648 42.9399 68.7291C42.5169 68.2369 42.5718 67.4938 43.062 67.0702C43.553 66.645 44.2929 66.6991 44.7161 67.1918C47.2552 70.1441 52.5558 71.1896 55.4208 70.1208C56.9002 69.5689 56.8999 68.7458 56.8997 68.475C56.8992 67.418 56.4733 67.1784 54.2983 66.4233C51.7075 65.5239 47.7939 64.1653 43.905 58.9557C43.5168 58.4362 43.6231 57.6982 44.1408 57.3095C44.6601 56.9195 45.3944 57.0252 45.7833 57.5463C49.2405 62.1767 52.6065 63.3464 55.0659 64.2002C57.2148 64.9454 59.2445 65.6504 59.2457 68.4741C59.2466 70.2091 58.1509 71.6132 56.2389 72.326C55.2825 72.6828 54.1324 72.8604 52.898 72.8611Z" fill="#173A4F"/>
<path d="M30.5383 66.5675C30.5383 67.4771 29.8032 68.2144 28.8957 68.2144C27.989 68.2144 27.2539 67.4771 27.2539 66.5675C27.2539 65.6582 27.989 64.9199 28.8957 64.9199C29.8032 64.9199 30.5383 65.6582 30.5383 66.5675Z" fill="#F39314"/>
<path d="M35.7687 69.8624C35.7687 70.7718 35.0337 71.5101 34.1269 71.5101C33.2204 71.5101 32.4844 70.7718 32.4844 69.8624C32.4844 68.9529 33.2204 68.2148 34.1269 68.2148C35.0337 68.2148 35.7687 68.9529 35.7687 69.8624Z" fill="#F39314"/>
<path d="M40.0617 65.9562C40.0617 66.8655 39.3267 67.6037 38.4192 67.6037C37.5125 67.6037 36.7783 66.8655 36.7783 65.9562C36.7783 65.0466 37.5125 64.3086 38.4192 64.3086C39.3267 64.3086 40.0617 65.0466 40.0617 65.9562Z" fill="#F39314"/>
<path d="M23.7736 58.8584C24.1219 61.2671 24.3397 63.6363 24.4273 65.9493C24.5199 68.3978 24.4665 70.7792 24.2682 73.0749C26.723 74.0698 29.8877 74.5909 33.1039 74.6006C36.2511 74.6101 39.423 74.1299 42.0018 73.1265C41.7823 70.8049 41.7648 68.3952 41.9006 66.0117C42.0416 63.5378 42.3489 61.0921 42.767 58.8045L23.7736 58.8584ZM22.2403 66.0265C22.1414 63.4095 21.8671 60.7057 21.4172 57.9416C21.4091 57.8841 21.4043 57.8251 21.4043 57.7652C21.4043 57.1595 21.8939 56.6684 22.4978 56.6684L44.0333 56.6073C44.1272 56.6018 44.2233 56.6085 44.3196 56.6286C44.9115 56.7521 45.2919 57.3338 45.1688 57.9275C44.6405 60.4817 44.2496 63.2881 44.0875 66.1319C43.9428 68.6736 43.9808 71.2472 44.2666 73.6987C44.3178 74.162 44.0705 74.6258 43.6235 74.8258C40.6418 76.1659 36.8418 76.8054 33.1039 76.7943C29.2942 76.7825 25.5159 76.0942 22.6997 74.7828C22.2558 74.6062 21.9639 74.1502 22.0149 73.6501C22.2641 71.2056 22.3399 68.6556 22.2403 66.0265Z" fill="#173A4F"/>
<path d="M63.7128 1.81556L63.7039 1.83036C63.4819 1.70065 63.2323 1.61904 62.9501 1.5832C58.8722 1.07177 50.7294 18.9654 50.7294 27.4368C50.7294 32.1185 51.8643 34.4602 52.9989 36.5989C53.6207 37.766 54.2422 38.8753 54.6762 40.2718V40.2751C55.0364 41.4309 55.2683 42.7848 55.2683 44.5311C55.2683 51.2022 50.5212 56.7576 44.2282 57.9844C43.3809 58.1516 42.5011 58.238 41.6049 58.238H24.6502C23.7524 58.238 22.8758 58.1516 22.0262 57.9844C17.9036 57.1819 14.4429 54.5163 12.5489 50.8997C11.5488 48.996 10.9861 46.8312 10.9861 44.5311C10.9861 42.7726 11.2203 41.4105 11.5845 40.2515C12.018 38.864 12.6367 37.7605 13.2556 36.5989C13.9826 35.231 14.707 33.7809 15.1348 31.6871C15.3787 30.5077 15.5251 29.1244 15.5251 27.4368C15.5251 18.9654 7.38228 1.07177 3.30363 1.5832C3.01897 1.61904 2.76681 1.70389 2.54415 1.83267L2.53516 1.8188C5.79577 -0.187618 13.7484 2.40121 17.8328 10.795C22.2196 19.8185 21.7033 25.8454 31.4854 26.4278C32.001 26.4604 32.5498 26.4743 33.1272 26.4743C44.6184 26.4743 43.8039 20.2983 48.4239 10.795C52.5035 2.40699 60.452 -0.18438 63.7128 1.81556Z" fill="#C8E8FB"/>
<path d="M54.6767 40.2711C54.2427 38.874 53.6212 37.7656 52.9994 36.5975C51.9886 34.693 50.9802 32.623 50.7712 28.8849C49.7604 28.7503 48.7718 28.5448 47.8107 28.2715C47.9374 32.4043 50.8965 36.822 50.8965 45.1244C50.8965 51.143 44.8891 57.0721 33.1278 57.0721C32.2641 57.0721 39.5701 58.2366 38.6726 58.2366H41.6054C42.5016 58.2366 43.3814 58.1511 44.2287 57.9839C50.5224 56.7572 55.2695 51.201 55.2695 44.5307C55.2695 42.7834 55.037 41.4302 54.6767 40.2746V40.2711Z" fill="#A3D3F2"/>
<path d="M63.704 1.82821C66.7654 3.57613 64.3934 13.611 60.2179 20.4291C55.9334 27.4233 53.2834 31.9534 54.6756 40.2706C54.2413 38.8734 53.6209 37.765 52.999 36.5969C51.8638 34.459 50.7295 32.1173 50.7295 27.4356C50.7295 18.9641 58.8723 1.06962 62.9502 1.58105C63.2324 1.61688 63.482 1.69942 63.704 1.82821Z" fill="#F7C8D7"/>
<path d="M54.4887 33.3432C53.9991 31.836 53.6607 29.9845 53.6607 27.4347C53.6607 20.031 59.8821 5.42673 64.173 2.20831C64.0334 2.05734 63.8787 1.9267 63.704 1.82728C63.482 1.6985 63.2324 1.61688 62.9503 1.58105C58.8723 1.06962 50.7295 18.9633 50.7295 27.4347C50.7295 32.1164 51.8638 34.4581 52.999 36.5961C53.6209 37.7639 54.2413 38.8726 54.6756 40.2697C54.2374 37.6499 54.2008 35.4061 54.4887 33.3432Z" fill="#F0879E"/>
<path d="M15.5252 27.4346C15.5252 32.1166 14.39 34.4582 13.2551 36.596C12.6369 37.7582 12.0182 38.8618 11.584 40.2493C12.9656 31.9436 10.3204 27.4175 6.03912 20.4284C1.86366 13.6168 -0.508386 3.59001 2.54432 1.83075C2.76698 1.70174 3.01915 1.61712 3.30381 1.58105C7.38246 1.06962 15.5252 18.9634 15.5252 27.4346Z" fill="#F7C8D7"/>
<path d="M9.55825 20.4284C5.61767 14.0004 3.28643 4.71253 5.60062 2.20856C4.98266 1.74522 4.40365 1.51586 3.88987 1.58129C3.6059 1.61713 3.35397 1.70198 3.13108 1.83076C0.078606 3.58933 2.45065 13.6161 6.6261 20.4284C10.9071 27.4169 13.5516 31.9437 12.1709 40.2496C12.605 38.8621 13.2232 37.7585 13.8418 36.5963C14.359 35.6224 14.8753 34.6019 15.2852 33.3402C14.6575 28.8531 12.4929 25.2188 9.55825 20.4284Z" fill="#FEFEFE"/>
<path d="M36.6452 26.4731C48.1374 26.4731 47.3219 20.2968 51.9429 10.7931C54.7441 5.03207 59.3709 2.00603 63.0513 1.32328C59.3214 0.462722 52.6374 3.33547 49.0108 10.7931C44.5986 19.8654 45.1409 25.9062 35.2012 26.4347C35.6606 26.4592 36.1395 26.4731 36.6452 26.4731Z" fill="#FEFEFE"/>
<path d="M16.0672 50.8992C15.0678 48.9954 14.5044 46.8316 14.5044 44.5306C14.5044 42.772 14.7386 41.41 15.1021 40.2509C15.5361 38.8635 16.155 37.7608 16.7739 36.5983C17.5009 35.2305 18.2254 33.7811 18.6539 31.6865C18.8961 30.5072 19.0434 29.1245 19.0434 27.4363C19.0434 18.9657 10.9006 1.07117 6.82174 1.5826C6.5373 1.61844 6.28513 1.70421 6.06224 1.833L6.05417 1.8182C6.41675 1.59485 6.8404 1.43255 7.30808 1.32411C5.62729 1.01244 4.14335 1.18955 3.12109 1.8182L3.13009 1.833C3.35298 1.70421 3.60492 1.61844 3.88958 1.5826C7.96823 1.07117 16.1112 18.9657 16.1112 27.4363C16.1112 29.1245 15.9649 30.5072 15.7208 31.6865C15.2932 33.7811 14.5685 35.2305 13.8418 36.5983C13.2229 37.7608 12.604 38.8635 12.1707 40.2509C11.8065 41.41 11.5723 42.772 11.5723 44.5306C11.5723 46.8316 12.1349 48.9954 13.1351 50.8992C15.0288 54.5167 18.4895 57.1814 22.6122 57.9848C23.462 58.152 24.3386 58.2375 25.2362 58.2375H28.1683C27.2708 58.2375 26.3942 58.152 25.5444 57.9848C21.421 57.1814 17.9619 54.5167 16.0672 50.8992Z" fill="#FEFEFE"/>
<path d="M25.6591 43.8629C24.9379 43.7399 24.3598 43.5783 23.8663 43.5489C23.3735 43.5105 22.9946 43.5621 22.4165 43.6467C21.8407 43.7276 21.1114 43.9045 20.3494 44.0962C19.9656 44.1852 19.5558 44.261 19.1379 44.2446C18.7223 44.2307 18.3132 44.1304 17.958 43.9658C17.81 43.898 17.745 43.7218 17.8132 43.5734C17.8702 43.4479 18.0034 43.3824 18.1327 43.4046L18.1376 43.4053C18.7809 43.5195 19.3461 43.3017 19.8794 42.9519C20.4234 42.597 20.9065 42.0253 21.6577 41.6086C22.0309 41.4047 22.4799 41.2553 22.9563 41.2105C23.4328 41.1666 23.9265 41.2186 24.3695 41.3589C25.2583 41.6526 25.9325 42.213 26.3536 42.9152C26.5341 43.2169 26.4373 43.6076 26.1365 43.7887C26.0017 43.8703 25.8479 43.8955 25.7038 43.8712L25.6591 43.8629Z" fill="#173A4F"/>
<path d="M21.5494 43.2596C21.2468 43.3296 20.9338 43.3787 20.6102 43.3844C20.2875 43.3893 19.9491 43.3493 19.6248 43.2302C19.3019 43.1121 19.0011 42.9049 18.7846 42.6413C18.5652 42.3796 18.4343 42.0737 18.3587 41.7743C18.3188 41.6162 18.414 41.4562 18.571 41.4155C18.7107 41.3796 18.8531 41.4513 18.9107 41.5785L18.9139 41.5859C19.0149 41.8078 19.1497 41.9995 19.3141 42.1331C19.4784 42.2686 19.667 42.3486 19.871 42.3828C20.2808 42.4513 20.7468 42.3313 21.1859 42.1405C21.4844 42.0118 21.8315 42.1486 21.9609 42.448C22.0902 42.7475 21.9528 43.0957 21.6543 43.2254C21.6218 43.2392 21.5893 43.2499 21.5568 43.258L21.5494 43.2596Z" fill="#173A4F"/>
<path d="M39.9005 42.9152C40.3216 42.2128 40.9958 41.6526 41.8846 41.359C42.3276 41.2187 42.822 41.1664 43.2987 41.2106C43.7752 41.2554 44.2232 41.4046 44.5964 41.6085C45.3478 42.0253 45.8307 42.5971 46.3747 42.9518C46.9081 43.3018 47.4732 43.5196 48.1166 43.4061L48.1214 43.4054C48.2832 43.3767 48.4353 43.4845 48.4637 43.6461C48.4881 43.7813 48.4157 43.9119 48.2961 43.9658C47.9409 44.1304 47.5327 44.2308 47.1164 44.2446C46.6992 44.2611 46.2885 44.185 45.9047 44.0962C45.1429 43.9046 44.4143 43.7274 43.8385 43.6468C43.2605 43.5619 42.8806 43.5106 42.3887 43.549C41.8943 43.5783 41.3162 43.7397 40.595 43.8629L40.5519 43.871C40.2061 43.9297 39.8786 43.6974 39.8184 43.3508C39.7924 43.195 39.8249 43.0408 39.9005 42.9152Z" fill="#173A4F"/>
<path d="M45.0691 42.1403C45.5082 42.331 45.9743 42.451 46.3841 42.3823C46.5881 42.3481 46.7768 42.2681 46.941 42.1329C47.1053 41.999 47.2404 41.8073 47.3411 41.5856L47.3443 41.5791C47.4119 41.4305 47.5866 41.3653 47.7329 41.433C47.8648 41.4934 47.9314 41.6386 47.8964 41.774C47.8208 42.0732 47.6898 42.3791 47.4704 42.641C47.2549 42.9053 46.9532 43.1115 46.6305 43.2299C46.3059 43.349 45.9678 43.389 45.6449 43.3839C45.3213 43.379 45.0082 43.3293 44.7056 43.2593L44.7017 43.2577C44.3845 43.1841 44.1877 42.8669 44.2617 42.5488C44.335 42.2307 44.6512 42.0332 44.9684 42.1067C45.0025 42.1148 45.0382 42.1271 45.0691 42.1403Z" fill="#173A4F"/>
<path d="M35.5904 44.3631C35.3862 43.4806 33.8649 43.4668 33.0372 43.5303C32.2093 43.5932 30.7076 43.8362 30.6384 44.74C30.5506 45.8852 32.6599 47.616 33.3422 47.5644C34.0242 47.5124 35.8481 45.4822 35.5904 44.3631Z" fill="#173A4F"/>
<path d="M34.3281 44.9413L34.2875 45.8541C34.2437 46.1687 34.2168 46.4746 34.1492 46.7911C34.016 47.4175 33.7956 48.0857 33.3296 48.6901C33.2053 48.8376 33.0915 48.986 32.9239 49.1076L32.6888 49.2928C32.6044 49.3458 32.5115 49.3915 32.4221 49.438C32.0644 49.6288 31.6578 49.6949 31.2814 49.694C30.5235 49.6533 29.8567 49.3809 29.3387 48.7701C29.1306 48.5252 29.1605 48.1567 29.4046 47.9486C29.6176 47.7666 29.9233 47.7659 30.1365 47.9305L30.2227 47.9976C30.334 48.0841 30.5122 48.1622 30.6885 48.208C30.8715 48.2503 31.0578 48.2519 31.2203 48.2242C31.5497 48.155 31.7417 47.9682 31.8887 47.6778C32.0293 47.3784 32.1075 46.9706 32.1139 46.5236C32.1204 46.3035 32.0946 46.0619 32.0888 45.836L31.9897 45.1191L31.9798 45.0497C31.8903 44.4021 32.3417 43.8042 32.9873 43.7145C33.6329 43.6248 34.229 44.0768 34.3184 44.7251C34.3281 44.7954 34.3315 44.8719 34.3281 44.9413Z" fill="#173A4F"/>
<path d="M34.3283 44.9408L34.3389 45.6643C34.3665 45.8885 34.3781 46.1308 34.4161 46.3486C34.4901 46.79 34.6284 47.1805 34.8137 47.4554C35.0015 47.7197 35.2196 47.8764 35.5561 47.8942C35.7212 47.8968 35.9042 47.8674 36.0782 47.7981C36.2465 47.7262 36.4108 47.621 36.5083 47.519L36.5823 47.4399C36.8043 47.2066 37.1728 47.1995 37.4045 47.4212C37.6069 47.6145 37.6396 47.9204 37.4971 48.1504C37.0776 48.8323 36.4587 49.2017 35.7163 49.3559C35.3441 49.4137 34.9326 49.4098 34.5495 49.2752C34.4543 49.2426 34.3559 49.2117 34.2642 49.1724L34.004 49.0255C33.8209 48.9301 33.6852 48.8006 33.5395 48.6732C32.9891 48.1472 32.6703 47.5199 32.4451 46.9204C32.3305 46.6178 32.2582 46.3193 32.1671 46.0143L31.9899 45.1186C31.8622 44.4768 32.2775 43.8537 32.9176 43.7263C33.5568 43.5982 34.178 44.0144 34.3057 44.6562C34.3186 44.7256 34.3266 44.7956 34.3276 44.8643L34.3283 44.9408Z" fill="#173A4F"/>
<path d="M3.47347 2.74821C3.46125 2.74821 3.45388 2.7489 3.44903 2.74983C3.32549 2.76532 3.22223 2.79792 3.13188 2.85017C2.7912 3.0467 2.60495 3.54356 2.50745 3.92436C1.68135 7.18369 3.75629 14.4584 7.03834 19.8141C10.1551 24.9011 12.6254 28.9338 13.0564 34.3628C13.7474 32.7934 14.3516 30.7185 14.3516 27.4363C14.3516 20.2888 8.47181 6.81422 4.63541 3.41709C3.93608 2.79792 3.57189 2.74821 3.47347 2.74821ZM33.1272 59.4137H24.6502C23.6842 59.4137 22.7253 59.3207 21.8001 59.1381C14.855 57.7841 9.81261 51.6398 9.81261 44.5306C9.81261 42.8456 10.0184 41.3552 10.4405 39.9793C11.6886 32.3506 9.44266 28.233 5.04039 21.0464C1.41536 15.1321 -0.74117 7.19109 0.234756 3.34449C0.53809 2.14961 1.11848 1.29715 1.96026 0.812773C2.32029 0.603068 2.72527 0.468505 3.15953 0.414634C4.10434 0.294637 5.12499 0.71243 6.18781 1.65275C10.8047 5.74073 16.6976 20.199 16.6976 27.4363C16.6976 32.2193 15.5591 34.76 14.2907 37.1507L14.1312 37.4492C13.5955 38.4508 13.0889 39.3985 12.7261 40.5298C12.7123 40.5943 12.692 40.6579 12.6685 40.7175C12.3253 41.8553 12.1586 43.1041 12.1586 44.5306C12.1586 50.5159 16.4023 55.6887 22.2498 56.829C23.0286 56.9823 23.8361 57.0607 24.6502 57.0607H33.1272C33.7751 57.0607 34.2997 57.5867 34.2997 58.2368C34.2997 58.886 33.7751 59.4137 33.1272 59.4137Z" fill="#173A4F"/>
<path d="M33.1275 27.6504C23.3558 27.6504 21.6052 23.1684 19.182 16.9646C18.5209 15.2713 17.7704 13.3513 16.7784 11.3104C14.6903 7.01852 11.1978 3.8008 7.43611 2.7021C5.6977 2.1939 4.09413 2.23876 3.1484 2.82117C2.59636 3.16128 1.87421 2.98671 1.53515 2.43297C1.19701 1.8783 1.37012 1.15485 1.92239 0.814747C3.44529 -0.12257 5.69355 -0.257828 8.09164 0.443657C12.4778 1.72409 16.5133 5.40099 18.887 10.2779C19.9203 12.4059 20.6888 14.3716 21.3662 16.1073C23.756 22.2262 24.9562 25.2971 33.1275 25.2971C33.7748 25.2971 34.3001 25.825 34.3001 26.4742C34.3001 27.1234 33.7748 27.6504 33.1275 27.6504Z" fill="#173A4F"/>
<path d="M62.7798 2.74732C62.6823 2.74732 62.3178 2.79703 61.6178 3.4162C57.7821 6.81333 51.9014 20.2879 51.9014 27.4354C51.9014 30.7192 52.5058 32.7941 53.1984 34.3642C53.6295 28.9369 56.1006 24.9018 59.2174 19.8132C62.5034 14.4485 64.576 7.1673 63.7442 3.91537C63.6467 3.53596 63.4604 3.04257 63.1237 2.8509C63.0294 2.79633 62.9278 2.76442 62.8042 2.74893C62.8001 2.74801 62.7927 2.74732 62.7798 2.74732ZM54.6743 41.4473C54.1718 41.4473 53.7115 41.1219 53.5555 40.6212C53.1911 39.4489 52.6715 38.4776 52.1227 37.4483L51.9634 37.1514C50.6948 34.7598 49.5557 32.2184 49.5557 27.4354C49.5557 20.1981 55.4493 5.73983 60.0654 1.65186C61.1283 0.711536 62.1463 0.294669 63.096 0.414666C63.5303 0.468306 63.9327 0.601249 64.2907 0.81003C65.1281 1.28724 65.7103 2.13716 66.0153 3.32973C66.9983 7.17147 64.8459 15.1183 61.2161 21.0448C57.1635 27.6629 54.4858 32.0339 55.8323 40.0762C55.934 40.6863 55.5477 41.2711 54.9475 41.4146C54.8564 41.4368 54.7654 41.4473 54.6743 41.4473Z" fill="#173A4F"/>
<path d="M56.9811 41.4525C56.3332 41.4525 55.8086 40.9256 55.8086 40.2763C55.8086 39.6262 56.3332 39.0977 56.9811 39.0977C57.6293 39.0977 58.1537 39.6236 58.1537 40.2731V40.2763C58.1537 40.9256 57.6293 41.4525 56.9811 41.4525Z" fill="#173A4F"/>
<path d="M41.6036 59.4141H33.1276C32.4794 59.4141 31.9541 58.8871 31.9541 58.2379C31.9541 57.5878 32.4794 57.0608 33.1276 57.0608H41.6036C42.421 57.0608 43.2275 56.9834 44.0017 56.8301C49.8522 55.6898 54.0952 50.5176 54.0952 44.5307C54.0952 43.0651 53.9196 41.7886 53.5561 40.6263C53.3634 40.0065 53.7073 39.3457 54.3262 39.1517C54.9451 38.9575 55.602 39.3034 55.7956 39.9232C56.2298 41.3165 56.4412 42.8237 56.4412 44.5307C56.4412 51.6418 51.3988 57.7852 44.4521 59.1392C43.5324 59.3211 42.5731 59.4141 41.6036 59.4141Z" fill="#173A4F"/>
<path d="M33.1269 27.6499C32.4787 27.6499 31.9541 27.1229 31.9541 26.4737C31.9541 25.8245 32.4787 25.2966 33.1269 25.2966C41.2973 25.2966 42.4975 22.2266 44.888 16.1084C45.5661 14.3727 46.3355 12.4054 47.3697 10.2781C49.7392 5.40558 53.7699 1.73007 58.1535 0.445475C60.5336 -0.251848 62.7674 -0.125378 64.2896 0.788818C64.6482 0.990431 64.8914 1.37539 64.8914 1.81746C64.8914 2.46669 64.3652 2.99362 63.7189 2.99362C63.5333 2.99362 63.3522 2.94946 63.1894 2.86715C63.1592 2.85258 63.13 2.83524 63.1007 2.81813C62.1543 2.23757 60.55 2.19502 58.8107 2.70484C55.0515 3.80608 51.5622 7.02288 49.4783 11.3099C48.4846 13.3524 47.7342 15.2724 47.0722 16.9664C44.6483 23.1695 42.8974 27.6499 33.1269 27.6499Z" fill="#173A4F"/>
<path d="M46.3687 46.3652C44.7488 46.3652 43.4365 47.0244 43.4365 47.8366C43.4365 48.6482 44.7488 49.3064 46.3687 49.3064C47.9877 49.3064 49.3 48.6482 49.3 47.8366C49.3 47.0244 47.9877 46.3652 46.3687 46.3652Z" fill="#F0879E"/>
<path d="M19.8865 46.3652C18.2666 46.3652 16.9541 47.0244 16.9541 47.8366C16.9541 48.6482 18.2666 49.3064 19.8865 49.3064C21.5053 49.3064 22.8187 48.6482 22.8187 47.8366C22.8187 47.0244 21.5053 46.3652 19.8865 46.3652Z" fill="#F0879E"/>
<path fill-rule="evenodd" clip-rule="evenodd" d="M19.0732 18.8086H47.2499V33.7353C38.0298 37.1271 28.4966 36.833 19.0732 33.7353V18.8086Z" fill="#FEFEFE"/>
<path d="M19.0744 17.709H47.2511C47.8573 17.709 48.3489 18.2022 48.3489 18.8102V33.737C48.3489 34.2355 48.0184 34.6567 47.5652 34.7924C42.9528 36.4807 38.2672 37.2731 33.5588 37.2731C28.6248 37.2731 23.6643 36.4026 18.7356 34.7823C18.2727 34.6315 17.9786 34.2003 17.9786 33.737L17.9766 18.8102C17.9766 18.2022 18.4682 17.709 19.0744 17.709ZM46.1532 19.9115H20.1723V32.9347C24.6294 34.3259 29.1075 35.0706 33.5588 35.0706C37.7954 35.0706 42.0075 34.3955 46.1532 32.9615V19.9115Z" fill="#173A4F"/>
<path fill-rule="evenodd" clip-rule="evenodd" d="M21.8389 17.5762H46.172L45.9415 31.1062C38.0747 34.0647 29.8341 34.0226 21.8389 31.1062V17.5762Z" fill="#F39314"/>
<path fill-rule="evenodd" clip-rule="evenodd" d="M21.8164 17.5625H46.1495V31.0925C45.5811 31.286 45.0118 31.4662 44.4418 31.6338V19.153H21.8164V17.5625Z" fill="#E85222"/>
<path d="M31.5203 13.8536L6.89153 21.8279C5.98494 22.1214 6.22992 22.6767 7.43872 23.068L30.9731 30.688C32.1819 31.0794 33.8968 31.1587 34.8034 30.8652L59.4322 22.8909C60.3388 22.5973 60.0938 22.0421 58.885 21.6507L35.3506 14.0307C34.1418 13.6393 32.4269 13.56 31.5203 13.8536Z" fill="#FEFEFE"/>
<path d="M6.18529 20.8997L31.5381 12.6909C32.027 12.5328 32.7517 12.4942 33.5246 12.5598C34.2373 12.6204 35.0168 12.7668 35.6892 12.9846L59.2241 20.6047C59.9057 20.8255 60.4231 21.1043 60.7306 21.388C60.7638 21.4186 60.7947 21.4505 60.8231 21.484C61.0118 21.6828 61.1391 21.9036 61.2009 22.1413C61.3131 22.5695 61.2269 22.9656 60.9321 23.3147C60.7449 23.535 60.4803 23.7082 60.1378 23.8189L34.7849 32.0277C34.2963 32.1859 33.5737 32.2245 32.8036 32.1595L32.7957 32.1588C32.0837 32.098 31.3056 31.9514 30.6341 31.7341L7.09922 24.114C6.41787 23.8934 5.90017 23.6143 5.59268 23.3306C5.55949 23.3001 5.5286 23.268 5.50002 23.2347C5.31147 23.0358 5.18424 22.8148 5.12247 22.5774C5.01022 22.1496 5.09712 21.751 5.39123 21.404C5.57863 21.1834 5.843 21.0105 6.18529 20.8997ZM32.226 14.7815L8.82057 22.3598L31.3123 29.6421C31.8401 29.8128 32.4396 29.9277 32.9804 29.9741L32.9861 29.9746C33.4729 30.0158 33.8828 30.0065 34.0971 29.9371L57.5027 22.3589L35.0111 15.0765C34.4802 14.9048 33.8768 14.7898 33.3333 14.7438C32.849 14.7029 32.4405 14.7122 32.226 14.7815Z" fill="#173A4F"/>
<path d="M32.0134 15.9031L14.7841 21.4817C14.1499 21.687 14.3213 22.0755 15.1669 22.3493L31.6306 27.68C32.4762 27.9538 33.6758 28.0093 34.3101 27.8039L51.5393 22.2253C52.1735 22.02 52.0022 21.6316 51.1565 21.3578L34.6928 16.0271C33.8472 15.7533 32.6476 15.6978 32.0134 15.9031Z" fill="#FECD27"/>
<path d="M61.2244 43.2711C61.2244 43.8792 60.7378 44.3724 60.1376 44.3724C59.5374 44.3724 59.0508 43.8792 59.0508 43.2711V22.0934C59.0508 21.4854 59.5374 20.9922 60.1376 20.9922C60.7378 20.9922 61.2244 21.4854 61.2244 22.0934V43.2711Z" fill="#173A4F"/>
<path fill-rule="evenodd" clip-rule="evenodd" d="M60.1381 31.4102C61.1648 31.4102 61.1187 33.304 61.9491 33.9095C62.7799 34.5148 64.5614 33.8855 64.8788 34.8648C65.196 35.8442 63.3858 36.3857 63.0687 37.3649C62.7513 38.3445 63.8987 39.8497 63.068 40.455C62.2375 41.0605 61.1648 39.5008 60.1381 39.5008C59.1115 39.5008 58.039 41.0605 57.2083 40.455C56.3778 39.8499 57.5247 38.3445 57.2076 37.3651C56.8904 36.3857 55.0803 35.8445 55.3975 34.8648C55.7149 33.8855 57.4964 34.515 58.3269 33.9095C59.1576 33.3042 59.1115 31.4102 60.1381 31.4102Z" fill="#FECD27"/>
<path d="M60.1375 30.3105C61.4656 30.3105 61.8372 31.2636 62.2247 32.2612C62.3575 32.5988 62.4939 32.9493 62.5919 33.0208C62.6933 33.0947 63.0648 33.1162 63.424 33.1368C64.4895 33.1981 65.5086 33.2568 65.9203 34.5266C66.3319 35.7987 65.5434 36.4459 64.7187 37.1228C64.4377 37.3533 64.1473 37.592 64.1102 37.7064C64.0721 37.8241 64.1671 38.1868 64.2588 38.5371L64.2699 38.5834C64.5356 39.6014 64.7733 40.5729 63.7107 41.347C62.6352 42.1315 61.7766 41.5784 60.88 41.0009C60.5769 40.8057 60.2631 40.6037 60.1375 40.6037C60.0119 40.6037 59.6984 40.8057 59.3953 41.0009C58.4982 41.5784 57.6406 42.1315 56.5644 41.347C55.4868 40.5616 55.7457 39.572 56.0165 38.5371L56.0292 38.493C56.117 38.157 56.2016 37.8204 56.1649 37.7066C56.1278 37.5922 55.8371 37.3533 55.5564 37.1228C54.7319 36.4466 53.9432 35.7982 54.3548 34.5266C54.7665 33.2573 55.7855 33.1981 56.8509 33.1368C57.21 33.1162 57.5816 33.0947 57.683 33.0208C57.7835 32.9477 57.9188 32.6002 58.049 32.2647C58.4369 31.2659 58.8087 30.3105 60.1375 30.3105ZM60.1848 33.0566C59.8981 32.3177 60.3772 32.3174 60.0903 33.0564C59.843 33.6931 59.5869 34.3516 58.9696 34.8015C58.3535 35.2505 57.6505 35.2917 56.9707 35.3305C56.1628 35.377 56.3221 34.9083 56.9458 35.4198C57.47 35.85 58.0121 36.2951 58.2491 37.0269C58.4796 37.7385 58.3141 38.4053 58.1458 39.0499L58.1347 39.0962C57.9314 39.8751 57.526 39.5926 58.212 39.1512C58.7841 38.7824 59.3762 38.4012 60.1375 38.4012C60.8989 38.4012 61.4908 38.7827 62.0633 39.1512C62.6723 39.5438 62.3342 39.836 62.1406 39.0962C61.9679 38.4375 61.7902 37.7554 62.026 37.0267C62.263 36.2947 62.8051 35.8498 63.3292 35.4198C63.9527 34.9083 64.1129 35.377 63.3041 35.3305C62.6244 35.2917 61.9213 35.2505 61.3052 34.8015C60.6854 34.35 60.431 33.694 60.1848 33.0608V33.0566Z" fill="#173A4F"/>
</svg>
