<svg width="68" height="75" viewBox="0 0 68 75" fill="none" xmlns="http://www.w3.org/2000/svg">
<path d="M23.0894 56.4766C23.9431 60.9231 24.2186 64.8653 24.0997 68.3655C22.162 72.8319 15.0331 75.1375 11.5468 73.1211C9.19778 71.7602 8.02771 68.6428 13.0708 67.8149C17.0446 67.1652 22.8093 61.3037 23.0894 56.4766Z" fill="#C8E8FB"/>
<path d="M14.5012 73.1221C13.5007 72.4945 11.972 70.6577 16.189 69.3C18.7224 68.485 21.7711 64.905 23.876 61.9028C23.7081 60.1812 23.4547 58.3778 23.0903 56.4775C22.8093 61.3045 17.0444 67.166 13.0706 67.8159C8.02773 68.6438 9.19781 71.7612 11.5468 73.1221C12.7814 73.8355 14.4734 74.0056 16.2292 73.7324C15.5942 73.6146 14.9969 73.4335 14.5012 73.1221Z" fill="#FEFEFE"/>
<path d="M24.1001 68.3656C24.2188 64.8653 23.9436 60.9231 23.0898 56.4766C23.9459 56.6394 24.8301 56.7236 25.7338 56.7236H28.9423C28.9423 59.5789 31.3299 61.894 34.2753 61.894C37.2216 61.894 39.6082 59.5789 39.6082 56.7236H42.8177C43.7204 56.7236 44.6069 56.6394 45.4607 56.4766C44.6545 60.6705 44.3677 64.4117 44.4325 67.7643C44.4604 69.1648 44.5514 70.4949 44.6931 71.7605C41.8271 73.6258 36.9733 73.8983 34.2753 73.8983C31.5781 73.8983 26.7269 73.6258 23.8609 71.7605H23.8584C23.9789 70.6775 24.0616 69.5454 24.1001 68.3656Z" fill="#FECD27"/>
<path d="M45.4614 56.4766C44.6076 56.6394 43.7211 56.7236 42.8174 56.7236H42.4635C41.6926 60.8166 41.4155 64.4783 41.4794 67.7642C41.5057 69.1647 41.5974 70.4948 41.7393 71.7602C39.3402 73.3212 35.5524 73.7656 32.7988 73.8687C33.3353 73.8885 33.8361 73.8982 34.2759 73.8982C36.974 73.8982 41.8269 73.6257 44.6928 71.7602C44.5521 70.4948 44.4601 69.1647 44.4332 67.7642C44.3684 64.4115 44.6552 60.6704 45.4614 56.4766Z" fill="#F39314"/>
<path d="M34.2743 70.7471C31.6369 70.7471 26.9454 70.4825 24.059 68.7275C24.014 69.5729 23.9459 70.3942 23.8574 71.1881H23.86C26.7259 73.0525 31.5772 73.325 34.2743 73.325C36.9724 73.325 41.8262 73.0525 44.6922 71.1881C44.6027 70.3951 44.5365 69.5729 44.4915 68.7284C41.6041 70.4825 36.9118 70.7471 34.2743 70.7471Z" fill="#FEFEFE"/>
<path d="M37.8209 73.8989C39.7601 73.8989 42.8105 73.7543 45.4389 72.9827C45.3825 72.5817 45.33 72.1756 45.2842 71.7617C42.886 73.3219 39.0982 73.766 36.3438 73.8694C36.8802 73.8892 37.3817 73.8989 37.8209 73.8989Z" fill="#FEFEFE"/>
<path d="M27.4072 71.7612H27.4046C27.5258 70.6785 27.6078 69.5464 27.6464 68.3666C27.7627 64.9307 27.4963 61.068 26.6795 56.7239H26.3256C25.4219 56.7239 24.5386 56.6404 23.6816 56.4775C24.5354 60.9235 24.8099 64.8654 24.6919 68.3666C24.6534 69.5464 24.5707 70.6785 24.4502 71.7612H24.4527C27.3187 73.6268 32.1699 73.8984 34.867 73.8984C35.3071 73.8984 35.8086 73.8896 36.3444 73.8691C33.5915 73.7658 29.8061 73.3226 27.4072 71.7612Z" fill="#FEFEFE"/>
<path d="M34.2743 56.7246H39.6073C39.6073 59.5806 37.2207 61.8957 34.2743 61.8957C31.3289 61.8957 28.9414 59.5806 28.9414 56.7246H34.2743Z" fill="#A3D3F2"/>
<path d="M34.2751 63.0411C30.6822 63.0411 27.7598 60.2074 27.7598 56.7244C27.7598 56.0911 28.2891 55.5781 28.9419 55.5781C29.595 55.5781 30.1234 56.0911 30.1234 56.7244C30.1234 58.9433 31.9858 60.7492 34.2751 60.7492C36.5634 60.7492 38.4256 58.9433 38.4256 56.7244C38.4256 56.0911 38.9549 55.5781 39.6071 55.5781C40.2601 55.5781 40.7894 56.0911 40.7894 56.7244C40.7894 60.2074 37.8668 63.0411 34.2751 63.0411Z" fill="#173A4F"/>
<path d="M14.7053 74.9997C13.273 74.9997 11.9678 74.6995 10.9412 74.1061C9.12896 73.0564 8.1103 71.3262 8.40619 69.7993C8.62241 68.6783 9.57371 67.2285 12.874 66.6866C16.3937 66.1106 21.6612 60.7003 21.9104 56.4125C21.9473 55.7817 22.5052 55.2971 23.1566 55.3329C23.8079 55.3687 24.307 55.9106 24.27 56.5422C23.9553 61.9547 17.7048 68.2207 13.2681 68.9461C11.523 69.2327 10.8118 69.7928 10.7289 70.2218C10.6226 70.7724 11.2485 71.6138 12.1531 72.138C13.4114 72.8659 15.5033 72.9017 17.6131 72.2304C20.139 71.4255 22.2077 69.7746 23.0115 67.9218C23.1894 67.5063 23.6114 67.2149 24.1037 67.2149C24.7566 67.2149 25.2859 67.7282 25.2859 68.3612C25.2859 68.524 25.2492 68.6839 25.1819 68.8301C24.0989 71.3055 21.5474 73.3895 18.3505 74.4078C17.1058 74.8035 15.8644 74.9997 14.7053 74.9997Z" fill="#173A4F"/>
<path d="M59.4099 66.6957C59.412 71.0707 49.1877 70.8367 45.0566 66.1942C45.1089 63.3237 45.421 60.1872 46.0809 56.7373C52.8033 65.4442 59.4081 62.3928 59.4099 66.6957Z" fill="#C8E8FB"/>
<path d="M54.1957 70.9685C50.6977 70.97 46.5326 69.6085 44.1618 66.9439C43.7356 66.4644 43.7908 65.7407 44.2848 65.3281C44.7795 64.9139 45.5251 64.9666 45.9515 65.4465C48.5099 68.3221 53.8508 69.3405 56.7376 68.2994C58.2282 67.7618 58.228 66.9601 58.2278 66.6964C58.2273 65.6668 57.7981 65.4335 55.6066 64.698C52.9961 63.8219 49.0527 62.4987 45.1342 57.4244C44.7431 56.9184 44.8502 56.1996 45.3718 55.821C45.895 55.4411 46.635 55.544 47.0268 56.0516C50.5103 60.5617 53.9019 61.701 56.38 62.5327C58.5453 63.2585 60.5904 63.9451 60.5916 66.6955C60.5925 68.3854 59.4884 69.7531 57.5619 70.4474C56.5983 70.7948 55.4394 70.9678 54.1957 70.9685Z" fill="#173A4F"/>
<path d="M31.6667 64.8382C31.6667 65.7241 30.9261 66.4423 30.0117 66.4423C29.0981 66.4423 28.3574 65.7241 28.3574 64.8382C28.3574 63.9525 29.0981 63.2334 30.0117 63.2334C30.9261 63.2334 31.6667 63.9525 31.6667 64.8382Z" fill="#F39314"/>
<path d="M36.9382 68.0462C36.9382 68.9319 36.1976 69.651 35.2839 69.651C34.3705 69.651 33.6289 68.9319 33.6289 68.0462C33.6289 67.1603 34.3705 66.4414 35.2839 66.4414C36.1976 66.4414 36.9382 67.1603 36.9382 68.0462Z" fill="#F39314"/>
<path d="M41.2635 64.2425C41.2635 65.1282 40.5228 65.8472 39.6085 65.8472C38.6948 65.8472 37.9551 65.1282 37.9551 64.2425C37.9551 63.3565 38.6948 62.6377 39.6085 62.6377C40.5228 62.6377 41.2635 63.3565 41.2635 64.2425Z" fill="#F39314"/>
<path d="M24.8521 57.3291C25.2031 59.6753 25.4225 61.9829 25.5108 64.2358C25.6042 66.6207 25.5503 68.9403 25.3506 71.1763C27.824 72.1453 31.0128 72.6529 34.2534 72.6624C37.4245 72.6716 40.6205 72.2039 43.219 71.2265C42.9979 68.9653 42.9802 66.6182 43.117 64.2966C43.2591 61.887 43.5687 59.5048 43.99 57.2767L24.8521 57.3291ZM23.3072 64.311C23.2076 61.762 22.9312 59.1285 22.4779 56.4362C22.4697 56.3801 22.4648 56.3227 22.4648 56.2644C22.4648 55.6744 22.9581 55.196 23.5666 55.196L45.266 55.1366C45.3605 55.1312 45.4574 55.1377 45.5544 55.1573C46.1509 55.2776 46.5341 55.8442 46.4101 56.4225C45.8777 58.9103 45.4839 61.6438 45.3206 64.4137C45.1747 66.8894 45.213 69.3961 45.501 71.7839C45.5526 72.2352 45.3034 72.6869 44.8531 72.8817C41.8487 74.187 38.0198 74.8099 34.2534 74.7991C30.4148 74.7876 26.6077 74.1172 23.7701 72.8398C23.3228 72.6678 23.0288 72.2237 23.0801 71.7366C23.3311 69.3555 23.4075 66.8718 23.3072 64.311Z" fill="#173A4F"/>
<path d="M65.0941 1.76666L65.0851 1.78108C64.8614 1.65474 64.6099 1.57524 64.3256 1.54034C60.2166 1.04219 52.0119 18.4709 52.0119 26.7222C52.0119 31.2823 53.1555 33.5631 54.2987 35.6462C54.9253 36.7831 55.5514 37.8636 55.9887 39.2238V39.2269C56.3517 40.3527 56.5854 41.6715 56.5854 43.3724C56.5854 49.8701 51.8022 55.2812 45.4613 56.4761C44.6076 56.639 43.7211 56.7232 42.8181 56.7232H25.7344C24.8298 56.7232 23.9466 56.639 23.0905 56.4761C18.9365 55.6945 15.4495 53.0981 13.5411 49.5756C12.5333 47.7212 11.9664 45.6127 11.9664 43.3724C11.9664 41.6595 12.2024 40.3329 12.5693 39.204C13.0062 37.8525 13.6295 36.7776 14.2531 35.6462C14.9857 34.314 15.7156 32.9015 16.1467 30.8621C16.3924 29.7133 16.5399 28.366 16.5399 26.7222C16.5399 18.4709 8.33516 1.04219 4.22549 1.54034C3.93866 1.57524 3.68459 1.65789 3.46023 1.78333L3.45117 1.76982C6.73658 -0.184472 14.7497 2.3371 18.8652 10.5128C23.2854 19.3019 22.7651 25.1722 32.6216 25.7395C33.1411 25.7712 33.6941 25.7847 34.2759 25.7847C45.8545 25.7847 45.0337 19.7692 49.689 10.5128C53.7995 2.34273 61.8085 -0.181318 65.0941 1.76666Z" fill="#C8E8FB"/>
<path d="M55.9876 39.225C55.5503 37.8641 54.9241 36.7845 54.2975 35.6468C53.2791 33.7918 52.263 31.7756 52.0524 28.1346C51.0339 28.0035 50.0378 27.8033 49.0693 27.5371C49.1971 31.5626 52.1787 35.8655 52.1787 43.9522C52.1787 49.8144 46.1256 55.5894 34.2748 55.5894C33.4045 55.5894 40.7662 56.7237 39.8618 56.7237H42.8169C43.7199 56.7237 44.6064 56.6404 45.4602 56.4776C51.8018 55.2827 56.5849 49.8709 56.5849 43.3739C56.5849 41.672 56.3506 40.3539 55.9876 39.2284V39.225Z" fill="#A3D3F2"/>
<path d="M65.0849 1.78049C68.1696 3.483 65.7795 13.2571 61.5723 19.8981C57.2552 26.7106 54.585 31.123 55.9878 39.2241C55.5503 37.8632 54.9251 36.7836 54.2985 35.6459C53.1546 33.5634 52.0117 31.2826 52.0117 26.7225C52.0117 18.4712 60.2164 1.04161 64.3254 1.53975C64.6097 1.57466 64.8612 1.65505 65.0849 1.78049Z" fill="#F7C8D7"/>
<path d="M55.7995 32.4777C55.3062 31.0096 54.9653 29.2062 54.9653 26.7227C54.9653 19.5113 61.2339 5.28649 65.5575 2.1517C65.4168 2.00464 65.2609 1.8774 65.0849 1.78057C64.8612 1.65513 64.6097 1.57564 64.3254 1.54073C60.2164 1.04259 52.0117 18.4713 52.0117 26.7227C52.0117 31.2828 53.1546 33.5636 54.2985 35.646C54.9251 36.7835 55.5503 37.8633 55.9878 39.2242C55.5463 36.6725 55.5094 34.4869 55.7995 32.4777Z" fill="#F0879E"/>
<path d="M16.5397 26.7226C16.5397 31.2829 15.3959 33.5637 14.2523 35.6459C13.6294 36.778 13.0061 37.8529 12.5685 39.2043C13.9606 31.1144 11.2953 26.7059 6.98149 19.8984C2.77428 13.2637 0.384191 3.49749 3.46011 1.78395C3.68447 1.65828 3.93855 1.57586 4.22538 1.54073C8.33505 1.04259 16.5397 18.4715 16.5397 26.7226Z" fill="#F7C8D7"/>
<path d="M10.5278 19.8984C6.55726 13.6374 4.20829 4.59085 6.54008 2.15193C5.91742 1.70063 5.334 1.47723 4.81632 1.54097C4.53018 1.57587 4.27634 1.65852 4.05175 1.78396C0.976066 3.49683 3.36615 13.2631 7.57335 19.8984C11.8869 26.7053 14.5515 31.1145 13.1604 39.2046C13.5977 37.8531 14.2206 36.7783 14.8439 35.6462C15.3651 34.6976 15.8853 33.7036 16.2983 32.4747C15.6659 28.1042 13.4848 24.5643 10.5278 19.8984Z" fill="#FEFEFE"/>
<path d="M37.8203 25.7855C49.3998 25.7855 48.5781 19.7698 53.2343 10.5129C56.0568 4.90161 60.7188 1.95419 64.4271 1.28917C60.6689 0.450975 53.9341 3.24909 50.2798 10.5129C45.8341 19.3495 46.3806 25.2334 36.3652 25.7482C36.8281 25.772 37.3107 25.7855 37.8203 25.7855Z" fill="#FEFEFE"/>
<path d="M17.0856 49.576C16.0786 47.7217 15.5109 45.6141 15.5109 43.3729C15.5109 41.66 15.7469 40.3333 16.1132 39.2044C16.5505 37.853 17.1741 36.779 17.7977 35.6467C18.5302 34.3144 19.2601 32.9026 19.6919 30.8625C19.936 29.7138 20.0844 28.3671 20.0844 26.7227C20.0844 18.4722 11.8797 1.04259 7.7698 1.54073C7.48321 1.57564 7.22912 1.65918 7.00453 1.78462L6.9964 1.77021C7.36173 1.55267 7.78861 1.39457 8.25984 1.28895C6.56627 0.985384 5.07105 1.15789 4.04102 1.77021L4.05008 1.78462C4.27466 1.65918 4.52852 1.57564 4.81535 1.54073C8.92502 1.04259 17.13 18.4722 17.13 26.7227C17.13 28.3671 16.9825 29.7138 16.7365 30.8625C16.3057 32.9026 15.5755 34.3144 14.8432 35.6467C14.2196 36.779 13.596 37.853 13.1594 39.2044C12.7924 40.3333 12.5565 41.66 12.5565 43.3729C12.5565 45.6141 13.1234 47.7217 14.1311 49.576C16.0393 53.0995 19.5263 55.6949 23.6803 56.4775C24.5366 56.6403 25.4199 56.7237 26.3243 56.7237H29.2787C28.3744 56.7237 27.4911 56.6403 26.6348 56.4775C22.4801 55.6949 18.9947 53.0995 17.0856 49.576Z" fill="#FEFEFE"/>
<path d="M26.7512 42.7232C26.0245 42.6034 25.442 42.446 24.9448 42.4174C24.4483 42.38 24.0664 42.4303 23.4839 42.5127C22.9038 42.5915 22.169 42.7638 21.4011 42.9505C21.0144 43.0372 20.6015 43.111 20.1804 43.095C19.7617 43.0815 19.3494 42.9838 18.9915 42.8235C18.8424 42.7575 18.7769 42.5859 18.8457 42.4413C18.903 42.319 19.0373 42.2553 19.1676 42.2769L19.1725 42.2776C19.8207 42.3888 20.3901 42.1767 20.9276 41.836C21.4757 41.4903 21.9625 40.9334 22.7194 40.5276C23.0954 40.3289 23.5478 40.1835 24.0279 40.1398C24.5079 40.097 25.0054 40.1477 25.4518 40.2844C26.3474 40.5704 27.0267 41.1162 27.451 41.8002C27.6329 42.094 27.5353 42.4746 27.2322 42.651C27.0964 42.7305 26.9414 42.755 26.7963 42.7314L26.7512 42.7232Z" fill="#173A4F"/>
<path d="M22.6089 42.1353C22.304 42.2035 21.9886 42.2512 21.6625 42.2569C21.3374 42.2616 20.9964 42.2226 20.6696 42.1067C20.3443 41.9916 20.0412 41.7898 19.8231 41.5331C19.602 41.2781 19.4701 40.9802 19.3939 40.6886C19.3537 40.5345 19.4497 40.3787 19.6078 40.3391C19.7486 40.3041 19.8921 40.374 19.9501 40.4978L19.9534 40.505C20.0551 40.7212 20.191 40.9079 20.3566 41.0381C20.5222 41.17 20.7121 41.248 20.9177 41.2813C21.3306 41.348 21.8002 41.2311 22.2427 41.0453C22.5434 40.9199 22.8932 41.0532 23.0235 41.3448C23.1538 41.6364 23.0154 41.9756 22.7146 42.1019C22.6818 42.1154 22.6491 42.1258 22.6164 42.1337L22.6089 42.1353Z" fill="#173A4F"/>
<path d="M41.1014 41.8002C41.5257 41.1161 42.205 40.5704 43.1006 40.2844C43.547 40.1478 44.0452 40.0969 44.5254 40.1399C45.0055 40.1836 45.457 40.3288 45.833 40.5274C46.5901 40.9335 47.0767 41.4904 47.6248 41.8358C48.1622 42.1768 48.7317 42.3889 49.3799 42.2783L49.3848 42.2777C49.5478 42.2497 49.7011 42.3547 49.7297 42.5121C49.7543 42.6438 49.6814 42.7711 49.5609 42.8235C49.203 42.9839 48.7916 43.0816 48.3722 43.0951C47.9518 43.1111 47.538 43.037 47.1513 42.9505C46.3837 42.7638 45.6495 42.5913 45.0694 42.5128C44.4869 42.4301 44.1041 42.3801 43.6085 42.4175C43.1103 42.4461 42.5279 42.6033 41.8012 42.7233L41.7577 42.7312C41.4094 42.7884 41.0793 42.5621 41.0187 42.2245C40.9925 42.0727 41.0252 41.9225 41.1014 41.8002Z" fill="#173A4F"/>
<path d="M46.3097 41.045C46.7522 41.2308 47.2218 41.3477 47.6347 41.2808C47.8402 41.2475 48.0305 41.1696 48.1958 41.0378C48.3614 40.9074 48.4975 40.7207 48.599 40.5048L48.6023 40.4985C48.6703 40.3537 48.8464 40.2902 48.9938 40.3562C49.1267 40.4149 49.1938 40.5564 49.1585 40.6883C49.0823 40.9797 48.9504 41.2776 48.7293 41.5328C48.5122 41.7902 48.2081 41.9911 47.883 42.1064C47.556 42.2223 47.2153 42.2613 46.8899 42.2563C46.5638 42.2516 46.2484 42.2032 45.9435 42.135L45.9395 42.1334C45.62 42.0618 45.4216 41.7528 45.4962 41.4429C45.57 41.1331 45.8887 40.9408 46.2082 41.0124C46.2426 41.0203 46.2786 41.0322 46.3097 41.045Z" fill="#173A4F"/>
<path d="M36.758 43.2101C36.5522 42.3505 35.0194 42.337 34.1853 42.3989C33.3511 42.4601 31.838 42.6968 31.7683 43.5771C31.6798 44.6925 33.8052 46.3784 34.4926 46.3282C35.1799 46.2775 37.0177 44.3 36.758 43.2101Z" fill="#173A4F"/>
<path d="M35.4852 43.7743L35.4444 44.6634C35.4002 44.9699 35.3731 45.2678 35.305 45.5761C35.1708 46.1862 34.9488 46.837 34.4791 47.4257C34.354 47.5694 34.2392 47.714 34.0704 47.8324L33.8335 48.0128C33.7485 48.0644 33.6549 48.109 33.5648 48.1542C33.2043 48.34 32.7946 48.4044 32.4154 48.4035C31.6517 48.3639 30.9798 48.0986 30.4579 47.5036C30.2482 47.2652 30.2784 46.9062 30.5244 46.7035C30.739 46.5263 31.0469 46.5256 31.2618 46.6859L31.3486 46.7512C31.4608 46.8355 31.6403 46.9116 31.818 46.9562C32.0024 46.9974 32.1901 46.999 32.3538 46.9719C32.6857 46.9046 32.8792 46.7226 33.0273 46.4398C33.169 46.1482 33.2477 45.7509 33.2542 45.3156C33.2607 45.1012 33.2347 44.8659 33.2289 44.6458L33.1291 43.9475L33.1191 43.8799C33.029 43.2492 33.4837 42.6668 34.1342 42.5794C34.7848 42.492 35.3854 42.9323 35.4755 43.5638C35.4853 43.6322 35.4887 43.7068 35.4852 43.7743Z" fill="#173A4F"/>
<path d="M35.4849 43.7739L35.4956 44.4785C35.5234 44.697 35.5351 44.933 35.5734 45.1451C35.6479 45.575 35.7873 45.9554 35.974 46.2232C36.1633 46.4806 36.383 46.6333 36.7221 46.6506C36.8884 46.6531 37.0728 46.6245 37.2481 46.5569C37.4177 46.4869 37.5833 46.3844 37.6815 46.2851L37.7561 46.2081C37.9797 45.9808 38.3511 45.9739 38.5845 46.1898C38.7884 46.3781 38.8214 46.676 38.6779 46.9001C38.2552 47.5642 37.6316 47.9241 36.8835 48.0743C36.5084 48.1306 36.0939 48.1268 35.7079 47.9957C35.6119 47.964 35.5128 47.9338 35.4203 47.8955L35.1581 47.7525C34.9737 47.6595 34.8369 47.5334 34.6901 47.4093C34.1355 46.897 33.8143 46.286 33.5874 45.7021C33.472 45.4073 33.399 45.1165 33.3073 44.8195L33.1287 43.9471C33 43.3219 33.4186 42.715 34.0635 42.5909C34.7075 42.4662 35.3335 42.8715 35.4621 43.4967C35.4751 43.5642 35.4833 43.6325 35.4842 43.6994L35.4849 43.7739Z" fill="#173A4F"/>
<path d="M4.39637 2.67632C4.38406 2.67632 4.37663 2.67699 4.37175 2.67789C4.24726 2.69298 4.14322 2.72473 4.05218 2.77563C3.70891 2.96705 3.52125 3.451 3.42301 3.82191C2.59062 6.99656 4.68134 14.0823 7.98836 19.2988C11.1288 24.2536 13.6179 28.1816 14.0522 33.4695C14.7485 31.9409 15.3572 29.9199 15.3572 26.723C15.3572 19.7611 9.43272 6.63669 5.56715 3.32782C4.8625 2.72473 4.49554 2.67632 4.39637 2.67632ZM34.2756 57.8695H25.7341C24.7608 57.8695 23.7946 57.779 22.8624 57.6011C15.8644 56.2823 10.7837 50.2976 10.7837 43.3731C10.7837 41.7319 10.9911 40.2802 11.4164 38.9401C12.674 31.5096 10.411 27.499 5.97521 20.4991C2.32261 14.7385 0.149677 7.00376 1.13303 3.25711C1.43867 2.09327 2.02347 1.26296 2.87165 0.791165C3.23442 0.586908 3.64248 0.455841 4.08004 0.403369C5.03204 0.28649 6.06045 0.693428 7.13136 1.60932C11.7833 5.59108 17.721 19.6738 17.721 26.723C17.721 31.3817 16.574 33.8564 15.2959 36.185L15.1352 36.4757C14.5954 37.4513 14.0849 38.3744 13.7194 39.4763C13.7054 39.5391 13.685 39.601 13.6613 39.6591C13.3155 40.7674 13.1476 41.9837 13.1476 43.3731C13.1476 49.2029 17.4235 54.2413 23.3155 55.352C24.1003 55.5013 24.9138 55.5776 25.7341 55.5776H34.2756C34.9285 55.5776 35.4571 56.09 35.4571 56.7232C35.4571 57.3556 34.9285 57.8695 34.2756 57.8695Z" fill="#173A4F"/>
<path d="M34.2763 26.932C24.4303 26.932 22.6664 22.5665 20.2247 16.5239C19.5587 14.8745 18.8025 13.0044 17.8029 11.0166C15.6989 6.83617 12.1798 3.70205 8.38953 2.63189C6.6379 2.1369 5.02214 2.18059 4.06921 2.74787C3.51298 3.07914 2.78533 2.90912 2.44369 2.36976C2.10298 1.8295 2.27741 1.12485 2.83388 0.793579C4.36835 -0.119386 6.63372 -0.251129 9.05004 0.43213C13.4695 1.67929 17.5358 5.26066 19.9275 10.0108C20.9686 12.0836 21.743 13.9982 22.4256 15.6888C24.8335 21.6488 26.0428 24.6399 34.2763 24.6399C34.9285 24.6399 35.4578 25.154 35.4578 25.7864C35.4578 26.4187 34.9285 26.932 34.2763 26.932Z" fill="#173A4F"/>
<path d="M64.1547 2.67642C64.0565 2.67642 63.6893 2.72484 62.984 3.32793C59.1191 6.63679 53.1937 19.7612 53.1937 26.7231C53.1937 29.9216 53.8027 31.9425 54.5006 33.4719C54.9349 28.1855 57.4248 24.2553 60.5653 19.2989C63.8763 14.0736 65.9647 6.98157 65.1265 3.81413C65.0282 3.44458 64.8406 2.964 64.5013 2.77731C64.4063 2.72416 64.3039 2.69308 64.1794 2.678C64.1752 2.6771 64.1678 2.67642 64.1547 2.67642ZM55.9877 40.3709C55.4814 40.3709 55.0175 40.054 54.8603 39.5662C54.4931 38.4245 53.9696 37.4784 53.4166 36.4758L53.2562 36.1867C51.9779 33.8572 50.8301 31.3818 50.8301 26.7231C50.8301 19.6739 56.7685 5.59119 61.4198 1.60942C62.4907 0.693534 63.5165 0.287498 64.4734 0.404377C64.9109 0.456623 65.3165 0.586113 65.6771 0.789469C66.5209 1.25428 67.1076 2.08212 67.4149 3.2437C68.4054 6.98562 66.2366 14.726 62.5792 20.4985C58.4957 26.9447 55.7977 31.2021 57.1545 39.0354C57.2569 39.6297 56.8677 40.1993 56.2629 40.3391C56.1711 40.3607 56.0794 40.3709 55.9877 40.3709Z" fill="#173A4F"/>
<path d="M58.3104 40.3737C57.6575 40.3737 57.1289 39.8605 57.1289 39.2281C57.1289 38.5949 57.6575 38.0801 58.3104 38.0801C58.9635 38.0801 59.4918 38.5924 59.4918 39.225V39.2281C59.4918 39.8605 58.9635 40.3737 58.3104 40.3737Z" fill="#173A4F"/>
<path d="M42.8167 57.8696H34.2761C33.6231 57.8696 33.0938 57.3564 33.0938 56.724C33.0938 56.0907 33.6231 55.5775 34.2761 55.5775H42.8167C43.6402 55.5775 44.4529 55.5021 45.233 55.3528C51.128 54.2421 55.4033 49.2043 55.4033 43.373C55.4033 41.9454 55.2263 40.7021 54.86 39.57C54.6659 38.9663 55.0124 38.3226 55.636 38.1337C56.2596 37.9445 56.9215 38.2814 57.1166 38.8852C57.5541 40.2422 57.7671 41.7103 57.7671 43.373C57.7671 50.2993 52.6864 56.2831 45.6868 57.6018C44.7601 57.7791 43.7935 57.8696 42.8167 57.8696Z" fill="#173A4F"/>
<path d="M34.2754 26.9315C33.6223 26.9315 33.0938 26.4182 33.0938 25.7859C33.0938 25.1535 33.6223 24.6394 34.2754 24.6394C42.508 24.6394 43.7173 21.6492 46.126 15.6899C46.8093 13.9993 47.5845 12.0831 48.6266 10.011C51.0142 5.26513 55.0755 1.68512 59.4924 0.433901C61.8907 -0.245305 64.1414 -0.122121 65.6752 0.768323C66.0365 0.964698 66.2816 1.33966 66.2816 1.77024C66.2816 2.4026 65.7514 2.91584 65.1001 2.91584C64.9132 2.91584 64.7306 2.87282 64.5666 2.79265C64.5362 2.77847 64.5067 2.76158 64.4772 2.74491C63.5236 2.17943 61.9071 2.13799 60.1546 2.63456C56.3668 3.70719 52.851 6.84041 50.7512 11.0161C49.75 13.0055 48.9938 14.8756 48.3268 16.5256C45.8845 22.5675 44.1203 26.9315 34.2754 26.9315Z" fill="#173A4F"/>
<path d="M47.6166 45.1621C45.9843 45.1621 44.6621 45.8042 44.6621 46.5953C44.6621 47.3857 45.9843 48.0269 47.6166 48.0269C49.2479 48.0269 50.5702 47.3857 50.5702 46.5953C50.5702 45.8042 49.2479 45.1621 47.6166 45.1621Z" fill="#F0879E"/>
<path d="M20.9352 45.1621C19.3029 45.1621 17.9805 45.8042 17.9805 46.5953C17.9805 47.3857 19.3029 48.0269 20.9352 48.0269C22.5663 48.0269 23.8896 47.3857 23.8896 46.5953C23.8896 45.8042 22.5663 45.1621 20.9352 45.1621Z" fill="#F0879E"/>
<path fill-rule="evenodd" clip-rule="evenodd" d="M20.1152 18.3203H48.5062V32.8592C39.2159 36.1629 29.6103 35.8765 20.1152 32.8592V18.3203Z" fill="#FEFEFE"/>
<path d="M20.116 17.248H48.5069C49.1177 17.248 49.6131 17.7284 49.6131 18.3207V32.8596C49.6131 33.3451 49.2801 33.7555 48.8235 33.8877C44.1759 35.5321 39.4547 36.3038 34.7106 36.3038C29.739 36.3038 24.7408 35.4559 19.7746 33.8777C19.3082 33.7309 19.0119 33.3109 19.0119 32.8596L19.0098 18.3207C19.0098 17.7284 19.5052 17.248 20.116 17.248ZM47.4007 19.3933H21.2222V32.0782C25.7132 33.4332 30.2253 34.1586 34.7106 34.1586C38.9793 34.1586 43.2234 33.501 47.4007 32.1043V19.3933Z" fill="#173A4F"/>
<path fill-rule="evenodd" clip-rule="evenodd" d="M22.9023 17.1201H47.4206L47.1883 30.2986C39.2616 33.1802 30.9584 33.1393 22.9023 30.2986V17.1201Z" fill="#F39314"/>
<path fill-rule="evenodd" clip-rule="evenodd" d="M22.8789 17.1055H47.3971V30.284C46.8243 30.4724 46.2507 30.6479 45.6763 30.8112V18.6546H22.8789V17.1055Z" fill="#E85222"/>
<path d="M32.6576 13.4945L7.84152 21.2616C6.92803 21.5475 7.17487 22.0883 8.39286 22.4695L32.1062 29.8915C33.3242 30.2728 35.0521 30.35 35.9656 30.0641L60.7817 22.297C61.6952 22.0111 61.4484 21.4703 60.2304 21.089L36.517 13.667C35.299 13.2858 33.5711 13.2086 32.6576 13.4945Z" fill="#FEFEFE"/>
<path d="M7.13026 20.357L32.6759 12.3615C33.1685 12.2075 33.8987 12.1699 34.6775 12.2339C35.3956 12.2929 36.1811 12.4354 36.8585 12.6476L60.5725 20.0697C61.2592 20.2848 61.7806 20.5564 62.0904 20.8327C62.1239 20.8624 62.155 20.8935 62.1836 20.9261C62.3738 21.1198 62.502 21.3349 62.5642 21.5664C62.6773 21.9834 62.5905 22.3692 62.2934 22.7093C62.1048 22.9239 61.8382 23.0926 61.4931 23.2004L35.9474 31.1959C35.455 31.35 34.7269 31.3876 33.951 31.3243L33.9431 31.3236C33.2257 31.2644 32.4416 31.1216 31.765 30.9099L8.05114 23.4878C7.3646 23.2729 6.84296 23.0011 6.53314 22.7248C6.4997 22.6951 6.46857 22.6638 6.43978 22.6313C6.24979 22.4377 6.1216 22.2224 6.05935 21.9911C5.94625 21.5745 6.03381 21.1862 6.33016 20.8482C6.51898 20.6334 6.78536 20.4649 7.13026 20.357ZM33.369 14.3978L9.78557 21.7792L32.4483 28.8723C32.9802 29.0385 33.5843 29.1504 34.1291 29.1957L34.1349 29.1962C34.6254 29.2362 35.0384 29.2272 35.2544 29.1597L58.838 21.7783L36.1752 14.6852C35.6404 14.5178 35.0323 14.4059 34.4847 14.3611C33.9967 14.3212 33.5852 14.3302 33.369 14.3978Z" fill="#173A4F"/>
<path d="M33.1541 15.4894L15.7938 20.923C15.1548 21.123 15.3274 21.5013 16.1795 21.768L32.7684 26.9602C33.6205 27.2269 34.8292 27.281 35.4683 27.0809L52.8286 21.6473C53.4676 21.4473 53.2949 21.069 52.4429 20.8023L35.854 15.6101C35.0019 15.3434 33.7931 15.2894 33.1541 15.4894Z" fill="#FECD27"/>
<path d="M62.5866 42.1464C62.5866 42.7387 62.0963 43.219 61.4915 43.219C60.8868 43.219 60.3965 42.7387 60.3965 42.1464V21.5189C60.3965 20.9266 60.8868 20.4463 61.4915 20.4463C62.0963 20.4463 62.5866 20.9266 62.5866 21.5189V42.1464Z" fill="#173A4F"/>
<path fill-rule="evenodd" clip-rule="evenodd" d="M61.4918 30.5957C62.5263 30.5957 62.4798 32.4403 63.3166 33.0301C64.1537 33.6197 65.9488 33.0067 66.2686 33.9606C66.5881 34.9146 64.7643 35.442 64.4447 36.3957C64.1249 37.3499 65.281 38.8159 64.444 39.4055C63.6072 39.9953 62.5263 38.4761 61.4918 38.4761C60.4574 38.4761 59.3767 39.9953 58.5397 39.4055C57.7029 38.8162 58.8586 37.3499 58.539 36.3959C58.2194 35.442 56.3956 34.9148 56.7151 33.9606C57.035 33.0067 58.83 33.6199 59.6668 33.0301C60.5039 32.4405 60.4574 30.5957 61.4918 30.5957Z" fill="#FECD27"/>
<path d="M61.491 29.5234C62.8292 29.5234 63.2036 30.4517 63.594 31.4235C63.7278 31.7522 63.8653 32.0936 63.964 32.1632C64.0662 32.2353 64.4405 32.2562 64.8024 32.2763C65.8761 32.336 66.9029 32.3932 67.3177 33.63C67.7325 34.869 66.9379 35.4993 66.1069 36.1587C65.8238 36.3833 65.5312 36.6157 65.4938 36.7271C65.4555 36.8418 65.5512 37.1951 65.6436 37.5363L65.6547 37.5813C65.9225 38.5729 66.162 39.5192 65.0913 40.2731C64.0076 41.0372 63.1425 40.4986 62.2391 39.936C61.9336 39.7459 61.6175 39.5491 61.491 39.5491C61.3644 39.5491 61.0485 39.7459 60.7431 39.936C59.8392 40.4986 58.975 41.0372 57.8906 40.2731C56.8049 39.5081 57.0657 38.5443 57.3386 37.5363L57.3513 37.4933C57.4398 37.1661 57.5251 36.8382 57.4881 36.7274C57.4507 36.6159 57.1579 36.3833 56.875 36.1587C56.0442 35.5 55.2495 34.8686 55.6643 33.63C56.0791 32.3936 57.1058 32.336 58.1793 32.2763C58.5411 32.2562 58.9155 32.2353 59.0177 32.1632C59.119 32.0921 59.2553 31.7536 59.3865 31.4268C59.7774 30.454 60.152 29.5234 61.491 29.5234ZM61.5386 32.1981C61.2497 31.4784 61.7325 31.4782 61.4433 32.1979C61.1941 32.8181 60.9361 33.4595 60.3141 33.8977C59.6933 34.3351 58.985 34.3751 58.3001 34.413C57.486 34.4582 57.6465 34.0018 58.275 34.4999C58.8031 34.919 59.3494 35.3525 59.5881 36.0653C59.8204 36.7584 59.6536 37.4079 59.4841 38.0358L59.4729 38.0808C59.2681 38.8395 58.8596 38.5643 59.5508 38.1344C60.1272 37.7752 60.7238 37.4039 61.491 37.4039C62.2581 37.4039 62.8545 37.7754 63.4314 38.1344C64.045 38.5168 63.7043 38.8014 63.5092 38.0808C63.3353 37.4392 63.1562 36.7749 63.3938 36.0651C63.6325 35.3521 64.1788 34.9188 64.7069 34.4999C65.3352 34.0018 65.4966 34.4582 64.6816 34.413C63.9967 34.3751 63.2883 34.3351 62.6675 33.8977C62.043 33.4579 61.7866 32.819 61.5386 32.2022V32.1981Z" fill="#173A4F"/>
</svg>
